<svg width="48" height="48" viewBox="0 0 48 48" fill="none" xmlns="http://www.w3.org/2000/svg">
<g clip-path="url(#clip0_562_3)">
<path d="M8.52623 40.2584C5.85938 37.5765 5.87444 33.9754 8.49609 31.3689C10.3945 29.4855 12.6094 28.7472 16.0748 26.4721L7.60714 18.0195C5.3923 15.7896 5.37723 13.4241 7.54688 11.2545L9.67132 9.13002C11.841 6.96038 14.2215 6.96038 16.4515 9.19029L24.7684 17.5525C23.9699 14.6295 24.678 11.4202 26.923 9.19029C29.7104 6.37277 34.1551 5.93583 37.6507 8.12054L35.9481 9.8231L33.5073 12.2489C33.1306 12.6406 33.1607 13.1077 33.5675 13.5296L35.2701 15.2321C35.6769 15.639 36.144 15.6239 36.5357 15.2472L38.9766 12.8064H38.9615L40.6641 11.1038C42.8488 14.6295 42.4118 19.0742 39.6094 21.8767C37.0329 24.4531 33.1758 24.9955 29.9364 23.5491C29.1529 24.3326 28.4448 25.0709 27.7969 25.779L34.4866 32.4537L35.9933 32.5441C36.5206 32.5742 37.0631 32.9208 37.3493 33.4481L40.1367 38.3901C40.4079 38.9023 40.4682 39.3393 40.1367 39.6708L38.1027 41.7048C37.7561 42.0513 37.3192 41.9911 36.8371 41.7199L31.865 38.9174C31.3376 38.6311 30.9911 38.0887 30.9609 37.5915L30.8705 36.0698L24.4821 29.6814C20.3839 34.9548 19.7813 37.8778 17.4007 40.2885C14.8092 42.8951 11.1931 42.9102 8.52623 40.2584ZM31.7595 14.8404C30.6144 13.6953 30.5692 12.264 31.6842 11.149L33.7182 9.11495C31.8348 8.87388 29.9213 9.4615 28.5502 10.8326C26.0792 13.2734 26.1847 17.3867 28.7913 19.9933C31.4129 22.5848 35.4961 22.7054 37.952 20.2344C39.3382 18.8633 39.9107 16.9347 39.6696 15.0363L37.6055 17.1004C36.5357 18.1702 35.0893 18.1401 33.9593 17.01L31.7595 14.8404ZM18.591 19.1646C18.8622 19.4509 19.3443 19.4057 19.5854 19.1646C19.8717 18.8633 19.8717 18.4113 19.6004 18.1401L13.8147 12.3694C13.5285 12.0831 13.0915 12.0982 12.8354 12.3694C12.5491 12.6406 12.5642 13.0776 12.8354 13.3488L18.591 19.1646ZM16.5569 21.1685C16.8432 21.4548 17.2952 21.4548 17.5664 21.1685C17.8376 20.8973 17.8527 20.4754 17.5664 20.1892L11.7656 14.3884C11.5246 14.1323 11.0575 14.1172 10.7863 14.3884C10.5151 14.6747 10.5 15.1267 10.7712 15.4129L16.5569 21.1685ZM27.1339 21.6205C26.8778 21.3644 26.6367 21.0932 26.4107 20.8069C16.1802 30.7511 13.6791 29.6663 10.1987 33.1317C8.6317 34.7137 8.57143 36.8532 10.2288 38.5407C11.9163 40.2132 14.0709 40.1529 15.6529 38.5709C19.1183 35.1055 18.0184 32.6044 27.9777 22.3588C27.6914 22.1328 27.4051 21.8917 27.1339 21.6205ZM12.9107 37.697C11.9163 37.697 11.1177 36.8984 11.1177 35.904C11.1177 34.9247 11.9163 34.111 12.9107 34.111C13.8901 34.111 14.6886 34.9247 14.6886 35.904C14.6886 36.8984 13.8901 37.697 12.9107 37.697Z" fill="white"/>
</g>
<defs>
<clipPath id="clip0_562_3">
<rect width="48" height="48" fill="white"/>
</clipPath>
</defs>
</svg>
