<svg width="96" height="96" viewBox="0 0 96 96" fill="none" xmlns="http://www.w3.org/2000/svg">
<g clip-path="url(#clip0_622_6)">
<path d="M48 0V0.1L47.9334 0.26L48.0612 0.52L47.968 0.78L48.0996 1.04L48.04 1.3L47.9364 1.56L48.0993 1.82L47.92 2.08L47.9487 2.34L48.041 2.6L48.0999 2.86L47.972 3.12L48.0691 3.38L47.9066 3.64L47.947 3.9L48.088 4.16L48.0386 4.42L48.0806 4.68L48.0651 4.94L47.9292 5.2L48.043 5.46L47.9394 5.72L47.9855 5.98L48.0498 6.24L48.0348 6.5L47.9753 6.76L47.9799 7.02L47.9407 7.28L48.0134 7.54L47.9259 7.8L47.9212 8.06L48.0996 8.32L48.0054 8.58L48.0857 8.84L48.0915 9.1L47.8931 9.36L48.0414 9.62L48.0035 9.88L48.0832 10.14L47.9248 10.4L47.9444 10.66L48.0654 10.92L48.0015 11.18L48.0921 11.44L47.9365 11.7L48.0286 11.96L48.0644 12.22L47.9592 12.48L47.9336 12.74L47.9578 13L48.0859 13.26L48.088 13.52L47.9964 13.78L48.1017 14.04L48.0139 14.3L47.9142 14.56L47.9123 14.82L47.915 15.08L48.1006 15.34L47.9929 15.6L48.0965 15.86L48.0792 16.12L48.0164 16.38L47.9622 16.64L48.0157 16.9L47.9834 17.16L48.0847 17.42L48.0487 17.68L48.0075 17.94L47.9487 18.2L48.0621 18.46L47.9974 18.72L47.9261 18.98L47.9943 19.24L47.9984 19.5L47.9553 19.76L47.9638 20.02L47.9283 20.28L47.9618 20.54L48.0337 20.8L48.0305 21.06L47.9731 21.32L47.9558 21.58L48.0374 21.84L47.9612 22.1L47.8943 22.36L47.9959 22.62L48.0989 22.88L48.0999 23.14L47.9272 23.4L48.0347 23.66L48.0649 23.92L47.8983 24.18L48.0594 24.44L47.9664 24.7L47.8976 24.96L48.0009 25.22L47.9837 25.48L48.063 25.74L48.1054 26L47.8986 26.26L47.9403 26.52L48.047 26.78L47.9218 27.04L48.0636 27.3L47.959 27.56L48.1067 27.82L48.0457 28.08L48.0311 28.34L47.9842 28.6L48.1021 28.86L48.0752 29.12L47.8996 29.38L47.984 29.64L48.0001 29.9L47.9524 30.16L48.1036 30.42L47.9096 30.68L48.1057 30.94L48.0594 31.2L47.9685 31.46L48.0588 31.72L47.9759 31.98L48.0879 32.24L47.8935 32.5L48.0313 32.76L47.9398 33.02L47.9243 33.28L47.9617 33.54L48.0625 33.8L48.0045 34.06L47.9934 34.32L47.9952 34.58L48.0679 34.84L48.1019 35.1L47.9805 35.36L48.0819 35.62L48.0293 35.88L47.959 36.14L47.9753 36.4L48.1004 36.66L48.0128 36.92L48.0502 37.18L48.0081 37.44L48.0144 37.7L47.9571 37.96L48.0271 38.22L47.9173 38.48L48.0853 38.74L48.0712 39L48.0813 39.26L48.0486 39.52L48.0213 39.78L48.0683 40.04L48.0664 40.3L48.0962 40.56L47.9877 40.82L47.9253 41.08L48.0385 41.34L48.0397 41.6L47.9205 41.86L47.9201 42.12L47.9763 42.38L48.0057 42.64L48.0825 42.9L48.1085 43.16L47.9411 43.42L48.0781 43.68L48.0908 43.94L47.9778 44.2L47.948 44.46L48.0188 44.72L47.9169 44.98L47.9241 45.24L47.8989 45.5L47.9605 45.76L47.934 46.02L48.0248 46.28L48.0555 46.54L48.0246 46.8L47.9908 47.06L48.0772 47.32L48.0282 47.58L47.9922 47.84L47.9904 47.9937M47.9904 47.9937L47.9892 48.1L48.0872 48.36L47.958 48.62L47.9695 48.88L47.9419 49.14L48.0349 49.4L48.0788 49.66L48.0112 49.92L47.9817 50.18L47.9865 50.44L48.0829 50.7L47.9354 50.96L47.9732 51.22L47.9638 51.48L48.0703 51.74L47.9651 52L48.0384 52.26L47.9042 52.52L47.9519 52.78L48.0989 53.04L48.0474 53.3L47.9384 53.56L47.9335 53.82L48.0063 54.08L48.0273 54.34L47.9079 54.6L48.097 54.86L48.0558 55.12L47.9099 55.38L48.0407 55.64L48.0863 55.9L47.9848 56.16L47.9536 56.42L48.0492 56.68L48.0448 56.94L48.0247 57.2L48.0782 57.46L48.1024 57.72L47.9449 57.98L47.9906 58.24L47.8952 58.5L48.0207 58.76L48.0573 59.02L48.0646 59.28L48.0259 59.54L48.1012 59.8L48.0625 60.06L47.8923 60.32L48.0625 60.58L47.9787 60.84L47.9754 61.1L47.8972 61.36L48.0406 61.62L48.099 61.88L47.8993 62.14L47.9536 62.4L47.9292 62.66L48.0535 62.92L48.005 63.18L47.9952 63.44L47.8939 63.7L48.1079 63.96L47.9418 64.22L47.9035 64.48L48.0678 64.74L48.0768 65L48.0582 65.26L47.9445 65.52L47.9864 65.78L47.9667 66.04L48.0557 66.3L48.0793 66.56L47.9307 66.82L47.9897 67.08L47.9244 67.34L48.0424 67.6L47.9769 67.86L48.0546 68.12L47.98 68.38L48.1046 68.64L48.0948 68.9L47.9187 69.16L47.9987 69.42L47.9676 69.68L48.0423 69.94L48.0327 70.2L47.982 70.46L48.0738 70.72L48.0735 70.98L47.91 71.24L48.0918 71.5L48.0007 71.76L48.0219 72.02L47.9071 72.28L48.058 72.54L48.0081 72.8L48.0445 73.06L47.9473 73.32L48.0639 73.58L47.9451 73.84L47.8968 74.1L48.0086 74.36L48.0871 74.62L47.9712 74.88L47.9278 75.14L48.0228 75.4L47.944 75.66L47.9941 75.92L47.9431 76.18L48.0528 76.44L48.0429 76.7L48.1054 76.96L48.0369 77.22L48.0801 77.48L47.9743 77.74L48.0468 78L48.105 78.26L48.0888 78.52L47.94 78.78L47.919 79.04L48.0154 79.3L48.0912 79.56L47.9581 79.82L48.0712 80.08L48.0465 80.34L47.9151 80.6L48.0661 80.86L47.9242 81.12L47.9343 81.38L48.0325 81.64L48.0711 81.9L48.1035 82.16L48.0241 82.42L47.9196 82.68L47.9947 82.94L48.0993 83.2L47.9631 83.46L47.9836 83.72L48.1079 83.98L48.1034 84.24L47.9828 84.5L47.9724 84.76L48.0802 85.02L48.0208 85.28L47.9459 85.54L47.9361 85.8L48.0248 86.06L47.949 86.32L48.0614 86.58L48.1011 86.84L47.9146 87.1L47.9743 87.36L48.0818 87.62L47.9868 87.88L48.0081 88.14L48.0115 88.4L48.0423 88.66L48.0179 88.92L47.9112 89.18L48.0808 89.44L48.0121 89.7L48.0018 89.96L48.043 90.22L48.1022 90.48L47.9347 90.74L48.0685 91L48.0494 91.26L48.037 91.52L47.9131 91.78L48.0838 92.04L47.9064 92.3L48.0381 92.56L47.9003 92.82L48.0314 93.08L47.9957 93.34L47.9019 93.6L47.9995 93.86L48.0747 94.12L47.9973 94.38L47.9174 94.64L48.0036 94.9L47.9897 95.16L48.0132 95.42L48.0752 95.68L47.9252 95.94L48 96M47.9904 47.9937L47.84 48.0398L47.58 48.0326L47.32 48.0845L47.06 48.0552L46.8 48.0035L46.54 48.0133L46.28 48.0793L46.02 48.025L45.76 48.0951L45.5 47.9926L45.24 48.1055L44.98 48.0164L44.72 48.0548L44.46 47.9537L44.2 47.9474L43.94 48.0169L43.68 48.033L43.42 47.8975L43.16 47.9032L42.9 47.9531L42.64 48.1076L42.38 47.9074L42.12 47.969L41.86 47.9979L41.6 47.9061L41.34 47.8971L41.08 47.9844L40.82 48.0776L40.56 48.011L40.3 48.1005L40.04 48.1035L39.78 48.0308L39.52 47.9867L39.26 47.8982L39 48.051L38.74 48.0655L38.48 48.0921L38.22 47.9111L37.96 48.0547L37.7 47.9971L37.44 48.0211L37.18 48.0292L36.92 48.0389L36.66 48.0913L36.4 47.9448L36.14 47.9653L35.88 48.066L35.62 47.9694L35.36 48.0253L35.1 47.9167L34.84 47.971L34.58 47.963L34.32 47.8931L34.06 48.0964L33.8 47.9871L33.54 47.9102L33.28 48.0053L33.02 47.9168L32.76 48.1081L32.5 48.0529L32.24 47.9548L31.98 47.9001L31.72 48.04L31.46 47.9779L31.2 47.9983L30.94 48.028L30.68 47.9005L30.42 47.9521L30.16 48.0689L29.9 48.0678L29.64 47.8939L29.38 47.9369L29.12 48.0155L28.86 47.9733L28.6 48.053L28.34 48.1006L28.08 48.0209L27.82 47.8934L27.56 48.1021L27.3 47.9375L27.04 47.9682L26.78 48.0859L26.52 47.9795L26.26 47.9338L26 48.0148L25.74 47.9278L25.48 48.1097L25.22 48.0283L24.96 48.0252L24.7 48.0517L24.44 47.9118L24.18 48.0644L23.92 48.0352L23.66 47.9361L23.4 48.0774L23.14 48.0438L22.88 47.9333L22.62 47.9369L22.36 48.0024L22.1 48.0827L21.84 48.0707L21.58 47.9145L21.32 48.0696L21.06 48.0475L20.8 48.0597L20.54 47.9052L20.28 48.1063L20.02 48.0815L19.76 47.9095L19.5 47.9225L19.24 48.0725L18.98 47.983L18.72 48.0538L18.46 48.0678L18.2 47.9124L17.94 48.0443L17.68 48.0764L17.42 48.0634L17.16 48.019L16.9 47.916L16.64 47.9945L16.38 47.9535L16.12 47.9113L15.86 47.9327L15.6 48.0769L15.34 47.9275L15.08 48.0823L14.82 47.964L14.56 47.9701L14.3 47.968L14.04 47.9401L13.78 48.0497L13.52 47.9428L13.26 48.0808L13 47.9606L12.74 48.0547L12.48 47.8942L12.22 47.9159L11.96 47.9151L11.7 48.0551L11.44 48.0405L11.18 48.0115L10.92 48.07L10.66 48.0608L10.4 48.082L10.14 48.1096L9.88 48.1022L9.62 47.9093L9.36 47.892L9.1 47.9395L8.84 47.9314L8.58 48.0758L8.32 48.0812L8.06 47.9921L7.8 47.9813L7.54 47.9433L7.28 47.9078L7.02 48.0581L6.76 47.9129L6.5 47.9587L6.24 48.0658L5.98 47.9439L5.72 47.9772L5.46 48.0743L5.2 48.1052L4.94 48.0973L4.68 48.087L4.42 48.0232L4.16 48.0509L3.9 48.029L3.64 47.9338L3.38 48.0993L3.12 48.1013L2.86 48.0092L2.6 47.9272L2.34 48.0169L2.08 47.9275L1.82 48.002L1.56 47.987L1.3 47.8944L1.04 48.0742L0.78 48.0885L0.52 47.8902L0.26 48.0492L0.1 48H0M47.9904 47.9937L48.1 47.96L48.36 47.9842L48.62 48.0816L48.88 47.9829L49.14 48.0427L49.4 47.9333L49.66 48.0542L49.92 47.9815L50.18 48.0117L50.44 47.9282L50.7 48.0326L50.96 48.0798L51.22 48.0009L51.48 47.925L51.74 48.003L52 48.0522L52.26 48.0967L52.52 47.9283L52.78 47.9384L53.04 48.0662L53.3 48.1056L53.56 48.0587L53.82 47.9251L54.08 48.061L54.34 47.8977L54.6 47.8964L54.86 48.0435L55.12 48.0411L55.38 47.9641L55.64 47.9588L55.9 47.9114L56.16 47.8996L56.42 48.0532L56.68 47.9122L56.94 47.9615L57.2 47.9516L57.46 47.9434L57.72 47.8905L57.98 48.0744L58.24 47.8992L58.5 48.0959L58.76 47.9412L59.02 48.0009L59.28 47.9231L59.54 47.9853L59.8 48.0613L60.06 47.9523L60.32 48.0054L60.58 48.02L60.84 48.008L61.1 47.9278L61.36 47.9139L61.62 47.9283L61.88 47.9129L62.14 47.9024L62.4 48.0519L62.66 48.0422L62.92 47.9353L63.18 48.0097L63.44 47.9965L63.7 48.071L63.96 47.9017L64.22 47.9055L64.48 48.013L64.74 48.1005L65 48.1017L65.26 47.9824L65.52 47.9835L65.78 47.958L66.04 48.0849L66.3 48.0701L66.56 47.9103L66.82 48.0537L67.08 48.0894L67.34 47.9749L67.6 48.1066L67.86 48.0851L68.12 48.0961L68.38 48.0739L68.64 47.8902L68.9 48.0348L69.16 48.1058L69.42 48.0521L69.68 47.8962L69.94 48.0918L70.2 47.9003L70.46 48.0827L70.72 47.9328L70.98 47.9811L71.24 48.0994L71.5 48.0919L71.76 47.9685L72.02 47.9118L72.28 48.1054L72.54 48.0931L72.8 48.0666L73.06 47.9701L73.32 47.9364L73.58 48.0848L73.84 47.9575L74.1 48.0635L74.36 47.984L74.62 47.9837L74.88 47.9446L75.14 48.1018L75.4 47.9453L75.66 47.9561L75.92 48.1072L76.18 47.9999L76.44 47.9785L76.7 47.9998L76.96 47.9896L77.22 47.984L77.48 47.9935L77.74 48.0598L78 47.9472L78.26 48.0796L78.52 47.9909L78.78 48.0426L79.04 48.0268L79.3 48.0166L79.56 47.9076L79.82 47.9625L80.08 47.9472L80.34 48.076L80.6 48.0807L80.86 47.9915L81.12 47.9778L81.38 48.082L81.64 47.966L81.9 48.1064L82.16 47.9423L82.42 48.0278L82.68 48.0064L82.94 47.9072L83.2 48.0164L83.46 48.0412L83.72 48.0828L83.98 48.0697L84.24 47.9969L84.5 48.0004L84.76 47.9264L85.02 48.0365L85.28 48.0524L85.54 47.9857L85.8 48.0617L86.06 47.9697L86.32 47.957L86.58 47.9433L86.84 47.9027L87.1 47.9187L87.36 48.0822L87.62 48.0292L87.88 48.008L88.14 47.9975L88.4 47.8949L88.66 47.9872L88.92 47.8958L89.18 48.0354L89.44 47.893L89.7 48.0537L89.96 48.0469L90.22 47.9175L90.48 47.9116L90.74 48.0251L91 48.088L91.26 48.0207L91.52 47.9748L91.78 47.9422L92.04 48.0184L92.3 48.025L92.56 47.9104L92.82 48.0477L93.08 48.0975L93.34 48.02L93.6 48.0694L93.86 47.9497L94.12 48.0919L94.38 47.9108L94.64 47.9992L94.9 48.052L95.16 48.0314L95.42 47.9321L95.68 48.0654L95.94 47.971L96 48" stroke="#EAE2D6" stroke-linejoin="round"/>
</g>
<defs>
<clipPath id="clip0_622_6">
<rect width="96" height="96" fill="white"/>
</clipPath>
</defs>
</svg>
