<svg width="840" height="560" viewBox="0 0 840 560" fill="none" xmlns="http://www.w3.org/2000/svg">
<rect width="840" height="560" fill="#4285F4"/>
<g clip-path="url(#clip0_1703_1731)">
<path d="M291.308 132.305V134.083C291.36 136.776 292.069 139.416 293.372 141.773C294.676 144.13 296.535 146.134 298.789 147.609C311.711 136.1 329.035 131.473 345.763 126.965C346.222 122.775 345.602 118.537 343.962 114.654C342.321 110.771 339.716 107.371 336.392 104.779C333.037 102.217 329.069 100.581 324.884 100.034C322.205 98.9041 319.359 98.2228 316.459 98.0178C313.779 97.9378 311.11 98.3894 308.606 99.3465C306.101 100.304 303.811 101.747 301.868 103.594C298.9 106.323 296.657 109.748 295.342 113.559C293.964 111.101 291.723 109.241 289.053 108.339C287.574 107.839 285.986 107.752 284.46 108.086C282.935 108.421 281.529 109.164 280.394 110.237C279.55 110.994 278.968 112 278.734 113.109C278.499 114.218 278.624 115.373 279.089 116.407C279.078 117.52 279.384 118.614 279.972 119.559C280.56 120.505 281.405 121.263 282.409 121.745C283.657 122.249 285.015 122.415 286.348 122.227C287.681 122.04 288.941 121.505 290.002 120.677C290.78 119.979 291.613 119.344 292.493 118.779C291.909 120.48 290.729 121.913 289.172 122.814C287.578 123.734 285.788 124.262 283.95 124.355C284.677 124.79 285.495 125.049 286.34 125.112C287.184 125.176 288.032 125.041 288.815 124.719C289.646 124.388 290.4 123.89 291.032 123.258C291.665 122.626 292.162 121.871 292.493 121.041C292.344 122.773 291.685 124.421 290.599 125.778C289.57 127.183 288.375 128.458 287.039 129.575C289.285 128.806 291.234 127.354 292.615 125.423C292.614 125.407 292.616 125.392 292.622 125.377C292.627 125.362 292.636 125.348 292.647 125.336C292.658 125.325 292.671 125.315 292.685 125.309C292.7 125.303 292.716 125.3 292.732 125.3C292.598 125.599 292.518 125.92 292.495 126.248C291.301 128.996 290.386 131.858 289.765 134.789C288.933 137.883 288.222 141.316 289.527 144.28C290.257 145.796 291.359 147.102 292.73 148.077C294.789 149.663 297.183 150.759 299.73 151.28C298.07 149.857 296.171 148.914 294.51 147.604C292.709 146.456 291.335 144.749 290.599 142.744C290.164 140.866 290.204 138.908 290.717 137.05C290.707 135.449 290.906 133.854 291.308 132.305V132.305ZM307.688 101.221C310.804 99.9431 314.177 99.4145 317.535 99.6777C314.6 99.9259 311.717 100.606 308.981 101.696C305.264 103.132 301.904 105.358 299.133 108.221C301.315 105.175 304.265 102.76 307.681 101.221H307.688ZM283.36 110.831C282.106 111.329 281.003 112.145 280.157 113.197C280.167 112.775 280.293 112.364 280.521 112.01C281.055 111.013 281.865 110.191 282.854 109.642C283.843 109.093 284.969 108.841 286.098 108.916C287.759 108.956 289.371 109.493 290.724 110.458C290.488 110.339 290.36 110.339 290.131 110.221C287.866 109.706 285.497 109.919 283.36 110.831V110.831Z" fill="black"/>
<path d="M507.468 425.578C500.823 434.712 470.689 446.102 470.689 446.102C459.769 440.642 448.978 435.069 437.825 430.323C449.335 426.883 460.843 422.375 469.857 414.425C483.027 419.646 493.346 424.036 507.468 425.578Z" fill="#9778FF"/>
<path d="M460.724 429.492C457.284 430.203 454.2 430.797 450.76 431.508C452.807 429.977 454.643 428.182 456.22 426.17C457.836 427.113 459.346 428.226 460.724 429.492V429.492ZM478.52 432.458C472.61 432.754 466.774 433.913 461.199 435.898C464.402 432.932 467.844 429.967 469.861 426.052C470.225 427.239 470.454 428.305 470.809 429.492C470.454 429.967 469.622 430.678 469.267 431.272C470.216 430.908 471.166 430.678 472.114 430.322C474.334 430.749 476.488 431.468 478.52 432.458V432.458ZM493.113 424.035C487.418 426.289 481.605 428.187 475.792 429.967C477.168 426.032 478.793 422.188 480.657 418.459C480.97 418.725 481.332 418.927 481.723 419.052C480.657 421.899 479.357 424.747 478.165 427.475C481.943 425.944 485.594 424.118 489.085 422.015" fill="white"/>
<path d="M560.618 407.307C552.428 349.056 543.415 295.077 532.144 237.656L539.262 236.23C550.533 293.77 559.668 347.869 567.854 406.24L560.618 407.307ZM492.757 390.11C489.079 370.654 485.757 350.13 482.554 330.317C476.978 295.919 471.046 260.32 463.215 225.915L470.333 224.255C478.283 258.897 484.096 294.607 489.79 329.131C493.23 349.773 496.315 369.353 499.993 388.805L492.757 390.11Z" fill="#008C6E"/>
<path d="M427.386 362.819C413.086 369.525 399.79 378.19 387.879 388.563C385.162 390.721 382.834 393.329 380.998 396.274C380.111 397.763 379.575 399.434 379.431 401.161C379.287 402.888 379.539 404.626 380.168 406.24C381.948 410.037 386.219 412.054 390.253 413.12C404.964 417.273 420.505 414.663 435.809 414.663C446.304 414.674 456.766 415.828 467.011 418.103C479.706 421.07 491.925 425.696 504.62 428.424C517.314 431.153 531.077 431.748 543.058 426.765C548.487 424.326 553.588 421.217 558.244 417.51C564.65 412.765 570.82 407.545 574.853 400.664C578.886 393.783 580.313 385.003 576.752 377.885C573.548 371.478 566.787 367.445 559.787 365.784C552.788 364.122 545.55 364.479 538.431 364.954C527.635 365.547 516.721 365.665 505.924 366.14C492.163 366.734 478.164 367.327 464.758 364.36C457.876 362.819 451.352 360.327 444.352 359.377C437.472 358.429 433.674 359.852 427.386 362.819V362.819Z" fill="#FF465A"/>
<path d="M521.111 374.094C526.583 372.809 532.287 372.891 537.72 374.332C543.136 375.768 548.415 377.674 553.5 380.027C558.008 381.925 562.634 383.942 567.15 385.84C559.792 385.61 552.608 388.102 546.973 392.84C553.226 391.903 559.612 392.472 565.601 394.499C559.306 395.141 553.271 397.343 548.042 400.906C542.857 404.453 537.426 407.624 531.789 410.397C523.839 413.839 514.941 413.839 506.4 412.532C497.859 411.225 488.841 409.567 480.774 412.652C485.215 409.515 490.339 407.482 495.722 406.719C493.112 403.042 488.011 402.211 483.621 402.922C479.231 403.634 474.961 405.414 470.572 405.889C460.487 406.839 451.352 400.312 441.386 398.063C435.216 396.64 428.692 396.758 422.524 395.333C420.657 394.689 418.676 394.446 416.709 394.619C415.404 394.858 414.219 395.333 413.032 395.57C410.302 396.045 407.572 395.095 404.842 394.74C400.412 394.013 395.866 394.633 391.791 396.518C397.486 388.925 410.173 391.422 417.298 385.13C419.468 382.797 421.452 380.298 423.232 377.655C428.213 371.724 436.044 368.757 443.637 367.334C454.193 365.316 465.113 365.672 475.906 366.147C487.059 366.741 498.447 367.689 508.888 371.607C512.57 373.14 516.84 375.275 521.111 374.094V374.094Z" fill="#D70A32"/>
<path d="M432.133 346.209C427.125 347.137 422.384 349.162 418.252 352.14C416.204 353.673 414.493 355.612 413.228 357.835C411.962 360.058 411.168 362.519 410.895 365.062C410.54 369.571 412.32 374.079 412.32 378.587C412.108 382.162 411.348 385.684 410.065 389.028C408.72 392.365 407.881 395.883 407.574 399.468C407.432 401.258 407.664 403.058 408.257 404.753C408.849 406.449 409.789 408.002 411.015 409.314C413.662 408.229 416.035 406.57 417.964 404.457C419.892 402.344 421.327 399.829 422.166 397.094C425.133 387.723 421.098 377.639 421.802 367.911C422.285 359.733 425.488 351.429 432.133 346.209V346.209Z" fill="#FDB849"/>
<path d="M538.077 391.766C536.297 387.377 537.127 382.514 537.484 377.885C537.84 373.257 537.602 367.921 534.16 364.718C531.67 362.352 528.229 361.633 524.907 360.683C513.987 357.836 503.672 352.971 492.994 349.175C486.818 347.044 480.565 345.145 474.248 343.48C469.636 342.083 464.912 341.091 460.128 340.515C449.529 339.369 438.841 341.656 429.639 347.04C424.795 349.733 420.713 353.611 417.775 358.311C416.336 360.695 415.45 363.372 415.184 366.144C414.917 368.916 415.276 371.712 416.233 374.327C417.214 377.274 418.444 380.131 419.91 382.868C418.349 383.438 416.903 384.282 415.64 385.36C415.011 385.858 414.533 386.522 414.261 387.276C413.988 388.031 413.931 388.846 414.097 389.632C414.417 390.665 414.988 391.603 415.758 392.362C419.023 396.043 421.56 400.31 423.233 404.938C424.893 409.619 424.893 414.729 423.233 419.41C421.928 422.734 424.893 426.174 427.623 428.547C428.005 428.958 428.5 429.247 429.046 429.377C430.469 429.613 431.412 427.953 431.893 426.647C433.452 421.243 433.656 415.538 432.486 410.037C431.289 404.567 429.416 399.266 426.909 394.258C430.677 393.683 434.497 393.524 438.299 393.783C441.564 393.805 444.821 394.123 448.029 394.733C451.705 395.681 454.908 397.827 458.35 399.123C463.213 400.901 473.534 400.664 475.432 401.376C478.517 402.563 478.874 405.766 480.772 406.472C485.421 408.012 490.242 408.969 495.127 409.32C499.28 409.793 503.67 410.387 506.753 413.235C508.771 415.133 509.838 417.743 511.849 419.76C513.747 421.776 517.189 422.845 519.205 420.828C519.723 420.186 520.096 419.441 520.301 418.643C520.506 417.844 520.537 417.011 520.392 416.2C520.168 412.39 518.614 408.779 516.002 405.997C514.815 404.81 513.511 403.744 512.442 402.439C511.888 401.819 511.492 401.075 511.285 400.269C511.079 399.464 511.07 398.621 511.257 397.811C512.087 395.201 515.409 394.489 518.137 394.134C524.551 393.308 531.67 392.36 538.077 391.766V391.766Z" fill="#FFD340"/>
<path d="M543.058 378.835C544.343 381.195 544.959 383.862 544.838 386.546C544.722 389.539 545.205 392.524 546.262 395.326C546.579 395.9 546.775 396.534 546.837 397.187C546.9 397.84 546.828 398.499 546.626 399.123C546.278 399.585 545.83 399.963 545.317 400.23C544.804 400.497 544.237 400.645 543.659 400.664C541.263 400.733 538.93 399.887 537.134 398.298C535.399 396.822 533.986 395.005 532.983 392.96C531.44 390.23 527.761 376.706 528 373.741C528.229 368.514 537.127 368.75 543.058 378.835V378.835ZM438.064 393.189C448.619 392.217 459.26 392.857 469.621 395.088C470.886 395.271 472.098 395.716 473.181 396.393C473.736 396.72 474.193 397.19 474.506 397.753C474.819 398.316 474.976 398.952 474.961 399.596C474.852 400.407 474.476 401.159 473.893 401.733C471.638 404.224 467.843 404.463 464.64 404.099C461.568 403.642 458.548 402.888 455.622 401.845C452.3 400.777 448.979 399.829 445.776 398.76C444.114 398.285 442.454 397.692 440.793 397.219C439.253 396.869 437.745 396.393 436.284 395.794C435.691 395.557 435.691 395.082 435.92 394.489C436.127 394.099 436.435 393.772 436.813 393.543C437.19 393.314 437.623 393.192 438.064 393.189V393.189Z" fill="#FDB849"/>
<path d="M463.453 399.241C463.323 399.585 463.267 399.953 463.287 400.321C463.308 400.688 463.404 401.048 463.572 401.376C463.836 401.712 464.181 401.975 464.576 402.141C464.97 402.308 465.399 402.371 465.825 402.326C466.132 402.278 466.428 402.17 466.693 402.007C466.958 401.844 467.187 401.629 467.368 401.376C467.722 400.924 467.966 400.396 468.08 399.834C468.316 398.884 468.435 396.749 466.536 396.631C465.857 396.802 465.226 397.126 464.692 397.578C464.157 398.03 463.734 398.599 463.453 399.241V399.241ZM471.52 396.511C471.607 396.654 471.653 396.818 471.653 396.986C471.653 397.153 471.607 397.318 471.52 397.461C471.401 397.579 471.401 397.697 471.283 397.825C470.892 398.07 470.439 398.196 469.978 398.189C469.735 398.208 469.49 398.167 469.266 398.071C469.028 397.952 468.791 397.832 468.791 397.596C468.673 397.232 469.028 396.766 469.385 396.527C469.846 396.243 470.387 396.119 470.926 396.172C471.155 396.218 471.364 396.337 471.52 396.511ZM470.096 399.241C469.621 399.359 469.028 399.714 469.148 400.307C469.148 400.671 469.503 400.901 469.74 401.019C470.433 401.378 471.223 401.506 471.995 401.383C472.706 401.265 473.536 401.019 473.656 400.315C473.774 399.841 473.292 399.366 472.943 399.248C472.475 399.15 471.997 399.11 471.52 399.13C471.287 399.053 471.041 399.024 470.797 399.043C470.552 399.062 470.314 399.129 470.096 399.241V399.241ZM470.453 403.274C470.336 403.44 470.17 403.564 469.978 403.63C469.786 403.695 469.578 403.698 469.385 403.638C469.005 403.485 468.646 403.286 468.316 403.045C468.134 402.951 467.993 402.793 467.921 402.601C467.848 402.41 467.848 402.198 467.922 402.007C467.995 401.816 468.137 401.659 468.319 401.565C468.501 401.472 468.712 401.449 468.91 401.501C469.391 401.575 469.843 401.78 470.215 402.095C470.31 402.154 470.393 402.232 470.457 402.325C470.521 402.418 470.566 402.522 470.589 402.633C470.611 402.743 470.61 402.857 470.587 402.967C470.564 403.078 470.518 403.182 470.453 403.274V403.274ZM422.878 419.883C422.684 420.897 422.853 421.947 423.353 422.85C423.573 423.214 423.865 423.528 424.212 423.773C424.559 424.018 424.954 424.188 425.37 424.273C425.78 424.346 426.202 424.294 426.583 424.125C426.963 423.955 427.284 423.676 427.505 423.323C427.823 422.744 427.908 422.065 427.743 421.425C427.557 420.813 427.319 420.218 427.031 419.647C426.556 418.815 425.606 417.037 424.54 417.155C423.353 417.155 422.996 419.048 422.878 419.883ZM427.625 428.663C427.742 428.794 427.902 428.878 428.077 428.899C428.251 428.921 428.427 428.879 428.573 428.781C428.691 428.663 428.691 428.545 428.81 428.417C428.887 427.974 428.84 427.517 428.672 427.099C428.505 426.681 428.224 426.318 427.861 426.051C427.386 425.687 425.606 425.219 425.495 426.288C425.37 427.12 427.15 428.306 427.625 428.663ZM427.98 424.036V424.273C428.233 424.95 428.639 425.559 429.166 426.053C429.641 426.408 430.708 426.883 430.946 426.053V425.578C430.698 425.005 430.305 424.507 429.805 424.133C429.306 423.759 428.717 423.521 428.098 423.443C427.98 423.443 427.861 423.68 427.98 424.036Z" fill="black"/>
<path d="M440.081 374.682C437.087 373.934 433.935 374.142 431.065 375.275C428.557 376.066 426.164 377.182 423.947 378.597C422.812 379.183 421.804 379.987 420.98 380.963C420.269 382.504 421.574 381.913 422.524 381.556C428.217 379.072 434.15 376.824 440.081 374.682V374.682Z" fill="#FDB849"/>
<path d="M451.232 392.714C457.734 392.479 464.151 391.156 470.215 388.8C471.762 388.363 473.132 387.45 474.13 386.19C475.198 384.41 474.605 382.157 473.893 380.14C470.651 370.893 465.79 362.296 459.539 354.751C463.81 358.408 467.597 362.594 470.808 367.209C474.086 371.895 476.312 377.234 477.333 382.861C477.697 385.227 477.571 387.606 475.435 389.031C472.108 391.128 468.322 392.39 464.402 392.707C459.894 393.308 455.622 392.596 451.232 392.714V392.714ZM493.824 408.732C491.689 408.368 489.909 408.019 487.893 407.664C486.123 407.498 484.397 407.016 482.797 406.241C482.153 405.787 481.611 405.205 481.204 404.531C480.796 403.857 480.533 403.106 480.431 402.326C480.256 400.735 480.379 399.125 480.795 397.579C481.777 393.092 483.587 388.827 486.133 385.003C481.957 389.27 479.043 394.608 477.71 400.428C477.413 401.266 477.312 402.161 477.415 403.044C477.518 403.928 477.822 404.776 478.303 405.523C479.204 406.419 480.368 407 481.625 407.183C485.627 408.12 489.715 408.639 493.824 408.732V408.732ZM532.737 374.563C533.331 375.393 534.874 375.987 535.704 376.58L538.907 378.717C540.345 379.621 541.561 380.837 542.465 382.275C542.933 383.109 543.179 384.049 543.179 385.005C543.179 385.961 542.933 386.901 542.465 387.735C541.608 389.821 541.049 392.017 540.806 394.26C539.908 387.096 537.123 380.299 532.737 374.563V374.563Z" fill="black"/>
<path d="M528.473 370.53C531.631 371.418 534.471 373.186 536.663 375.626C539.273 378.472 540.342 383.099 540.935 386.777C541.39 389.485 541.43 392.247 541.053 394.967C540.698 397.697 539.512 400.063 538.918 402.793C538.443 405.285 539.867 407.421 540.817 409.556C541.699 411.114 542.187 412.863 542.24 414.652C542.263 415.704 542.076 416.749 541.689 417.727C541.302 418.706 540.723 419.596 539.987 420.347C538.252 421.551 536.162 422.136 534.053 422.007C531.687 422.127 529.19 422.957 526.817 422.6C523.614 422.007 522.071 419.515 520.411 417.025C519.461 415.6 518.156 414.295 517.326 412.872C514.96 409.076 510.801 406.941 507.123 404.568C502.733 401.721 500.953 398.636 500.242 393.178C499.947 390.508 500.189 387.806 500.953 385.23C502.615 378.824 506.175 375.5 512.106 372.654C517.083 369.858 522.948 369.097 528.473 370.53V370.53Z" fill="#FFD340"/>
<path d="M538.313 418.222C538.918 417.649 539.383 416.944 539.671 416.162C539.96 415.38 540.064 414.542 539.975 413.714C539.5 412.054 537.483 412.172 536.178 412.172C534.992 412.172 530.602 411.697 529.89 412.536C526.924 415.501 531.077 420.009 534.28 420.484C535.07 420.399 535.835 420.154 536.528 419.766C537.221 419.377 537.829 418.852 538.313 418.222V418.222Z" fill="black"/>
<path d="M517.79 378.953C517.168 378.593 516.484 378.352 515.774 378.241C511.502 377.409 507.231 376.58 502.841 375.875C501.516 375.497 500.108 375.539 498.808 375.994C497.596 376.837 496.751 378.11 496.442 379.553C494.375 385.426 492.789 391.457 491.697 397.586C491.483 398.181 491.426 398.82 491.53 399.443C491.634 400.066 491.895 400.653 492.29 401.146C493.477 402.094 495.255 401.264 496.56 400.434C502.73 395.924 507.48 389.756 512.212 383.825C512.851 382.769 513.806 381.941 514.942 381.459C516.129 380.984 517.552 382.289 518.384 381.814C519.57 381.088 518.62 379.428 517.79 378.953V378.953Z" fill="#FDB849"/>
<path d="M524.789 402.205C524.787 401.791 524.69 401.383 524.504 401.013C524.319 400.643 524.051 400.32 523.721 400.07C523.108 399.519 522.378 399.113 521.586 398.884C519.281 398.263 517.053 397.387 514.941 396.274C515.305 396.867 515.18 397.579 515.535 398.172C515.84 398.981 516.377 399.682 517.078 400.189C517.533 400.401 518.01 400.56 518.501 400.664C519.688 401.018 523.958 401.375 524.789 402.205V402.205ZM534.754 401.85C534.992 401.018 534.992 400.307 535.704 399.713C536.416 399.12 537.364 398.647 538.07 398.054C538.805 397.555 539.381 396.855 539.73 396.037C539.809 396.672 539.768 397.315 539.612 397.935C539.541 398.563 539.339 399.169 539.018 399.713C538.6 400.164 538.067 400.492 537.477 400.664C536.493 400.855 535.564 401.26 534.754 401.85V401.85Z" fill="black"/>
<path d="M538.432 414.188C537.009 414.188 535.465 414.307 534.042 414.425C533.621 414.435 533.21 414.561 532.855 414.789C532.562 414.997 532.345 415.295 532.238 415.638C532.13 415.981 532.139 416.35 532.262 416.687C532.471 417.386 532.885 418.006 533.449 418.467C533.245 418.087 533.17 417.65 533.235 417.223C533.301 416.797 533.504 416.403 533.813 416.101C534.432 415.584 535.163 415.219 535.948 415.033C536.77 414.782 537.602 414.425 538.432 414.188Z" fill="white"/>
<path d="M520.283 416.562C518.946 413.686 516.855 411.227 514.232 409.444C511.979 407.782 509.249 406.834 506.877 405.409C504.366 404.11 502.392 401.968 501.301 399.359C501.327 401.576 501.941 403.746 503.081 405.647C503.982 406.704 505.067 407.589 506.284 408.257C511.027 411.104 517.078 412.29 520.283 416.562V416.562Z" fill="#FDB849"/>
<path d="M264.027 425.935H263.79C263.197 425.935 262.247 425.571 261.774 423.798C261.079 420.877 261.038 417.839 261.655 414.9C265.487 388.147 271.68 361.786 280.163 336.125L281.941 336.719C273.418 362.287 267.223 388.573 263.434 415.257C262.84 417.955 262.84 420.749 263.434 423.447C263.552 424.04 263.798 424.277 263.909 424.277C264.02 424.277 264.027 424.277 264.384 424.04C266.868 421.939 268.717 419.185 269.722 416.091C280.518 391.058 289.179 364.721 297.602 339.214L299.382 339.807C290.957 365.314 282.416 391.652 271.502 416.793C269.96 420.235 268.408 423.556 265.45 425.573C265.09 425.578 264.615 425.935 264.027 425.935V425.935ZM308.275 418.342H308.036C307.088 418.104 306.85 417.037 306.613 416.087C306.257 413.171 306.257 410.223 306.613 407.307C308.511 380.615 311.833 354.163 316.223 328.532L318.003 328.896C313.613 354.402 310.41 380.859 308.511 407.435C308.214 410.195 308.214 412.979 308.511 415.739C309.685 413.386 310.483 410.864 310.877 408.265C316.452 383.232 320.96 356.893 325.232 331.386L327.012 331.75C322.74 357.257 318.232 383.595 312.656 408.747C312.215 411.847 311.167 414.83 309.572 417.525C309.345 417.749 308.866 418.342 308.275 418.342V418.342ZM366.287 429.138C366.014 429.122 365.747 429.05 365.503 428.927C365.258 428.805 365.041 428.634 364.864 428.425C362.611 426.408 361.424 423.087 360.356 419.647C352.166 394.613 345.645 368.157 339.357 342.65L341.137 342.175C347.425 367.682 353.949 394.021 362.018 419.054C363.084 422.257 364.152 425.342 366.051 427.002L366.169 427.12C366.287 427.002 366.287 426.756 366.407 426.526C366.883 423.817 366.883 421.046 366.407 418.336C363.603 391.867 358.964 365.625 352.526 339.798L354.306 339.323C360.745 365.23 365.382 391.551 368.186 418.098C368.661 421.005 368.661 423.971 368.186 426.878C367.822 428.539 367.001 428.894 366.526 429.013C366.526 429.138 366.407 429.138 366.287 429.138V429.138Z" fill="black"/>
<path d="M383.729 336.602C382.542 342.176 359.645 354.041 356.205 356.294C352.872 358.235 349.134 359.373 345.285 359.617C327.369 361.983 303.88 359.854 286.084 357.126C272.678 355.109 268.763 350.481 267.702 343.245C266.04 332.567 271.142 321.652 277.548 317.144C283.955 312.636 291.311 312.993 298.311 313.466C315.868 314.652 333.546 315.721 351.105 316.907C354.07 317.144 373.289 309.551 376.019 311.213C382.185 315.244 385.627 327.582 383.729 336.602V336.602Z" fill="#008C6E"/>
<path d="M383.016 322.244C378.27 325.684 373.525 329.244 368.542 332.565C366.05 334.227 363.446 335.769 360.949 337.312C358.467 338.636 356.565 340.834 355.611 343.48C355.372 344.312 354.424 344.192 353.949 343.718C349.824 345.488 345.531 346.839 341.136 347.751C341.136 348.463 340.543 349.056 339.831 348.581C334.493 344.785 328.911 340.633 322.154 340.04C319.171 339.978 316.19 340.217 313.256 340.752C311.723 340.988 310.162 340.988 308.629 340.752C307.09 340.404 305.582 339.927 304.121 339.328C298.728 337.054 292.995 335.691 287.155 335.295C281.224 335.057 273.631 335.769 267.818 333.277C267.204 336.525 267.124 339.851 267.581 343.125C268.768 350.361 272.677 354.988 285.963 357.006C303.757 359.736 327.248 361.869 345.162 359.496C349.011 359.254 352.75 358.116 356.082 356.174C359.524 353.921 382.421 342.057 383.608 336.48C384.591 331.759 384.387 326.868 383.016 322.244V322.244Z" fill="#14D29B"/>
<path d="M423.823 223.418C418.483 226.148 411.01 225.198 405.077 224.25C393.569 222.231 385.503 217.25 375.061 217.605C371.622 217.723 367.587 217.969 365.097 215.47C363.988 214.271 363.067 212.911 362.367 211.435C360.701 208.543 358.532 205.972 355.96 203.844C349.554 207.64 342.31 212.148 338.758 218.673C343.741 225.791 347.894 229.351 354.301 235.164C355.48 236.352 356.894 237.282 358.452 237.894C359.924 238.272 361.457 238.353 362.96 238.131C372.688 237.301 382.418 236.471 392.262 235.765C397.482 235.401 402.583 235.171 407.803 234.933C413.38 234.696 418.599 234.34 424.058 235.883C425.101 236.195 426.175 236.394 427.261 236.476C428.068 236.432 428.865 236.272 429.627 236.001L439.591 233.155C440.185 233.035 440.896 232.562 440.66 231.968C440.541 231.73 440.296 231.604 440.185 231.493C437.1 230.07 433.185 231.73 430.1 230.425C431.998 229.358 434.135 228.527 436.151 227.46C437.667 226.52 439.366 225.913 441.135 225.68C444.22 225.562 447.184 227.933 450.033 226.867C449.083 226.035 448.371 224.85 447.423 224.137C446.981 223.69 446.436 223.359 445.835 223.172C445.235 222.986 444.598 222.951 443.981 223.07C445.29 222.889 446.623 223.138 447.778 223.782C448.36 224.082 448.998 224.258 449.651 224.298C450.305 224.339 450.959 224.244 451.574 224.018C450.359 222.106 448.512 220.679 446.354 219.985C445.374 219.828 444.378 219.788 443.388 219.867C441.728 219.985 440.066 220.104 438.525 220.222C439.332 219.779 440.164 219.383 441.016 219.035C441.475 218.861 441.953 218.742 442.44 218.68C443.357 218.776 444.245 219.058 445.049 219.51C445.84 220.037 446.727 220.4 447.659 220.579C448.128 220.646 448.605 220.569 449.028 220.356C449.451 220.144 449.799 219.808 450.025 219.392C448.957 218.68 448.007 217.73 446.931 217.026C447.295 217.026 447.525 216.662 447.643 216.314C445.745 216.196 444.083 214.773 442.183 214.773C440.882 214.877 439.623 215.283 438.507 215.96C433.438 218.666 428.691 220.926 423.823 223.418V223.418Z" fill="#DD4040"/>
<path d="M331.764 187.828C328.561 185.216 325.121 181.777 324.052 177.743C322.984 173.71 324.052 167.54 324.171 163.387C319.663 164.099 313.495 164.81 310.053 161.846C307.681 173.348 297.358 181.538 292.139 192.094C296.529 192.333 300.918 194.586 304.833 196.484C308.748 198.5 313.256 200.162 317.528 199.214C320.622 198.502 324.884 197.197 326.901 194.706C328.797 192.621 330.431 190.311 331.764 187.828V187.828Z" fill="#F7846C"/>
<path d="M312.662 172.048C314.222 173.653 316.075 174.942 318.122 175.845C319.097 176.199 320.158 176.24 321.157 175.964C322.157 175.687 323.045 175.106 323.699 174.301C323.581 170.743 324.172 166.475 324.292 163.381C319.784 164.093 313.614 164.805 310.174 161.84C309.761 163.714 309.165 165.542 308.395 167.3C309.587 169.076 311.023 170.674 312.662 172.048V172.048Z" fill="black"/>
<path d="M381.474 292.465C384.322 292.585 391.44 296.5 393.932 297.805C397.371 299.703 400.813 302.195 402.354 305.871C404.846 311.686 401.761 318.093 400.22 324.253C397.965 333.626 399.626 343.354 398.201 352.846C396.66 362.812 393.813 372.54 392.152 382.386C391.44 386.658 390.61 391.402 392.745 395.319C394.894 399.009 397.618 402.333 400.813 405.165C404.608 408.725 408.168 409.91 413.151 411.453C415.148 411.878 416.944 412.965 418.247 414.538C419.195 416.08 417.653 417.86 415.755 418.453C410.06 420.588 403.772 419.519 397.959 417.741C392.146 415.963 386.57 413.47 380.638 412.758C379.208 412.695 377.801 412.373 376.485 411.808C373.282 410.148 372.809 405.64 373.875 402.317C375.062 398.64 377.198 395.437 378.028 391.641C378.698 388.244 378.897 384.771 378.622 381.32C377.902 374.428 376.833 367.577 375.418 360.794C374.468 354.98 373.402 348.574 375.773 343.236C377.144 339.978 378.216 336.603 378.977 333.151C379.558 331.524 379.473 329.733 378.74 328.168C376.96 325.438 372.809 326.508 369.96 324.965C369.847 316.431 377.084 292.347 381.474 292.465V292.465Z" fill="#DD4040"/>
<path d="M420.151 415.257C418.87 413.507 417.027 412.25 414.931 411.697C409.709 410.037 405.676 409.205 401.761 405.529C398.407 402.587 395.526 399.145 393.22 395.326C390.965 391.291 391.795 386.428 392.509 381.92C393.1 378.477 393.811 375.036 394.643 371.597C392.448 372.913 390.097 373.949 387.644 374.682C384.981 375.473 382.158 375.555 379.454 374.92C378.754 374.715 378.078 374.436 377.437 374.088C377.791 376.289 378.029 378.507 378.149 380.733C378.428 384.302 378.228 387.893 377.555 391.409C376.726 395.326 374.352 398.647 373.166 402.444C371.979 406.002 372.572 410.634 375.896 412.29C377.28 412.898 378.772 413.221 380.284 413.24C386.572 414.07 392.623 416.562 398.666 418.46C404.708 420.358 411.478 421.425 417.53 419.171C419.439 418.696 421.094 416.916 420.151 415.257V415.257Z" fill="#643CFF"/>
<path d="M378.153 383.58C380.408 386.071 383.966 385.596 386.932 384.291C388.893 383.411 390.761 382.338 392.509 381.088C393.1 377.885 393.814 374.8 394.525 371.597C392.33 372.913 389.979 373.949 387.526 374.682C384.863 375.473 382.04 375.555 379.336 374.92C378.636 374.715 377.96 374.436 377.319 374.088C377.673 376.289 377.911 378.507 378.031 380.733C378.13 381.678 378.171 382.629 378.153 383.58ZM420.151 415.257C419.127 413.789 417.677 412.671 415.998 412.053C415.628 413.023 415.016 413.88 414.22 414.545C412.473 415.843 410.502 416.808 408.405 417.392C406.714 417.939 405.114 418.736 403.66 419.758C408.206 420.851 412.963 420.686 417.423 419.283C419.439 418.696 421.094 416.916 420.151 415.257V415.257ZM381.236 407.189C379.848 403.945 377.314 401.327 374.118 399.834C373.754 400.664 373.406 401.612 373.049 402.444C371.863 406.002 372.456 410.634 375.779 412.29C377.164 412.898 378.657 413.221 380.169 413.24C380.999 413.358 381.713 413.477 382.535 413.595C382.493 411.399 382.053 409.228 381.236 407.189V407.189Z" fill="black"/>
<path d="M333.782 282.383C351.472 284.591 368.992 288 386.22 292.586C380.084 304.696 376.3 317.859 375.067 331.379C357.746 330.431 340.305 328.176 323.104 327.228C318.714 326.991 313.849 326.516 310.646 323.431C308.686 321.354 307.475 318.682 307.206 315.838C306.138 308.127 309.698 300.415 314.918 294.602C320.019 288.789 327.137 286.534 333.782 282.383V282.383Z" fill="#FDB849"/>
<path d="M366.169 208.474C354.899 205.38 346.837 196.012 338.408 187.946C336.477 185.957 334.282 184.242 331.884 182.85C330.934 182.375 326.069 181.307 325.596 180.595C329.154 187.477 331.056 189.611 325.596 190.916C324.781 191.113 323.942 191.194 323.104 191.155C318.506 191.034 314.032 189.637 310.182 187.12C306.74 184.867 303.062 180.12 298.554 180.12C288.708 188.07 279.573 196.611 273.522 207.764C270.976 212.488 269.023 217.509 267.709 222.712C260.709 248.219 263.794 276.584 267.472 303.03C267.709 304.453 272.453 308.962 274.708 306.945C295.224 288.432 318.121 270.043 346.473 272.298C347.423 255.095 349.439 248.214 348.728 231.011C356.441 224.961 359.169 215.113 366.169 208.474Z" fill="#643CFF"/>
<path d="M345.29 218.197C344.347 214.406 343.279 210.647 342.087 206.926C341.195 204.055 340.125 201.242 338.884 198.503C338.17 198.503 337.459 198.385 336.747 198.385C338.149 201.84 339.377 205.363 340.425 208.941C343.628 220.567 346.475 232.193 348.848 243.938C348.967 240.973 349.087 237.888 348.967 234.21C347.78 228.875 346.595 223.535 345.29 218.197Z" fill="black"/>
<path d="M344.697 121.863C346.628 128.627 347.743 135.597 348.018 142.626C348.255 148.914 348.382 156.98 345.052 162.556C342.749 166.051 339.247 168.583 335.206 169.674C329.735 171.1 324.006 171.224 318.478 170.038C314.503 169.434 310.814 167.609 307.922 164.817C305.075 161.852 303.771 157.817 302.345 154.022C300.471 149.169 299.002 144.169 297.956 139.073C296.651 132.073 295.821 122.582 299.381 116.176C301.057 113.259 303.327 110.726 306.045 108.743C308.762 106.759 311.866 105.368 315.155 104.66C319.161 103.941 323.279 104.156 327.189 105.288C331.098 106.419 334.694 108.437 337.697 111.185C341.111 113.905 343.565 117.647 344.697 121.863" fill="#F7846C"/>
<path d="M328.206 116.644C326.015 116.741 323.82 116.541 321.682 116.05C318.267 115.142 314.768 114.585 311.24 114.389C301.512 114.627 302.461 130.643 302.342 132.305C301.869 137.049 302.817 141.794 303.174 146.541C301.543 145.439 299.841 144.448 298.078 143.574C296.535 138.114 295.23 122.462 298.79 115.932C300.884 112.315 303.842 109.274 307.4 107.08C310.957 104.887 315.003 103.609 319.175 103.362C323.347 103.116 327.516 103.907 331.307 105.666C335.098 107.424 338.395 110.096 340.901 113.44C338.276 114.842 335.424 115.767 332.476 116.17C331.068 116.446 329.64 116.604 328.206 116.644V116.644Z" fill="black"/>
<path d="M296.885 141.083C296.13 140.691 295.288 140.496 294.437 140.517C293.587 140.538 292.755 140.773 292.02 141.201C291.422 141.78 291.009 142.524 290.833 143.338C290.645 144.61 290.716 145.907 291.042 147.15C291.368 148.394 291.943 149.559 292.732 150.574C295.336 154.293 299.227 156.915 303.652 157.931C304.203 158.123 304.793 158.18 305.371 158.097C305.949 158.015 306.499 157.795 306.975 157.456C307.45 156.939 307.705 156.258 307.687 155.557C307.783 153.544 307.243 151.552 306.143 149.862C304.3 145.855 300.985 142.711 296.885 141.083V141.083Z" fill="#F7846C"/>
<path d="M304.249 153.895C302.114 146.895 298.199 145.235 294.284 143.339C296.78 145.315 298.942 147.678 300.691 150.339C299.253 149.904 297.713 149.945 296.301 150.457C299.075 151.29 301.743 152.444 304.249 153.897" fill="#DD4040"/>
<path d="M328.324 159.591C325.937 159.643 323.561 159.24 321.324 158.404L321.799 157.099C326.526 158.75 331.705 158.538 336.281 156.506L336.874 157.813C334.194 159.039 331.271 159.647 328.324 159.591V159.591Z" fill="black"/>
<path d="M329.747 150.219C329.527 145.249 329.012 140.297 328.205 135.388C331.299 140.484 332.356 144.879 336.271 147.609C334.041 148.334 331.862 149.206 329.747 150.219V150.219Z" fill="#DD4040"/>
<path d="M311.003 139.423C312.901 135.388 315.629 133.017 318.596 132.778C320.182 132.701 321.748 133.147 323.056 134.047C324.363 134.948 325.339 136.253 325.832 137.761C323.98 139.579 321.54 140.676 318.951 140.855C316.216 141.331 313.4 140.824 311.003 139.423ZM332.239 137.998C334.137 133.965 336.865 131.592 339.832 131.355C342.678 130.991 345.527 132.778 347.068 136.338C345.216 138.156 342.777 139.253 340.188 139.432C337.453 139.838 334.66 139.334 332.239 137.998Z" fill="white"/>
<path d="M319.537 133.135C319.659 135.749 319.297 138.363 318.471 140.846H318.944C321.522 140.626 323.949 139.535 325.825 137.752C325.327 136.463 324.47 135.343 323.356 134.525C322.242 133.707 320.917 133.225 319.537 133.135V133.135ZM340.9 131.712C340.98 134.333 340.578 136.947 339.714 139.423H340.189C342.767 139.203 345.193 138.111 347.068 136.329C346.629 135.025 345.804 133.885 344.703 133.061C343.601 132.236 342.275 131.766 340.9 131.712V131.712Z" fill="black"/>
<path d="M318.833 134.915C319.586 134.712 320.373 134.66 321.146 134.762C321.92 134.864 322.666 135.118 323.341 135.508C324.064 135.954 324.74 136.471 325.361 137.05C324.846 135.679 323.891 134.518 322.647 133.745C321.403 132.973 319.939 132.633 318.482 132.778C315.633 133.142 312.787 135.388 310.889 139.423C313.148 137.32 315.869 135.776 318.833 134.915V134.915ZM339.475 134.083C340.936 133.807 342.443 133.889 343.865 134.322C344.933 134.667 345.935 135.188 346.832 135.863C346.297 134.424 345.321 133.19 344.042 132.338C342.764 131.487 341.249 131.062 339.714 131.124C337.996 131.553 336.408 132.393 335.085 133.57C333.763 134.748 332.746 136.229 332.121 137.885C334.156 135.937 336.709 134.617 339.475 134.083V134.083Z" fill="#DD4040"/>
<path d="M327.727 128.627C324.498 127.795 321.11 127.795 317.881 128.627C314.789 129.458 311.994 131.143 309.816 133.49C313.446 133.054 317.117 133.095 320.736 133.61C321.927 133.768 323.137 133.687 324.296 133.371C325.355 133.148 326.293 132.538 326.927 131.661C327.562 130.784 327.847 129.702 327.727 128.627V128.627ZM345.763 128.627C345.083 127.367 343.931 126.428 342.56 126.017C341.221 125.579 339.816 125.379 338.409 125.423C336.861 125.33 335.314 125.615 333.9 126.253C333.9 126.847 333.425 127.677 333.425 128.152C333.379 128.716 333.46 129.284 333.662 129.813C333.937 130.146 334.281 130.414 334.671 130.598C335.06 130.782 335.486 130.879 335.917 130.88C337.847 130.602 339.726 130.043 341.494 129.22C342.857 128.717 344.314 128.515 345.763 128.627V128.627Z" fill="black"/>
<path d="M375.775 358.428C375.542 357.898 375.119 357.474 374.588 357.242L370.679 354.394C366.768 351.177 363.333 347.422 360.476 343.242C358.223 339.803 354.544 334.581 354.308 330.43C353.944 324.735 355.849 318.328 357.038 312.87C358.343 307.057 359.884 301.244 360.953 295.431C361.84 290.061 362.198 284.618 362.021 279.178C361.742 273.137 362.18 267.083 363.326 261.144C364.868 255.094 367.834 248.57 365.461 242.762C363.919 239.084 360.478 236.711 357.038 234.694C354.61 233.122 351.846 232.146 348.97 231.846C344.58 231.727 340.665 234.337 337.225 237.067C329.219 243.131 321.682 249.792 314.681 256.993C314.522 259.085 314.482 261.184 314.561 263.281C315.349 277.48 320.857 291.009 330.213 301.719C333.416 294.719 336.263 287.363 338.874 280.127C336.508 285.465 337.568 291.873 338.51 297.686C339.579 303.972 341.002 310.26 341.604 316.667C341.98 319.902 341.94 323.172 341.486 326.396C341.011 329.955 338.519 333.396 336.978 336.718C336.237 338.049 335.716 339.49 335.434 340.987C335.141 342.631 335.415 344.325 336.213 345.792C337.011 347.258 338.285 348.41 339.824 349.055C341.841 350.006 344.214 349.885 346.349 350.717C348.912 351.912 351.212 353.606 353.112 355.7C357.382 359.615 363.433 364.123 369.483 364.242H369.603C370.811 364.267 372.001 363.946 373.032 363.314C374.062 362.683 374.89 361.769 375.416 360.682C375.806 359.999 375.934 359.198 375.775 358.428V358.428Z" fill="#F7846C"/>
<path d="M376.729 359.022C376.42 358.477 375.969 358.026 375.424 357.717C374.031 356.795 372.684 355.805 371.389 354.75C367.361 351.415 363.809 347.543 360.833 343.242C358.467 339.683 354.663 334.345 354.427 330.073C354.063 324.26 355.968 317.617 357.273 312.04L357.637 310.617C356.835 311.212 356.003 311.766 355.146 312.277C353.702 313.35 352.022 314.061 350.247 314.35C348.471 314.639 346.652 314.498 344.943 313.939C343.418 313.368 342.011 312.524 340.789 311.447C341.028 312.99 341.153 314.414 341.383 315.955C341.759 319.269 341.72 322.617 341.265 325.922C340.671 329.6 338.171 333.158 336.52 336.478C335.743 337.846 335.182 339.327 334.858 340.867C334.585 342.555 334.879 344.286 335.695 345.789C336.511 347.292 337.802 348.482 339.366 349.172C341.503 350.122 343.993 350.004 346.129 350.834C348.786 352.036 351.169 353.771 353.129 355.93C357.637 359.963 363.807 364.589 370.093 364.828H370.213C371.468 364.858 372.705 364.528 373.778 363.876C374.85 363.224 375.713 362.278 376.263 361.149C376.502 360.856 376.668 360.511 376.749 360.141C376.83 359.772 376.823 359.388 376.729 359.022V359.022Z" fill="#9778FF"/>
<path d="M341.493 319.277C345.408 322.6 350.746 321.888 355.493 319.515C356.084 316.905 356.677 314.414 357.271 312.04L357.635 310.617C356.833 311.212 356.001 311.766 355.143 312.277C353.7 313.35 352.02 314.061 350.244 314.35C348.469 314.639 346.65 314.498 344.941 313.939C343.416 313.368 342.008 312.524 340.787 311.447C341.026 312.99 341.151 314.414 341.381 315.955C341.377 317.024 341.493 318.219 341.493 319.277V319.277ZM342.798 341.819C341.366 339.3 339.326 337.179 336.865 335.649L336.501 336.361C335.724 337.73 335.164 339.211 334.84 340.751C334.566 342.439 334.861 344.17 335.676 345.673C336.492 347.175 337.783 348.365 339.348 349.056C340.961 349.631 342.632 350.029 344.331 350.242C344.692 348.81 344.741 347.318 344.477 345.865C344.213 344.412 343.64 343.032 342.798 341.819V341.819ZM375.424 357.713C375.06 357.475 374.83 357.238 374.474 357.002C372.542 358.155 370.519 359.146 368.424 359.966C367.057 360.459 365.805 361.226 364.746 362.221C364.436 362.507 364.158 362.825 363.916 363.17C365.912 364.029 368.037 364.551 370.204 364.713H370.315C371.57 364.744 372.807 364.414 373.879 363.761C374.952 363.109 375.815 362.163 376.365 361.035C376.57 360.723 376.708 360.372 376.771 360.005C376.833 359.637 376.819 359.26 376.729 358.898C376.381 358.417 375.937 358.013 375.424 357.713V357.713Z" fill="#643CFF"/>
<path d="M339.475 277.28C340.148 275.173 340.31 272.936 339.95 270.754C339.832 268.856 339.357 267.077 339.357 265.179C339.239 258.298 346.12 253.79 350.983 250.23C354.183 248.234 357.891 247.205 361.661 247.265C363.218 247.187 364.778 247.346 366.288 247.738C366.329 245.992 366.006 244.257 365.339 242.642C363.798 238.966 360.356 236.592 356.916 234.576C354.489 233.003 351.725 232.027 348.848 231.728C344.458 231.609 340.544 234.219 337.104 236.947C329.098 243.012 321.562 249.673 314.561 256.874C314.403 258.967 314.363 261.066 314.441 263.163C315.23 277.363 320.743 290.892 330.102 301.601C333.067 295.195 335.677 288.55 338.05 282.025C338.527 280.727 339.12 278.585 339.475 277.28Z" fill="#DD4040"/>
<path d="M337.697 294.127C327.731 282.856 323.223 264.825 325.596 249.994C325.931 246.738 327.117 243.629 329.036 240.978C306.865 259.157 287.584 280.599 271.853 304.57C270.192 307.18 275.057 315.366 276.48 317.383C279.284 321.319 282.985 324.532 287.276 326.756C293.27 329.564 299.907 330.711 306.495 330.077C311.955 329.713 319.781 329.484 324.171 325.926C325.998 324.154 327.486 322.063 328.561 319.756C332.951 311.211 336.281 303.618 337.697 294.127V294.127Z" fill="#FFD340"/>
<path d="M328.206 180.471C326.937 179.563 325.881 178.389 325.112 177.031C324.519 180.471 326.892 183.674 327.478 187.234C327.597 187.58 327.597 187.955 327.478 188.301C327.246 188.946 326.805 189.496 326.224 189.862C325.644 190.227 324.957 190.388 324.275 190.317C322.297 190.199 320.38 189.587 318.698 188.539C315.151 186.667 311.706 184.608 308.377 182.369C305.329 179.888 301.822 178.033 298.056 176.909C297.581 178.453 297.106 179.876 296.751 181.417C300.481 182.513 303.923 184.417 306.834 186.994C309.677 189.514 312.826 191.667 316.207 193.4C317.893 194.267 319.757 194.73 321.653 194.75C323.548 194.771 325.423 194.349 327.127 193.519C328.45 192.853 329.469 191.707 329.975 190.315C330.469 188.646 330.427 186.864 329.855 185.219C329.393 183.556 328.681 182.133 328.206 180.471V180.471ZM303.521 257.348C305.458 256.719 307.251 255.714 308.798 254.391C310.345 253.067 311.616 251.452 312.538 249.636C315.859 243.348 320.961 226.147 322.741 222.7C324.521 219.379 315.979 227.565 309.216 236.35C302.224 245.247 300.682 252.485 303.521 257.348V257.348Z" fill="black"/>
<path d="M316.58 236.351C317.885 233.985 319.07 231.604 320.377 229.351C321.765 226.742 322.764 223.944 323.341 221.046C321.717 218.296 319.63 215.847 317.172 213.808C310.765 217.605 303.522 222.113 299.971 228.637C304.004 234.332 307.682 240.502 312.19 244.653C312.63 243.552 313.145 242.481 313.732 241.45C314.319 240.279 314.952 239.13 315.63 238.009C315.874 237.418 316.194 236.86 316.58 236.351V236.351ZM336.747 113.559C335.918 113.677 327.613 113.797 327.613 113.797C323.105 113.322 318.597 112.136 314.207 111.661C311.591 111.101 308.861 111.479 306.495 112.729C305.323 113.638 304.379 114.809 303.741 116.148C303.102 117.487 302.786 118.957 302.817 120.44C302.453 126.728 305.183 132.66 306.97 138.822L306.606 140.957C305.777 143.305 305.181 145.729 304.826 148.193C304.735 149.895 305.019 151.596 305.656 153.177C305.538 153.295 305.538 153.541 305.42 153.652C303.758 157.923 303.997 163.261 307.318 166.346C305.538 163.38 306.131 159.821 307.436 156.618C308.623 158.278 309.928 159.821 311.233 161.363C309.938 159.659 308.75 157.876 307.675 156.025C308.86 153.058 310.521 150.092 310.758 146.889C310.87 143.636 310.264 140.398 308.982 137.406C309.693 132.541 307.795 127.44 308.388 122.575C308.442 121.703 308.685 120.853 309.1 120.084C309.973 118.725 311.331 117.749 312.896 117.354C316.579 116.44 320.383 116.12 324.166 116.405C326.036 116.429 327.903 116.27 329.742 115.93C332.288 116.02 334.78 115.177 336.747 113.559ZM307.682 147.609C307.252 149.116 306.696 150.584 306.02 151.997C305.776 150.867 305.654 149.714 305.656 148.557C305.942 146.296 306.583 144.094 307.555 142.033C307.951 143.867 307.994 145.759 307.682 147.609V147.609ZM307.207 119.84C305.784 123.043 306.257 126.721 306.732 130.161C306.262 128.365 305.906 126.541 305.664 124.701C305.228 122.503 305.269 120.237 305.784 118.056C306.031 116.97 306.538 115.961 307.261 115.114C307.984 114.267 308.902 113.608 309.935 113.193C311.734 112.757 313.617 112.797 315.395 113.311C316.225 113.43 317.173 113.675 318.005 113.786C313.613 113.916 308.982 115.932 307.207 119.84Z" fill="black"/>
<path d="M298.072 447.526L290.834 446.577C298.902 388.681 308.748 330.43 319.901 273.366L327.019 274.789C315.813 332.096 306.16 389.696 298.072 447.526V447.526ZM376.139 462L369.021 460.695C373.173 438.509 376.258 415.612 379.577 391.291C383.967 358.666 388.475 324.861 395.832 293.059L402.95 294.72C395.713 326.277 391.203 359.853 386.815 392.36C383.372 416.562 380.287 439.696 376.139 462V462Z" fill="#008C6E"/>
<path d="M564.769 247.145L409.472 300.533L299.613 270.754V259.485L564.769 235.876V247.145V247.145Z" fill="#14D29B"/>
<path d="M462.622 219.385L299.613 259.485L409.472 289.262L564.769 235.876L462.622 219.385Z" fill="#008C6E"/>
<path d="M372.576 248.095L402.237 254.265L446.252 242.519V238.367H418.608L372.576 246.315V248.095Z" fill="#FFD340"/>
<path d="M372.576 246.314L401.998 251.298L402.237 254.264L372.576 248.094V246.314Z" fill="black"/>
<path d="M423.115 268.855C423.257 267.417 423.013 265.966 422.409 264.652C421.804 263.339 420.86 262.21 419.675 261.383C417.307 259.71 414.504 258.761 411.607 258.653C409.182 258.414 406.737 258.781 404.489 259.721C403.386 260.228 402.428 261.005 401.703 261.979C400.979 262.954 400.512 264.095 400.345 265.297C399.981 268.619 405.089 270.517 407.581 271.229C412.675 272.772 418.963 272.772 423.115 268.855Z" fill="#FDB849"/>
<path d="M421.691 266.366C422.051 265.517 422.153 264.582 421.985 263.675C421.816 262.769 421.384 261.932 420.743 261.27C420.199 260.842 419.536 260.593 418.845 260.557C417.286 260.758 415.852 261.517 414.81 262.693C417.301 263.518 420.268 264.468 421.691 266.366V266.366Z" fill="black"/>
<path d="M411.489 233.384C410.504 232.836 409.411 232.512 408.286 232.434C408.221 232.443 408.154 232.437 408.09 232.417C408.027 232.396 407.97 232.362 407.922 232.315C406.955 231.246 405.835 230.326 404.599 229.585C404.112 229.193 403.546 228.909 402.939 228.755C402.272 228.656 401.597 228.615 400.922 228.635C398.935 228.717 396.954 228.915 394.989 229.229C394.362 229.11 393.718 229.11 393.091 229.229C390.008 229.593 387.631 231.838 385.025 233.264C379.685 235.994 372.212 235.042 366.279 234.093C354.78 232.079 346.714 227.096 336.282 227.452C332.842 227.571 328.809 227.807 326.317 225.316C325.207 224.118 324.287 222.758 323.587 221.282C321.919 218.389 319.746 215.817 317.172 213.689C310.765 217.486 303.522 221.994 299.971 228.519C304.952 235.637 312.19 240.738 318.597 246.553C319.776 247.741 321.19 248.671 322.748 249.283C324.22 249.66 325.753 249.74 327.256 249.52C345.882 247.978 355.848 244.657 378.746 243.943C382.424 243.825 386.936 244.775 389.897 242.045C391.058 240.716 392.469 239.628 394.05 238.842C395.705 238.33 397.469 238.289 399.146 238.724C401.208 239.217 403.348 239.297 405.442 238.96C406.271 238.722 406.983 238.596 407.34 237.892C407.428 237.713 407.548 237.552 407.695 237.417C407.742 237.371 407.8 237.336 407.863 237.316C407.926 237.295 407.993 237.289 408.059 237.298H408.172C409.358 236.705 410.188 235.757 409.595 235.164C410.423 235.045 412.439 234.095 411.489 233.384V233.384Z" fill="#F7846C"/>
<path d="M283.834 199.215C284.556 197.239 285.661 195.425 287.086 193.878C288.511 192.33 290.229 191.08 292.139 190.199C298.665 187.469 304.597 190.199 308.987 195.418C312.19 199.215 314.8 203.608 317.885 207.52C318.596 208.351 326.901 217.129 327.137 216.774C323.078 224.466 318.27 231.738 312.783 238.485C308.275 243.705 302.342 249.993 303.647 257.595C301.394 254.747 299.257 252.135 297.952 250.477C295.817 247.747 293.8 245.017 292.021 242.287C286.801 234.461 282.529 225.321 281.818 215.83C281.061 210.21 281.755 204.49 283.834 199.215V199.215Z" fill="#9778FF"/>
<path d="M502.247 244.18C507.823 240.858 515.298 236.23 520.518 232.672C508.6 227.106 496.404 222.157 483.978 217.843C477.071 221.624 470.377 225.782 463.927 230.299C477.926 234.452 488.841 239.554 502.247 244.18Z" fill="white"/>
<path d="M493.469 237.655C496.199 238.84 498.929 240.021 501.535 241.331C503.552 239.79 505.57 238.366 507.586 236.941C509.366 235.756 511.145 234.575 513.046 233.501C510.912 232.433 508.657 231.367 506.403 230.298C506.055 230.214 505.73 230.052 505.453 229.823C501.44 232.406 497.445 235.016 493.469 237.655V237.655Z" fill="#008C6E"/>
<path d="M492.52 227.096C490.74 228.282 488.841 229.35 487.182 230.535C485.749 231.497 484.363 232.527 483.028 233.62C484.215 234.095 485.52 234.57 486.707 235.043C488.13 235.637 489.555 236.112 490.86 236.705C494.79 233.88 498.869 231.267 503.079 228.879C500.469 227.692 497.739 226.624 495.011 225.558C494.154 226.026 493.323 226.54 492.52 227.096V227.096Z" fill="#14D29B"/>
<path d="M492.637 224.489L486.942 222.354C486.052 221.984 485.14 221.667 484.212 221.404C483.883 221.647 483.524 221.846 483.144 221.998C479.222 224.335 475.422 226.87 471.756 229.591C474.629 230.547 477.477 231.575 480.297 232.676C484.332 229.824 488.485 227.219 492.637 224.489V224.489Z" fill="#FFD340"/>
<path d="M506.163 246.079C509.721 242.283 514.111 237.063 517.196 233.157C500.673 231.227 484.096 229.802 467.486 228.886C462.988 233.163 458.897 237.85 455.267 242.885C473.181 243.349 488.485 245.129 506.163 246.079Z" fill="white"/>
<path d="M492.043 242.757C495.839 243.112 499.518 243.469 503.196 243.942C504.264 242.401 505.212 240.739 506.399 239.197C507.402 237.806 508.515 236.497 509.726 235.282C506.641 234.918 503.556 234.453 500.353 234.096C499.88 234.096 499.405 233.978 498.93 233.978C496.671 236.942 494.298 239.791 492.043 242.757V242.757Z" fill="#643CFF"/>
<path d="M483.384 234.452C482.316 235.757 481.129 236.942 480.181 238.248C479.385 239.3 478.672 240.41 478.046 241.57L483.027 241.925C484.925 242.043 486.824 242.289 488.722 242.4C490.883 239.274 493.304 236.337 495.96 233.62L484.925 232.554C484.37 233.151 483.855 233.785 483.384 234.452V234.452Z" fill="#9778FF"/>
<path d="M481.486 232.315C478.995 232.079 476.39 231.96 473.893 231.722C472.706 231.604 471.527 231.604 470.333 231.485L469.622 232.197C467.163 234.803 464.94 237.622 462.979 240.62C466.775 240.858 470.572 240.984 474.368 241.332C476.74 238.367 479.113 235.409 481.486 232.315V232.315Z" fill="#FF465A"/>
<path d="M509.399 239.55C510.291 239.337 510.941 238.855 510.85 238.472C510.759 238.09 509.961 237.953 509.069 238.165C508.176 238.378 507.526 238.861 507.617 239.243C507.708 239.625 508.506 239.763 509.399 239.55Z" fill="black"/>
<path d="M514.705 242.283C513.89 242.308 513.081 242.146 512.339 241.808L512.932 240.266C514.417 240.714 516.011 240.629 517.44 240.028C518.666 239.547 519.776 238.812 520.697 237.871C521.617 236.93 522.327 235.804 522.78 234.568C523.033 233.722 523.078 232.827 522.913 231.96C522.748 231.093 522.376 230.278 521.83 229.584C521.066 228.668 520.062 227.983 518.931 227.606C517.799 227.229 516.585 227.175 515.424 227.45C514.015 227.676 512.695 228.282 511.607 229.204C510.518 230.126 509.702 231.328 509.247 232.68C508.996 233.617 508.941 234.596 509.084 235.555C509.227 236.514 509.566 237.434 510.078 238.257L508.774 239.087C508.137 238.072 507.714 236.939 507.531 235.756C507.347 234.573 507.406 233.365 507.705 232.205C508.27 230.579 509.263 229.136 510.58 228.028C511.897 226.92 513.489 226.188 515.187 225.91C516.634 225.56 518.151 225.631 519.56 226.115C520.968 226.599 522.208 227.475 523.135 228.64C523.847 229.527 524.327 230.576 524.534 231.694C524.741 232.812 524.668 233.963 524.322 235.046C523.835 236.539 523.016 237.901 521.927 239.031C520.838 240.162 519.507 241.031 518.034 241.573C517.001 242.084 515.856 242.328 514.705 242.283V242.283ZM399.981 248.451L395.118 245.841C398.082 211.911 401.997 178.455 406.863 145.473C428.93 144.05 454.792 143.457 481.723 141.795L485.994 144.161L399.981 248.451ZM450.521 266.485C446.606 266.367 428.217 258.295 425.964 257.349C423.71 256.402 420.032 253.79 432.727 250.942C445.301 248.096 444.826 245.011 467.369 255.095L450.521 266.485Z" fill="black"/>
<path d="M472.113 228.994C475.672 198.861 480.06 172.878 485.994 144.046C461.08 146.181 431.776 146.537 411.727 148.079C406.863 181.062 402.947 214.519 399.98 248.45C423.708 243.236 448.979 236.351 472.113 228.994V228.994Z" fill="#FDB849"/>
<path d="M454.317 218.435C456.333 217.843 460.13 222.113 461.91 227.926C463.69 233.502 464.64 240.145 461.791 240.977C458.945 241.925 464.995 243.942 466.536 240.859C468.078 237.776 467.011 232.434 465.47 227.333C463.928 222.231 457.995 216.063 455.028 216.536C452.062 217.01 454.317 218.435 454.317 218.435V218.435Z" fill="black"/>
<path d="M475.434 246.79C473.775 241.57 472.231 236.234 470.453 231.011C467.13 220.689 463.453 209.182 459.657 198.86C453.605 200.165 446.844 201.825 440.199 201.226C444.234 220.325 448.267 239.426 452.419 258.409C452.894 260.425 453.605 266.002 452.539 266.832C454.437 267.544 476.381 260.071 477.096 258.291C478.519 255.331 476.739 250.698 475.434 246.79ZM465.231 238.722C465.058 239.248 464.764 239.725 464.373 240.117C463.981 240.509 463.504 240.803 462.978 240.977C461.948 241.002 460.929 240.764 460.016 240.287C459.102 239.809 458.326 239.107 457.759 238.247C456.212 236.268 454.972 234.068 454.08 231.72C453.1 229.261 452.538 226.654 452.419 224.009C452.318 222.991 452.483 221.964 452.898 221.028C453.313 220.093 453.963 219.28 454.785 218.671C455.806 218.311 456.914 218.278 457.956 218.575C458.997 218.872 459.92 219.486 460.598 220.331C464.995 224.841 467.011 234.682 465.231 238.722V238.722Z" fill="#FFD340"/>
<path d="M440.318 201.233L438.776 207.046C438.776 207.046 447.674 248.213 448.504 254.858C449.089 258.592 449.089 262.394 448.504 266.127C449.79 266.462 451.098 266.7 452.419 266.839C453.487 266.839 454.199 266.246 452.301 257.468C450.403 248.69 440.318 201.233 440.318 201.233V201.233Z" fill="black"/>
<path d="M398.201 262.688L362.136 272.652L340.9 258.061V256.399L398.201 261.144V262.688Z" fill="#643CFF"/>
<path d="M340.9 256.399L362.136 271.11L398.201 261.144L374.831 250.111L340.9 256.399Z" fill="#9778FF"/>
<path d="M348.137 257.705L374.712 252.485L390.49 260.552L389.778 260.672L374.712 252.722L348.73 258.062L348.137 257.705V257.705Z" fill="#643CFF"/>
<path d="M361.661 311.329C361.165 311.322 360.677 311.197 360.238 310.965C359.333 310.477 358.591 309.735 358.103 308.83C356.364 305.924 355.082 302.768 354.299 299.473C353.134 295.188 352.262 290.828 351.689 286.424C351.075 283.206 351.115 279.898 351.808 276.696C352.164 275.002 352.921 273.418 354.015 272.076C355.109 270.735 356.508 269.675 358.096 268.985L358.689 270.645C357.36 271.235 356.192 272.136 355.284 273.271C354.375 274.406 353.752 275.743 353.468 277.169C352.895 280.185 352.854 283.277 353.349 286.306C353.939 290.62 354.771 294.898 355.841 299.119C356.57 302.248 357.771 305.248 359.401 308.017C359.714 308.629 360.212 309.127 360.824 309.44C362.129 310.033 363.791 308.728 364.975 307.305C369.247 301.845 371.502 294.965 373.165 289.034L373.284 288.797C373.756 286.37 374.726 284.068 376.132 282.034C378.624 278.949 383.25 277.408 388.588 278.119C390.76 278.41 392.904 278.886 394.995 279.543C396.986 280.091 399.006 280.527 401.046 280.848C407.689 281.798 414.332 279.899 420.502 277.883C424.308 276.829 427.861 275.013 430.943 272.543C432.723 270.883 434.146 268.392 433.196 266.375C432.527 265.212 431.54 264.265 430.35 263.645C429.353 263.104 428.467 262.38 427.74 261.51C425.96 259.612 425.248 256.646 425.603 252.612C425.625 252.012 425.704 251.416 425.842 250.832C426.197 248.672 426.197 246.468 425.842 244.307C425.537 242.996 424.877 241.793 423.936 240.83C422.994 239.868 421.806 239.182 420.502 238.847L420.866 237.069C422.517 237.441 424.029 238.274 425.226 239.471C426.423 240.668 427.257 242.179 427.629 243.831C428.082 246.219 428.122 248.667 427.747 251.069C427.649 251.616 427.609 252.173 427.629 252.729C427.265 256.17 427.866 258.66 429.289 260.203C429.963 260.889 430.72 261.487 431.544 261.983C432.968 262.814 434.153 263.999 434.984 265.423C436.407 268.517 434.39 271.83 432.254 273.728C428.965 276.397 425.172 278.374 421.101 279.541C414.694 281.678 407.815 283.574 400.815 282.626C398.679 282.333 396.574 281.854 394.521 281.195C392.504 280.59 390.441 280.154 388.352 279.89C383.725 279.297 379.572 280.484 377.555 283.093C376.345 284.932 375.499 286.985 375.064 289.143L374.945 289.382C373.284 295.55 371.031 302.668 366.404 308.362C365.897 309.19 365.204 309.888 364.381 310.403C363.558 310.918 362.627 311.235 361.661 311.329V311.329Z" fill="#643CFF"/>
<path d="M418.846 239.79C418.964 238.367 419.21 236.942 419.439 235.518C419.827 235.441 420.227 235.443 420.614 235.525C421.002 235.606 421.368 235.766 421.692 235.994C422.017 236.241 422.274 236.567 422.44 236.94C422.606 237.313 422.675 237.721 422.642 238.128C422.563 238.534 422.379 238.912 422.108 239.224C421.837 239.536 421.489 239.772 421.099 239.908C420.74 240.064 420.349 240.134 419.958 240.114C419.567 240.093 419.187 239.982 418.846 239.79V239.79Z" fill="#643CFF"/>
<path d="M414.839 240.109L415.385 235.634L417.151 235.85L416.605 240.324L414.839 240.109ZM410.657 241.467L411.418 236.183L413.18 236.438L412.419 241.72L410.657 241.467ZM403.524 240.411L407.243 239.647L407.601 241.389L403.883 242.153L403.524 240.411ZM425.727 238.486L425.252 236.706L427.386 236.342L427.505 238.12L425.727 238.486Z" fill="black"/>
<path d="M366.288 430.798C358.113 428.4 350.868 423.556 345.527 416.917C340.179 410.372 336.988 402.332 336.393 393.901C324.793 396.587 313.018 398.45 301.156 399.478C299.856 410.31 301.495 421.293 305.902 431.273C310.647 441.001 319.07 449.306 329.511 452.272C343.317 448.172 355.932 440.806 366.288 430.798V430.798Z" fill="#9778FF"/>
<path d="M348.848 428.899C338.645 424.509 326.662 416.561 321.799 406.477C320.068 417.83 320.92 429.428 324.291 440.407C333.551 436.729 341.377 432.333 348.848 428.899Z" fill="white"/>
<path d="M340.425 438.158C330.816 432.818 324.045 425.7 314.8 424.04C320.871 423.543 326.965 424.648 332.476 427.243C333.499 422.419 335.985 418.027 339.595 414.667C335.206 422.018 334.849 432.933 340.425 438.158V438.158Z" fill="black"/>
<path d="M483.739 426.053C482.162 425.093 480.656 424.022 479.231 422.85C479.112 423.205 478.994 423.323 478.867 423.68C480.183 424.602 481.45 425.592 482.663 426.646C482.994 426.403 483.356 426.203 483.739 426.053ZM474.841 423.323L468.791 421.9V421.545L474.961 422.85L474.841 423.323ZM481.961 435.428L481.722 435.073C482.963 434.492 484.028 433.591 484.807 432.463C485.192 431.941 485.437 431.329 485.521 430.685C485.604 430.042 485.522 429.388 485.282 428.785L485.637 428.548C485.908 429.225 486.006 429.959 485.923 430.684C485.841 431.408 485.58 432.101 485.164 432.7C484.282 433.808 483.195 434.734 481.961 435.428Z" fill="white"/>
<path d="M480.181 436.374L482.079 433.171L482.434 433.407L481.011 435.781L483.146 435.544L483.266 435.899L480.181 436.374ZM474.486 442.424C473.074 440.796 471.569 439.251 469.978 437.797L470.342 437.442C472.001 438.863 473.549 440.41 474.97 442.069L474.486 442.424ZM474.13 439.932C473.192 439.309 472.352 438.55 471.638 437.679L472.002 437.315C472.702 438.12 473.496 438.837 474.368 439.452L474.13 439.932ZM472.248 436.661L472.592 436.334L474.636 438.483L474.292 438.811L472.248 436.661ZM478.164 439.577C476.978 438.034 475.798 436.611 474.486 435.187L474.841 434.823C476.131 436.232 477.358 437.697 478.519 439.213L478.164 439.577ZM462.622 428.781L462.148 428.663C462.527 426.828 462.726 424.96 462.742 423.086H463.215C463.194 424.999 462.995 426.905 462.622 428.781ZM463.927 427.951L463.453 427.831C463.689 426.739 463.807 425.626 463.808 424.509H464.283C464.165 425.696 464.045 426.764 463.927 427.951V427.951ZM464.118 429.394L464.464 426.808L464.937 426.872L464.591 429.456L464.118 429.394ZM473.893 425.341L473.529 425.103C474.113 424.416 474.793 423.817 475.547 423.323L473.649 421.663L474.004 421.299L476.259 423.315L476.021 423.436C475.232 423.976 474.517 424.617 473.893 425.341ZM494.417 429.256C492.979 429.274 491.544 429.115 490.146 428.781L490.266 428.306C491.965 428.763 493.731 428.923 495.485 428.781V429.256C495.132 429.197 494.771 429.197 494.417 429.256ZM493.824 430.086C493.058 430.091 492.296 429.968 491.571 429.722L491.689 429.249C492.498 429.485 493.337 429.608 494.18 429.613V430.088L493.824 430.086ZM453.962 433.407C453.523 433.425 453.086 433.349 452.678 433.186C452.27 433.022 451.902 432.775 451.596 432.459C451.146 431.888 450.892 431.188 450.87 430.461C450.849 429.735 451.062 429.02 451.478 428.424C452.131 427.261 453.186 426.376 454.444 425.934L454.563 426.408C453.407 426.857 452.442 427.693 451.833 428.774C451.484 429.302 451.299 429.921 451.299 430.554C451.299 431.186 451.484 431.805 451.833 432.333C452.37 432.865 453.095 433.163 453.851 433.163C454.725 433.1 455.576 432.857 456.351 432.45C457.127 432.043 457.811 431.48 458.359 430.797C458.67 430.422 458.895 429.983 459.018 429.511C459.141 429.04 459.159 428.547 459.071 428.067C458.887 427.313 458.486 426.629 457.916 426.102C457.346 425.574 456.634 425.226 455.868 425.101L455.986 424.626C456.862 424.762 457.675 425.165 458.312 425.782C458.949 426.398 459.38 427.196 459.546 428.067C459.681 429.165 459.383 430.272 458.714 431.152C458.073 432.005 457.21 432.665 456.219 433.062C455.491 433.301 454.728 433.418 453.962 433.407V433.407ZM444.353 429.492H448.386V429.967H444.353V429.492Z" fill="white"/>
<path d="M448.149 430.916L447.793 430.679L448.743 429.492L447.556 429.017L447.793 428.662L449.454 429.374L448.149 430.916V430.916ZM336.747 411.815C335.324 409.798 333.901 407.663 332.476 405.647L332.84 405.408C334.263 407.427 335.686 409.561 337.111 411.578L336.747 411.815Z" fill="white"/>
<path d="M337.816 413.12L337.452 413.002C336.258 412.651 335.105 412.174 334.012 411.578L334.249 411.214C335.2 411.82 336.246 412.261 337.343 412.521L337.224 409.555H337.699L337.816 413.12ZM305.902 413.24L305.538 413.002C308.369 409.084 311.503 405.395 314.911 401.969L315.275 402.333C311.806 405.657 308.667 409.31 305.902 413.24ZM308.867 411.697L308.503 411.46C309.07 410.621 309.705 409.83 310.401 409.094L310.765 409.458C310.054 410.155 309.46 410.985 308.867 411.697V411.697ZM306.934 415.708L312.47 408.743L312.842 409.038L307.307 416.005L306.934 415.708ZM311.712 413.588L311.348 413.351C312.746 411.597 314.21 409.898 315.737 408.255L316.101 408.61C314.483 410.125 313.013 411.792 311.712 413.588V413.588ZM343.865 434.357V433.882C347.229 433.539 350.473 432.445 353.357 430.679L353.595 431.034C350.633 432.839 347.312 433.973 343.865 434.357ZM347.662 434.831L347.544 434.357C349.036 434 350.474 433.441 351.815 432.696L352.052 433.06C350.723 433.94 349.23 434.543 347.662 434.831V434.831Z" fill="white"/>
</g>
<defs>
<clipPath id="clip0_1703_1731">
<rect width="364" height="364" fill="white" transform="translate(238 98)"/>
</clipPath>
</defs>
</svg>
