<svg width="1500" height="928" viewBox="0 0 1500 928" fill="none" xmlns="http://www.w3.org/2000/svg">
<g clip-path="url(#clip0_23047_503)">
<rect width="1500" height="928" fill="#5E38C2"/>
<circle cx="1600" cy="464" r="800" fill="#896DCF"/>
<path d="M163.952 401.352L180.488 403.224C180.557 406.136 181.32 408.459 182.776 410.192C184.232 411.856 186.277 412.688 188.912 412.688C191.616 412.688 193.696 411.752 195.152 409.88C196.608 407.939 197.336 405.304 197.336 401.976V353.2H214.184V403.224C214.184 410.365 211.861 416.189 207.216 420.696C202.64 425.203 196.539 427.456 188.912 427.456C181.216 427.456 175.149 425.133 170.712 420.488C166.205 415.773 163.952 409.395 163.952 401.352ZM222.452 410.92C222.452 401.768 229.177 396.083 242.628 393.864L255.732 391.784V390.848C255.732 385.856 253.063 383.36 247.724 383.36C245.367 383.36 243.46 383.776 242.004 384.608C240.548 385.44 239.82 386.584 239.82 388.04C239.82 388.456 239.855 388.768 239.924 388.976L225.78 393.76C225.225 391.749 224.948 390.085 224.948 388.768C224.948 384.123 227.097 380.344 231.396 377.432C235.764 374.451 241.207 372.96 247.724 372.96C263.463 372.96 271.332 379.477 271.332 392.512V413.208C271.332 418.269 272.476 422.533 274.764 426H258.956C257.431 424.475 256.599 422.256 256.46 419.344C252.647 424.752 247.377 427.456 240.652 427.456C235.036 427.456 230.599 425.965 227.34 422.984C224.081 419.933 222.452 415.912 222.452 410.92ZM255.732 402.808V401.872L244.708 403.744C239.993 404.576 237.636 406.656 237.636 409.984C237.636 411.509 238.225 412.792 239.404 413.832C240.583 414.872 242.073 415.392 243.876 415.392C247.343 415.392 250.185 414.144 252.404 411.648C254.623 409.013 255.732 406.067 255.732 402.808ZM282.926 426V353.2H298.526V388.04L312.254 374.416H331.494L312.878 392.616L334.302 426H315.894L301.646 403.64L298.526 406.76V426H282.926ZM341.763 420.176C336.216 415.253 333.443 408.597 333.443 400.208C333.443 391.819 336.216 385.197 341.763 380.344C347.379 375.421 354.139 372.96 362.043 372.96C369.947 372.96 376.672 375.421 382.219 380.344C387.835 385.197 390.643 391.819 390.643 400.208C390.643 408.597 387.835 415.253 382.219 420.176C376.672 425.029 369.947 427.456 362.043 427.456C354.139 427.456 347.379 425.029 341.763 420.176ZM371.091 409.256C373.587 406.968 374.835 403.952 374.835 400.208C374.835 396.464 373.587 393.448 371.091 391.16C368.664 388.872 365.648 387.728 362.043 387.728C358.437 387.728 355.387 388.872 352.891 391.16C350.464 393.448 349.251 396.464 349.251 400.208C349.251 403.952 350.464 406.968 352.891 409.256C355.387 411.544 358.437 412.688 362.043 412.688C365.648 412.688 368.664 411.544 371.091 409.256ZM415.322 420.072V426H399.722V353.2H415.322V380.136C419.69 375.352 425.41 372.96 432.482 372.96C438.861 372.96 444.373 375.421 449.018 380.344C453.733 385.267 456.09 391.888 456.09 400.208C456.09 408.528 453.698 415.149 448.914 420.072C444.13 424.995 438.445 427.456 431.858 427.456C424.925 427.456 419.413 424.995 415.322 420.072ZM436.538 409.464C439.034 407.037 440.282 403.952 440.282 400.208C440.282 396.464 439.034 393.379 436.538 390.952C434.042 388.525 430.992 387.312 427.386 387.312C423.781 387.312 420.73 388.525 418.234 390.952C415.738 393.379 414.49 396.464 414.49 400.208C414.49 403.952 415.738 407.037 418.234 409.464C420.73 411.891 423.781 413.104 427.386 413.104C430.992 413.104 434.042 411.891 436.538 409.464ZM494.807 426V353.2H511.655L538.279 394.488C539.804 397.053 540.844 398.96 541.399 400.208V353.2H557.831V426H540.983L514.359 384.4C512.834 381.765 511.794 379.859 511.239 378.68V426H494.807ZM570.449 426V374.416H586.049V426H570.449ZM569.825 368.384V351.744H586.673V368.384H569.825ZM594.763 400.208C594.763 392.235 597.363 385.717 602.563 380.656C607.832 375.525 614.419 372.96 622.323 372.96C629.811 372.96 635.912 375.421 640.627 380.344C645.342 385.267 647.699 391.403 647.699 398.752V404.056H609.531C609.947 407.107 611.299 409.568 613.587 411.44C615.875 413.243 618.648 414.144 621.907 414.144C627.523 414.144 631.891 411.44 635.011 406.032L646.243 412.376C643.747 417.437 640.488 421.216 636.467 423.712C632.515 426.208 627.454 427.456 621.283 427.456C614.142 427.595 607.902 425.029 602.563 419.76C597.224 414.491 594.624 407.973 594.763 400.208ZM610.155 393.136H633.659C633.035 390.571 631.683 388.595 629.603 387.208C627.523 385.752 624.992 385.024 622.011 385.024C619.168 385.024 616.707 385.752 614.627 387.208C612.547 388.664 611.056 390.64 610.155 393.136ZM656.98 426V353.2H672.58V426H656.98ZM679.682 411.336L691.642 403.952C694.484 411.163 698.818 414.768 704.642 414.768C706.583 414.768 708.143 414.421 709.322 413.728C710.57 412.965 711.194 411.96 711.194 410.712C711.194 409.256 710.431 408.077 708.906 407.176C707.38 406.275 704.85 405.477 701.314 404.784C695.698 403.675 691.26 401.733 688.002 398.96C684.812 396.117 683.218 392.547 683.218 388.248C683.218 383.533 685.09 379.824 688.834 377.12C692.508 374.347 697.154 372.96 702.77 372.96C708.316 372.96 712.788 374 716.186 376.08C719.583 378.16 722.46 381.523 724.818 386.168L713.586 392.72C711.575 386.896 708.039 383.984 702.978 383.984C698.956 383.984 696.946 385.163 696.946 387.52C696.946 388.768 697.812 389.843 699.546 390.744C701.279 391.576 704.087 392.443 707.97 393.344C714.14 394.731 718.612 396.741 721.386 399.376C724.159 401.941 725.546 405.443 725.546 409.88C725.546 414.941 723.57 419.136 719.618 422.464C715.666 425.792 710.604 427.456 704.434 427.456C692.647 427.456 684.396 422.083 679.682 411.336ZM731.771 400.208C731.771 392.235 734.371 385.717 739.571 380.656C744.84 375.525 751.427 372.96 759.331 372.96C766.819 372.96 772.92 375.421 777.635 380.344C782.35 385.267 784.707 391.403 784.707 398.752V404.056H746.539C746.955 407.107 748.307 409.568 750.595 411.44C752.883 413.243 755.656 414.144 758.915 414.144C764.531 414.144 768.899 411.44 772.019 406.032L783.251 412.376C780.755 417.437 777.496 421.216 773.475 423.712C769.523 426.208 764.462 427.456 758.291 427.456C751.15 427.595 744.91 425.029 739.571 419.76C734.232 414.491 731.632 407.973 731.771 400.208ZM747.163 393.136H770.667C770.043 390.571 768.691 388.595 766.611 387.208C764.531 385.752 762 385.024 759.019 385.024C756.176 385.024 753.715 385.752 751.635 387.208C749.555 388.664 748.064 390.64 747.163 393.136ZM793.988 426V374.416H809.588V381.8C813.748 375.907 819.329 372.96 826.332 372.96C832.017 372.96 836.489 374.589 839.748 377.848C843.076 381.107 844.74 385.44 844.74 390.848V426H829.14V397.92C829.14 391.125 826.089 387.728 819.988 387.728C816.799 387.728 814.268 388.941 812.396 391.368C810.524 393.795 809.588 397.053 809.588 401.144V426H793.988ZM853.898 386.48L851.194 384.608L858.89 369.008H853.066V353.2H868.666V369.008L853.898 386.48ZM868.182 411.336L880.142 403.952C882.984 411.163 887.318 414.768 893.142 414.768C895.083 414.768 896.643 414.421 897.822 413.728C899.07 412.965 899.694 411.96 899.694 410.712C899.694 409.256 898.931 408.077 897.406 407.176C895.88 406.275 893.35 405.477 889.814 404.784C884.198 403.675 879.76 401.733 876.502 398.96C873.312 396.117 871.718 392.547 871.718 388.248C871.718 383.533 873.59 379.824 877.334 377.12C881.008 374.347 885.654 372.96 891.27 372.96C896.816 372.96 901.288 374 904.686 376.08C908.083 378.16 910.96 381.523 913.318 386.168L902.086 392.72C900.075 386.896 896.539 383.984 891.478 383.984C887.456 383.984 885.446 385.163 885.446 387.52C885.446 388.768 886.312 389.843 888.046 390.744C889.779 391.576 892.587 392.443 896.47 393.344C902.64 394.731 907.112 396.741 909.886 399.376C912.659 401.941 914.046 405.443 914.046 409.88C914.046 414.941 912.07 419.136 908.118 422.464C904.166 425.792 899.104 427.456 892.934 427.456C881.147 427.456 872.896 422.083 868.182 411.336ZM965.851 426V373.064C962.87 376.323 957.739 377.952 950.459 377.952V362.352C958.571 362.352 963.979 359.301 966.683 353.2H982.699V426H965.851ZM1002.68 417.16C996.436 410.227 993.316 401.04 993.316 389.6C993.316 378.16 996.436 369.008 1002.68 362.144C1008.92 355.211 1017.03 351.744 1027.01 351.744C1037 351.744 1045.11 355.245 1051.35 362.248C1057.59 369.181 1060.71 378.299 1060.71 389.6C1060.71 400.901 1057.59 410.053 1051.35 417.056C1045.11 423.989 1037 427.456 1027.01 427.456C1017.03 427.456 1008.92 424.024 1002.68 417.16ZM1039.18 405.824C1042.3 401.803 1043.86 396.395 1043.86 389.6C1043.86 382.805 1042.3 377.397 1039.18 373.376C1036.13 369.355 1032.07 367.344 1027.01 367.344C1021.95 367.344 1017.86 369.355 1014.74 373.376C1011.69 377.397 1010.16 382.805 1010.16 389.6C1010.16 396.395 1011.69 401.803 1014.74 405.824C1017.86 409.845 1021.95 411.856 1027.01 411.856C1032.07 411.856 1036.13 409.845 1039.18 405.824ZM166.76 561V488.2H183.608V516.072H211.688V488.2H228.536V561H211.688V531.672H183.608V561H166.76ZM237.669 535.208C237.669 527.235 240.269 520.717 245.469 515.656C250.739 510.525 257.325 507.96 265.229 507.96C272.717 507.96 278.819 510.421 283.533 515.344C288.248 520.267 290.605 526.403 290.605 533.752V539.056H252.437C252.853 542.107 254.205 544.568 256.493 546.44C258.781 548.243 261.555 549.144 264.813 549.144C270.429 549.144 274.797 546.44 277.917 541.032L289.149 547.376C286.653 552.437 283.395 556.216 279.373 558.712C275.421 561.208 270.36 562.456 264.189 562.456C257.048 562.595 250.808 560.029 245.469 554.76C240.131 549.491 237.531 542.973 237.669 535.208ZM253.061 528.136H276.565C275.941 525.571 274.589 523.595 272.509 522.208C270.429 520.752 267.899 520.024 264.917 520.024C262.075 520.024 259.613 520.752 257.533 522.208C255.453 523.664 253.963 525.64 253.061 528.136ZM299.176 540.616V509.416H314.776V537.184C314.776 540.512 315.573 543.112 317.168 544.984C318.762 546.787 321.016 547.688 323.928 547.688C327.186 547.688 329.717 546.475 331.52 544.048C333.392 541.552 334.328 538.293 334.328 534.272V509.416H349.928V561H334.328V553.512C332.594 556.563 330.48 558.816 327.984 560.272C325.557 561.728 322.333 562.456 318.312 562.456C312.834 562.456 308.258 560.48 304.584 556.528C300.978 552.576 299.176 547.272 299.176 540.616ZM361.23 561V509.416H376.83V515.968C380.089 510.629 384.873 507.96 391.182 507.96C392.985 507.96 394.614 508.203 396.07 508.688L393.47 523.352C392.014 522.936 390.593 522.728 389.206 522.728C385.324 522.728 382.273 524.08 380.054 526.784C377.905 529.419 376.83 533.024 376.83 537.6V561H361.23ZM403.176 561V509.416H418.776V561H403.176ZM402.552 503.384V486.744H419.4V503.384H402.552ZM425.572 546.336L437.532 538.952C440.375 546.163 444.708 549.768 450.532 549.768C452.473 549.768 454.033 549.421 455.212 548.728C456.46 547.965 457.084 546.96 457.084 545.712C457.084 544.256 456.321 543.077 454.796 542.176C453.271 541.275 450.74 540.477 447.204 539.784C441.588 538.675 437.151 536.733 433.892 533.96C430.703 531.117 429.108 527.547 429.108 523.248C429.108 518.533 430.98 514.824 434.724 512.12C438.399 509.347 443.044 507.96 448.66 507.96C454.207 507.96 458.679 509 462.076 511.08C465.473 513.16 468.351 516.523 470.708 521.168L459.476 527.72C457.465 521.896 453.929 518.984 448.868 518.984C444.847 518.984 442.836 520.163 442.836 522.52C442.836 523.768 443.703 524.843 445.436 525.744C447.169 526.576 449.977 527.443 453.86 528.344C460.031 529.731 464.503 531.741 467.276 534.376C470.049 536.941 471.436 540.443 471.436 544.88C471.436 549.941 469.46 554.136 465.508 557.464C461.556 560.792 456.495 562.456 450.324 562.456C438.537 562.456 430.287 557.083 425.572 546.336ZM483.604 544.984V521.48H476.116V509.416H483.604V495.48H499.204V509.416H509.916V521.48H499.204V541.864C499.204 543.944 499.724 545.573 500.764 546.752C501.804 547.931 503.191 548.52 504.924 548.52C506.657 548.52 508.287 548.243 509.812 547.688L511.268 560.688C508.148 561.867 504.681 562.456 500.868 562.456C496.084 562.456 491.993 561.069 488.596 558.296C485.268 555.523 483.604 551.085 483.604 544.984ZM519.871 561V509.416H535.471V561H519.871ZM519.247 503.384V486.744H536.095V503.384H519.247ZM544.185 535.208C544.185 527.304 546.854 520.787 552.193 515.656C557.601 510.525 564.118 507.96 571.745 507.96C582.908 507.96 590.916 512.64 595.769 522L583.185 530.424C580.689 525.016 576.876 522.312 571.745 522.312C568.278 522.312 565.436 523.491 563.217 525.848C561.068 528.205 559.993 531.325 559.993 535.208C559.993 539.16 561.033 542.315 563.113 544.672C565.262 546.96 568.105 548.104 571.641 548.104C576.91 548.104 580.862 545.123 583.497 539.16L596.393 547.48C591.332 557.464 583.116 562.456 571.745 562.456C563.91 562.456 557.358 559.925 552.089 554.864C546.82 549.733 544.185 543.181 544.185 535.208ZM634.76 561V488.2H668.768C677.781 488.2 684.784 490.28 689.776 494.44C694.768 498.531 697.264 504.459 697.264 512.224C697.264 519.989 694.768 525.952 689.776 530.112C684.784 534.203 677.781 536.248 668.768 536.248H651.608V561H634.76ZM651.608 522.312H668.352C676.395 522.312 680.416 518.949 680.416 512.224C680.416 505.499 676.395 502.136 668.352 502.136H651.608V522.312ZM704.715 561V509.416H720.315V515.968C723.573 510.629 728.357 507.96 734.667 507.96C736.469 507.96 738.099 508.203 739.555 508.688L736.955 523.352C735.499 522.936 734.077 522.728 732.691 522.728C728.808 522.728 725.757 524.08 723.539 526.784C721.389 529.419 720.315 533.024 720.315 537.6V561H704.715ZM746.66 561V509.416H762.26V561H746.66ZM746.036 503.384V486.744H762.884V503.384H746.036ZM773.879 561V509.416H789.479V516.8C793.639 510.907 799.22 507.96 806.223 507.96C811.908 507.96 816.38 509.589 819.639 512.848C822.967 516.107 824.631 520.44 824.631 525.848V561H809.031V532.92C809.031 526.125 805.98 522.728 799.879 522.728C796.689 522.728 794.159 523.941 792.287 526.368C790.415 528.795 789.479 532.053 789.479 536.144V561H773.879ZM833.232 535.208C833.232 527.304 835.901 520.787 841.24 515.656C846.648 510.525 853.165 507.96 860.792 507.96C871.954 507.96 879.962 512.64 884.816 522L872.232 530.424C869.736 525.016 865.922 522.312 860.792 522.312C857.325 522.312 854.482 523.491 852.264 525.848C850.114 528.205 849.04 531.325 849.04 535.208C849.04 539.16 850.08 542.315 852.16 544.672C854.309 546.96 857.152 548.104 860.688 548.104C865.957 548.104 869.909 545.123 872.544 539.16L885.44 547.48C880.378 557.464 872.162 562.456 860.792 562.456C852.957 562.456 846.405 559.925 841.136 554.864C835.866 549.733 833.232 543.181 833.232 535.208ZM894.129 561V509.416H909.729V561H894.129ZM893.505 503.384V486.744H910.353V503.384H893.505ZM921.347 582.216V509.416H936.947V515.344C941.107 510.421 946.793 507.96 954.003 507.96C960.382 507.96 965.929 510.421 970.643 515.344C975.358 520.267 977.715 526.888 977.715 535.208C977.715 543.459 975.289 550.08 970.435 555.072C965.651 559.995 960.07 562.456 953.691 562.456C946.827 562.456 941.246 560.168 936.947 555.592V582.216H921.347ZM958.163 544.464C960.659 542.037 961.907 538.952 961.907 535.208C961.907 531.464 960.659 528.379 958.163 525.952C955.667 523.525 952.617 522.312 949.011 522.312C945.406 522.312 942.355 523.525 939.859 525.952C937.363 528.379 936.115 531.464 936.115 535.208C936.115 538.952 937.363 542.037 939.859 544.464C942.355 546.891 945.406 548.104 949.011 548.104C952.617 548.104 955.667 546.891 958.163 544.464ZM986.754 561V488.2H1002.35V561H986.754ZM1011.37 535.208C1011.37 527.235 1013.97 520.717 1019.17 515.656C1024.44 510.525 1031.03 507.96 1038.93 507.96C1046.42 507.96 1052.52 510.421 1057.24 515.344C1061.95 520.267 1064.31 526.403 1064.31 533.752V539.056H1026.14C1026.56 542.107 1027.91 544.568 1030.2 546.44C1032.48 548.243 1035.26 549.144 1038.52 549.144C1044.13 549.144 1048.5 546.44 1051.62 541.032L1062.85 547.376C1060.36 552.437 1057.1 556.216 1053.08 558.712C1049.12 561.208 1044.06 562.456 1037.89 562.456C1030.75 562.595 1024.51 560.029 1019.17 554.76C1013.83 549.491 1011.23 542.973 1011.37 535.208ZM1026.76 528.136H1050.27C1049.64 525.571 1048.29 523.595 1046.21 522.208C1044.13 520.752 1041.6 520.024 1038.62 520.024C1035.78 520.024 1033.32 520.752 1031.24 522.208C1029.16 523.664 1027.67 525.64 1026.76 528.136ZM1070.09 546.336L1082.05 538.952C1084.89 546.163 1089.22 549.768 1095.05 549.768C1096.99 549.768 1098.55 549.421 1099.73 548.728C1100.98 547.965 1101.6 546.96 1101.6 545.712C1101.6 544.256 1100.84 543.077 1099.31 542.176C1097.79 541.275 1095.26 540.477 1091.72 539.784C1086.1 538.675 1081.67 536.733 1078.41 533.96C1075.22 531.117 1073.62 527.547 1073.62 523.248C1073.62 518.533 1075.5 514.824 1079.24 512.12C1082.91 509.347 1087.56 507.96 1093.18 507.96C1098.72 507.96 1103.19 509 1106.59 511.08C1109.99 513.16 1112.87 516.523 1115.22 521.168L1103.99 527.72C1101.98 521.896 1098.45 518.984 1093.38 518.984C1089.36 518.984 1087.35 520.163 1087.35 522.52C1087.35 523.768 1088.22 524.843 1089.95 525.744C1091.69 526.576 1094.49 527.443 1098.38 528.344C1104.55 529.731 1109.02 531.741 1111.79 534.376C1114.57 536.941 1115.95 540.443 1115.95 544.88C1115.95 549.941 1113.98 554.136 1110.02 557.464C1106.07 560.792 1101.01 562.456 1094.84 562.456C1083.05 562.456 1074.8 557.083 1070.09 546.336Z" fill="white"/>
</g>
<defs>
<clipPath id="clip0_23047_503">
<rect width="1500" height="928" fill="white"/>
</clipPath>
</defs>
</svg>
