<svg width="32" height="32" viewBox="0 0 32 32" fill="none" xmlns="http://www.w3.org/2000/svg">
<rect x="0.48" y="0.48" width="31.04" height="31.04" rx="15.52" fill="white"/>
<rect x="0.48" y="0.48" width="31.04" height="31.04" rx="15.52" stroke="black" stroke-width="0.96"/>
<path d="M6.3742 21.2V11.6768H8.14061V13.6928C8.3966 13.1296 8.78701 12.6304 9.31181 12.1952C9.84941 11.76 10.515 11.5424 11.3086 11.5424C11.6158 11.5424 11.9102 11.5744 12.1918 11.6384V13.5008C11.7822 13.4368 11.443 13.4048 11.1742 13.4048C9.17741 13.4048 8.17901 14.576 8.17901 16.9184V21.2H6.3742ZM20.7269 21.2L17.2133 16.8224L15.4853 18.4352V21.2H13.6805V7.75995H15.4853V13.2512V16.4L20.3429 11.6768H22.7045L18.4805 15.632L23.0309 21.2H20.7269ZM24.0925 21.2V18.704H26.5501V21.2H24.0925Z" fill="black"/>
</svg>
