<svg width="37" height="36" viewBox="0 0 37 36" fill="none" xmlns="http://www.w3.org/2000/svg">
<path d="M18.9947 28.6065C17.5006 28.6065 16.1124 28.3564 14.83 27.8564C13.5476 27.3564 12.43 26.6476 11.4771 25.73C10.5241 24.8124 9.78001 23.7271 9.24472 22.474C8.70942 21.2211 8.44177 19.8476 8.44177 18.3534C8.44177 16.9182 8.70354 15.5447 9.22707 14.2329C9.75059 12.9212 10.4859 11.7653 11.4329 10.7653C12.38 9.76527 13.4829 9.01233 14.7418 8.50645C14.8476 8.45939 14.9565 8.42998 15.0682 8.41821C15.18 8.40645 15.2653 8.40057 15.3241 8.40057C15.5124 8.40057 15.6594 8.46234 15.7653 8.58587C15.8712 8.7094 15.9241 8.84175 15.9241 8.98292C15.9241 9.02998 15.9182 9.08881 15.9065 9.15939C15.8947 9.22998 15.8653 9.32998 15.8182 9.4594C15.6418 9.88293 15.4888 10.4476 15.3594 11.1535C15.23 11.8594 15.1653 12.5006 15.1653 13.077C15.1653 14.9123 15.5359 16.5006 16.2771 17.8417C17.0182 19.1829 18.0653 20.2182 19.4183 20.9476C20.7712 21.6771 22.3712 22.0418 24.2182 22.0418C24.8418 22.0418 25.4506 21.9859 26.0446 21.8741C26.6388 21.7623 27.1241 21.6417 27.5006 21.5123C27.6889 21.4652 27.8359 21.4417 27.9417 21.4417C28.0947 21.4417 28.2329 21.4976 28.3564 21.6094C28.48 21.7212 28.5418 21.877 28.5418 22.077C28.5418 22.1123 28.5359 22.1829 28.5241 22.2888C28.5123 22.3947 28.4829 22.5064 28.4359 22.624C28.0006 23.7299 27.3183 24.7359 26.3889 25.6418C25.4594 26.5476 24.3594 27.2682 23.0888 27.8034C21.8182 28.3388 20.4535 28.6065 18.9947 28.6065Z" fill="#1A1D29"/>
</svg>
