<svg width="36" height="36" viewBox="0 0 36 36" fill="none" xmlns="http://www.w3.org/2000/svg">
<rect width="36" height="36" rx="18" fill="#6539B1"/>
<path d="M23.5917 21.3861C18.2184 21.3861 14.8055 18.0544 14.8055 12.7116C14.8055 11.5435 15.0797 9.98941 15.4454 9.16666C15.5673 8.90256 15.5978 8.71973 15.5978 8.57753C15.5978 8.25249 15.3641 7.93761 14.9477 7.93761C14.7953 7.93761 14.5515 7.97824 14.2976 8.06965C10.519 9.58311 8 13.575 8 17.8106C8 23.7731 12.5099 28.0493 18.452 28.0493C22.7588 28.0493 26.5272 25.449 27.8578 22.0564C27.9695 21.7924 28 21.5283 28 21.3861C28 20.9899 27.6953 20.7258 27.3702 20.7258C27.1976 20.7258 27.035 20.7665 26.8014 20.868C26.0396 21.1321 24.8106 21.3861 23.5917 21.3861Z" fill="#DAD0F6"/>
</svg>
