<svg width="36" height="36" viewBox="0 0 36 36" fill="none" xmlns="http://www.w3.org/2000/svg">
<path d="M19.4408 28.8717L27.7134 24.0762C28.6066 23.5552 29 23.1086 29 22.4387C29 21.7582 28.6066 21.3222 27.7134 20.7905L22.8966 18.0046L27.7134 15.2081C28.6066 14.6871 29 14.2405 29 13.5706C29 12.8901 28.6066 12.4541 27.7134 11.9225L19.4408 7.12693C18.8879 6.80793 18.4519 6.64844 18.0053 6.64844C17.5481 6.64844 17.1121 6.80793 16.5592 7.12693L8.28661 11.9225C7.39343 12.4541 7 12.8901 7 13.5706C7 14.2405 7.39343 14.6871 8.28661 15.2081L13.1034 18.0046L8.28661 20.7905C7.39343 21.3222 7 21.7582 7 22.4387C7 23.1086 7.39343 23.5552 8.28661 24.0762L16.5592 28.8717C17.1121 29.1907 17.5481 29.3502 18.0053 29.3502C18.4519 29.3502 18.8879 29.1907 19.4408 28.8717ZM18.0053 20.4822C18.4519 20.4822 18.8879 20.3333 19.4408 20.0037L20.7912 19.2168L26.2673 22.3323C26.3098 22.3642 26.3417 22.3855 26.3417 22.4387C26.3417 22.4812 26.3098 22.5131 26.2673 22.5344L18.4306 27.0003C18.2711 27.0854 18.1435 27.1385 18.0053 27.1385C17.8565 27.1385 17.7289 27.0854 17.5694 27.0003L9.74335 22.5344C9.69019 22.5131 9.66892 22.4812 9.66892 22.4387C9.66892 22.3855 9.69019 22.3642 9.74335 22.3323L15.1982 19.2168L16.5592 20.0037C17.1121 20.3333 17.5481 20.4822 18.0053 20.4822Z" fill="#1A1D29"/>
</svg>
