<svg width="36" height="36" viewBox="0 0 36 36" fill="none" xmlns="http://www.w3.org/2000/svg">
<g clip-path="url(#clip0_46_4003)">
<path d="M18 35.9999C20.4589 35.9999 22.7736 35.5293 24.9441 34.5882C27.1147 33.647 29.0294 32.347 30.6882 30.6882C32.347 29.0293 33.647 27.1146 34.5881 24.9441C35.5294 22.7735 36 20.4588 36 18C36 15.5412 35.5294 13.2265 34.5881 11.0559C33.647 8.88528 32.347 6.97058 30.6882 5.31176C29.0294 3.65294 27.1118 2.35294 24.9352 1.41176C22.7588 0.470588 20.4412 0 17.9823 0C15.5235 0 13.2088 0.470588 11.0382 1.41176C8.86764 2.35294 6.95587 3.65294 5.30293 5.31176C3.65 6.97058 2.35294 8.88528 1.41176 11.0559C0.470588 13.2265 0 15.5412 0 18C0 20.4588 0.470588 22.7735 1.41176 24.9441C2.35294 27.1146 3.65293 29.0293 5.31175 30.6882C6.97058 32.347 8.88528 33.647 11.0559 34.5882C13.2264 35.5293 15.5412 35.9999 18 35.9999Z" fill="#0A1F33"/>
<path d="M18.4944 28.6063C17.0002 28.6063 15.612 28.3562 14.3296 27.8562C13.0473 27.3562 11.9296 26.6474 10.9767 25.7298C10.0238 24.8122 9.27964 23.7269 8.74435 22.4739C8.20906 21.221 7.94141 19.8474 7.94141 18.3532C7.94141 16.918 8.20317 15.5445 8.7267 14.2327C9.25023 12.921 9.98552 11.7651 10.9326 10.7651C11.8796 9.76509 12.9826 9.01215 14.2414 8.50627C14.3473 8.45921 14.4561 8.4298 14.5679 8.41803C14.6796 8.40627 14.7649 8.40039 14.8237 8.40039C15.012 8.40039 15.1591 8.46216 15.2649 8.58569C15.3708 8.70922 15.4238 8.84157 15.4238 8.98273C15.4238 9.0298 15.4179 9.08863 15.4061 9.15921C15.3943 9.22979 15.3649 9.3298 15.3179 9.45922C15.1414 9.88274 14.9885 10.4474 14.8591 11.1533C14.7296 11.8592 14.6649 12.5004 14.6649 13.0769C14.6649 14.9121 15.0355 16.5004 15.7767 17.8416C16.5179 19.1827 17.565 20.218 18.918 20.9474C20.2708 21.6769 21.8708 22.0416 23.7179 22.0416C24.3414 22.0416 24.9502 21.9857 25.5443 21.8739C26.1384 21.7621 26.6237 21.6415 27.0002 21.5121C27.1885 21.465 27.3355 21.4415 27.4413 21.4415C27.5943 21.4415 27.7325 21.4974 27.856 21.6092C27.9796 21.721 28.0414 21.8769 28.0414 22.0768C28.0414 22.1121 28.0355 22.1827 28.0237 22.2886C28.0119 22.3945 27.9825 22.5063 27.9355 22.6238C27.5003 23.7298 26.8179 24.7357 25.8885 25.6416C24.9591 26.5474 23.8591 27.268 22.5885 27.8032C21.3178 28.3386 19.9532 28.6063 18.4944 28.6063Z" fill="#EBF2F5"/>
</g>
<defs>
<clipPath id="clip0_46_4003">
<rect width="36" height="36" fill="white"/>
</clipPath>
</defs>
</svg>
