<svg width="32" height="32" viewBox="0 0 32 32" fill="none" xmlns="http://www.w3.org/2000/svg">
<g clip-path="url(#clip0_46_4003)">
<path d="M16.439 25.4276C15.1109 25.4276 13.8769 25.2053 12.737 24.7608C11.5971 24.3164 10.6037 23.6864 9.75663 22.8707C8.90957 22.0551 8.24814 21.0903 7.77233 19.9765C7.2965 18.8629 7.05859 17.6419 7.05859 16.3138C7.05859 15.038 7.29127 13.8171 7.75663 12.6511C8.22199 11.4851 8.87558 10.4576 9.71741 9.56875C10.5592 8.67986 11.5396 8.01058 12.6586 7.56091C12.7527 7.51908 12.8494 7.49294 12.9488 7.48247C13.0481 7.47202 13.1239 7.4668 13.1762 7.4668C13.3436 7.4668 13.4743 7.5217 13.5684 7.6315C13.6625 7.74131 13.7096 7.85895 13.7096 7.98443C13.7096 8.02627 13.7043 8.07856 13.6939 8.1413C13.6834 8.20404 13.6573 8.29293 13.6154 8.40798C13.4586 8.78444 13.3226 9.2864 13.2076 9.91386C13.0926 10.5413 13.0351 11.1112 13.0351 11.6237C13.0351 13.255 13.3645 14.6668 14.0233 15.8589C14.6821 17.0511 15.6129 17.9713 16.8155 18.6197C18.0181 19.2681 19.4403 19.5923 21.0821 19.5923C21.6364 19.5923 22.1775 19.5426 22.7056 19.4433C23.2337 19.3439 23.6651 19.2367 23.9997 19.1217C24.1671 19.0798 24.2978 19.0589 24.3918 19.0589C24.5278 19.0589 24.6507 19.1086 24.7605 19.2079C24.8703 19.3073 24.9253 19.4459 24.9253 19.6236C24.9253 19.655 24.92 19.7178 24.9095 19.8119C24.899 19.906 24.8729 20.0053 24.8311 20.1099C24.4443 21.0929 23.8377 21.9871 23.0116 22.7923C22.1854 23.5975 21.2076 24.238 20.0782 24.7138C18.9488 25.1896 17.7357 25.4276 16.439 25.4276Z" fill="#5551FF"/>
</g>
<defs>
<clipPath id="clip0_46_4003">
<rect width="32" height="32" fill="white"/>
</clipPath>
</defs>
</svg>
