<svg width="37" height="36" viewBox="0 0 37 36" fill="none" xmlns="http://www.w3.org/2000/svg">
<path d="M18.9949 28.6065C17.5007 28.6065 16.1125 28.3564 14.8301 27.8564C13.5478 27.3564 12.4301 26.6476 11.4772 25.73C10.5242 24.8124 9.78013 23.7271 9.24484 22.474C8.70954 21.2211 8.44189 19.8476 8.44189 18.3534C8.44189 16.9182 8.70366 15.5447 9.22719 14.2329C9.75072 12.9212 10.486 11.7653 11.4331 10.7653C12.3801 9.76527 13.4831 9.01233 14.7419 8.50645C14.8478 8.45939 14.9566 8.42998 15.0684 8.41821C15.1801 8.40645 15.2654 8.40057 15.3242 8.40057C15.5125 8.40057 15.6595 8.46234 15.7654 8.58587C15.8713 8.7094 15.9242 8.84175 15.9242 8.98292C15.9242 9.02998 15.9184 9.08881 15.9066 9.15939C15.8948 9.22998 15.8654 9.32998 15.8184 9.4594C15.6419 9.88293 15.489 10.4476 15.3595 11.1535C15.2301 11.8594 15.1654 12.5006 15.1654 13.077C15.1654 14.9123 15.536 16.5006 16.2772 17.8417C17.0184 19.1829 18.0654 20.2182 19.4184 20.9476C20.7713 21.6771 22.3713 22.0418 24.2183 22.0418C24.8419 22.0418 25.4507 21.9859 26.0447 21.8741C26.6389 21.7623 27.1242 21.6417 27.5007 21.5123C27.689 21.4652 27.836 21.4417 27.9418 21.4417C28.0948 21.4417 28.233 21.4976 28.3565 21.6094C28.4801 21.7212 28.5419 21.877 28.5419 22.077C28.5419 22.1123 28.536 22.1829 28.5242 22.2888C28.5124 22.3947 28.483 22.5064 28.436 22.624C28.0008 23.7299 27.3184 24.7359 26.389 25.6418C25.4596 26.5476 24.3595 27.2682 23.0889 27.8034C21.8183 28.3388 20.4536 28.6065 18.9949 28.6065Z" fill="black"/>
</svg>
