<svg width="32" height="32" viewBox="0 0 32 32" fill="none" xmlns="http://www.w3.org/2000/svg">
<path d="M21.5245 18.9397C16.2109 18.9397 12.8359 15.6451 12.8359 10.3616C12.8359 9.20647 13.1071 7.66964 13.4687 6.85603C13.5893 6.59487 13.6194 6.41406 13.6194 6.27344C13.6194 5.95201 13.3884 5.64062 12.9766 5.64062C12.8259 5.64062 12.5848 5.6808 12.3337 5.77121C8.59709 7.26786 6.10602 11.2154 6.10602 15.404C6.10602 21.3002 10.5658 25.529 16.442 25.529C20.7009 25.529 24.4274 22.9576 25.7433 19.6027C25.8538 19.3415 25.8839 19.0804 25.8839 18.9397C25.8839 18.548 25.5826 18.2868 25.2612 18.2868C25.0904 18.2868 24.9297 18.327 24.6987 18.4275C23.9453 18.6886 22.7299 18.9397 21.5245 18.9397Z" fill="black"/>
</svg>
