<svg width="24" height="24" viewBox="0 0 24 24" fill="none" xmlns="http://www.w3.org/2000/svg">
<path d="M20.5 12.7658C20.3511 14.3768 19.7465 15.9122 18.7569 17.1921C17.7672 18.4721 16.4336 19.4437 14.9119 19.9934C13.3902 20.543 11.7434 20.6479 10.1643 20.2958C8.58513 19.9437 7.13893 19.1492 5.99489 18.0051C4.85084 16.8611 4.05628 15.4149 3.70417 13.8357C3.35206 12.2566 3.45697 10.6098 4.00661 9.08814C4.55626 7.56644 5.52791 6.23275 6.80788 5.24313C8.08784 4.25351 9.62318 3.64888 11.2342 3.5C10.291 4.77607 9.83713 6.3483 9.95513 7.93073C10.0731 9.51317 10.7552 11.0007 11.8773 12.1227C12.9993 13.2448 14.4868 13.9269 16.0693 14.0449C17.6517 14.1629 19.2239 13.709 20.5 12.7658Z" stroke="black" stroke-width="2" stroke-linecap="round" stroke-linejoin="round"/>
</svg>
