<svg width="128" height="128" viewBox="0 0 128 128" fill="none" xmlns="http://www.w3.org/2000/svg">
<rect width="128" height="128" rx="29" fill="url(#paint0_linear_192_555)"/>
<g clip-path="url(#clip0_192_555)" filter="url(#filter0_b_192_555)">
<path d="M96.5578 38.2297L94.8112 42.114L93.1072 41.3478C91.2292 40.5033 89.032 41.2994 88.1834 43.1866C87.3347 45.0738 88.1675 47.2875 90.0547 48.1361C91.9236 48.9765 94.1414 48.1345 94.99 46.2474L95.748 44.5617L99.6048 46.296L98.8468 47.9816C97.9982 49.8688 98.8402 52.0867 100.709 52.927C102.596 53.7756 104.805 52.9296 105.653 51.0424C106.502 49.1552 105.64 46.9832 103.762 46.1387L102.058 45.3725L103.804 41.4882L105.508 42.2544C107.39 43.0897 109.588 42.2936 110.436 40.4064C111.281 38.5284 110.452 36.3055 108.565 35.4569C106.696 34.6165 104.474 35.4676 103.63 37.3457L102.867 39.0405L99.0106 37.3062L99.7727 35.6114C100.617 33.7334 99.7794 31.5063 97.9105 30.666C96.0233 29.8174 93.8105 30.6726 92.966 32.5506C92.1174 34.4378 92.98 36.6098 94.8539 37.4635L96.5578 38.2297ZM95.6311 35.8085C94.6783 35.3801 94.2549 34.2645 94.6792 33.321C95.0993 32.3865 96.2149 31.963 97.1402 32.3791C98.0654 32.7952 98.4889 33.9107 98.0564 34.8726L97.2984 36.5583L95.6311 35.8085ZM106.24 40.5789L104.563 39.825L105.321 38.1394C105.754 37.1775 106.869 36.754 107.794 37.17C108.729 37.5902 109.143 38.7016 108.723 39.6361C108.299 40.5797 107.183 41.0032 106.24 40.5789ZM96.511 42.8894L98.27 38.9776L102.118 40.7078L100.359 44.6195L96.511 42.8894ZM92.3891 43.0183L94.0564 43.768L93.2984 45.4537C92.87 46.4064 91.7544 46.8299 90.8292 46.4138C89.9039 45.9978 89.4763 44.8914 89.9006 43.9478C90.3208 43.0134 91.4363 42.5899 92.3891 43.0183ZM102.998 47.7886C103.941 48.2129 104.365 49.3285 103.944 50.2629C103.52 51.2065 102.418 51.6249 101.483 51.2048C100.558 50.7887 100.135 49.6731 100.563 48.7204L101.321 47.0347L102.998 47.7886Z" fill="white"/>
</g>
<path d="M75.37 48.0383C75.7374 48.1948 76.1341 48.0494 76.3129 47.6786C77.0681 46.1586 77.3498 44.2395 77.0575 42.3561C76.7641 40.4652 75.9205 38.7131 74.7339 37.5021C74.4512 37.2029 74.029 37.1845 73.7275 37.4524C73.4111 37.7226 73.4272 38.1699 73.7478 38.5165C74.7234 39.5468 75.4131 40.995 75.658 42.5732C75.9017 44.144 75.6672 45.728 75.0657 47.0106C74.8727 47.437 74.9855 47.8693 75.37 48.0383ZM66.5426 47.6012C68.3367 47.3228 69.5498 45.5107 69.2483 43.5678C68.9503 41.6471 67.2619 40.3462 65.4603 40.6258C63.6662 40.9041 62.4399 42.6801 62.7356 44.5859C63.0446 46.5277 64.7411 47.8807 66.5426 47.6012ZM72.0913 46.5115C72.4351 46.664 72.833 46.5261 73.0141 46.1701C73.485 45.2737 73.6667 44.0867 73.4842 42.9105C73.3006 41.7269 72.7688 40.6582 72.0474 39.9392C71.7669 39.6549 71.3459 39.644 71.0668 39.9084C70.7378 40.1957 70.7389 40.6453 71.0865 41.0183C71.5935 41.5343 71.9479 42.2951 72.0772 43.1288C72.2054 43.9552 72.0896 44.7812 71.7726 45.4403C71.5619 45.8999 71.6884 46.3225 72.0913 46.5115ZM66.344 46.3207C65.3092 46.4813 64.2857 45.6338 64.0905 44.3757C63.8937 43.1559 64.618 42.0753 65.6602 41.9136C66.7024 41.7519 67.7103 42.5485 67.9009 43.7768C68.095 45.0275 67.3862 46.159 66.344 46.3207ZM62.9854 55.3346L72.2686 53.8942C73.549 53.6955 74.1045 53.1977 73.9694 52.3267C73.6529 50.2869 70.6818 47.9424 66.6842 48.5627C62.694 49.1818 60.5656 52.3175 60.8821 54.3573C61.0173 55.2283 61.6975 55.5344 62.9854 55.3346ZM62.5399 54.0848C62.3612 54.1125 62.2862 54.0708 62.2642 53.9294C62.0875 52.7904 63.601 50.3599 66.884 49.8505C70.1745 49.34 72.3533 51.1975 72.53 52.3365C72.552 52.478 72.4931 52.5405 72.3144 52.5682L62.5399 54.0848Z" fill="white"/>
<path d="M60.8826 74.0613C61.7591 74.0361 62.655 74.1823 63.5234 74.5206C66.9971 75.8735 68.7163 79.7864 67.3633 83.2601C65.0315 80.3515 60.7833 79.884 57.8747 82.2158C57.1486 82.7979 56.5746 83.4995 56.1584 84.2698C55.7846 80.1653 57.6866 76.3166 60.8826 74.0613V74.0613Z" fill="url(#paint1_linear_192_555)"/>
<path d="M56.1579 84.2698C56.5741 83.4995 57.1481 82.798 57.8742 82.2159C60.7828 79.884 65.031 80.3516 67.3628 83.2602C63.678 83.8253 61.149 87.2706 61.7141 90.9554C61.8553 91.8758 62.1762 92.7241 62.6356 93.4701C59.3335 91.9375 56.8361 88.8337 56.2429 84.9656C56.2072 84.7331 56.1789 84.5011 56.1579 84.2698V84.2698Z" fill="url(#paint2_linear_192_555)"/>
<path d="M62.6356 93.4701C62.1762 92.7241 61.8553 91.8758 61.7141 90.9554C61.149 87.2706 63.678 83.8253 67.3628 83.2602C66.0099 86.7339 67.7291 90.6467 71.2028 91.9997C72.0712 92.338 72.9671 92.4842 73.8435 92.459C72.466 93.4311 70.848 94.1072 69.0683 94.3801C66.7949 94.7288 64.5763 94.3708 62.6356 93.4701V93.4701Z" fill="url(#paint3_linear_192_555)"/>
<path d="M73.8437 92.459C72.9673 92.4842 72.0714 92.338 71.203 91.9997C67.7292 90.6468 66.01 86.7339 67.363 83.2602C69.6949 86.1688 73.9431 86.6363 76.8517 84.3045C77.5778 83.7224 78.1517 83.0208 78.568 82.2505C78.9418 86.355 77.0397 90.2037 73.8437 92.459V92.459Z" fill="url(#paint4_linear_192_555)"/>
<path d="M78.5678 82.2506C78.1516 83.021 77.5776 83.7225 76.8515 84.3046C73.9429 86.6365 69.6947 86.1689 67.3629 83.2603C71.0477 82.6952 73.5767 79.2499 73.0116 75.5651C72.8704 74.6447 72.5495 73.7964 72.0901 73.0504C75.3922 74.583 77.8896 77.6868 78.4828 81.5548C78.5185 81.7874 78.5468 82.0194 78.5678 82.2506V82.2506Z" fill="url(#paint5_linear_192_555)"/>
<path d="M72.0905 73.0503C72.5499 73.7962 72.8708 74.6445 73.0119 75.5649C73.5771 79.2497 71.0481 82.695 67.3632 83.2602C68.7162 79.7864 66.997 75.8736 63.5233 74.5206C62.6549 74.1824 61.759 74.0361 60.8825 74.0613C62.2601 73.0892 63.878 72.4132 65.6578 72.1402C67.9311 71.7915 70.1498 72.1495 72.0905 73.0503V73.0503Z" fill="url(#paint6_linear_192_555)"/>
<path d="M52.7881 59.5214L51.5708 58.6258L51.7999 60.1195L53.92 73.9429L54.1431 75.3979L55.035 74.2268L58.1503 70.1362L58.16 70.1247L64.1514 69.2058L65.6405 68.9775L64.427 68.0846L52.7881 59.5214Z" fill="black" stroke="white" stroke-width="1.25"/>
<path d="M60.0113 10.76C53.6041 10.76 48.3156 16.0485 48.3156 22.4445C48.3156 28.8404 53.6154 34.1289 60.0226 34.1289C66.4185 34.1289 71.6957 28.8404 71.6957 22.4445C71.6957 16.0485 66.4072 10.76 60.0113 10.76ZM60.0113 13.0879C65.1981 13.0879 69.3453 17.2577 69.3453 22.4445C69.3453 27.6313 65.1981 31.7898 60.0226 31.7898C54.8358 31.7898 50.666 27.6313 50.6547 22.4445C50.6434 17.2577 54.8245 13.0879 60.0113 13.0879ZM60.0226 20.5686C59.4011 20.5686 59.0395 20.9189 59.0282 21.5744L58.8587 27.0098C58.8361 27.6765 59.3333 28.1624 60.0339 28.1624C60.7345 28.1624 61.2204 27.6878 61.1978 27.0211L61.0396 21.5744C61.017 20.9302 60.6554 20.5686 60.0226 20.5686ZM60.0226 16.817C59.2881 16.817 58.6892 17.3481 58.6892 18.0713C58.6892 18.7832 59.2768 19.3143 60.0226 19.3143C60.7571 19.3143 61.356 18.7832 61.356 18.0713C61.356 17.3594 60.7458 16.817 60.0226 16.817Z" fill="white"/>
<g clip-path="url(#clip1_192_555)">
<path d="M15.6826 51.6875C16.3022 54.3743 18.4524 55.6527 20.996 55.0662C22.4495 54.731 23.6151 53.8012 24.3446 52.4385L25.779 49.7072C25.9781 49.3134 26.2314 49.1043 26.5728 49.0255L37.0004 46.621C37.3418 46.5423 37.6611 46.6194 38.0125 46.8862L40.4981 48.7136C41.7507 49.6192 43.2057 49.9447 44.6592 49.6095C47.2028 49.023 48.5761 46.932 47.9566 44.2453C47.69 43.0891 47.1346 41.8371 46.3699 40.4827C45.1616 38.3608 43.275 35.5603 41.6059 33.4519C40.1858 31.6688 39.4423 30.8081 36.8929 30.8162C34.656 30.8217 31.6754 31.1727 28.1408 31.9878C24.6062 32.8029 21.7618 33.7951 19.7484 34.7696C17.4639 35.8763 17.1613 36.9781 16.6655 39.2031C16.0882 41.8295 15.6184 45.1733 15.4614 47.6101C15.3671 49.1626 15.416 50.5314 15.6826 51.6875ZM17.7476 51.1882C17.5927 50.5165 17.5615 49.6771 17.6337 48.4312C17.785 45.7175 18.3056 42.1416 18.8481 39.4652C19.11 38.1871 19.2685 37.4664 20.4968 36.8584C22.4137 35.9177 25.1699 34.9458 28.6385 34.146C32.096 33.3487 35.0105 33.0129 37.1458 33.0192C38.5162 33.0279 38.9523 33.6116 39.7585 34.6433C41.4402 36.8068 43.4302 39.8038 44.7875 42.1696C45.398 43.2581 45.7265 44.0289 45.8814 44.7006C46.2089 46.1211 45.4185 47.2195 44.1192 47.5191C43.3264 47.7019 42.4481 47.4638 41.6529 46.8818L38.8607 44.8816C38.1764 44.3783 37.6674 44.1826 36.7204 44.401L25.8633 46.9046C24.9053 47.1255 24.5335 47.5244 24.1386 48.2764L22.5153 51.2948C22.0553 52.1663 21.3589 52.7675 20.5771 52.9478C19.2668 53.25 18.0752 52.6086 17.7476 51.1882ZM20.9956 42.0895C21.1378 42.7061 21.6121 43.0027 22.2287 42.8605L24.0786 42.4339L24.4925 44.2287C24.6347 44.8453 25.1005 45.1554 25.7061 45.0158C26.3007 44.8787 26.5837 44.3959 26.4415 43.7793L26.0276 41.9844L27.7674 41.5833C28.4391 41.4284 28.7576 40.949 28.6154 40.3324C28.4783 39.7378 27.982 39.4463 27.3103 39.6012L25.5706 40.0024L25.1592 38.2186C25.017 37.602 24.5512 37.2919 23.9566 37.429C23.351 37.5687 23.068 38.0514 23.2102 38.668L23.6216 40.4519L21.7717 40.8784C21.155 41.0206 20.8585 41.4949 20.9956 42.0895ZM36.84 38.3315C37.7649 38.1182 38.3072 37.251 38.0939 36.326C37.8806 35.4011 37.0108 34.8478 36.0859 35.0611C35.1829 35.2693 34.6212 36.1527 34.8345 37.0776C35.0478 38.0025 35.9371 38.5397 36.84 38.3315ZM34.3314 42.389C35.2563 42.1757 35.7986 41.3085 35.5878 40.3945C35.3745 39.4696 34.5048 38.9164 33.5798 39.1296C32.6659 39.3404 32.1152 40.2212 32.3285 41.1461C32.5392 42.0601 33.4175 42.5997 34.3314 42.389Z" fill="white"/>
</g>
<g clip-path="url(#clip2_192_555)">
<path d="M39.9341 58.102L40.1679 57.3154C40.2864 56.917 40.1187 56.5374 39.7338 56.4121L39.467 56.3196C39.1225 56.2074 38.7569 56.4356 38.6348 56.8104L38.3706 57.5872L39.9341 58.102ZM35.6175 69.2903L36.7003 68.0127L39.6898 58.8348L38.1331 58.3334L35.1471 67.518L35.219 69.1549C35.2304 69.3435 35.4938 69.4293 35.6175 69.2903ZM35.3575 75.0938L43.1803 71.115C44.4696 70.4592 44.8458 69.3213 44.115 67.8843L40.5084 60.7934L39.8451 62.8127L42.7105 68.4465C43.0384 69.0911 42.8599 69.5876 42.41 69.8164L34.7617 73.7064C34.144 74.0206 33.6443 73.869 33.3164 73.2244L29.5221 65.7642C29.1942 65.1196 29.366 64.6265 29.9838 64.3123L35.6847 61.4127L36.3379 59.3901L29.2134 63.0137C27.763 63.7514 27.3868 64.8894 28.1176 66.3264L32.0349 74.0283C32.7658 75.4653 33.9071 75.8315 35.3575 75.0938Z" fill="white"/>
</g>
<path d="M77.7296 15.1792C76.6473 18.7727 78.5989 23.234 82.3823 27.678C82.5925 27.9249 82.8616 28.1896 83.0804 28.2555C83.2992 28.3214 83.6697 28.2494 83.9812 28.1596C89.5981 26.5469 93.6805 23.903 94.7629 20.3095C95.6982 17.2041 94.2011 14.4034 91.4492 13.5745C89.8418 13.0904 88.3674 13.4449 87.2754 14.3276C86.8668 13.0021 85.8276 11.8813 84.2202 11.3972C81.4598 10.5658 78.665 12.0738 77.7296 15.1792ZM79.4658 15.6929C80.1046 13.5722 81.935 12.5539 83.8117 13.1191C85.3265 13.5754 85.9002 14.7487 86.1896 15.7079C86.3213 16.1239 86.4482 16.2815 86.667 16.3474C86.8942 16.4158 87.0728 16.3411 87.4182 16.078C88.2262 15.4677 89.3239 14.7794 90.8303 15.2331C92.7154 15.8009 93.679 17.6607 93.0402 19.7815C92.148 22.7438 88.0793 25.0982 83.8182 26.3849C83.7272 26.4125 83.6666 26.431 83.6329 26.4209C83.5993 26.4107 83.5589 26.3619 83.5068 26.2911C80.6651 22.865 78.5736 18.6552 79.4658 15.6929ZM86.8837 18.3402C87.0054 17.9363 86.7516 17.5294 86.3561 17.4103C85.9521 17.2886 85.5158 17.4876 85.3942 17.8916L84.5754 20.6098L84.2499 21.9345L83.8131 21.0686L83.3888 20.2524C83.3057 20.0713 83.1375 19.9289 82.9607 19.8757C82.5736 19.7591 82.2064 19.9422 82.0923 20.3209C82.029 20.5313 82.0649 20.7165 82.1843 20.8993L83.8371 23.7011C83.9774 23.9361 84.1229 24.0626 84.3333 24.1259C84.5353 24.1868 84.7264 24.1617 84.9732 24.0433L87.9069 22.623C88.1074 22.5365 88.2313 22.3994 88.2946 22.189C88.4087 21.8103 88.2037 21.4548 87.825 21.3407C87.6398 21.285 87.4209 21.3108 87.26 21.4184L86.4556 21.8645L85.6048 22.3426L86.065 21.0585L86.8837 18.3402Z" fill="white"/>
<path d="M113.712 66.5061C113.712 61.8354 110.749 58.7843 106.367 58.7843C104.069 58.7843 102.098 59.7511 99.9883 61.7977L96.9874 64.6855L93.9992 61.7977C91.8898 59.7511 89.9185 58.7843 87.6208 58.7843C83.2388 58.7843 80.2757 61.8354 80.2757 66.5061C80.2757 71.1769 83.2388 74.2279 87.6208 74.2279C89.9185 74.2279 91.8898 73.2486 93.9992 71.2145L96.9874 68.3142L99.9883 71.2145C102.098 73.2486 104.069 74.2279 106.367 74.2279C110.749 74.2279 113.712 71.1769 113.712 66.5061ZM95.1166 66.5061L92.1158 69.3186C90.5338 70.8128 89.1526 71.5536 87.6208 71.5536C84.846 71.5536 82.9501 69.5697 82.9501 66.5061C82.9501 63.4299 84.846 61.4587 87.6208 61.4587C89.1526 61.4587 90.5338 62.1995 92.1284 63.6936L95.1166 66.5061ZM98.8708 66.5061L101.859 63.6936C103.454 62.1995 104.822 61.4587 106.367 61.4587C109.141 61.4587 111.037 63.4299 111.037 66.5061C111.037 69.5697 109.141 71.5536 106.367 71.5536C104.835 71.5536 103.454 70.8128 101.872 69.3186L98.8708 66.5061Z" fill="white"/>
<path d="M102 98.3018C106.966 98.3018 111.079 94.1973 111.079 89.2227C111.079 84.2568 106.966 80.1436 101.991 80.1436C97.0254 80.1436 92.9209 84.2568 92.9209 89.2227C92.9209 94.1973 97.0342 98.3018 102 98.3018ZM94.7139 89.2227C94.7139 85.4434 97.5439 82.3584 101.209 81.9717V88.6689L96.041 93.4238C95.2061 92.2461 94.7139 90.7959 94.7139 89.2227ZM102.8 88.6953V81.9717C106.465 82.376 109.286 85.4521 109.295 89.2227C109.295 90.7959 108.803 92.2549 107.959 93.4414L102.8 88.6953ZM101.209 90.9014V96.4736C99.627 96.3066 98.2119 95.6387 97.0957 94.6279L101.209 90.9014ZM102.8 90.9277L106.896 94.6367C105.788 95.6387 104.373 96.2979 102.8 96.4736V90.9277Z" fill="white"/>
<path d="M30.6539 24.5583H37.3461C38.6959 24.5583 39.3927 23.8489 39.3927 22.4929V16.7926C39.3927 15.9136 39.2797 15.5119 38.7335 14.9531L35.4502 11.6196C34.9166 11.0797 34.4771 10.9541 33.6861 10.9541H30.6539C29.3104 10.9541 28.6073 11.6635 28.6073 13.0258V22.4929C28.6073 23.8489 29.3104 24.5583 30.6539 24.5583ZM30.7606 23.3027C30.1579 23.3027 29.8566 22.9888 29.8566 22.4113V13.1011C29.8566 12.5299 30.1579 12.2097 30.7669 12.2097H33.4287V15.6249C33.4287 16.5352 33.8744 16.9746 34.7785 16.9746H38.1434V22.4113C38.1434 22.9888 37.8421 23.3027 37.2331 23.3027H30.7606ZM34.8977 15.876C34.6341 15.876 34.5211 15.763 34.5211 15.5056V12.3729L37.9739 15.876H34.8977ZM36.2098 18.6194H31.6772C31.4386 18.6194 31.2691 18.7889 31.2691 19.0086C31.2691 19.2347 31.4386 19.4104 31.6772 19.4104H36.2098C36.4358 19.4104 36.6053 19.2347 36.6053 19.0086C36.6053 18.7889 36.4358 18.6194 36.2098 18.6194ZM36.2098 20.7162H31.6772C31.4386 20.7162 31.2691 20.892 31.2691 21.118C31.2691 21.3378 31.4386 21.5073 31.6772 21.5073H36.2098C36.4358 21.5073 36.6053 21.3378 36.6053 21.118C36.6053 20.892 36.4358 20.7162 36.2098 20.7162Z" fill="white"/>
<path d="M54.356 119.704L62.1708 115.174C63.0145 114.682 63.3862 114.26 63.3862 113.627C63.3862 112.984 63.0145 112.572 62.1708 112.07L60.8047 111.277L62.1708 110.483C63.0145 109.991 63.3862 109.569 63.3862 108.936C63.3862 108.304 63.0145 107.882 62.1708 107.389L60.5536 106.445L62.1708 105.511C63.0145 105.019 63.3862 104.597 63.3862 103.964C63.3862 103.321 63.0145 102.91 62.1708 102.407L54.356 97.8772C53.8337 97.5758 53.4219 97.4252 53 97.4252C52.5681 97.4252 52.1562 97.5758 51.6339 97.8772L43.8192 102.407C42.9754 102.91 42.6038 103.321 42.6038 103.964C42.6038 104.597 42.9754 105.019 43.8192 105.511L45.4364 106.455L43.8192 107.389C42.9754 107.882 42.6038 108.304 42.6038 108.936C42.6038 109.569 42.9754 109.991 43.8192 110.483L45.1953 111.277L43.8192 112.07C42.9754 112.572 42.6038 112.984 42.6038 113.627C42.6038 114.26 42.9754 114.682 43.8192 115.174L51.6339 119.704C52.1562 120.006 52.5681 120.156 53 120.156C53.4219 120.156 53.8337 120.006 54.356 119.704ZM53 108.404C52.8594 108.404 52.7388 108.354 52.5882 108.273L45.1953 104.055C45.1451 104.035 45.125 104.004 45.125 103.964C45.125 103.914 45.1451 103.894 45.1953 103.864L52.5882 99.6551C52.7388 99.5647 52.8594 99.5245 53 99.5245C53.1306 99.5245 53.2511 99.5647 53.4018 99.6551L60.8047 103.864C60.8449 103.894 60.875 103.914 60.875 103.964C60.875 104.004 60.8449 104.035 60.8047 104.055L53.4018 108.273C53.2511 108.354 53.1306 108.404 53 108.404ZM53 110.493C53.4219 110.493 53.8337 110.353 54.356 110.041L58.5949 107.59L60.8047 108.836C60.8449 108.866 60.875 108.886 60.875 108.936C60.875 108.987 60.8449 109.007 60.8047 109.037L53.4018 113.245C53.2511 113.336 53.1306 113.376 53 113.376C52.8594 113.376 52.7388 113.336 52.5882 113.245L45.1953 109.037C45.1451 109.007 45.125 108.987 45.125 108.936C45.125 108.886 45.1451 108.866 45.1953 108.836L47.3951 107.58L51.6339 110.041C52.1562 110.353 52.5681 110.493 53 110.493Z" fill="white"/>
<path d="M16.6689 88.1631C16.6689 89.9297 17.9082 91.4062 19.5693 91.7754C19.1475 91.0107 18.9014 90.1494 18.9014 89.2178C18.9014 87.2754 19.9561 85.5791 21.5117 84.6562C21.1514 84.542 20.7734 84.4717 20.3691 84.4717C18.3301 84.4717 16.6689 86.1328 16.6689 88.1631ZM37.6309 91.8633C39.6611 91.8633 41.3223 90.2021 41.3223 88.1631C41.3223 86.1328 39.6611 84.4717 37.6309 84.4717C35.583 84.4717 33.9219 86.1328 33.9219 88.1631C33.9219 90.2021 35.583 91.8633 37.6309 91.8633ZM23.7354 100.846H24.6494C25.3965 100.846 25.8447 100.415 25.8447 99.6768V94.9658C25.8447 93.876 26.1172 93.3311 27.0049 92.5488C27.9453 91.7227 28.5518 90.5537 28.5518 89.209C28.5518 86.8096 26.6094 84.8584 24.1924 84.8584C21.7754 84.8584 19.833 86.8096 19.833 89.209C19.833 90.5537 20.4395 91.7227 21.3799 92.5488C22.2676 93.3311 22.54 93.876 22.54 94.9658V99.6768C22.54 100.415 22.9883 100.846 23.7354 100.846ZM33.5967 100.846H34.5107C35.2578 100.846 35.7061 100.415 35.7061 99.6768V94.9658C35.7061 93.9287 35.9697 93.3926 36.6992 92.6982C34.5898 92.2676 32.9902 90.3955 32.9902 88.1631C32.9902 86.8711 33.5264 85.6934 34.3877 84.8584H34.0537C31.6367 84.8584 29.6943 86.8096 29.6943 89.209C29.6943 90.5537 30.292 91.7227 31.2412 92.5488C32.1289 93.3311 32.4014 93.876 32.4014 94.9658V99.6768C32.4014 100.415 32.8496 100.846 33.5967 100.846ZM39.3975 89.7363C38.9141 89.7363 38.5361 89.042 38.5361 88.1631C38.5361 87.3018 38.9141 86.6074 39.3975 86.6074C39.8633 86.6074 40.2412 87.3018 40.2412 88.1631C40.2412 89.042 39.8633 89.7363 39.3975 89.7363ZM25.1768 90.3604C24.8867 90.3604 24.6582 90.1318 24.6582 89.8506V88.0928C24.6582 87.8115 24.8867 87.5918 25.1768 87.5918C25.4492 87.5918 25.6777 87.8115 25.6777 88.0928V89.8506C25.6777 90.1318 25.4492 90.3604 25.1768 90.3604Z" fill="white"/>
<g clip-path="url(#clip3_192_555)">
<path d="M11.0047 65.3466L12.023 65.8898L11.484 66.9003C11.1455 67.5348 12.062 68.0238 12.4004 67.3893L12.9395 66.3788L13.956 66.916C14.5905 67.2545 15.0795 66.338 14.439 66.0014L13.4285 65.4623L13.9717 64.4439C14.3144 63.8016 13.3919 63.3145 13.0534 63.949L12.512 64.9733L11.4918 64.4241C10.8573 64.0856 10.3684 65.0021 11.0047 65.3466ZM19.2236 68.3124C19.9263 68.0986 20.3275 67.3466 20.1119 66.6379C19.8981 65.9351 19.1461 65.534 18.4434 65.7477C17.7346 65.9634 17.3335 66.7153 17.5472 67.4181C17.7629 68.1268 18.5148 68.528 19.2236 68.3124ZM8.76692 71.4935C9.46964 71.2797 9.87081 70.5277 9.6552 69.819C9.44142 69.1163 8.68943 68.7151 7.98671 68.9289C7.27799 69.1445 6.87681 69.8965 7.09059 70.5992C7.3062 71.3079 8.0582 71.7091 8.76692 71.4935ZM14.7907 72.5285C15.4994 72.3129 15.9006 71.5609 15.6868 70.8582C15.4694 70.1435 14.7252 69.7465 14.0105 69.9639C13.3078 70.1777 12.9066 70.9297 13.1222 71.6384C13.336 72.3411 14.088 72.7423 14.7907 72.5285ZM8.75631 75.1255L9.77464 75.6687L9.22955 76.6811C8.89289 77.3216 9.80938 77.8105 10.1479 77.176L10.6911 76.1577L11.7035 76.7028C12.338 77.0413 12.8269 76.1248 12.1906 75.7803L11.1801 75.2412L11.7233 74.2229C12.0618 73.5884 11.1453 73.0994 10.8068 73.7339L10.2636 74.7523L9.23924 74.2108C8.60474 73.8723 8.11581 74.7888 8.75631 75.1255ZM18.312 72.2184L19.3304 72.7617L18.7931 73.7782C18.4486 74.4145 19.3651 74.9035 19.7036 74.269L20.2487 73.2566L21.2592 73.7957C21.8937 74.1342 22.3826 73.2177 21.7481 72.8792L20.7358 72.3341L21.2791 71.3158C21.6176 70.6813 20.7011 70.1924 20.3626 70.8269L19.8193 71.8452L18.801 71.3019C18.1665 70.9634 17.6715 71.8818 18.312 72.2184ZM16.5832 78.4205C17.2919 78.2049 17.6931 77.4529 17.4775 76.7442C17.2619 76.0355 16.5099 75.6343 15.8012 75.8499C15.0984 76.0637 14.6973 76.8157 14.9129 77.5244C15.1285 78.2331 15.8805 78.6343 16.5832 78.4205Z" fill="white"/>
</g>
<rect x="72" y="97.4253" width="22" height="22" rx="11" fill="white"/>
<path d="M78.4592 109.589V111.736H80.6877V112.925H75.4719V111.736H76.9279V106.629H75.3283V105.44H78.466V107.354H78.6984C79.006 105.912 79.84 105.242 81.2619 105.242C81.6857 105.242 82.0754 105.296 82.3351 105.399V107.128C82.0002 106.999 81.508 106.917 81.0978 106.917C79.3683 106.917 78.4592 107.86 78.4592 109.589ZM85.4385 108.591L88.3095 105.44H90.1621L87.3388 108.489L90.3535 112.925H88.501L86.1767 109.507L85.3359 110.341V112.925H83.75V102.548H85.3359V108.591H85.4385Z" fill="#0F2F62"/>
<defs>
<filter id="filter0_b_192_555" x="-178" y="-235" width="554.309" height="554.309" filterUnits="userSpaceOnUse" color-interpolation-filters="sRGB">
<feFlood flood-opacity="0" result="BackgroundImageFix"/>
<feGaussianBlur in="BackgroundImageFix" stdDeviation="128"/>
<feComposite in2="SourceAlpha" operator="in" result="effect1_backgroundBlur_192_555"/>
<feBlend mode="normal" in="SourceGraphic" in2="effect1_backgroundBlur_192_555" result="shape"/>
</filter>
<linearGradient id="paint0_linear_192_555" x1="64" y1="0" x2="64" y2="128" gradientUnits="userSpaceOnUse">
<stop stop-color="#2F6EC3"/>
<stop offset="1" stop-color="#0A2452"/>
</linearGradient>
<linearGradient id="paint1_linear_192_555" x1="54.7372" y1="75.0038" x2="56.2646" y2="84.9623" gradientUnits="userSpaceOnUse">
<stop stop-color="#FFD305"/>
<stop offset="1" stop-color="#FDCF01"/>
</linearGradient>
<linearGradient id="paint2_linear_192_555" x1="55.7311" y1="81.6285" x2="57.6641" y2="94.2326" gradientUnits="userSpaceOnUse">
<stop stop-color="#52CF30"/>
<stop offset="1" stop-color="#3BBD1C"/>
</linearGradient>
<linearGradient id="paint3_linear_192_555" x1="60.6909" y1="84.2834" x2="62.3963" y2="95.4034" gradientUnits="userSpaceOnUse">
<stop stop-color="#14ADF6"/>
<stop offset="1" stop-color="#1191F4"/>
</linearGradient>
<linearGradient id="paint4_linear_192_555" x1="66.468" y1="83.3975" x2="67.9954" y2="93.356" gradientUnits="userSpaceOnUse">
<stop stop-color="#CA70E1"/>
<stop offset="1" stop-color="#B452CB"/>
</linearGradient>
<linearGradient id="paint5_linear_192_555" x1="65.9416" y1="73.9934" x2="67.8747" y2="86.5974" gradientUnits="userSpaceOnUse">
<stop stop-color="#FF645D"/>
<stop offset="1" stop-color="#FF4332"/>
</linearGradient>
<linearGradient id="paint6_linear_192_555" x1="60.7044" y1="72.8999" x2="62.4099" y2="84.0199" gradientUnits="userSpaceOnUse">
<stop stop-color="#FBB114"/>
<stop offset="1" stop-color="#FF9508"/>
</linearGradient>
<clipPath id="clip0_192_555">
<rect width="32" height="32" fill="white" transform="translate(91.1237 21) rotate(24.212)"/>
</clipPath>
<clipPath id="clip1_192_555">
<rect width="36" height="36" fill="white" transform="translate(9 29.0892) rotate(-12.9852)"/>
</clipPath>
<clipPath id="clip2_192_555">
<rect width="24" height="24" fill="white" transform="translate(20 61.8802) rotate(-26.9585)"/>
</clipPath>
<clipPath id="clip3_192_555">
<rect width="20" height="20" fill="white" transform="translate(2 64.821) rotate(-16.9208)"/>
</clipPath>
</defs>
</svg>
