<svg width="36" height="36" viewBox="0 0 36 36" fill="none" xmlns="http://www.w3.org/2000/svg">
<path d="M17.6943 3.74737L4.46964 13.5221C4.07072 13.817 4.27927 14.45 4.77533 14.45H6.55715C6.84118 14.45 7.07144 14.6802 7.07144 14.9643V29.3643C7.07144 29.6483 7.30169 29.8786 7.58572 29.8786H28.4143C28.6983 29.8786 28.9286 29.6483 28.9286 29.3643V14.9643C28.9286 14.6802 29.1588 14.45 29.4429 14.45H31.2247C31.7208 14.45 31.9293 13.817 31.5304 13.5221L18.3057 3.74737C18.124 3.61309 17.876 3.61309 17.6943 3.74737Z" fill="#034AC1" stroke="#034AC1" stroke-width="1.92857"/>
<path d="M10.6467 12.7608L16.1753 8.70651C16.7811 8.2622 17.166 7.9819 17.4801 7.80297C17.7709 7.63727 17.9069 7.61527 18 7.61527C18.0931 7.61527 18.2292 7.63727 18.52 7.80297C18.834 7.9819 19.2189 8.2622 19.8248 8.70651L25.3534 12.7608C26.2625 13.4275 26.4183 13.5741 26.5032 13.7418C26.5882 13.9094 26.6143 14.1217 26.6143 15.2491V23.8357C26.6143 24.8345 26.6121 25.4802 26.5482 25.9559C26.4882 26.402 26.3914 26.5418 26.3131 26.6201C26.2348 26.6984 26.0949 26.7953 25.6488 26.8553C25.1731 26.9192 24.5274 26.9214 23.5286 26.9214H12.4715C11.4726 26.9214 10.827 26.9192 10.3513 26.8553C9.90514 26.7953 9.76531 26.6984 9.68701 26.6201C9.60871 26.5418 9.51187 26.402 9.45189 25.9559C9.38793 25.4802 9.38575 24.8345 9.38575 23.8357V15.2491C9.38575 14.1217 9.41187 13.9094 9.49682 13.7418C9.58178 13.5741 9.73754 13.4275 10.6467 12.7608Z" fill="#0768CF" stroke="#0768CF" stroke-width="2.05714"/>
<path d="M19.8216 11.2554L23.2992 13.8054C24.2084 14.4722 24.3641 14.6188 24.4491 14.7864C24.534 14.9541 24.5602 15.1664 24.5602 16.2938V21.7765C24.5602 22.7754 24.558 23.421 24.494 23.8967C24.434 24.3429 24.3372 24.4827 24.2589 24.561C24.1806 24.6393 24.0408 24.7361 23.5946 24.7961C23.1189 24.8601 22.4733 24.8622 21.4745 24.8622H14.5334C13.5346 24.8622 12.8889 24.8601 12.4132 24.7961C11.9671 24.7361 11.8273 24.6393 11.749 24.561C11.6707 24.4827 11.5738 24.3429 11.5138 23.8967C11.4499 23.421 11.4477 22.7754 11.4477 21.7765V16.2769C11.4477 15.1478 11.4739 14.9352 11.5591 14.7674C11.6442 14.5995 11.8004 14.4529 12.7118 13.7863L16.1752 11.2531C16.7809 10.8102 17.1656 10.5307 17.4795 10.3524C17.7701 10.1872 17.9061 10.1653 17.9991 10.1654C18.0921 10.1655 18.228 10.1875 18.5184 10.353C18.8321 10.5317 19.2165 10.8117 19.8216 11.2554Z" fill="#007BE5" stroke="#007BE5" stroke-width="2.05714"/>
<path d="M16.1665 13.8081L16.1665 13.8081L16.1754 13.8016L16.1754 13.8016C16.7811 13.358 17.1659 13.0782 17.4799 12.8996C17.7706 12.7342 17.9065 12.7122 17.9996 12.7122C18.0926 12.7123 18.2286 12.7343 18.5192 12.8999C18.833 13.0787 19.2177 13.3587 19.8231 13.8026L21.2449 14.8451C22.1542 15.5118 22.31 15.6584 22.395 15.8261C22.4799 15.9938 22.5061 16.2061 22.5061 17.3336V19.721C22.5061 20.7199 22.5039 21.3655 22.4399 21.8412C22.3799 22.2874 22.2831 22.4272 22.2048 22.5055C22.1265 22.5838 21.9867 22.6806 21.5405 22.7406C21.0648 22.8046 20.4192 22.8067 19.4203 22.8067H16.6004C15.6016 22.8067 14.956 22.8046 14.4802 22.7406C14.0341 22.6806 13.8943 22.5838 13.816 22.5055C13.7377 22.4272 13.6408 22.2874 13.5809 21.8412C13.5169 21.3655 13.5147 20.7199 13.5147 19.721V17.315C13.5147 16.1867 13.5409 15.9742 13.6259 15.8065C13.711 15.6387 13.867 15.4921 14.7773 14.8255L16.1665 13.8081Z" fill="#0D99FF" stroke="#0D99FF" stroke-width="2.05714"/>
<mask id="path-5-inside-1_539_28" fill="white">
<path d="M21.5056 18.2962V18.0706C21.5056 17.354 21.5056 16.9957 21.3949 16.672C21.3325 16.4897 21.2448 16.317 21.1344 16.1591C20.9384 15.8787 20.6464 15.6654 20.0624 15.2386L20.0624 15.2386C19.2551 14.6488 18.8515 14.3538 18.4076 14.2649C18.1391 14.211 17.8625 14.2114 17.5941 14.2658C17.1505 14.3559 16.7514 14.649 15.9533 15.2351L15.9533 15.2351C15.3908 15.6482 15.1096 15.8548 14.917 16.1267C14.7999 16.2921 14.7078 16.4739 14.6439 16.6663C14.5387 16.9824 14.5387 17.3314 14.5387 18.0292V18.2962C14.5387 19.63 14.5387 20.2969 14.8362 20.7882C15.0082 21.0721 15.2463 21.3101 15.5302 21.4821C16.0215 21.7796 16.6884 21.7796 18.0221 21.7796C19.3559 21.7796 20.0228 21.7796 20.5141 21.4821C20.798 21.3101 21.0361 21.0721 21.2081 20.7882C21.5056 20.2969 21.5056 19.63 21.5056 18.2962Z"/>
</mask>
<path d="M21.5056 18.2962V18.0706C21.5056 17.354 21.5056 16.9957 21.3949 16.672C21.3325 16.4897 21.2448 16.317 21.1344 16.1591C20.9384 15.8787 20.6464 15.6654 20.0624 15.2386L20.0624 15.2386C19.2551 14.6488 18.8515 14.3538 18.4076 14.2649C18.1391 14.211 17.8625 14.2114 17.5941 14.2658C17.1505 14.3559 16.7514 14.649 15.9533 15.2351L15.9533 15.2351C15.3908 15.6482 15.1096 15.8548 14.917 16.1267C14.7999 16.2921 14.7078 16.4739 14.6439 16.6663C14.5387 16.9824 14.5387 17.3314 14.5387 18.0292V18.2962C14.5387 19.63 14.5387 20.2969 14.8362 20.7882C15.0082 21.0721 15.2463 21.3101 15.5302 21.4821C16.0215 21.7796 16.6884 21.7796 18.0221 21.7796C19.3559 21.7796 20.0228 21.7796 20.5141 21.4821C20.798 21.3101 21.0361 21.0721 21.2081 20.7882C21.5056 20.2969 21.5056 19.63 21.5056 18.2962Z" fill="#80CAFF"/>
<path d="M14.6439 16.6663L12.6919 16.0169L12.6919 16.0169L14.6439 16.6663ZM15.9533 15.2351L14.7356 13.5771L14.6094 13.6698L14.4987 13.7805L15.9533 15.2351ZM15.9533 15.2351L17.171 16.8931L17.2972 16.8005L17.4079 16.6897L15.9533 15.2351ZM14.917 16.1267L16.5958 17.3156L14.917 16.1267ZM15.5302 21.4821L14.4645 23.2417L14.4645 23.2417L15.5302 21.4821ZM14.8362 20.7882L13.0766 21.8538L13.0766 21.8538L14.8362 20.7882ZM21.2081 20.7882L22.9676 21.8538L22.9676 21.8538L21.2081 20.7882ZM20.5141 21.4821L19.4485 19.7225L19.4485 19.7225L20.5141 21.4821ZM20.0624 15.2386L21.2966 13.5929L21.2864 13.5852L21.276 13.5776L20.0624 15.2386ZM20.0624 15.2386L18.8281 16.8843L18.8383 16.892L18.8487 16.8996L20.0624 15.2386ZM21.1344 16.1591L19.4485 17.3378L19.4485 17.3378L21.1344 16.1591ZM21.3949 16.672L19.4485 17.3378L19.4485 17.3378L21.3949 16.672ZM18.4076 14.2649L18.0033 16.2819L18.0033 16.2819L18.4076 14.2649ZM17.5941 14.2658L17.185 12.2498L17.185 12.2498L17.5941 14.2658ZM19.4485 18.0706V18.2962H23.5627V18.0706H19.4485ZM16.5958 18.2962V18.0292H12.4816V18.2962H16.5958ZM16.5958 18.0292C16.5958 17.656 16.5967 17.4673 16.6051 17.3307C16.6119 17.2196 16.6192 17.2453 16.5958 17.3156L12.6919 16.0169C12.4568 16.7236 12.4816 17.4703 12.4816 18.0292H16.5958ZM14.4987 13.7805L14.4987 13.7805L17.4079 16.6897L17.4079 16.6897L14.4987 13.7805ZM14.7356 13.5771C14.2851 13.908 13.6686 14.3301 13.2382 14.9378L16.5958 17.3156C16.553 17.376 16.528 17.3854 16.6135 17.3141C16.7186 17.2265 16.8702 17.1141 17.171 16.8931L14.7356 13.5771ZM16.5958 17.3156L16.5958 17.3156L13.2382 14.9378C13.0039 15.2686 12.8198 15.6323 12.6919 16.0169L16.5958 17.3156ZM18.0221 19.7225C17.3158 19.7225 16.9291 19.7204 16.6531 19.6944C16.4073 19.6712 16.4663 19.6441 16.5958 19.7225L14.4645 23.2417C15.0853 23.6177 15.7235 23.7393 16.2673 23.7905C16.781 23.8389 17.3947 23.8368 18.0221 23.8368V19.7225ZM12.4816 18.2962C12.4816 18.9236 12.4794 19.5373 12.5278 20.051C12.579 20.5949 12.7007 21.233 13.0766 21.8538L16.5958 19.7225C16.6743 19.852 16.6471 19.9111 16.624 19.6652C16.598 19.3892 16.5958 19.0025 16.5958 18.2962H12.4816ZM16.5958 19.7225L16.5958 19.7225L13.0766 21.8538C13.4205 22.4216 13.8967 22.8978 14.4645 23.2417L16.5958 19.7225ZM19.4485 18.2962C19.4485 19.0025 19.4463 19.3892 19.4203 19.6652C19.3972 19.9111 19.37 19.852 19.4485 19.7225L22.9676 21.8538C23.3436 21.233 23.4653 20.5949 23.5165 20.051C23.5649 19.5373 23.5627 18.9236 23.5627 18.2962H19.4485ZM18.0221 23.8368C18.6496 23.8368 19.2633 23.8389 19.777 23.7905C20.3208 23.7393 20.959 23.6177 21.5798 23.2417L19.4485 19.7225C19.578 19.6441 19.637 19.6712 19.3912 19.6944C19.1152 19.7204 18.7285 19.7225 18.0221 19.7225V23.8368ZM19.4485 19.7225L19.4485 19.7225L21.5798 23.2417C22.1476 22.8978 22.6238 22.4216 22.9676 21.8538L19.4485 19.7225ZM18.8281 16.8843L18.8281 16.8843L21.2966 13.5929L21.2966 13.5929L18.8281 16.8843ZM18.8487 16.8996C19.1608 17.1276 19.3192 17.2445 19.4289 17.3357C19.5191 17.4107 19.4929 17.4014 19.4485 17.3378L22.8203 14.9803C22.3819 14.3532 21.743 13.9188 21.276 13.5776L18.8487 16.8996ZM23.5627 18.0706C23.5627 17.4969 23.5888 16.7298 23.3413 16.0062L19.4485 17.3378C19.4239 17.266 19.4315 17.2393 19.4387 17.3534C19.4475 17.4935 19.4485 17.6873 19.4485 18.0706H23.5627ZM19.4485 17.3378L19.4485 17.3378L23.3413 16.0062C23.2165 15.6415 23.0412 15.2962 22.8203 14.9803L19.4485 17.3378ZM21.276 13.5776C20.8983 13.3017 20.5203 13.0236 20.1781 12.8127C19.8109 12.5864 19.364 12.3585 18.8118 12.2478L18.0033 16.2819C17.895 16.2602 17.8719 16.2243 18.0193 16.3151C18.1917 16.4214 18.4191 16.5857 18.8487 16.8996L21.276 13.5776ZM17.171 16.8931C17.5961 16.581 17.8197 16.4186 17.9892 16.3137C18.1327 16.2249 18.1095 16.2603 18.0033 16.2819L17.185 12.2498C16.6351 12.3614 16.1906 12.5884 15.8241 12.8152C15.4836 13.0259 15.1086 13.3031 14.7356 13.5771L17.171 16.8931ZM18.8118 12.2478C18.2748 12.1402 17.7217 12.1409 17.185 12.2498L18.0033 16.2819L18.0033 16.2819L18.8118 12.2478Z" fill="#80CAFF" mask="url(#path-5-inside-1_539_28)"/>
</svg>
