<svg width="128" height="128" viewBox="0 0 128 128" fill="none" xmlns="http://www.w3.org/2000/svg">
<g clip-path="url(#clip0_234_23)">
<rect width="128" height="128" rx="29" fill="url(#paint0_linear_234_23)"/>
<g filter="url(#filter0_f_234_23)">
<circle cx="64" cy="64" r="64" transform="rotate(-180 64 64)" fill="#A236C3"/>
</g>
<g filter="url(#filter1_f_234_23)">
<circle cx="64" cy="89.5669" r="64" transform="rotate(-180 64 89.5669)" fill="#1D0A52"/>
</g>
<g filter="url(#filter2_f_234_23)">
<circle cx="64" cy="110.87" r="64" transform="rotate(-180 64 110.87)" fill="#11011A"/>
</g>
<path d="M16.7616 70H14.2596V60.388H16.5636V61.756C17.2656 60.784 18.1656 60.208 19.4436 60.208C20.7576 60.208 21.7656 60.82 22.2516 61.918C23.0076 60.856 23.9796 60.208 25.4196 60.208C27.3636 60.208 28.6776 61.486 28.6776 63.79V70H26.1936V64.582C26.1936 63.232 25.6176 62.422 24.5196 62.422C23.5296 62.422 22.7196 63.196 22.7196 64.636V70H20.2356V64.582C20.2356 63.232 19.6596 62.422 18.5616 62.422C17.5536 62.422 16.7616 63.196 16.7616 64.636V70ZM36.9421 70V68.812C36.3121 69.712 35.3581 70.18 34.0441 70.18C32.0461 70.18 30.7141 69.01 30.7141 67.21C30.7141 65.338 32.2261 64.33 35.0341 64.33C35.5741 64.33 36.0421 64.366 36.6361 64.438V63.862C36.6361 62.782 36.0241 62.152 34.9801 62.152C33.9001 62.152 33.2521 62.782 33.1621 63.862H30.9121C31.0561 61.648 32.6581 60.208 34.9801 60.208C37.5001 60.208 38.9761 61.594 38.9761 63.952V70H36.9421ZM33.0721 67.138C33.0721 67.948 33.6481 68.452 34.5841 68.452C35.8621 68.452 36.6361 67.75 36.6361 66.634V65.95C36.0421 65.86 35.6281 65.824 35.1961 65.824C33.7741 65.824 33.0721 66.274 33.0721 67.138ZM40.9022 65.194C40.9022 62.35 42.5762 60.208 45.1682 60.208C46.3202 60.208 47.2922 60.712 48.0122 61.63V57.076H50.4962V70H48.2102V68.614C47.4542 69.622 46.4102 70.18 45.1682 70.18C42.5762 70.18 40.9022 68.002 40.9022 65.194ZM43.4762 65.194C43.4762 66.994 44.5022 67.948 45.7262 67.948C46.9682 67.948 47.9942 66.976 47.9942 65.158C47.9942 63.34 46.9502 62.422 45.7262 62.422C44.5022 62.422 43.4762 63.358 43.4762 65.194ZM57.3055 70.162C54.4255 70.162 52.4995 68.164 52.4995 65.158C52.4995 62.296 54.4975 60.208 57.2695 60.208C60.3115 60.208 62.3275 62.674 61.8775 65.806H55.0555C55.2175 67.372 55.9735 68.236 57.2515 68.236C58.3495 68.236 59.0875 67.696 59.3755 66.742H61.8595C61.3195 68.92 59.6455 70.162 57.3055 70.162ZM57.2155 62.044C56.0455 62.044 55.3075 62.8 55.0915 64.222H59.2315C59.1595 62.89 58.4035 62.044 57.2155 62.044ZM73.5473 65.194C73.5473 68.002 71.8733 70.18 69.2813 70.18C68.0393 70.18 66.9953 69.622 66.2573 68.614V70H63.9533V57.076H66.4553V61.63C67.1573 60.694 68.1293 60.208 69.2813 60.208C71.8733 60.208 73.5473 62.35 73.5473 65.194ZM70.9733 65.194C70.9733 63.358 69.9473 62.422 68.7233 62.422C67.5173 62.422 66.4733 63.34 66.4733 65.158C66.4733 66.976 67.4813 67.948 68.7233 67.948C69.9473 67.948 70.9733 66.994 70.9733 65.194ZM83.8746 60.388L79.1946 73.474H76.4766L77.8446 69.892L74.0646 60.388H76.7646L79.1766 66.976L81.3726 60.388H83.8746Z" fill="white"/>
<path d="M87.8503 69.19C87.6703 69.05 87.4703 68.87 87.2503 68.65C87.0503 68.43 86.9803 68.12 87.0403 67.72C87.1003 67.16 87.1803 66.67 87.2803 66.25C87.3803 65.81 87.5003 65.31 87.6403 64.75C87.6803 64.51 87.7803 64.1 87.9403 63.52C88.1203 62.94 88.3303 62.31 88.5703 61.63C88.8103 60.95 89.0603 60.31 89.3203 59.71C89.5803 59.09 89.8103 58.63 90.0103 58.33C90.2303 58.13 90.5503 58.03 90.9703 58.03C91.4103 58.03 91.7103 58.11 91.8703 58.27C92.0903 58.45 92.1603 58.77 92.0803 59.23C92.0003 59.67 91.7203 60.36 91.2403 61.3C91.1403 61.54 91.0103 61.8 90.8503 62.08C90.7103 62.34 90.6103 62.56 90.5503 62.74C90.4903 62.9 90.5103 62.97 90.6103 62.95C90.7303 62.73 90.9503 62.48 91.2703 62.2C91.5903 61.9 91.9303 61.61 92.2903 61.33C92.6503 61.05 92.9903 60.8 93.3103 60.58C93.6303 60.36 93.8503 60.22 93.9703 60.16C94.1303 60.06 94.3103 59.98 94.5103 59.92C94.7303 59.84 94.8803 59.78 94.9603 59.74C95.4203 59.52 95.9203 59.44 96.4603 59.5C97.0203 59.54 97.3603 59.71 97.4803 60.01C97.5003 60.17 97.5603 60.29 97.6603 60.37C97.7803 60.45 97.8403 60.49 97.8403 60.49C97.9203 60.49 97.9603 60.52 97.9603 60.58C97.9803 60.64 97.9903 60.67 97.9903 60.67C97.9903 60.81 97.8503 61.01 97.5703 61.27C97.3103 61.53 97.0203 61.67 96.7003 61.69C96.4403 61.71 96.2103 61.76 96.0103 61.84C95.8103 61.92 95.5703 62.02 95.2903 62.14C94.5303 62.58 93.8403 62.97 93.2203 63.31C92.6203 63.65 92.0003 64.17 91.3603 64.87C91.2203 65.03 91.0703 65.18 90.9103 65.32C90.7503 65.46 90.5903 65.66 90.4303 65.92C90.3303 66.02 90.2303 66.24 90.1303 66.58C90.0303 66.92 89.9403 67.25 89.8603 67.57C89.8003 67.87 89.7703 68.05 89.7703 68.11C89.7703 68.11 89.7403 68.21 89.6803 68.41C89.6203 68.59 89.5203 68.77 89.3803 68.95C89.1403 69.27 88.9003 69.47 88.6603 69.55C88.4403 69.63 88.1703 69.51 87.8503 69.19ZM98.6643 69.37C98.5843 69.21 98.4043 69.05 98.1243 68.89C97.8643 68.73 97.7343 68.61 97.7343 68.53C97.7343 68.45 97.6843 68.33 97.5843 68.17C97.5043 67.99 97.4243 67.86 97.3443 67.78C97.2443 67.66 97.2743 67.37 97.4343 66.91C97.5943 66.43 97.8343 65.85 98.1543 65.17C98.4743 64.49 98.8243 63.8 99.2043 63.1C99.3643 62.94 99.5243 62.73 99.6843 62.47C99.8443 62.21 99.9643 62.04 100.044 61.96C100.044 61.88 100.074 61.81 100.134 61.75C100.194 61.67 100.264 61.63 100.344 61.63L100.584 61.15C100.624 61.07 100.744 60.91 100.944 60.67C101.164 60.43 101.424 60.17 101.724 59.89C102.024 59.59 102.324 59.31 102.624 59.05C102.944 58.79 103.204 58.6 103.404 58.48C103.824 58.2 104.254 58.07 104.694 58.09C105.154 58.11 105.544 58.25 105.864 58.51C105.924 58.57 106.054 58.69 106.254 58.87C106.474 59.05 106.714 59.25 106.974 59.47C107.254 59.69 107.494 59.89 107.694 60.07L108.804 61.06L108.294 62.56C108.034 63.36 107.964 64.06 108.084 64.66C108.204 65.26 108.394 65.78 108.654 66.22C108.754 66.44 108.884 66.61 109.044 66.73C109.224 66.85 109.454 66.93 109.734 66.97C109.894 66.99 110.044 67.05 110.184 67.15C110.324 67.25 110.394 67.41 110.394 67.63C110.394 68.11 110.304 68.46 110.124 68.68C109.964 68.88 109.784 69 109.584 69.04C108.924 69.12 108.294 69.05 107.694 68.83C107.094 68.61 106.554 68.04 106.074 67.12C105.994 67 105.884 66.78 105.744 66.46C105.624 66.12 105.554 65.9 105.534 65.8C105.454 65.9 105.344 66.03 105.204 66.19C105.084 66.33 104.964 66.46 104.844 66.58C103.424 68.02 102.204 68.96 101.184 69.4C100.184 69.82 99.3443 69.81 98.6643 69.37ZM100.314 66.88C100.454 66.9 100.674 66.83 100.974 66.67C101.274 66.49 101.674 66.2 102.174 65.8C102.854 65.22 103.414 64.74 103.854 64.36C104.294 63.98 104.724 63.49 105.144 62.89L105.804 61.81C105.604 61.35 105.424 61.05 105.264 60.91C105.104 60.77 104.944 60.7 104.784 60.7C104.524 60.7 104.214 60.87 103.854 61.21C103.494 61.53 103.084 62.01 102.624 62.65C102.184 63.27 101.684 64.05 101.124 64.99C100.864 65.43 100.664 65.86 100.524 66.28C100.384 66.68 100.314 66.88 100.314 66.88ZM107.013 76.84C106.473 76.62 106.033 76.26 105.693 75.76C105.333 75.26 105.093 74.72 104.973 74.14C104.853 73.58 104.853 73.1 104.973 72.7C105.073 72.42 105.223 72.23 105.423 72.13C105.603 72.03 105.763 71.98 105.903 71.98C105.983 71.98 106.093 72.05 106.233 72.19C106.373 72.33 106.503 72.49 106.623 72.67C106.743 72.87 106.803 73.05 106.803 73.21C106.803 73.41 106.873 73.6 107.013 73.78C107.133 73.98 107.293 74.14 107.493 74.26C107.673 74.38 107.863 74.46 108.063 74.5C108.423 74.52 108.703 74.41 108.903 74.17C109.123 73.93 109.363 73.53 109.623 72.97C109.883 72.57 110.063 72.23 110.163 71.95C110.263 71.67 110.333 71.4 110.373 71.14C110.433 70.9 110.493 70.63 110.553 70.33C110.673 69.99 110.783 69.58 110.883 69.1C110.983 68.6 111.083 68.08 111.183 67.54C111.283 67 111.373 66.5 111.453 66.04C111.493 65.8 111.553 65.52 111.633 65.2C111.733 64.86 111.853 64.59 111.993 64.39C112.053 64.07 112.143 63.65 112.263 63.13C112.403 62.61 112.563 62.09 112.743 61.57C112.923 61.03 113.103 60.57 113.283 60.19C113.363 60.03 113.433 59.89 113.493 59.77C113.553 59.63 113.633 59.46 113.733 59.26C113.953 59.1 114.213 59.03 114.513 59.05C114.833 59.07 115.153 59.12 115.473 59.2C116.053 59.42 116.463 59.66 116.703 59.92C116.963 60.18 117.103 60.43 117.123 60.67C117.163 60.91 117.113 61.11 116.973 61.27C116.893 61.35 116.793 61.4 116.673 61.42C116.573 61.42 116.463 61.4 116.343 61.36C116.323 61.32 116.273 61.29 116.193 61.27C116.113 61.23 116.073 61.21 116.073 61.21C115.953 61.21 115.813 61.35 115.653 61.63C115.513 61.91 115.363 62.26 115.203 62.68C115.043 63.08 114.893 63.49 114.753 63.91C114.633 64.31 114.533 64.65 114.453 64.93C114.453 64.95 114.403 65.15 114.303 65.53C114.203 65.89 114.093 66.26 113.973 66.64C113.873 67.02 113.813 67.27 113.793 67.39C113.713 67.79 113.653 68.1 113.613 68.32C113.593 68.54 113.553 68.76 113.493 68.98C113.413 69.4 113.313 69.8 113.193 70.18C113.093 70.58 112.963 70.98 112.803 71.38C112.683 71.86 112.513 72.36 112.293 72.88C112.093 73.4 111.833 73.92 111.513 74.44C111.133 75.12 110.693 75.65 110.193 76.03C109.713 76.41 109.293 76.67 108.933 76.81C108.673 76.91 108.363 76.96 108.003 76.96C107.623 76.98 107.293 76.94 107.013 76.84ZM115.383 55.6C115.123 55.38 114.973 55.12 114.933 54.82C114.893 54.5 114.973 54.18 115.173 53.86C115.273 53.66 115.353 53.46 115.413 53.26C115.493 53.06 115.543 52.86 115.563 52.66C116.023 52.42 116.453 52.28 116.853 52.24C117.273 52.2 117.603 52.29 117.843 52.51C118.123 52.83 118.233 53.27 118.173 53.83C118.133 54.39 117.913 54.91 117.513 55.39C117.173 55.77 116.793 55.96 116.373 55.96C115.953 55.94 115.623 55.82 115.383 55.6Z" fill="white"/>
</g>
<defs>
<filter id="filter0_f_234_23" x="-20" y="-20" width="168" height="168" filterUnits="userSpaceOnUse" color-interpolation-filters="sRGB">
<feFlood flood-opacity="0" result="BackgroundImageFix"/>
<feBlend mode="normal" in="SourceGraphic" in2="BackgroundImageFix" result="shape"/>
<feGaussianBlur stdDeviation="10" result="effect1_foregroundBlur_234_23"/>
</filter>
<filter id="filter1_f_234_23" x="-20" y="5.56689" width="168" height="168" filterUnits="userSpaceOnUse" color-interpolation-filters="sRGB">
<feFlood flood-opacity="0" result="BackgroundImageFix"/>
<feBlend mode="normal" in="SourceGraphic" in2="BackgroundImageFix" result="shape"/>
<feGaussianBlur stdDeviation="10" result="effect1_foregroundBlur_234_23"/>
</filter>
<filter id="filter2_f_234_23" x="-20" y="26.8696" width="168" height="168" filterUnits="userSpaceOnUse" color-interpolation-filters="sRGB">
<feFlood flood-opacity="0" result="BackgroundImageFix"/>
<feBlend mode="normal" in="SourceGraphic" in2="BackgroundImageFix" result="shape"/>
<feGaussianBlur stdDeviation="10" result="effect1_foregroundBlur_234_23"/>
</filter>
<linearGradient id="paint0_linear_234_23" x1="64" y1="0" x2="64" y2="128" gradientUnits="userSpaceOnUse">
<stop stop-color="#F785FF"/>
<stop offset="1" stop-color="#832BC1"/>
</linearGradient>
<clipPath id="clip0_234_23">
<rect width="128" height="128" rx="29" fill="white"/>
</clipPath>
</defs>
</svg>
