<svg width="128" height="128" viewBox="0 0 128 128" fill="none" xmlns="http://www.w3.org/2000/svg">
<g clip-path="url(#clip0_198_298)">
<rect width="128" height="128" rx="29" fill="#FF99F5"/>
<g filter="url(#filter0_f_198_298)">
<circle cx="64" cy="64.0001" r="64" transform="rotate(-180 64 64.0001)" fill="#A236C3"/>
</g>
<g filter="url(#filter1_f_198_298)">
<circle cx="64" cy="89.5669" r="64" transform="rotate(-180 64 89.5669)" fill="#1D0A52"/>
</g>
<g filter="url(#filter2_f_198_298)">
<circle cx="64" cy="110.87" r="64" transform="rotate(-180 64 110.87)" fill="#11011A"/>
</g>
<path d="M25.2188 30.4219H21.2344V39H17.4688V16.4531H25.4062C30.1562 16.4531 33.0781 19.125 33.0781 23.4688C33.0781 26.4062 31.4844 28.8438 28.9844 29.75L33.5312 39H29.2812L25.2188 30.4219ZM21.2344 19.5938V27.4531H24.8906C27.6406 27.4531 29.2344 26 29.2344 23.5156C29.2344 21.0312 27.6719 19.5938 24.9688 19.5938H21.2344ZM40.0938 39.2812C36.8438 39.2812 34.6719 37.2188 34.6719 34.125C34.6719 31.0625 36.8906 29.25 40.9844 29L45.2656 28.75V27.3125C45.2656 25.5469 44.125 24.5469 42.125 24.5469C40.4531 24.5469 39.2344 25.2656 38.8594 26.5156H35.2969C35.6094 23.5625 38.375 21.6094 42.2188 21.6094C46.4531 21.6094 48.8594 23.6875 48.8594 27.3438V39H45.4062V36.6094H45.0781C44.25 38.3125 42.4219 39.2812 40.0938 39.2812ZM41.2656 36.3125C43.5781 36.3125 45.2656 34.8281 45.2656 32.7656V31.2031L41.5312 31.4062C39.3906 31.5312 38.2812 32.3906 38.2812 33.9062C38.2812 35.3906 39.4375 36.3125 41.2656 36.3125ZM61.5156 18.0938C59.9531 18.0938 58.8594 17.0781 58.8594 15.6094C58.8594 14.1406 59.9531 13.125 61.5156 13.125C63.0625 13.125 64.1562 14.1406 64.1562 15.6094C64.1562 17.0781 63.0625 18.0938 61.5156 18.0938ZM63.5156 21.8906V38.5625C63.5156 42.8125 61.5938 44.4219 56.6562 44.4219C55.8906 44.4219 53.0938 44.3906 52.3594 44.3438V41.1562C52.8906 41.2031 55.8594 41.2344 56.5312 41.2344C59.0938 41.2344 59.9688 40.5 59.9688 38.4531V24.7969H52.6094V21.8906H63.5156Z" fill="white" style="mix-blend-mode:color-dodge"/>
<path d="M21.4375 67H17.8281V44.4531H21.4375V55.1094H21.6719L30.0469 44.4531H34.1562L26.1562 54.4062L34.7812 67H30.2969L23.5781 57.1562L21.4375 59.7969V67ZM51.3625 49.8906V67H47.8469V64.0781H47.5969C46.7219 66.1719 44.8312 67.3438 42.3156 67.3438C38.5969 67.3438 36.5812 65.125 36.5812 60.9688V49.8906H40.2219V60.0938C40.2219 62.8438 41.3469 64.1406 43.6906 64.1406C46.1281 64.1406 47.7219 62.4531 47.7219 59.8594V49.8906H51.3625ZM71.5375 54V67H68.4125V55.1562C68.4125 53.5938 67.7406 52.7031 66.5844 52.7031C65.3812 52.7031 64.6312 53.7188 64.6312 55.3281V67H61.5219V55.1562C61.5219 53.5781 60.8656 52.7031 59.6937 52.7031C58.475 52.7031 57.6937 53.7188 57.6937 55.3281V67H54.5687V49.8906H57.7562V52.4531H58.1469C58.5375 50.5938 59.7406 49.5469 61.3812 49.5469C62.975 49.5469 64.0687 50.5625 64.4281 52.3594H64.8187C65.2094 50.6094 66.475 49.5469 68.1469 49.5469C70.3656 49.5469 71.5375 51.0938 71.5375 54ZM80.0563 67.2812C76.8063 67.2812 74.6344 65.2188 74.6344 62.125C74.6344 59.0625 76.8531 57.25 80.9469 57L85.2281 56.75V55.3125C85.2281 53.5469 84.0875 52.5469 82.0875 52.5469C80.4156 52.5469 79.1969 53.2656 78.8219 54.5156H75.2594C75.5719 51.5625 78.3375 49.6094 82.1813 49.6094C86.4156 49.6094 88.8219 51.6875 88.8219 55.3438V67H85.3688V64.6094H85.0406C84.2125 66.3125 82.3844 67.2812 80.0563 67.2812ZM81.2281 64.3125C83.5406 64.3125 85.2281 62.8281 85.2281 60.7656V59.2031L81.4938 59.4062C79.3531 59.5312 78.2438 60.3906 78.2438 61.9062C78.2438 63.3906 79.4 64.3125 81.2281 64.3125ZM100.747 59.375V64.2812H105.841V67H93.9187V64.2812H97.2469V52.6094H93.5906V49.8906H100.762V54.2656H101.294C101.997 50.9688 103.903 49.4375 107.153 49.4375C108.122 49.4375 109.012 49.5625 109.606 49.7969V53.75C108.841 53.4531 107.716 53.2656 106.778 53.2656C102.825 53.2656 100.747 55.4219 100.747 59.375Z" fill="white"/>
<g filter="url(#filter3_d_198_298)">
<path d="M86.3137 95.9257C87.2309 95.8466 88.1788 95.9461 89.1095 96.2485C92.8322 97.4581 94.8695 101.457 93.66 105.179C91.0408 102.27 86.5594 102.035 83.6505 104.655C82.9243 105.309 82.3648 106.078 81.9747 106.911C81.3362 102.631 83.0988 98.4819 86.3137 95.9257Z" fill="url(#paint0_linear_198_298)"/>
<path d="M81.9742 106.911C82.3642 106.079 82.9238 105.309 83.6499 104.655C86.5588 102.036 91.0403 102.27 93.6594 105.179C89.8307 105.993 87.3866 109.757 88.2004 113.586C88.4037 114.542 88.791 115.412 89.3174 116.166C85.7638 114.758 82.9594 111.654 82.1051 107.635C82.0537 107.394 82.0101 107.152 81.9742 106.911Z" fill="url(#paint1_linear_198_298)"/>
<path d="M89.3174 116.166C88.791 115.412 88.4037 114.542 88.2004 113.586C87.3866 109.757 89.8307 105.993 93.6594 105.179C92.4498 108.902 94.4872 112.901 98.2099 114.11C99.1406 114.413 100.088 114.512 101.006 114.433C99.6201 115.535 97.9646 116.341 96.1154 116.734C93.7532 117.236 91.4059 116.994 89.3174 116.166Z" fill="url(#paint2_linear_198_298)"/>
<path d="M101.006 114.433C100.089 114.512 99.1408 114.412 98.2101 114.11C94.4873 112.9 92.45 108.902 93.6596 105.179C96.2788 108.088 100.76 108.323 103.669 105.704C104.395 105.05 104.955 104.28 105.345 103.448C105.983 107.728 104.221 111.877 101.006 114.433Z" fill="url(#paint3_linear_198_298)"/>
<path d="M105.345 103.448C104.955 104.28 104.395 105.05 103.669 105.704C100.76 108.323 96.2786 108.088 93.6595 105.179C97.4882 104.366 99.9323 100.602 99.1185 96.7733C98.9152 95.8169 98.5279 94.9469 98.0015 94.1926C101.555 95.6007 104.36 98.7044 105.214 102.724C105.265 102.965 105.309 103.207 105.345 103.448Z" fill="url(#paint4_linear_198_298)"/>
<path d="M98.0019 94.1923C98.5283 94.9467 98.9156 95.8167 99.1189 96.773C99.9327 100.602 97.4886 104.365 93.6599 105.179C94.8694 101.457 92.8321 97.4581 89.1094 96.2485C88.1787 95.9461 87.2308 95.8466 86.3136 95.9257C87.6992 94.8239 89.3547 94.0179 91.2039 93.6249C93.5661 93.1228 95.9134 93.3647 98.0019 94.1923Z" fill="url(#paint5_linear_198_298)"/>
<path d="M76.9546 81.1701L75.6248 80.3044L75.9547 81.8565L79.0077 96.2199L79.3291 97.7317L80.1936 96.4505L83.2136 91.9752L83.223 91.9626L89.4485 90.6394L90.9957 90.3105L89.67 89.4475L76.9546 81.1701Z" fill="black" stroke="white" stroke-width="1.3125"/>
</g>
</g>
<defs>
<filter id="filter0_f_198_298" x="-20" y="-19.9999" width="168" height="168" filterUnits="userSpaceOnUse" color-interpolation-filters="sRGB">
<feFlood flood-opacity="0" result="BackgroundImageFix"/>
<feBlend mode="normal" in="SourceGraphic" in2="BackgroundImageFix" result="shape"/>
<feGaussianBlur stdDeviation="10" result="effect1_foregroundBlur_198_298"/>
</filter>
<filter id="filter1_f_198_298" x="-20" y="5.56689" width="168" height="168" filterUnits="userSpaceOnUse" color-interpolation-filters="sRGB">
<feFlood flood-opacity="0" result="BackgroundImageFix"/>
<feBlend mode="normal" in="SourceGraphic" in2="BackgroundImageFix" result="shape"/>
<feGaussianBlur stdDeviation="10" result="effect1_foregroundBlur_198_298"/>
</filter>
<filter id="filter2_f_198_298" x="-20" y="26.8698" width="168" height="168" filterUnits="userSpaceOnUse" color-interpolation-filters="sRGB">
<feFlood flood-opacity="0" result="BackgroundImageFix"/>
<feBlend mode="normal" in="SourceGraphic" in2="BackgroundImageFix" result="shape"/>
<feGaussianBlur stdDeviation="10" result="effect1_foregroundBlur_198_298"/>
</filter>
<filter id="filter3_d_198_298" x="63.8082" y="70.6832" width="53.3145" height="53.3145" filterUnits="userSpaceOnUse" color-interpolation-filters="sRGB">
<feFlood flood-opacity="0" result="BackgroundImageFix"/>
<feColorMatrix in="SourceAlpha" type="matrix" values="0 0 0 0 0 0 0 0 0 0 0 0 0 0 0 0 0 0 127 0" result="hardAlpha"/>
<feOffset dy="0.875"/>
<feGaussianBlur stdDeviation="0.875"/>
<feColorMatrix type="matrix" values="0 0 0 0 0 0 0 0 0 0 0 0 0 0 0 0 0 0 0.44 0"/>
<feBlend mode="normal" in2="BackgroundImageFix" result="effect1_dropShadow_198_298"/>
<feBlend mode="normal" in="SourceGraphic" in2="effect1_dropShadow_198_298" result="shape"/>
</filter>
<linearGradient id="paint0_linear_198_298" x1="79.9282" y1="97.283" x2="82.1276" y2="107.631" gradientUnits="userSpaceOnUse">
<stop stop-color="#FFD305"/>
<stop offset="1" stop-color="#FDCF01"/>
</linearGradient>
<linearGradient id="paint1_linear_198_298" x1="81.368" y1="104.168" x2="84.1518" y2="117.264" gradientUnits="userSpaceOnUse">
<stop stop-color="#52CF30"/>
<stop offset="1" stop-color="#3BBD1C"/>
</linearGradient>
<linearGradient id="paint2_linear_198_298" x1="86.7268" y1="106.653" x2="89.1828" y2="118.207" gradientUnits="userSpaceOnUse">
<stop stop-color="#14ADF6"/>
<stop offset="1" stop-color="#1191F4"/>
</linearGradient>
<linearGradient id="paint3_linear_198_298" x1="92.7297" y1="105.377" x2="94.9291" y2="115.725" gradientUnits="userSpaceOnUse">
<stop stop-color="#CA70E1"/>
<stop offset="1" stop-color="#B452CB"/>
</linearGradient>
<linearGradient id="paint4_linear_198_298" x1="91.6128" y1="95.5505" x2="94.3965" y2="108.647" gradientUnits="userSpaceOnUse">
<stop stop-color="#FF645D"/>
<stop offset="1" stop-color="#FF4332"/>
</linearGradient>
<linearGradient id="paint5_linear_198_298" x1="86.057" y1="94.7189" x2="88.513" y2="106.273" gradientUnits="userSpaceOnUse">
<stop stop-color="#FBB114"/>
<stop offset="1" stop-color="#FF9508"/>
</linearGradient>
<clipPath id="clip0_198_298">
<rect width="128" height="128" rx="29" fill="white"/>
</clipPath>
</defs>
</svg>
