<svg width="128" height="128" viewBox="0 0 128 128" fill="none" xmlns="http://www.w3.org/2000/svg">
<rect x="0.8" y="0.8" width="126.4" height="126.4" rx="28.2" fill="#020203" fill-opacity="0.3"/>
<rect x="0.8" y="0.8" width="126.4" height="126.4" rx="28.2" fill="url(#paint0_linear_186_80)" fill-opacity="0.95"/>
<rect x="0.8" y="0.8" width="126.4" height="126.4" rx="28.2" stroke="url(#paint1_linear_186_80)" stroke-width="1.6"/>
<g clip-path="url(#clip0_186_80)" filter="url(#filter0_b_186_80)">
<path d="M98.5578 37.2298L96.8112 41.114L95.1072 40.3478C93.2292 39.5033 91.032 40.2995 90.1834 42.1867C89.3347 44.0738 90.1675 46.2876 92.0547 47.1362C93.9236 47.9765 96.1414 47.1346 96.99 45.2474L97.748 43.5618L101.605 45.2961L100.847 46.9817C99.9982 48.8689 100.84 51.0867 102.709 51.9271C104.596 52.7757 106.805 51.9296 107.653 50.0425C108.502 48.1553 107.64 45.9832 105.762 45.1387L104.058 44.3725L105.804 40.4882L107.508 41.2545C109.39 42.0898 111.588 41.2936 112.436 39.4065C113.281 37.5284 112.452 35.3056 110.565 34.457C108.696 33.6166 106.474 34.4677 105.63 36.3457L104.867 38.0405L101.011 36.3062L101.773 34.6114C102.617 32.7334 101.779 30.5064 99.9105 29.666C98.0233 28.8174 95.8105 29.6727 94.966 31.5507C94.1174 33.4379 94.98 35.6099 96.8539 36.4635L98.5578 37.2298ZM97.6311 34.8086C96.6783 34.3802 96.2549 33.2646 96.6792 32.321C97.0993 31.3866 98.2149 30.9631 99.1402 31.3792C100.065 31.7952 100.489 32.9108 100.056 33.8727L99.2984 35.5583L97.6311 34.8086ZM108.24 39.5789L106.563 38.8251L107.321 37.1394C107.754 36.1775 108.869 35.754 109.794 36.1701C110.729 36.5903 111.143 37.7017 110.723 38.6361C110.299 39.5797 109.183 40.0032 108.24 39.5789ZM98.511 41.8894L100.27 37.9777L104.118 39.7078L102.359 43.6196L98.511 41.8894ZM94.3891 42.0183L96.0564 42.7681L95.2984 44.4537C94.87 45.4065 93.7544 45.83 92.8292 45.4139C91.9039 44.9978 91.4763 43.8914 91.9006 42.9478C92.3208 42.0134 93.4363 41.5899 94.3891 42.0183ZM104.998 46.7887C105.941 47.213 106.365 48.3285 105.944 49.263C105.52 50.2065 104.418 50.625 103.483 50.2048C102.558 49.7887 102.135 48.6732 102.563 47.7204L103.321 46.0348L104.998 46.7887Z" fill="white"/>
</g>
<path d="M74.4903 47.9093C74.8577 48.0658 75.2544 47.9204 75.4332 47.5496C76.1885 46.0297 76.4701 44.1105 76.1779 42.2271C75.8845 40.3362 75.0408 38.5841 73.8542 37.3731C73.5715 37.0739 73.1493 37.0555 72.8478 37.3234C72.5314 37.5936 72.5475 38.0409 72.8681 38.3876C73.8437 39.4178 74.5334 40.866 74.7783 42.4443C75.022 44.015 74.7875 45.599 74.186 46.8816C73.993 47.308 74.1058 47.7403 74.4903 47.9093ZM65.663 47.4722C67.4571 47.1938 68.6701 45.3818 68.3687 43.4388C68.0707 41.5181 66.3822 40.2172 64.5807 40.4968C62.7866 40.7751 61.5603 42.5511 61.856 44.4569C62.1649 46.3987 63.8614 47.7517 65.663 47.4722ZM71.2116 46.3825C71.5555 46.535 71.9534 46.3971 72.1345 46.0411C72.6053 45.1447 72.787 43.9578 72.6045 42.7815C72.4209 41.5979 71.8891 40.5292 71.1677 39.8102C70.8872 39.5259 70.4662 39.515 70.1871 39.7794C69.8581 40.0667 69.8593 40.5164 70.2068 40.8893C70.7138 41.4053 71.0682 42.1661 71.1975 42.9998C71.3258 43.8262 71.21 44.6522 70.8929 45.3113C70.6822 45.7709 70.8087 46.1935 71.2116 46.3825ZM65.4643 46.1917C64.4295 46.3523 63.4061 45.5048 63.2109 44.2467C63.014 43.0269 63.7383 41.9464 64.7805 41.7847C65.8227 41.6229 66.8306 42.4195 67.0212 43.6478C67.2153 44.8985 66.5065 46.03 65.4643 46.1917ZM62.1057 55.2056L71.3889 53.7652C72.6693 53.5665 73.2248 53.0687 73.0897 52.1977C72.7732 50.1579 69.8022 47.8134 65.8045 48.4337C61.8143 49.0528 59.686 52.1885 60.0024 54.2283C60.1376 55.0993 60.8178 55.4054 62.1057 55.2056ZM61.6602 53.9558C61.4816 53.9835 61.4065 53.9418 61.3845 53.8004C61.2078 52.6614 62.7214 50.2309 66.0043 49.7215C69.2948 49.211 71.4736 51.0685 71.6504 52.2075C71.6723 52.349 71.6134 52.4115 71.4347 52.4392L61.6602 53.9558Z" fill="#2BD659"/>
<path d="M59.8826 74.0612C60.7591 74.036 61.655 74.1823 62.5234 74.5205C65.9971 75.8735 67.7163 79.7863 66.3633 83.2601C64.0315 80.3515 59.7833 79.8839 56.8747 82.2158C56.1486 82.7979 55.5746 83.4994 55.1584 84.2698C54.7846 80.1652 56.6866 76.3166 59.8826 74.0612V74.0612Z" fill="url(#paint2_linear_186_80)"/>
<path d="M55.1579 84.2699C55.5741 83.4996 56.1481 82.798 56.8742 82.2159C59.7828 79.8841 64.031 80.3516 66.3628 83.2602C62.678 83.8253 60.149 87.2706 60.7141 90.9555C60.8553 91.8759 61.1762 92.7242 61.6356 93.4701C58.3335 91.9376 55.8361 88.8337 55.2429 84.9657C55.2072 84.7331 55.1789 84.5011 55.1579 84.2699V84.2699Z" fill="url(#paint3_linear_186_80)"/>
<path d="M61.6356 93.4701C61.1762 92.7241 60.8553 91.8758 60.7141 90.9554C60.149 87.2706 62.678 83.8253 66.3628 83.2602C65.0099 86.7339 66.7291 90.6467 70.2028 91.9997C71.0712 92.338 71.9671 92.4842 72.8435 92.459C71.466 93.4311 69.848 94.1072 68.0683 94.3802C65.7949 94.7288 63.5763 94.3708 61.6356 93.4701V93.4701Z" fill="url(#paint4_linear_186_80)"/>
<path d="M72.8437 92.459C71.9673 92.4842 71.0714 92.3379 70.203 91.9997C66.7292 90.6467 65.01 86.7339 66.363 83.2601C68.6949 86.1687 72.9431 86.6363 75.8517 84.3044C76.5778 83.7223 77.1517 83.0208 77.568 82.2505C77.9418 86.355 76.0397 90.2037 72.8437 92.459V92.459Z" fill="url(#paint5_linear_186_80)"/>
<path d="M77.5678 82.2506C77.1516 83.0209 76.5776 83.7224 75.8515 84.3045C72.9429 86.6364 68.6947 86.1689 66.3629 83.2603C70.0477 82.6951 72.5767 79.2498 72.0116 75.565C71.8704 74.6446 71.5495 73.7963 71.0901 73.0503C74.3922 74.5829 76.8896 77.6868 77.4828 81.5548C77.5185 81.7874 77.5468 82.0194 77.5678 82.2506V82.2506Z" fill="url(#paint6_linear_186_80)"/>
<path d="M71.0905 73.0502C71.5499 73.7961 71.8708 74.6444 72.0119 75.5648C72.5771 79.2497 70.0481 82.695 66.3632 83.2601C67.7162 79.7864 65.997 75.8735 62.5233 74.5205C61.6549 74.1823 60.759 74.0361 59.8825 74.0613C61.2601 73.0892 62.878 72.4131 64.6578 72.1401C66.9311 71.7915 69.1498 72.1494 71.0905 73.0502V73.0502Z" fill="url(#paint7_linear_186_80)"/>
<path d="M51.7881 59.5213L50.5708 58.6257L50.7999 60.1195L52.92 73.9429L53.1431 75.3978L54.035 74.2268L57.1503 70.1361L57.16 70.1247L63.1514 69.2058L64.6405 68.9774L63.427 68.0846L51.7881 59.5213Z" fill="black" stroke="white" stroke-width="1.25"/>
<path d="M60.0113 10.76C53.6041 10.76 48.3156 16.0485 48.3156 22.4445C48.3156 28.8404 53.6154 34.1289 60.0226 34.1289C66.4185 34.1289 71.6957 28.8404 71.6957 22.4445C71.6957 16.0485 66.4072 10.76 60.0113 10.76ZM60.0113 13.0879C65.1981 13.0879 69.3453 17.2577 69.3453 22.4445C69.3453 27.6313 65.1981 31.7898 60.0226 31.7898C54.8358 31.7898 50.666 27.6313 50.6547 22.4445C50.6434 17.2577 54.8245 13.0879 60.0113 13.0879ZM60.0226 20.5686C59.4011 20.5686 59.0395 20.9189 59.0282 21.5744L58.8587 27.0098C58.8361 27.6765 59.3333 28.1624 60.0339 28.1624C60.7345 28.1624 61.2204 27.6878 61.1978 27.0211L61.0396 21.5744C61.017 20.9302 60.6554 20.5686 60.0226 20.5686ZM60.0226 16.817C59.2881 16.817 58.6892 17.3481 58.6892 18.0713C58.6892 18.7832 59.2768 19.3143 60.0226 19.3143C60.7571 19.3143 61.356 18.7832 61.356 18.0713C61.356 17.3594 60.7458 16.817 60.0226 16.817Z" fill="#007BFF"/>
<g clip-path="url(#clip1_186_80)">
<path d="M16.6826 52.6875C17.3022 55.3743 19.4524 56.6527 21.996 56.0662C23.4495 55.731 24.6151 54.8012 25.3446 53.4385L26.779 50.7072C26.9781 50.3134 27.2314 50.1043 27.5728 50.0255L38.0004 47.621C38.3418 47.5423 38.6611 47.6194 39.0125 47.8862L41.4981 49.7136C42.7507 50.6192 44.2057 50.9447 45.6592 50.6095C48.2028 50.023 49.5761 47.932 48.9566 45.2453C48.69 44.0891 48.1346 42.8371 47.3699 41.4827C46.1616 39.3608 44.275 36.5603 42.6059 34.4519C41.1858 32.6688 40.4423 31.8081 37.8929 31.8162C35.656 31.8217 32.6754 32.1727 29.1408 32.9878C25.6062 33.8029 22.7618 34.7951 20.7484 35.7696C18.4639 36.8763 18.1613 37.9781 17.6655 40.2031C17.0882 42.8295 16.6184 46.1733 16.4614 48.6101C16.3671 50.1626 16.416 51.5314 16.6826 52.6875ZM18.7476 52.1882C18.5927 51.5165 18.5615 50.6771 18.6337 49.4312C18.785 46.7175 19.3056 43.1416 19.8481 40.4652C20.11 39.1871 20.2685 38.4664 21.4968 37.8584C23.4137 36.9177 26.1699 35.9458 29.6385 35.146C33.096 34.3487 36.0105 34.0129 38.1458 34.0192C39.5162 34.0279 39.9523 34.6116 40.7585 35.6433C42.4402 37.8068 44.4302 40.8038 45.7875 43.1696C46.398 44.2581 46.7265 45.0289 46.8814 45.7006C47.2089 47.1211 46.4185 48.2195 45.1192 48.5191C44.3264 48.7019 43.4481 48.4638 42.6529 47.8818L39.8607 45.8816C39.1764 45.3783 38.6674 45.1826 37.7204 45.401L26.8633 47.9046C25.9053 48.1255 25.5335 48.5244 25.1386 49.2764L23.5153 52.2948C23.0553 53.1663 22.3589 53.7675 21.5771 53.9478C20.2668 54.25 19.0752 53.6086 18.7476 52.1882ZM21.9956 43.0895C22.1378 43.7061 22.6121 44.0027 23.2287 43.8605L25.0786 43.4339L25.4925 45.2287C25.6347 45.8453 26.1005 46.1554 26.7061 46.0158C27.3007 45.8787 27.5837 45.3959 27.4415 44.7793L27.0276 42.9844L28.7674 42.5833C29.4391 42.4284 29.7576 41.949 29.6154 41.3324C29.4783 40.7378 28.982 40.4463 28.3103 40.6012L26.5706 41.0024L26.1592 39.2186C26.017 38.602 25.5512 38.2919 24.9566 38.429C24.351 38.5687 24.068 39.0514 24.2102 39.668L24.6216 41.4519L22.7717 41.8784C22.155 42.0206 21.8585 42.4949 21.9956 43.0895ZM37.84 39.3315C38.7649 39.1182 39.3072 38.251 39.0939 37.326C38.8806 36.4011 38.0108 35.8478 37.0859 36.0611C36.1829 36.2693 35.6212 37.1527 35.8345 38.0776C36.0478 39.0025 36.9371 39.5397 37.84 39.3315ZM35.3314 43.389C36.2563 43.1757 36.7986 42.3085 36.5878 41.3945C36.3745 40.4696 35.5048 39.9164 34.5798 40.1296C33.6659 40.3404 33.1152 41.2212 33.3285 42.1461C33.5392 43.0601 34.4175 43.5997 35.3314 43.389Z" fill="#5551FF"/>
</g>
<g clip-path="url(#clip2_186_80)">
<path d="M39.9341 58.1021L40.1679 57.3155C40.2864 56.9171 40.1187 56.5375 39.7338 56.4121L39.467 56.3196C39.1225 56.2074 38.7569 56.4357 38.6348 56.8105L38.3706 57.5872L39.9341 58.1021ZM35.6175 69.2904L36.7003 68.0128L39.6898 58.8349L38.1331 58.3334L35.1471 67.518L35.219 69.155C35.2304 69.3436 35.4938 69.4293 35.6175 69.2904ZM35.3575 75.0938L43.1803 71.115C44.4696 70.4593 44.8458 69.3213 44.115 67.8843L40.5084 60.7935L39.8451 62.8128L42.7105 68.4465C43.0384 69.0912 42.8599 69.5877 42.41 69.8165L34.7617 73.7065C34.144 74.0207 33.6443 73.8691 33.3164 73.2245L29.5221 65.7643C29.1942 65.1197 29.366 64.6266 29.9838 64.3124L35.6847 61.4128L36.3379 59.3902L29.2134 63.0138C27.763 63.7515 27.3868 64.8895 28.1176 66.3265L32.0349 74.0284C32.7658 75.4654 33.9071 75.8315 35.3575 75.0938Z" fill="#FF9F0A"/>
</g>
<path d="M77.7296 16.1792C76.6473 19.7727 78.5989 24.234 82.3823 28.6781C82.5925 28.9249 82.8616 29.1896 83.0804 29.2555C83.2992 29.3214 83.6697 29.2494 83.9812 29.1597C89.5981 27.547 93.6805 24.903 94.7629 21.3095C95.6982 18.2042 94.2011 15.4034 91.4492 14.5745C89.8418 14.0904 88.3674 14.4449 87.2754 15.3276C86.8668 14.0021 85.8276 12.8813 84.2202 12.3972C81.4598 11.5658 78.665 13.0738 77.7296 16.1792ZM79.4658 16.693C80.1046 14.5722 81.935 13.5539 83.8117 14.1192C85.3265 14.5754 85.9002 15.7487 86.1896 16.7079C86.3213 17.1239 86.4482 17.2815 86.667 17.3474C86.8942 17.4158 87.0728 17.3411 87.4182 17.078C88.2262 16.4677 89.3239 15.7794 90.8303 16.2331C92.7154 16.8009 93.679 18.6608 93.0402 20.7815C92.148 23.7438 88.0793 26.0982 83.8182 27.3849C83.7272 27.4126 83.6666 27.431 83.6329 27.4209C83.5993 27.4107 83.5589 27.3619 83.5068 27.2911C80.6651 23.8651 78.5736 19.6553 79.4658 16.693ZM86.8837 19.3402C87.0054 18.9363 86.7516 18.5294 86.3561 18.4103C85.9521 18.2886 85.5158 18.4876 85.3942 18.8916L84.5754 21.6098L84.2499 22.9345L83.8131 22.0687L83.3888 21.2524C83.3057 21.0714 83.1375 20.9289 82.9607 20.8757C82.5736 20.7591 82.2064 20.9422 82.0923 21.3209C82.029 21.5313 82.0649 21.7165 82.1843 21.8993L83.8371 24.7011C83.9774 24.9361 84.1229 25.0626 84.3333 25.1259C84.5353 25.1868 84.7264 25.1617 84.9732 25.0433L87.9069 23.623C88.1074 23.5365 88.2313 23.3994 88.2946 23.189C88.4087 22.8103 88.2037 22.4548 87.825 22.3408C87.6398 22.285 87.4209 22.3108 87.26 22.4184L86.4556 22.8646L85.6048 23.3426L86.065 22.0585L86.8837 19.3402Z" fill="#FF473A"/>
<path d="M113.712 66.5061C113.712 61.8354 110.749 58.7843 106.367 58.7843C104.069 58.7843 102.098 59.7511 99.9883 61.7977L96.9874 64.6855L93.9992 61.7977C91.8898 59.7511 89.9185 58.7843 87.6208 58.7843C83.2388 58.7843 80.2757 61.8354 80.2757 66.5061C80.2757 71.1769 83.2388 74.228 87.6208 74.228C89.9185 74.228 91.8898 73.2486 93.9992 71.2146L96.9874 68.3142L99.9883 71.2146C102.098 73.2486 104.069 74.228 106.367 74.228C110.749 74.228 113.712 71.1769 113.712 66.5061ZM95.1166 66.5061L92.1158 69.3186C90.5338 70.8128 89.1526 71.5536 87.6208 71.5536C84.846 71.5536 82.9501 69.5698 82.9501 66.5061C82.9501 63.43 84.846 61.4587 87.6208 61.4587C89.1526 61.4587 90.5338 62.1995 92.1284 63.6936L95.1166 66.5061ZM98.8708 66.5061L101.859 63.6936C103.454 62.1995 104.822 61.4587 106.367 61.4587C109.141 61.4587 111.037 63.43 111.037 66.5061C111.037 69.5698 109.141 71.5536 106.367 71.5536C104.835 71.5536 103.454 70.8128 101.872 69.3186L98.8708 66.5061Z" fill="#FADA0A"/>
<path d="M102 97.3017C106.966 97.3017 111.079 93.1972 111.079 88.2226C111.079 83.2568 106.966 79.1435 101.991 79.1435C97.0254 79.1435 92.9209 83.2568 92.9209 88.2226C92.9209 93.1972 97.0342 97.3017 102 97.3017ZM94.7139 88.2226C94.7139 84.4433 97.5439 81.3584 101.209 80.9716V87.6689L96.041 92.4238C95.2061 91.2461 94.7139 89.7959 94.7139 88.2226ZM102.8 87.6953V80.9716C106.465 81.3759 109.286 84.4521 109.295 88.2226C109.295 89.7959 108.803 91.2549 107.959 92.4414L102.8 87.6953ZM101.209 89.9013V95.4736C99.627 95.3066 98.2119 94.6386 97.0957 93.6279L101.209 89.9013ZM102.8 89.9277L106.896 93.6367C105.788 94.6386 104.373 95.2978 102.8 95.4736V89.9277Z" fill="#C147FF"/>
<path d="M31.6539 25.5583H38.3461C39.6959 25.5583 40.3927 24.8489 40.3927 23.4929V17.7926C40.3927 16.9136 40.2797 16.5119 39.7335 15.9531L36.4502 12.6196C35.9166 12.0797 35.4771 11.9541 34.6861 11.9541H31.6539C30.3104 11.9541 29.6073 12.6635 29.6073 14.0258V23.4929C29.6073 24.8489 30.3104 25.5583 31.6539 25.5583ZM31.7606 24.3027C31.1579 24.3027 30.8566 23.9888 30.8566 23.4113V14.1011C30.8566 13.5299 31.1579 13.2097 31.7669 13.2097H34.4287V16.6249C34.4287 17.5352 34.8744 17.9746 35.7785 17.9746H39.1434V23.4113C39.1434 23.9888 38.8421 24.3027 38.2331 24.3027H31.7606ZM35.8977 16.876C35.6341 16.876 35.5211 16.763 35.5211 16.5056V13.3729L38.9739 16.876H35.8977ZM37.2098 19.6194H32.6772C32.4386 19.6194 32.2691 19.7889 32.2691 20.0086C32.2691 20.2347 32.4386 20.4104 32.6772 20.4104H37.2098C37.4358 20.4104 37.6053 20.2347 37.6053 20.0086C37.6053 19.7889 37.4358 19.6194 37.2098 19.6194ZM37.2098 21.7162H32.6772C32.4386 21.7162 32.2691 21.892 32.2691 22.118C32.2691 22.3378 32.4386 22.5073 32.6772 22.5073H37.2098C37.4358 22.5073 37.6053 22.3378 37.6053 22.118C37.6053 21.892 37.4358 21.7162 37.2098 21.7162Z" fill="#FF294D"/>
<path d="M54.356 119.704L62.1708 115.174C63.0145 114.682 63.3862 114.26 63.3862 113.627C63.3862 112.984 63.0145 112.573 62.1708 112.07L60.8047 111.277L62.1708 110.483C63.0145 109.991 63.3862 109.569 63.3862 108.936C63.3862 108.304 63.0145 107.882 62.1708 107.39L60.5536 106.445L62.1708 105.511C63.0145 105.019 63.3862 104.597 63.3862 103.964C63.3862 103.321 63.0145 102.91 62.1708 102.407L54.356 97.8772C53.8337 97.5759 53.4219 97.4252 53 97.4252C52.5681 97.4252 52.1562 97.5759 51.6339 97.8772L43.8192 102.407C42.9754 102.91 42.6038 103.321 42.6038 103.964C42.6038 104.597 42.9754 105.019 43.8192 105.511L45.4364 106.455L43.8192 107.39C42.9754 107.882 42.6038 108.304 42.6038 108.936C42.6038 109.569 42.9754 109.991 43.8192 110.483L45.1953 111.277L43.8192 112.07C42.9754 112.573 42.6038 112.984 42.6038 113.627C42.6038 114.26 42.9754 114.682 43.8192 115.174L51.6339 119.704C52.1562 120.006 52.5681 120.156 53 120.156C53.4219 120.156 53.8337 120.006 54.356 119.704ZM53 108.404C52.8594 108.404 52.7388 108.354 52.5882 108.273L45.1953 104.055C45.1451 104.035 45.125 104.004 45.125 103.964C45.125 103.914 45.1451 103.894 45.1953 103.864L52.5882 99.6551C52.7388 99.5647 52.8594 99.5246 53 99.5246C53.1306 99.5246 53.2511 99.5647 53.4018 99.6551L60.8047 103.864C60.8449 103.894 60.875 103.914 60.875 103.964C60.875 104.004 60.8449 104.035 60.8047 104.055L53.4018 108.273C53.2511 108.354 53.1306 108.404 53 108.404ZM53 110.493C53.4219 110.493 53.8337 110.353 54.356 110.041L58.5949 107.59L60.8047 108.836C60.8449 108.866 60.875 108.886 60.875 108.936C60.875 108.987 60.8449 109.007 60.8047 109.037L53.4018 113.246C53.2511 113.336 53.1306 113.376 53 113.376C52.8594 113.376 52.7388 113.336 52.5882 113.246L45.1953 109.037C45.1451 109.007 45.125 108.987 45.125 108.936C45.125 108.886 45.1451 108.866 45.1953 108.836L47.3951 107.58L51.6339 110.041C52.1562 110.353 52.5681 110.493 53 110.493Z" fill="#66CCFF"/>
<path d="M16.6689 88.1631C16.6689 89.9297 17.9082 91.4062 19.5693 91.7754C19.1475 91.0107 18.9014 90.1494 18.9014 89.2178C18.9014 87.2754 19.9561 85.5791 21.5117 84.6562C21.1514 84.542 20.7734 84.4717 20.3691 84.4717C18.3301 84.4717 16.6689 86.1328 16.6689 88.1631ZM37.6309 91.8633C39.6611 91.8633 41.3223 90.2021 41.3223 88.1631C41.3223 86.1328 39.6611 84.4717 37.6309 84.4717C35.583 84.4717 33.9219 86.1328 33.9219 88.1631C33.9219 90.2021 35.583 91.8633 37.6309 91.8633ZM23.7354 100.846H24.6494C25.3965 100.846 25.8447 100.415 25.8447 99.6768V94.9658C25.8447 93.876 26.1172 93.3311 27.0049 92.5488C27.9453 91.7227 28.5518 90.5537 28.5518 89.209C28.5518 86.8096 26.6094 84.8584 24.1924 84.8584C21.7754 84.8584 19.833 86.8096 19.833 89.209C19.833 90.5537 20.4395 91.7227 21.3799 92.5488C22.2676 93.3311 22.54 93.876 22.54 94.9658V99.6768C22.54 100.415 22.9883 100.846 23.7354 100.846ZM33.5967 100.846H34.5107C35.2578 100.846 35.7061 100.415 35.7061 99.6768V94.9658C35.7061 93.9287 35.9697 93.3926 36.6992 92.6982C34.5898 92.2676 32.9902 90.3955 32.9902 88.1631C32.9902 86.8711 33.5264 85.6934 34.3877 84.8584H34.0537C31.6367 84.8584 29.6943 86.8096 29.6943 89.209C29.6943 90.5537 30.292 91.7227 31.2412 92.5488C32.1289 93.3311 32.4014 93.876 32.4014 94.9658V99.6768C32.4014 100.415 32.8496 100.846 33.5967 100.846ZM39.3975 89.7363C38.9141 89.7363 38.5361 89.042 38.5361 88.1631C38.5361 87.3018 38.9141 86.6074 39.3975 86.6074C39.8633 86.6074 40.2412 87.3018 40.2412 88.1631C40.2412 89.042 39.8633 89.7363 39.3975 89.7363ZM25.1768 90.3604C24.8867 90.3604 24.6582 90.1318 24.6582 89.8506V88.0928C24.6582 87.8115 24.8867 87.5918 25.1768 87.5918C25.4492 87.5918 25.6777 87.8115 25.6777 88.0928V89.8506C25.6777 90.1318 25.4492 90.3604 25.1768 90.3604Z" fill="white"/>
<g clip-path="url(#clip3_186_80)">
<path d="M11.0047 66.3466L12.023 66.8898L11.484 67.9003C11.1455 68.5348 12.062 69.0237 12.4004 68.3892L12.9395 67.3788L13.956 67.916C14.5905 68.2545 15.0795 67.338 14.439 67.0013L13.4285 66.4623L13.9717 65.4439C14.3144 64.8016 13.3919 64.3145 13.0534 64.949L12.512 65.9733L11.4918 65.4241C10.8573 65.0856 10.3684 66.0021 11.0047 66.3466ZM19.2236 69.3123C19.9263 69.0986 20.3275 68.3466 20.1119 67.6378C19.8981 66.9351 19.1461 66.5339 18.4434 66.7477C17.7346 66.9633 17.3335 67.7153 17.5472 68.418C17.7629 69.1268 18.5148 69.5279 19.2236 69.3123ZM8.76692 72.4935C9.46964 72.2797 9.87081 71.5277 9.6552 70.819C9.44142 70.1163 8.68943 69.7151 7.98671 69.9289C7.27799 70.1445 6.87681 70.8965 7.09059 71.5992C7.3062 72.3079 8.0582 72.7091 8.76692 72.4935ZM14.7907 73.5285C15.4994 73.3129 15.9006 72.5609 15.6868 71.8582C15.4694 71.1434 14.7252 70.7464 14.0105 70.9639C13.3078 71.1777 12.9066 71.9297 13.1222 72.6384C13.336 73.3411 14.088 73.7423 14.7907 73.5285ZM8.75631 76.1255L9.77464 76.6687L9.22955 77.6811C8.89289 78.3216 9.80938 78.8105 10.1479 78.176L10.6911 77.1577L11.7035 77.7028C12.338 78.0413 12.8269 77.1248 12.1906 76.7803L11.1801 76.2412L11.7233 75.2228C12.0618 74.5883 11.1453 74.0994 10.8068 74.7339L10.2636 75.7522L9.23924 75.2108C8.60474 74.8723 8.11581 75.7888 8.75631 76.1255ZM18.312 73.2184L19.3304 73.7617L18.7931 74.7782C18.4486 75.4145 19.3651 75.9034 19.7036 75.2689L20.2487 74.2566L21.2592 74.7957C21.8937 75.1342 22.3826 74.2177 21.7481 73.8792L20.7358 73.3341L21.2791 72.3158C21.6176 71.6813 20.7011 71.1924 20.3626 71.8269L19.8193 72.8452L18.801 72.3019C18.1665 71.9634 17.6715 72.8818 18.312 73.2184ZM16.5832 79.4205C17.2919 79.2049 17.6931 78.4529 17.4775 77.7442C17.2619 77.0354 16.5099 76.6343 15.8012 76.8499C15.0984 77.0637 14.6973 77.8157 14.9129 78.5244C15.1285 79.2331 15.8805 79.6343 16.5832 79.4205Z" fill="#6CF5F5"/>
</g>
<rect x="72.2" y="97.6252" width="21.6" height="21.6" rx="10.8" fill="url(#paint8_linear_186_80)"/>
<rect x="72.2" y="97.6252" width="21.6" height="21.6" rx="10.8" stroke="#B8FFC9" stroke-width="0.4"/>
<path d="M78.5585 109.589V111.736H80.787V112.925H75.5712V111.736H77.0272V106.629H75.4276V105.44H78.5653V107.354H78.7977C79.1053 105.912 79.9393 105.242 81.3612 105.242C81.785 105.242 82.1747 105.296 82.4344 105.399V107.128C82.0995 106.998 81.6073 106.916 81.1971 106.916C79.4676 106.916 78.5585 107.86 78.5585 109.589ZM85.4378 108.591L88.3088 105.44H90.1614L87.3381 108.489L90.3528 112.925H88.5003L86.176 109.507L85.3352 110.341V112.925H83.7493V102.548H85.3352V108.591H85.4378Z" fill="#B8FFC9"/>
<defs>
<filter id="filter0_b_186_80" x="-176" y="-236" width="554.309" height="554.309" filterUnits="userSpaceOnUse" color-interpolation-filters="sRGB">
<feFlood flood-opacity="0" result="BackgroundImageFix"/>
<feGaussianBlur in="BackgroundImageFix" stdDeviation="128"/>
<feComposite in2="SourceAlpha" operator="in" result="effect1_backgroundBlur_186_80"/>
<feBlend mode="normal" in="SourceGraphic" in2="effect1_backgroundBlur_186_80" result="shape"/>
</filter>
<linearGradient id="paint0_linear_186_80" x1="0" y1="0" x2="128" y2="128" gradientUnits="userSpaceOnUse">
<stop stop-color="#1E1E26"/>
<stop offset="1" stop-color="#030304"/>
</linearGradient>
<linearGradient id="paint1_linear_186_80" x1="8.96703" y1="-2.83801e-05" x2="69.951" y2="140.395" gradientUnits="userSpaceOnUse">
<stop stop-color="white" stop-opacity="0.4"/>
<stop offset="0.405687" stop-color="white" stop-opacity="0.01"/>
<stop offset="0.574372" stop-color="white" stop-opacity="0.01"/>
<stop offset="1" stop-color="white" stop-opacity="0.12"/>
</linearGradient>
<linearGradient id="paint2_linear_186_80" x1="53.7372" y1="75.0038" x2="55.2646" y2="84.9623" gradientUnits="userSpaceOnUse">
<stop stop-color="#FFD305"/>
<stop offset="1" stop-color="#FDCF01"/>
</linearGradient>
<linearGradient id="paint3_linear_186_80" x1="54.7311" y1="81.6286" x2="56.6641" y2="94.2326" gradientUnits="userSpaceOnUse">
<stop stop-color="#52CF30"/>
<stop offset="1" stop-color="#3BBD1C"/>
</linearGradient>
<linearGradient id="paint4_linear_186_80" x1="59.6909" y1="84.2835" x2="61.3963" y2="95.4034" gradientUnits="userSpaceOnUse">
<stop stop-color="#14ADF6"/>
<stop offset="1" stop-color="#1191F4"/>
</linearGradient>
<linearGradient id="paint5_linear_186_80" x1="65.468" y1="83.3974" x2="66.9954" y2="93.356" gradientUnits="userSpaceOnUse">
<stop stop-color="#CA70E1"/>
<stop offset="1" stop-color="#B452CB"/>
</linearGradient>
<linearGradient id="paint6_linear_186_80" x1="64.9416" y1="73.9933" x2="66.8747" y2="86.5974" gradientUnits="userSpaceOnUse">
<stop stop-color="#FF645D"/>
<stop offset="1" stop-color="#FF4332"/>
</linearGradient>
<linearGradient id="paint7_linear_186_80" x1="59.7044" y1="72.8998" x2="61.4099" y2="84.0198" gradientUnits="userSpaceOnUse">
<stop stop-color="#FBB114"/>
<stop offset="1" stop-color="#FF9508"/>
</linearGradient>
<linearGradient id="paint8_linear_186_80" x1="94" y1="108.425" x2="72" y2="108.425" gradientUnits="userSpaceOnUse">
<stop stop-color="#55A134"/>
<stop offset="0.5" stop-color="#279D46"/>
<stop offset="1" stop-color="#299966"/>
</linearGradient>
<clipPath id="clip0_186_80">
<rect width="32" height="32" fill="white" transform="translate(93.1237 20) rotate(24.212)"/>
</clipPath>
<clipPath id="clip1_186_80">
<rect width="36" height="36" fill="white" transform="translate(10 30.0892) rotate(-12.9852)"/>
</clipPath>
<clipPath id="clip2_186_80">
<rect width="24" height="24" fill="white" transform="translate(20 61.8803) rotate(-26.9585)"/>
</clipPath>
<clipPath id="clip3_186_80">
<rect width="20" height="20" fill="white" transform="translate(2 65.821) rotate(-16.9208)"/>
</clipPath>
</defs>
</svg>
