<svg width="128" height="128" viewBox="0 0 128 128" fill="none" xmlns="http://www.w3.org/2000/svg">
<g clip-path="url(#clip0_216_167)">
<rect width="128" height="128" rx="29" fill="url(#paint0_linear_216_167)"/>
<g filter="url(#filter0_f_216_167)">
<circle cx="64" cy="64" r="64" transform="rotate(-180 64 64)" fill="#A236C3"/>
</g>
<g filter="url(#filter1_f_216_167)">
<circle cx="64" cy="89.5669" r="64" transform="rotate(-180 64 89.5669)" fill="#1D0A52"/>
</g>
<g filter="url(#filter2_f_216_167)">
<circle cx="64" cy="110.87" r="64" transform="rotate(-180 64 110.87)" fill="#11011A"/>
</g>
<path d="M66.034 64.0565L77.7561 57.2613C79.0218 56.523 79.5792 55.8902 79.5792 54.941C79.5792 53.9767 79.0218 53.3589 77.7561 52.6056L75.707 51.4153L77.7561 50.225C79.0218 49.4867 79.5792 48.8539 79.5792 47.9047C79.5792 46.9555 79.0218 46.3227 77.7561 45.5844L75.3304 44.1681L77.7561 42.7668C79.0218 42.0286 79.5792 41.3958 79.5792 40.4465C79.5792 39.4822 79.0218 38.8645 77.7561 38.1112L66.034 31.316C65.2506 30.8639 64.6328 30.6379 64 30.6379C63.3521 30.6379 62.7344 30.8639 61.9509 31.316L50.2288 38.1112C48.9632 38.8645 48.4057 39.4822 48.4057 40.4465C48.4057 41.3958 48.9632 42.0286 50.2288 42.7668L52.6546 44.1831L50.2288 45.5844C48.9632 46.3227 48.4057 46.9555 48.4057 47.9047C48.4057 48.8539 48.9632 49.4867 50.2288 50.225L52.293 51.4153L50.2288 52.6056C48.9632 53.3589 48.4057 53.9767 48.4057 54.941C48.4057 55.8902 48.9632 56.523 50.2288 57.2613L61.9509 64.0565C62.7344 64.5085 63.3521 64.7345 64 64.7345C64.6328 64.7345 65.2506 64.5085 66.034 64.0565ZM64 47.1061C63.7891 47.1061 63.6083 47.0308 63.3822 46.9103L52.293 40.5821C52.2176 40.552 52.1875 40.5068 52.1875 40.4465C52.1875 40.3712 52.2176 40.3411 52.293 40.2959L63.3822 33.9828C63.6083 33.8472 63.7891 33.7869 64 33.7869C64.1959 33.7869 64.3767 33.8472 64.6027 33.9828L75.707 40.2959C75.7673 40.3411 75.8125 40.3712 75.8125 40.4465C75.8125 40.5068 75.7673 40.552 75.707 40.5821L64.6027 46.9103C64.3767 47.0308 64.1959 47.1061 64 47.1061ZM64 50.2401C64.6328 50.2401 65.2506 50.0291 66.034 49.562L72.3923 45.8857L75.707 47.754C75.7673 47.7992 75.8125 47.8293 75.8125 47.9047C75.8125 47.98 75.7673 48.0102 75.707 48.0554L64.6027 54.3684C64.3767 54.504 64.1959 54.5643 64 54.5643C63.7891 54.5643 63.6083 54.504 63.3822 54.3684L52.293 48.0554C52.2176 48.0102 52.1875 47.98 52.1875 47.9047C52.1875 47.8293 52.2176 47.7992 52.293 47.754L55.5926 45.8706L61.9509 49.562C62.7344 50.0291 63.3521 50.2401 64 50.2401Z" fill="white"/>
<path d="M21.8346 81.0625V90H19.6861V81.8574C19.6861 80.7832 19.2242 80.1709 18.4293 80.1709C17.6021 80.1709 17.0865 80.8691 17.0865 81.9756V90H14.9488V81.8574C14.9488 80.7725 14.4977 80.1709 13.692 80.1709C12.8541 80.1709 12.317 80.8691 12.317 81.9756V90H10.1686V78.2373H12.36V79.999H12.6285C12.8971 78.7207 13.7242 78.001 14.8521 78.001C15.9479 78.001 16.6998 78.6992 16.9469 79.9346H17.2154C17.484 78.7314 18.3541 78.001 19.5035 78.001C21.0289 78.001 21.8346 79.0645 21.8346 81.0625ZM26.5725 90.1934C24.3381 90.1934 22.8449 88.7754 22.8449 86.6484C22.8449 84.543 24.3703 83.2969 27.1848 83.125L30.1281 82.9531V81.9648C30.1281 80.751 29.3439 80.0635 27.9689 80.0635C26.8195 80.0635 25.9816 80.5576 25.7238 81.417H23.2746C23.4895 79.3867 25.3908 78.0439 28.0334 78.0439C30.9445 78.0439 32.5988 79.4727 32.5988 81.9863V90H30.2248V88.3564H29.9992C29.4299 89.5273 28.173 90.1934 26.5725 90.1934ZM27.3781 88.1523C28.968 88.1523 30.1281 87.1318 30.1281 85.7139V84.6396L27.5607 84.7793C26.0891 84.8652 25.3264 85.4561 25.3264 86.498C25.3264 87.5186 26.1213 88.1523 27.3781 88.1523ZM38.9158 90.1826C36.2195 90.1826 34.5438 88.292 34.5438 85.1553V83.0605C34.5438 79.9346 36.2195 78.0332 38.9158 78.0332C40.6131 78.0332 41.827 78.7959 42.2674 80.1602H42.4822V73.6934H45.0604V90H42.5252V88.0664H42.3104C41.8162 89.4414 40.6238 90.1826 38.9158 90.1826ZM39.8182 88.002C41.4939 88.002 42.5359 86.8525 42.5359 85.0049V83.168C42.5359 81.3096 41.4939 80.1602 39.8182 80.1602C38.1316 80.1602 37.0896 81.3203 37.0896 83.168V85.0049C37.0896 86.8525 38.1316 88.002 39.8182 88.002ZM54.7934 86.8096H57.1674C56.8881 88.8291 54.89 90.2363 52.2582 90.2363C48.9066 90.2363 46.973 88.3135 46.973 84.9619V83.125C46.973 80.042 49.0463 78.001 52.1723 78.001C55.266 78.001 57.1889 80.0312 57.1889 83.2969V84.7256H49.433V85.2949C49.433 87.0889 50.5395 88.249 52.2475 88.249C53.5473 88.249 54.5463 87.6797 54.7934 86.8096ZM52.1293 79.9775C50.4428 79.9775 49.433 81.127 49.433 83.0498H54.7611C54.7611 81.1377 53.7729 79.9775 52.1293 79.9775ZM64.4727 90H58.9297V74.499H64.3652C67.2979 74.499 69.0596 75.9385 69.0596 78.3447C69.0596 80.0312 67.9102 81.4385 66.3203 81.6963V81.8682C68.3828 82.04 69.8115 83.5869 69.8115 85.6172C69.8115 88.335 67.8027 90 64.4727 90ZM61.4863 76.5508V81.0088H63.5059C65.3965 81.0088 66.4492 80.2139 66.4492 78.8066C66.4492 77.3564 65.4609 76.5508 63.6992 76.5508H61.4863ZM61.4863 87.916H63.7422C65.998 87.916 67.1152 87.0996 67.1152 85.4131C67.1152 83.791 65.9658 82.9639 63.6992 82.9639H61.4863V87.916ZM72.5943 94.2217C72.1861 94.2217 71.7135 94.2109 71.5953 94.2002V92.127C71.7027 92.1484 72.0787 92.1592 72.2506 92.1592C73.4 92.1592 74.0338 91.7188 74.399 90.6123L74.5602 90.0859L70.3385 78.2373H73.0777L75.9566 87.626H76.1178L78.9967 78.2373H81.65L77.4498 90.2686C76.4293 93.2334 75.1939 94.2217 72.5943 94.2217ZM87.677 84.7578V88.1309H91.1789V90H82.9826V88.1309H85.2707V80.1064H82.757V78.2373H87.6877V81.2451H88.0529C88.5363 78.9785 89.8469 77.9258 92.0813 77.9258C92.7473 77.9258 93.3596 78.0117 93.7678 78.1729V80.8906C93.2414 80.6865 92.468 80.5576 91.8234 80.5576C89.1057 80.5576 87.677 82.04 87.677 84.7578ZM98.5701 90.1934C96.3357 90.1934 94.8426 88.7754 94.8426 86.6484C94.8426 84.543 96.368 83.2969 99.1824 83.125L102.126 82.9531V81.9648C102.126 80.751 101.342 80.0635 99.9666 80.0635C98.8172 80.0635 97.9793 80.5576 97.7215 81.417H95.2723C95.4871 79.3867 97.3885 78.0439 100.031 78.0439C102.942 78.0439 104.596 79.4727 104.596 81.9863V90H102.222V88.3564H101.997C101.428 89.5273 100.171 90.1934 98.5701 90.1934ZM99.3758 88.1523C100.966 88.1523 102.126 87.1318 102.126 85.7139V84.6396L99.5584 84.7793C98.0867 84.8652 97.324 85.4561 97.324 86.498C97.324 87.5186 98.1189 88.1523 99.3758 88.1523ZM113.416 75.627C112.342 75.627 111.59 74.9287 111.59 73.9189C111.59 72.9092 112.342 72.2109 113.416 72.2109C114.48 72.2109 115.232 72.9092 115.232 73.9189C115.232 74.9287 114.48 75.627 113.416 75.627ZM114.791 78.2373V89.6992C114.791 92.6211 113.47 93.7275 110.076 93.7275C109.549 93.7275 107.626 93.7061 107.121 93.6738V91.4824C107.487 91.5146 109.528 91.5361 109.99 91.5361C111.751 91.5361 112.353 91.0312 112.353 89.624V80.2354H107.293V78.2373H114.791Z" fill="white"/>
</g>
<defs>
<filter id="filter0_f_216_167" x="-20" y="-20" width="168" height="168" filterUnits="userSpaceOnUse" color-interpolation-filters="sRGB">
<feFlood flood-opacity="0" result="BackgroundImageFix"/>
<feBlend mode="normal" in="SourceGraphic" in2="BackgroundImageFix" result="shape"/>
<feGaussianBlur stdDeviation="10" result="effect1_foregroundBlur_216_167"/>
</filter>
<filter id="filter1_f_216_167" x="-20" y="5.56689" width="168" height="168" filterUnits="userSpaceOnUse" color-interpolation-filters="sRGB">
<feFlood flood-opacity="0" result="BackgroundImageFix"/>
<feBlend mode="normal" in="SourceGraphic" in2="BackgroundImageFix" result="shape"/>
<feGaussianBlur stdDeviation="10" result="effect1_foregroundBlur_216_167"/>
</filter>
<filter id="filter2_f_216_167" x="-20" y="26.8696" width="168" height="168" filterUnits="userSpaceOnUse" color-interpolation-filters="sRGB">
<feFlood flood-opacity="0" result="BackgroundImageFix"/>
<feBlend mode="normal" in="SourceGraphic" in2="BackgroundImageFix" result="shape"/>
<feGaussianBlur stdDeviation="10" result="effect1_foregroundBlur_216_167"/>
</filter>
<linearGradient id="paint0_linear_216_167" x1="64" y1="0" x2="64" y2="128" gradientUnits="userSpaceOnUse">
<stop stop-color="#F999FF"/>
<stop offset="1" stop-color="#832BC1"/>
</linearGradient>
<clipPath id="clip0_216_167">
<rect width="128" height="128" rx="29" fill="white"/>
</clipPath>
</defs>
</svg>
