<svg width="128" height="128" viewBox="0 0 128 128" fill="none" xmlns="http://www.w3.org/2000/svg">
<rect x="0.6" y="0.6" width="126.8" height="126.8" rx="28.4" fill="#020203" fill-opacity="0.3"/>
<rect x="0.6" y="0.6" width="126.8" height="126.8" rx="28.4" fill="url(#paint0_linear_183_685)" fill-opacity="0.95"/>
<rect x="0.6" y="0.6" width="126.8" height="126.8" rx="28.4" stroke="url(#paint1_linear_183_685)" stroke-width="1.2"/>
<g clip-path="url(#clip0_183_685)" filter="url(#filter0_b_183_685)">
<path d="M98.5578 37.2298L96.8112 41.114L95.1072 40.3478C93.2292 39.5033 91.032 40.2995 90.1834 42.1867C89.3347 44.0738 90.1675 46.2876 92.0547 47.1362C93.9236 47.9765 96.1414 47.1346 96.99 45.2474L97.748 43.5618L101.605 45.2961L100.847 46.9817C99.9982 48.8689 100.84 51.0867 102.709 51.9271C104.596 52.7757 106.805 51.9296 107.653 50.0425C108.502 48.1553 107.64 45.9832 105.762 45.1387L104.058 44.3725L105.804 40.4882L107.508 41.2545C109.39 42.0898 111.588 41.2936 112.436 39.4065C113.281 37.5284 112.452 35.3056 110.565 34.457C108.696 33.6166 106.474 34.4677 105.63 36.3457L104.867 38.0405L101.011 36.3062L101.773 34.6114C102.617 32.7334 101.779 30.5064 99.9105 29.666C98.0233 28.8174 95.8105 29.6727 94.966 31.5507C94.1174 33.4379 94.98 35.6099 96.8539 36.4635L98.5578 37.2298ZM97.6311 34.8086C96.6783 34.3802 96.2549 33.2646 96.6792 32.321C97.0993 31.3866 98.2149 30.9631 99.1402 31.3792C100.065 31.7952 100.489 32.9108 100.056 33.8727L99.2984 35.5583L97.6311 34.8086ZM108.24 39.5789L106.563 38.8251L107.321 37.1394C107.754 36.1775 108.869 35.754 109.794 36.1701C110.729 36.5903 111.143 37.7017 110.723 38.6361C110.299 39.5797 109.183 40.0032 108.24 39.5789ZM98.511 41.8894L100.27 37.9777L104.118 39.7078L102.359 43.6196L98.511 41.8894ZM94.3891 42.0183L96.0564 42.7681L95.2984 44.4537C94.87 45.4065 93.7544 45.83 92.8292 45.4139C91.9039 44.9978 91.4763 43.8914 91.9006 42.9478C92.3208 42.0134 93.4363 41.5899 94.3891 42.0183ZM104.998 46.7887C105.941 47.213 106.365 48.3285 105.944 49.263C105.52 50.2065 104.418 50.625 103.483 50.2048C102.558 49.7887 102.135 48.6732 102.563 47.7204L103.321 46.0348L104.998 46.7887Z" fill="white"/>
</g>
<path d="M74.4903 47.9093C74.8577 48.0658 75.2544 47.9204 75.4332 47.5496C76.1885 46.0297 76.4701 44.1105 76.1779 42.2271C75.8845 40.3362 75.0408 38.5841 73.8542 37.3731C73.5715 37.0739 73.1493 37.0555 72.8478 37.3234C72.5314 37.5936 72.5475 38.0409 72.8681 38.3876C73.8437 39.4178 74.5334 40.866 74.7783 42.4443C75.022 44.015 74.7875 45.599 74.186 46.8816C73.993 47.308 74.1058 47.7403 74.4903 47.9093ZM65.663 47.4722C67.4571 47.1938 68.6701 45.3818 68.3687 43.4388C68.0707 41.5181 66.3822 40.2172 64.5807 40.4968C62.7866 40.7751 61.5603 42.5511 61.856 44.4569C62.1649 46.3987 63.8614 47.7517 65.663 47.4722ZM71.2116 46.3825C71.5555 46.535 71.9534 46.3971 72.1345 46.0411C72.6053 45.1447 72.787 43.9578 72.6045 42.7815C72.4209 41.5979 71.8891 40.5292 71.1677 39.8102C70.8872 39.5259 70.4662 39.515 70.1871 39.7794C69.8581 40.0667 69.8593 40.5164 70.2068 40.8893C70.7138 41.4053 71.0682 42.1661 71.1975 42.9998C71.3258 43.8262 71.21 44.6522 70.8929 45.3113C70.6822 45.7709 70.8087 46.1935 71.2116 46.3825ZM65.4643 46.1917C64.4295 46.3523 63.4061 45.5048 63.2109 44.2467C63.014 43.0269 63.7383 41.9464 64.7805 41.7847C65.8227 41.6229 66.8306 42.4195 67.0212 43.6478C67.2153 44.8985 66.5065 46.03 65.4643 46.1917ZM62.1057 55.2056L71.3889 53.7652C72.6693 53.5665 73.2248 53.0687 73.0897 52.1977C72.7732 50.1579 69.8022 47.8134 65.8045 48.4337C61.8143 49.0528 59.686 52.1885 60.0024 54.2283C60.1376 55.0993 60.8178 55.4054 62.1057 55.2056ZM61.6602 53.9558C61.4816 53.9835 61.4065 53.9418 61.3845 53.8004C61.2078 52.6614 62.7214 50.2309 66.0043 49.7215C69.2948 49.211 71.4736 51.0685 71.6504 52.2075C71.6723 52.349 71.6134 52.4115 71.4347 52.4392L61.6602 53.9558Z" fill="#2BD659"/>
<path d="M59.8826 74.0612C60.7591 74.036 61.655 74.1823 62.5234 74.5205C65.9971 75.8735 67.7163 79.7863 66.3633 83.2601C64.0315 80.3515 59.7833 79.8839 56.8747 82.2158C56.1486 82.7979 55.5746 83.4994 55.1584 84.2698C54.7846 80.1652 56.6866 76.3166 59.8826 74.0612V74.0612Z" fill="url(#paint2_linear_183_685)"/>
<path d="M55.1579 84.2699C55.5741 83.4996 56.1481 82.798 56.8742 82.2159C59.7828 79.8841 64.031 80.3516 66.3628 83.2602C62.678 83.8253 60.149 87.2706 60.7141 90.9555C60.8553 91.8759 61.1762 92.7242 61.6356 93.4701C58.3335 91.9376 55.8361 88.8337 55.2429 84.9657C55.2072 84.7331 55.1789 84.5011 55.1579 84.2699V84.2699Z" fill="url(#paint3_linear_183_685)"/>
<path d="M61.6356 93.4701C61.1762 92.7241 60.8553 91.8758 60.7141 90.9554C60.149 87.2706 62.678 83.8253 66.3628 83.2602C65.0099 86.7339 66.7291 90.6467 70.2028 91.9997C71.0712 92.338 71.9671 92.4842 72.8435 92.459C71.466 93.4311 69.848 94.1072 68.0683 94.3802C65.7949 94.7288 63.5763 94.3708 61.6356 93.4701V93.4701Z" fill="url(#paint4_linear_183_685)"/>
<path d="M72.8437 92.459C71.9673 92.4842 71.0714 92.3379 70.203 91.9997C66.7292 90.6467 65.01 86.7339 66.363 83.2601C68.6949 86.1687 72.9431 86.6363 75.8517 84.3044C76.5778 83.7223 77.1517 83.0208 77.568 82.2505C77.9418 86.355 76.0397 90.2037 72.8437 92.459V92.459Z" fill="url(#paint5_linear_183_685)"/>
<path d="M77.5678 82.2506C77.1516 83.0209 76.5776 83.7224 75.8515 84.3045C72.9429 86.6364 68.6947 86.1689 66.3629 83.2603C70.0477 82.6951 72.5767 79.2498 72.0116 75.565C71.8704 74.6446 71.5495 73.7963 71.0901 73.0503C74.3922 74.5829 76.8896 77.6868 77.4828 81.5548C77.5185 81.7874 77.5468 82.0194 77.5678 82.2506V82.2506Z" fill="url(#paint6_linear_183_685)"/>
<path d="M71.0905 73.0502C71.5499 73.7961 71.8708 74.6444 72.0119 75.5648C72.5771 79.2497 70.0481 82.695 66.3632 83.2601C67.7162 79.7864 65.997 75.8735 62.5233 74.5205C61.6549 74.1823 60.759 74.0361 59.8825 74.0613C61.2601 73.0892 62.878 72.4131 64.6578 72.1401C66.9311 71.7915 69.1498 72.1494 71.0905 73.0502V73.0502Z" fill="url(#paint7_linear_183_685)"/>
<path d="M51.7881 59.5213L50.5708 58.6257L50.7999 60.1195L52.92 73.9429L53.1431 75.3978L54.035 74.2268L57.1503 70.1361L57.16 70.1247L63.1514 69.2058L64.6405 68.9774L63.427 68.0846L51.7881 59.5213Z" fill="black" stroke="white" stroke-width="1.25"/>
<path d="M60.0113 10.76C53.6041 10.76 48.3156 16.0485 48.3156 22.4445C48.3156 28.8404 53.6154 34.1289 60.0226 34.1289C66.4185 34.1289 71.6957 28.8404 71.6957 22.4445C71.6957 16.0485 66.4072 10.76 60.0113 10.76ZM60.0113 13.0879C65.1981 13.0879 69.3453 17.2577 69.3453 22.4445C69.3453 27.6313 65.1981 31.7898 60.0226 31.7898C54.8358 31.7898 50.666 27.6313 50.6547 22.4445C50.6434 17.2577 54.8245 13.0879 60.0113 13.0879ZM60.0226 20.5686C59.4011 20.5686 59.0395 20.9189 59.0282 21.5744L58.8587 27.0098C58.8361 27.6765 59.3333 28.1624 60.0339 28.1624C60.7345 28.1624 61.2204 27.6878 61.1978 27.0211L61.0396 21.5744C61.017 20.9302 60.6554 20.5686 60.0226 20.5686ZM60.0226 16.817C59.2881 16.817 58.6892 17.3481 58.6892 18.0713C58.6892 18.7832 59.2768 19.3143 60.0226 19.3143C60.7571 19.3143 61.356 18.7832 61.356 18.0713C61.356 17.3594 60.7458 16.817 60.0226 16.817Z" fill="#007BFF"/>
<g clip-path="url(#clip1_183_685)">
<path d="M16.6826 52.6875C17.3022 55.3743 19.4524 56.6527 21.996 56.0662C23.4495 55.731 24.6151 54.8012 25.3446 53.4385L26.779 50.7072C26.9781 50.3134 27.2314 50.1043 27.5728 50.0255L38.0004 47.621C38.3418 47.5423 38.6611 47.6194 39.0125 47.8862L41.4981 49.7136C42.7507 50.6192 44.2057 50.9447 45.6592 50.6095C48.2028 50.023 49.5761 47.932 48.9566 45.2453C48.69 44.0891 48.1346 42.8371 47.3699 41.4827C46.1616 39.3608 44.275 36.5603 42.6059 34.4519C41.1858 32.6688 40.4423 31.8081 37.8929 31.8162C35.656 31.8217 32.6754 32.1727 29.1408 32.9878C25.6062 33.8029 22.7618 34.7951 20.7484 35.7696C18.4639 36.8763 18.1613 37.9781 17.6655 40.2031C17.0882 42.8295 16.6184 46.1733 16.4614 48.6101C16.3671 50.1626 16.416 51.5314 16.6826 52.6875ZM18.7476 52.1882C18.5927 51.5165 18.5615 50.6771 18.6337 49.4312C18.785 46.7175 19.3056 43.1416 19.8481 40.4652C20.11 39.1871 20.2685 38.4664 21.4968 37.8584C23.4137 36.9177 26.1699 35.9458 29.6385 35.146C33.096 34.3487 36.0105 34.0129 38.1458 34.0192C39.5162 34.0279 39.9523 34.6116 40.7585 35.6433C42.4402 37.8068 44.4302 40.8038 45.7875 43.1696C46.398 44.2581 46.7265 45.0289 46.8814 45.7006C47.2089 47.1211 46.4185 48.2195 45.1192 48.5191C44.3264 48.7019 43.4481 48.4638 42.6529 47.8818L39.8607 45.8816C39.1764 45.3783 38.6674 45.1826 37.7204 45.401L26.8633 47.9046C25.9053 48.1255 25.5335 48.5244 25.1386 49.2764L23.5153 52.2948C23.0553 53.1663 22.3589 53.7675 21.5771 53.9478C20.2668 54.25 19.0752 53.6086 18.7476 52.1882ZM21.9956 43.0895C22.1378 43.7061 22.6121 44.0027 23.2287 43.8605L25.0786 43.4339L25.4925 45.2287C25.6347 45.8453 26.1005 46.1554 26.7061 46.0158C27.3007 45.8787 27.5837 45.3959 27.4415 44.7793L27.0276 42.9844L28.7674 42.5833C29.4391 42.4284 29.7576 41.949 29.6154 41.3324C29.4783 40.7378 28.982 40.4463 28.3103 40.6012L26.5706 41.0024L26.1592 39.2186C26.017 38.602 25.5512 38.2919 24.9566 38.429C24.351 38.5687 24.068 39.0514 24.2102 39.668L24.6216 41.4519L22.7717 41.8784C22.155 42.0206 21.8585 42.4949 21.9956 43.0895ZM37.84 39.3315C38.7649 39.1182 39.3072 38.251 39.0939 37.326C38.8806 36.4011 38.0108 35.8478 37.0859 36.0611C36.1829 36.2693 35.6212 37.1527 35.8345 38.0776C36.0478 39.0025 36.9371 39.5397 37.84 39.3315ZM35.3314 43.389C36.2563 43.1757 36.7986 42.3085 36.5878 41.3945C36.3745 40.4696 35.5048 39.9164 34.5798 40.1296C33.6659 40.3404 33.1152 41.2212 33.3285 42.1461C33.5392 43.0601 34.4175 43.5997 35.3314 43.389Z" fill="#5551FF"/>
</g>
<g clip-path="url(#clip2_183_685)">
<path d="M39.9341 58.1021L40.1679 57.3155C40.2864 56.9171 40.1187 56.5375 39.7338 56.4121L39.467 56.3196C39.1225 56.2074 38.7569 56.4357 38.6348 56.8105L38.3706 57.5872L39.9341 58.1021ZM35.6175 69.2904L36.7003 68.0128L39.6898 58.8349L38.1331 58.3334L35.1471 67.518L35.219 69.155C35.2304 69.3436 35.4938 69.4293 35.6175 69.2904ZM35.3575 75.0938L43.1803 71.115C44.4696 70.4593 44.8458 69.3213 44.115 67.8843L40.5084 60.7935L39.8451 62.8128L42.7105 68.4465C43.0384 69.0912 42.8599 69.5877 42.41 69.8165L34.7617 73.7065C34.144 74.0207 33.6443 73.8691 33.3164 73.2245L29.5221 65.7643C29.1942 65.1197 29.366 64.6266 29.9838 64.3124L35.6847 61.4128L36.3379 59.3902L29.2134 63.0138C27.763 63.7515 27.3868 64.8895 28.1176 66.3265L32.0349 74.0284C32.7658 75.4654 33.9071 75.8315 35.3575 75.0938Z" fill="#FF9F0A"/>
</g>
<path d="M77.7296 16.1792C76.6473 19.7727 78.5989 24.234 82.3823 28.6781C82.5925 28.9249 82.8616 29.1896 83.0804 29.2555C83.2992 29.3214 83.6697 29.2494 83.9812 29.1597C89.5981 27.547 93.6805 24.903 94.7629 21.3095C95.6982 18.2042 94.2011 15.4034 91.4492 14.5745C89.8418 14.0904 88.3674 14.4449 87.2754 15.3276C86.8668 14.0021 85.8276 12.8813 84.2202 12.3972C81.4598 11.5658 78.665 13.0738 77.7296 16.1792ZM79.4658 16.693C80.1046 14.5722 81.935 13.5539 83.8117 14.1192C85.3265 14.5754 85.9002 15.7487 86.1896 16.7079C86.3213 17.1239 86.4482 17.2815 86.667 17.3474C86.8942 17.4158 87.0728 17.3411 87.4182 17.078C88.2262 16.4677 89.3239 15.7794 90.8303 16.2331C92.7154 16.8009 93.679 18.6608 93.0402 20.7815C92.148 23.7438 88.0793 26.0982 83.8182 27.3849C83.7272 27.4126 83.6666 27.431 83.6329 27.4209C83.5993 27.4107 83.5589 27.3619 83.5068 27.2911C80.6651 23.8651 78.5736 19.6553 79.4658 16.693ZM86.8837 19.3402C87.0054 18.9363 86.7516 18.5294 86.3561 18.4103C85.9521 18.2886 85.5158 18.4876 85.3942 18.8916L84.5754 21.6098L84.2499 22.9345L83.8131 22.0687L83.3888 21.2524C83.3057 21.0714 83.1375 20.9289 82.9607 20.8757C82.5736 20.7591 82.2064 20.9422 82.0923 21.3209C82.029 21.5313 82.0649 21.7165 82.1843 21.8993L83.8371 24.7011C83.9774 24.9361 84.1229 25.0626 84.3333 25.1259C84.5353 25.1868 84.7264 25.1617 84.9732 25.0433L87.9069 23.623C88.1074 23.5365 88.2313 23.3994 88.2946 23.189C88.4087 22.8103 88.2037 22.4548 87.825 22.3408C87.6398 22.285 87.4209 22.3108 87.26 22.4184L86.4556 22.8646L85.6048 23.3426L86.065 22.0585L86.8837 19.3402Z" fill="#FF473A"/>
<path d="M89.5234 58.4824C89.7168 58.4824 89.875 58.3418 89.9277 58.1309C90.2793 56.1621 90.1914 56.127 92.3535 55.7227C92.5645 55.6699 92.7051 55.5117 92.7051 55.3184C92.7051 55.1074 92.5645 54.9492 92.3535 54.9141C90.1914 54.4922 90.2617 54.4219 89.9277 52.5059C89.875 52.2949 89.7344 52.1367 89.5234 52.1367C89.3125 52.1367 89.1719 52.2949 89.1191 52.5059C88.7148 54.4219 88.8379 54.4922 86.6934 54.9141C86.4824 54.9492 86.3418 55.1074 86.3418 55.3184C86.3418 55.5293 86.4824 55.6699 86.7109 55.7227C88.8379 56.0918 88.7148 56.1621 89.1191 58.1133C89.1719 58.3418 89.3125 58.4824 89.5234 58.4824ZM83.8281 66.6562C84.1094 66.6562 84.3555 66.4277 84.4082 66.1465C84.9531 63.1406 84.7773 63.0527 88.0293 62.543C88.3281 62.4727 88.5391 62.2441 88.5391 61.9453C88.5391 61.6465 88.3281 61.4004 88.0293 61.3477C84.7773 60.8379 84.9531 60.7148 84.4082 57.7793C84.3555 57.4629 84.127 57.2344 83.8281 57.2344C83.5117 57.2344 83.3008 57.4453 83.2305 57.7793C82.668 60.6973 82.8613 60.8027 79.6094 61.3477C79.3105 61.4004 79.0996 61.6465 79.0996 61.9453C79.0996 62.2617 79.3105 62.4727 79.6621 62.543C82.8438 63.0352 82.668 63.1406 83.2305 66.0938C83.3008 66.4277 83.4941 66.6562 83.8281 66.6562ZM91.9492 79.5938C92.3535 79.5938 92.6699 79.2949 92.7402 78.8906C93.8301 72.6152 94.4277 71.7891 100.633 70.9629C101.072 70.9102 101.371 70.5762 101.371 70.1543C101.371 69.75 101.072 69.4336 100.633 69.3633C94.4629 68.5371 93.6719 67.7637 92.7402 61.4531C92.6699 61.0312 92.3535 60.7324 91.9492 60.7324C91.5449 60.7324 91.2285 61.0137 91.1406 61.4355C90.0684 67.7285 89.4531 68.5371 83.248 69.3633C82.8086 69.4336 82.5098 69.75 82.5098 70.1543C82.5098 70.5762 82.8086 70.9102 83.248 70.9629C89.418 71.6836 90.2266 72.5625 91.1406 78.873C91.2109 79.2949 91.5098 79.5938 91.9492 79.5938ZM95.4121 62.666C95.7285 64.459 95.9043 65.1973 96.8008 65.6719C99.0859 64.793 101.582 64.3359 104.043 64.3359C111.514 64.3359 117.648 68.8535 117.648 75.7266C117.648 78.8379 115.979 81.7559 113.482 83.918C111.936 81.9492 109.475 80.7363 106.609 80.7363C102.25 80.7363 99.0332 83.0215 99.0332 86.3789C99.0332 86.6074 99.0508 86.8359 99.0859 87.0469C92.2656 86.8008 86.9746 83.4609 86.9746 77.2734C86.9746 76.3945 87.1328 75.5684 87.3965 74.8125C86.9043 73.9863 85.8848 73.7754 84.3555 73.5293C83.9512 74.6895 83.7402 75.9375 83.7402 77.2559C83.7402 85.4648 90.7539 90.2812 99.7539 90.2812C100.387 90.2812 101.037 90.2461 101.67 90.2109C102.443 90.5273 103.357 90.7031 104.377 90.7031C107.014 90.7031 109.633 90 112.006 88.7871C112.006 88.9102 112.023 89.0508 112.023 89.1738C112.023 91.1777 110.846 93.1641 108.912 94.4121C108.297 94.834 107.893 95.3086 107.893 96.0293C107.893 96.8555 108.543 97.5234 109.545 97.5234C109.967 97.5234 110.283 97.4004 110.67 97.1367C113.482 95.3086 115.24 92.25 115.24 89.1387C115.24 88.3477 115.152 87.5918 114.959 86.8887C118.475 84.1113 120.883 80.1035 120.883 75.7266C120.883 67.0605 113.395 61.084 104.025 61.084C101.072 61.084 98.1016 61.6465 95.4121 62.666ZM102.285 86.3262C102.285 84.9375 104.271 83.9883 106.82 83.9883C108.49 83.9883 109.896 84.6562 110.828 85.7637C108.842 86.8535 106.592 87.4863 104.377 87.4863C103.182 87.4863 102.285 87.0117 102.285 86.3262Z" fill="#FADA0A"/>
<path d="M88 115.733C92.9658 115.733 97.0791 111.629 97.0791 106.654C97.0791 101.688 92.9658 97.5752 87.9912 97.5752C83.0254 97.5752 78.9209 101.688 78.9209 106.654C78.9209 111.629 83.0342 115.733 88 115.733ZM80.7139 106.654C80.7139 102.875 83.5439 99.79 87.209 99.4033V106.101L82.041 110.855C81.2061 109.678 80.7139 108.228 80.7139 106.654ZM88.7998 106.127V99.4033C92.4648 99.8076 95.2861 102.884 95.2949 106.654C95.2949 108.228 94.8027 109.687 93.959 110.873L88.7998 106.127ZM87.209 108.333V113.905C85.627 113.738 84.2119 113.07 83.0957 112.06L87.209 108.333ZM88.7998 108.359L92.8955 112.068C91.7881 113.07 90.373 113.729 88.7998 113.905V108.359Z" fill="#C147FF"/>
<path d="M31.6539 25.5583H38.3461C39.6959 25.5583 40.3927 24.8489 40.3927 23.4929V17.7926C40.3927 16.9136 40.2797 16.5119 39.7335 15.9531L36.4502 12.6196C35.9166 12.0797 35.4771 11.9541 34.6861 11.9541H31.6539C30.3104 11.9541 29.6073 12.6635 29.6073 14.0258V23.4929C29.6073 24.8489 30.3104 25.5583 31.6539 25.5583ZM31.7606 24.3027C31.1579 24.3027 30.8566 23.9888 30.8566 23.4113V14.1011C30.8566 13.5299 31.1579 13.2097 31.7669 13.2097H34.4287V16.6249C34.4287 17.5352 34.8744 17.9746 35.7785 17.9746H39.1434V23.4113C39.1434 23.9888 38.8421 24.3027 38.2331 24.3027H31.7606ZM35.8977 16.876C35.6341 16.876 35.5211 16.763 35.5211 16.5056V13.3729L38.9739 16.876H35.8977ZM37.2098 19.6194H32.6772C32.4386 19.6194 32.2691 19.7889 32.2691 20.0086C32.2691 20.2347 32.4386 20.4104 32.6772 20.4104H37.2098C37.4358 20.4104 37.6053 20.2347 37.6053 20.0086C37.6053 19.7889 37.4358 19.6194 37.2098 19.6194ZM37.2098 21.7162H32.6772C32.4386 21.7162 32.2691 21.892 32.2691 22.118C32.2691 22.3378 32.4386 22.5073 32.6772 22.5073H37.2098C37.4358 22.5073 37.6053 22.3378 37.6053 22.118C37.6053 21.892 37.4358 21.7162 37.2098 21.7162Z" fill="#FF294D"/>
<path d="M59.356 121.704L67.1708 117.174C68.0145 116.682 68.3862 116.26 68.3862 115.627C68.3862 114.984 68.0145 114.573 67.1708 114.07L65.8047 113.277L67.1708 112.483C68.0145 111.991 68.3862 111.569 68.3862 110.936C68.3862 110.304 68.0145 109.882 67.1708 109.39L65.5536 108.445L67.1708 107.511C68.0145 107.019 68.3862 106.597 68.3862 105.964C68.3862 105.321 68.0145 104.91 67.1708 104.407L59.356 99.8772C58.8337 99.5759 58.4219 99.4252 58 99.4252C57.5681 99.4252 57.1562 99.5759 56.6339 99.8772L48.8192 104.407C47.9754 104.91 47.6038 105.321 47.6038 105.964C47.6038 106.597 47.9754 107.019 48.8192 107.511L50.4364 108.455L48.8192 109.39C47.9754 109.882 47.6038 110.304 47.6038 110.936C47.6038 111.569 47.9754 111.991 48.8192 112.483L50.1953 113.277L48.8192 114.07C47.9754 114.573 47.6038 114.984 47.6038 115.627C47.6038 116.26 47.9754 116.682 48.8192 117.174L56.6339 121.704C57.1562 122.006 57.5681 122.156 58 122.156C58.4219 122.156 58.8337 122.006 59.356 121.704ZM58 110.404C57.8594 110.404 57.7388 110.354 57.5882 110.273L50.1953 106.055C50.1451 106.035 50.125 106.004 50.125 105.964C50.125 105.914 50.1451 105.894 50.1953 105.864L57.5882 101.655C57.7388 101.565 57.8594 101.525 58 101.525C58.1306 101.525 58.2511 101.565 58.4018 101.655L65.8047 105.864C65.8449 105.894 65.875 105.914 65.875 105.964C65.875 106.004 65.8449 106.035 65.8047 106.055L58.4018 110.273C58.2511 110.354 58.1306 110.404 58 110.404ZM58 112.493C58.4219 112.493 58.8337 112.353 59.356 112.041L63.5949 109.59L65.8047 110.836C65.8449 110.866 65.875 110.886 65.875 110.936C65.875 110.987 65.8449 111.007 65.8047 111.037L58.4018 115.246C58.2511 115.336 58.1306 115.376 58 115.376C57.8594 115.376 57.7388 115.336 57.5882 115.246L50.1953 111.037C50.1451 111.007 50.125 110.987 50.125 110.936C50.125 110.886 50.1451 110.866 50.1953 110.836L52.3951 109.58L56.6339 112.041C57.1562 112.353 57.5681 112.493 58 112.493Z" fill="#66CCFF"/>
<path d="M20.6689 90.1631C20.6689 91.9297 21.9082 93.4062 23.5693 93.7754C23.1475 93.0107 22.9014 92.1494 22.9014 91.2178C22.9014 89.2754 23.9561 87.5791 25.5117 86.6562C25.1514 86.542 24.7734 86.4717 24.3691 86.4717C22.3301 86.4717 20.6689 88.1328 20.6689 90.1631ZM41.6309 93.8633C43.6611 93.8633 45.3223 92.2021 45.3223 90.1631C45.3223 88.1328 43.6611 86.4717 41.6309 86.4717C39.583 86.4717 37.9219 88.1328 37.9219 90.1631C37.9219 92.2021 39.583 93.8633 41.6309 93.8633ZM27.7354 102.846H28.6494C29.3965 102.846 29.8447 102.415 29.8447 101.677V96.9658C29.8447 95.876 30.1172 95.3311 31.0049 94.5488C31.9453 93.7227 32.5518 92.5537 32.5518 91.209C32.5518 88.8096 30.6094 86.8584 28.1924 86.8584C25.7754 86.8584 23.833 88.8096 23.833 91.209C23.833 92.5537 24.4395 93.7227 25.3799 94.5488C26.2676 95.3311 26.54 95.876 26.54 96.9658V101.677C26.54 102.415 26.9883 102.846 27.7354 102.846ZM37.5967 102.846H38.5107C39.2578 102.846 39.7061 102.415 39.7061 101.677V96.9658C39.7061 95.9287 39.9697 95.3926 40.6992 94.6982C38.5898 94.2676 36.9902 92.3955 36.9902 90.1631C36.9902 88.8711 37.5264 87.6934 38.3877 86.8584H38.0537C35.6367 86.8584 33.6943 88.8096 33.6943 91.209C33.6943 92.5537 34.292 93.7227 35.2412 94.5488C36.1289 95.3311 36.4014 95.876 36.4014 96.9658V101.677C36.4014 102.415 36.8496 102.846 37.5967 102.846ZM43.3975 91.7363C42.9141 91.7363 42.5361 91.042 42.5361 90.1631C42.5361 89.3018 42.9141 88.6074 43.3975 88.6074C43.8633 88.6074 44.2412 89.3018 44.2412 90.1631C44.2412 91.042 43.8633 91.7363 43.3975 91.7363ZM29.1768 92.3604C28.8867 92.3604 28.6582 92.1318 28.6582 91.8506V90.0928C28.6582 89.8115 28.8867 89.5918 29.1768 89.5918C29.4492 89.5918 29.6777 89.8115 29.6777 90.0928V91.8506C29.6777 92.1318 29.4492 92.3604 29.1768 92.3604Z" fill="white"/>
<g clip-path="url(#clip3_183_685)">
<path d="M11.0047 66.3466L12.023 66.8898L11.484 67.9003C11.1455 68.5348 12.062 69.0237 12.4004 68.3892L12.9395 67.3788L13.956 67.916C14.5905 68.2545 15.0795 67.338 14.439 67.0013L13.4285 66.4623L13.9717 65.4439C14.3144 64.8016 13.3919 64.3145 13.0534 64.949L12.512 65.9733L11.4918 65.4241C10.8573 65.0856 10.3684 66.0021 11.0047 66.3466ZM19.2236 69.3123C19.9263 69.0986 20.3275 68.3466 20.1119 67.6378C19.8981 66.9351 19.1461 66.5339 18.4434 66.7477C17.7346 66.9633 17.3335 67.7153 17.5472 68.418C17.7629 69.1268 18.5148 69.5279 19.2236 69.3123ZM8.76692 72.4935C9.46964 72.2797 9.87081 71.5277 9.6552 70.819C9.44142 70.1163 8.68943 69.7151 7.98671 69.9289C7.27799 70.1445 6.87681 70.8965 7.09059 71.5992C7.3062 72.3079 8.0582 72.7091 8.76692 72.4935ZM14.7907 73.5285C15.4994 73.3129 15.9006 72.5609 15.6868 71.8582C15.4694 71.1434 14.7252 70.7464 14.0105 70.9639C13.3078 71.1777 12.9066 71.9297 13.1222 72.6384C13.336 73.3411 14.088 73.7423 14.7907 73.5285ZM8.75631 76.1255L9.77464 76.6687L9.22955 77.6811C8.89289 78.3216 9.80938 78.8105 10.1479 78.176L10.6911 77.1577L11.7035 77.7028C12.338 78.0413 12.8269 77.1248 12.1906 76.7803L11.1801 76.2412L11.7233 75.2228C12.0618 74.5883 11.1453 74.0994 10.8068 74.7339L10.2636 75.7522L9.23924 75.2108C8.60474 74.8723 8.11581 75.7888 8.75631 76.1255ZM18.312 73.2184L19.3304 73.7617L18.7931 74.7782C18.4486 75.4145 19.3651 75.9034 19.7036 75.2689L20.2487 74.2566L21.2592 74.7957C21.8937 75.1342 22.3826 74.2177 21.7481 73.8792L20.7358 73.3341L21.2791 72.3158C21.6176 71.6813 20.7011 71.1924 20.3626 71.8269L19.8193 72.8452L18.801 72.3019C18.1665 71.9634 17.6715 72.8818 18.312 73.2184ZM16.5832 79.4205C17.2919 79.2049 17.6931 78.4529 17.4775 77.7442C17.2619 77.0354 16.5099 76.6343 15.8012 76.8499C15.0984 77.0637 14.6973 77.8157 14.9129 78.5244C15.1285 79.2331 15.8805 79.6343 16.5832 79.4205Z" fill="#6CF5F5"/>
</g>
<defs>
<filter id="filter0_b_183_685" x="-176" y="-236" width="554.309" height="554.309" filterUnits="userSpaceOnUse" color-interpolation-filters="sRGB">
<feFlood flood-opacity="0" result="BackgroundImageFix"/>
<feGaussianBlur in="BackgroundImageFix" stdDeviation="128"/>
<feComposite in2="SourceAlpha" operator="in" result="effect1_backgroundBlur_183_685"/>
<feBlend mode="normal" in="SourceGraphic" in2="effect1_backgroundBlur_183_685" result="shape"/>
</filter>
<linearGradient id="paint0_linear_183_685" x1="0" y1="0" x2="128" y2="128" gradientUnits="userSpaceOnUse">
<stop stop-color="#1D1D26"/>
<stop offset="1" stop-color="#030303"/>
</linearGradient>
<linearGradient id="paint1_linear_183_685" x1="8.96703" y1="-2.83801e-05" x2="69.951" y2="140.395" gradientUnits="userSpaceOnUse">
<stop stop-color="white" stop-opacity="0.4"/>
<stop offset="0.405687" stop-color="white" stop-opacity="0.01"/>
<stop offset="0.574372" stop-color="white" stop-opacity="0.01"/>
<stop offset="1" stop-color="white" stop-opacity="0.12"/>
</linearGradient>
<linearGradient id="paint2_linear_183_685" x1="53.7372" y1="75.0038" x2="55.2646" y2="84.9623" gradientUnits="userSpaceOnUse">
<stop stop-color="#FFD305"/>
<stop offset="1" stop-color="#FDCF01"/>
</linearGradient>
<linearGradient id="paint3_linear_183_685" x1="54.7311" y1="81.6286" x2="56.6641" y2="94.2326" gradientUnits="userSpaceOnUse">
<stop stop-color="#52CF30"/>
<stop offset="1" stop-color="#3BBD1C"/>
</linearGradient>
<linearGradient id="paint4_linear_183_685" x1="59.6909" y1="84.2835" x2="61.3963" y2="95.4034" gradientUnits="userSpaceOnUse">
<stop stop-color="#14ADF6"/>
<stop offset="1" stop-color="#1191F4"/>
</linearGradient>
<linearGradient id="paint5_linear_183_685" x1="65.468" y1="83.3974" x2="66.9954" y2="93.356" gradientUnits="userSpaceOnUse">
<stop stop-color="#CA70E1"/>
<stop offset="1" stop-color="#B452CB"/>
</linearGradient>
<linearGradient id="paint6_linear_183_685" x1="64.9416" y1="73.9933" x2="66.8747" y2="86.5974" gradientUnits="userSpaceOnUse">
<stop stop-color="#FF645D"/>
<stop offset="1" stop-color="#FF4332"/>
</linearGradient>
<linearGradient id="paint7_linear_183_685" x1="59.7044" y1="72.8998" x2="61.4099" y2="84.0198" gradientUnits="userSpaceOnUse">
<stop stop-color="#FBB114"/>
<stop offset="1" stop-color="#FF9508"/>
</linearGradient>
<clipPath id="clip0_183_685">
<rect width="32" height="32" fill="white" transform="translate(93.1237 20) rotate(24.212)"/>
</clipPath>
<clipPath id="clip1_183_685">
<rect width="36" height="36" fill="white" transform="translate(10 30.0892) rotate(-12.9852)"/>
</clipPath>
<clipPath id="clip2_183_685">
<rect width="24" height="24" fill="white" transform="translate(20 61.8803) rotate(-26.9585)"/>
</clipPath>
<clipPath id="clip3_183_685">
<rect width="20" height="20" fill="white" transform="translate(2 65.821) rotate(-16.9208)"/>
</clipPath>
</defs>
</svg>
