<svg width="128" height="128" viewBox="0 0 128 128" fill="none" xmlns="http://www.w3.org/2000/svg">
<g clip-path="url(#clip0_228_175)">
<rect width="128" height="128" rx="29" fill="url(#paint0_linear_228_175)"/>
<g filter="url(#filter0_f_228_175)">
<circle cx="64" cy="64" r="64" transform="rotate(-180 64 64)" fill="#A236C3"/>
</g>
<g filter="url(#filter1_f_228_175)">
<circle cx="64" cy="89.5669" r="64" transform="rotate(-180 64 89.5669)" fill="#1D0A52"/>
</g>
<g filter="url(#filter2_f_228_175)">
<circle cx="64" cy="110.87" r="64" transform="rotate(-180 64 110.87)" fill="#11011A"/>
</g>
<rect x="7" y="52" width="114" height="24" stroke="#0D99FF" stroke-width="0.5"/>
<path d="M24.8171 59.42C26.8171 59.42 28.1171 60.74 28.1171 62.62C28.1171 63.22 27.9771 63.64 26.6571 70.02H23.8571C24.9571 64.64 25.2171 63.56 25.1971 63.26C25.1971 62.4 24.7971 61.88 23.8771 61.88C22.7371 61.88 21.6371 62.66 21.3371 63.7C21.1771 64.56 20.8171 66.26 20.0171 70.02H17.2171C18.3371 64.64 18.5771 63.56 18.5771 63.26C18.5571 62.48 18.2371 61.88 17.2571 61.88C16.0371 61.88 14.8771 62.8 14.6771 63.88L13.3971 70H10.4771L12.6371 59.66H15.5571L15.2971 60.86C15.9771 59.94 17.0371 59.42 18.2371 59.42C19.6571 59.42 20.7571 60.16 21.2171 61.3C21.9571 60.1 23.3771 59.42 24.8171 59.42ZM38.8313 59.66H41.7513L39.5913 70H36.6713L36.9513 68.66C35.9713 69.64 34.7113 70.24 33.3113 70.24C31.0113 70.24 29.3913 68.46 29.3913 66.04C29.3913 62.56 31.9513 59.42 35.2713 59.42C36.6913 59.42 37.8513 60.16 38.4713 61.34L38.8313 59.66ZM34.2713 67.78C35.9313 67.78 37.3513 66.42 37.7513 64.78L37.8113 64.52C37.8513 64.32 37.8713 64.1 37.8713 63.88C37.8713 62.72 36.9913 61.88 35.7913 61.88C33.8513 61.88 32.2313 63.68 32.2313 65.76C32.2313 66.92 33.0713 67.78 34.2713 67.78ZM52.6135 56.02H55.5335L52.6335 70H49.7135L49.9935 68.66C49.0135 69.64 47.7535 70.24 46.3535 70.24C44.0535 70.24 42.4335 68.46 42.4335 66.04C42.4335 62.56 44.9935 59.42 48.3135 59.42C49.7335 59.42 50.8935 60.16 51.5135 61.32L52.6135 56.02ZM47.3135 67.78C48.9335 67.78 50.3135 66.5 50.7735 64.92L50.8735 64.38C50.8935 64.22 50.9135 64.04 50.9135 63.88C50.9135 62.72 50.0335 61.88 48.8335 61.88C46.8935 61.88 45.2735 63.68 45.2735 65.76C45.2735 66.92 46.1135 67.78 47.3135 67.78ZM60.6557 65.78H58.1557V65.88C58.1557 67.1 58.7957 67.66 60.0357 67.66C61.0157 67.66 62.0557 67.28 62.8357 66.64L64.4357 68.72C63.3357 69.68 61.6757 70.24 59.9757 70.24C57.2157 70.24 55.4357 68.48 55.4357 65.9C55.4357 62.32 58.3557 59.42 61.7957 59.42C64.0757 59.42 65.6957 60.58 65.6957 62.24C65.6957 64.54 63.8157 65.86 60.6557 65.78ZM61.6757 61.98C60.3557 61.98 59.3157 62.64 58.7157 63.68H61.0357C62.1757 63.68 62.8357 63.34 62.8357 62.78C62.8357 62.32 62.3557 61.98 61.6757 61.98ZM74.5052 59.42C76.8052 59.42 78.4252 61.2 78.4252 63.6C78.4252 67.1 75.8652 70.24 72.5452 70.24C71.1252 70.24 69.9652 69.5 69.3452 68.34L69.0052 70H66.0852L68.9852 56.02H71.9052L70.8652 61C71.8452 60.02 73.1052 59.42 74.5052 59.42ZM72.0252 67.78C73.9652 67.78 75.5852 65.94 75.5852 63.9C75.5852 62.74 74.7452 61.88 73.5652 61.88C71.9652 61.88 70.5852 63.12 70.1052 64.66L69.9652 65.34C69.9452 65.5 69.9452 65.64 69.9452 65.78C69.9452 66.94 70.8252 67.78 72.0252 67.78ZM80.8274 73.6C79.9474 73.6 78.9474 73.3 78.3074 72.9L79.1674 71.02C79.5874 71.28 80.0474 71.42 80.3874 71.42C80.9274 71.42 81.5474 71.14 81.8274 70.74L82.3874 70.1L80.2874 59.66H83.2474L84.4274 66.92L88.5474 59.66H91.5874L85.0674 70.62C83.8674 72.66 82.3874 73.6 80.8274 73.6ZM95.6391 61.44C96.5391 60.18 97.9191 59.42 99.4791 59.42L99.1591 61.88C97.0791 61.88 95.3791 63.14 94.8991 64.94L93.8391 70H90.9191L93.0791 59.66H95.9991L95.6391 61.44ZM109.291 59.66H112.211L110.051 70H107.131L107.411 68.66C106.431 69.64 105.171 70.24 103.771 70.24C101.471 70.24 99.8515 68.46 99.8515 66.04C99.8515 62.56 102.411 59.42 105.731 59.42C107.151 59.42 108.311 60.16 108.931 61.34L109.291 59.66ZM104.731 67.78C106.391 67.78 107.811 66.42 108.211 64.78L108.271 64.52C108.311 64.32 108.331 64.1 108.331 63.88C108.331 62.72 107.451 61.88 106.251 61.88C104.311 61.88 102.691 63.68 102.691 65.76C102.691 66.92 103.531 67.78 104.731 67.78ZM116.514 58.24C115.654 58.24 115.074 57.58 115.074 56.78C115.074 55.9 115.854 55.08 116.794 55.08C117.634 55.08 118.214 55.74 118.214 56.54C118.214 57.44 117.394 58.24 116.514 58.24ZM111.554 73.56C110.754 73.56 109.934 73.34 109.474 73.1L110.054 71.02C110.294 71.14 110.734 71.16 110.994 71.16C111.654 71.16 112.294 70.56 112.434 69.88L114.554 59.66H117.474L115.234 70.42C114.834 72.32 113.354 73.56 111.554 73.56Z" fill="white"/>
<rect x="6.125" y="51.125" width="1.75" height="1.75" fill="white" stroke="#0D99FF" stroke-width="0.25"/>
<rect x="6.125" y="75.125" width="1.75" height="1.75" fill="white" stroke="#0D99FF" stroke-width="0.25"/>
<rect x="63.125" y="75.125" width="1.75" height="1.75" fill="white" stroke="#0D99FF" stroke-width="0.25"/>
<rect x="120.125" y="75.125" width="1.75" height="1.75" fill="white" stroke="#0D99FF" stroke-width="0.25"/>
<rect x="120.125" y="51.125" width="1.75" height="1.75" fill="white" stroke="#0D99FF" stroke-width="0.25"/>
<rect x="63.125" y="51.125" width="1.75" height="1.75" fill="white" stroke="#0D99FF" stroke-width="0.25"/>
</g>
<defs>
<filter id="filter0_f_228_175" x="-20" y="-20" width="168" height="168" filterUnits="userSpaceOnUse" color-interpolation-filters="sRGB">
<feFlood flood-opacity="0" result="BackgroundImageFix"/>
<feBlend mode="normal" in="SourceGraphic" in2="BackgroundImageFix" result="shape"/>
<feGaussianBlur stdDeviation="10" result="effect1_foregroundBlur_228_175"/>
</filter>
<filter id="filter1_f_228_175" x="-20" y="5.56689" width="168" height="168" filterUnits="userSpaceOnUse" color-interpolation-filters="sRGB">
<feFlood flood-opacity="0" result="BackgroundImageFix"/>
<feBlend mode="normal" in="SourceGraphic" in2="BackgroundImageFix" result="shape"/>
<feGaussianBlur stdDeviation="10" result="effect1_foregroundBlur_228_175"/>
</filter>
<filter id="filter2_f_228_175" x="-20" y="26.8696" width="168" height="168" filterUnits="userSpaceOnUse" color-interpolation-filters="sRGB">
<feFlood flood-opacity="0" result="BackgroundImageFix"/>
<feBlend mode="normal" in="SourceGraphic" in2="BackgroundImageFix" result="shape"/>
<feGaussianBlur stdDeviation="10" result="effect1_foregroundBlur_228_175"/>
</filter>
<linearGradient id="paint0_linear_228_175" x1="64" y1="0" x2="64" y2="128" gradientUnits="userSpaceOnUse">
<stop stop-color="#F785FF"/>
<stop offset="1" stop-color="#832BC1"/>
</linearGradient>
<clipPath id="clip0_228_175">
<rect width="128" height="128" rx="29" fill="white"/>
</clipPath>
</defs>
</svg>
