<svg width="128" height="128" viewBox="0 0 128 128" fill="none" xmlns="http://www.w3.org/2000/svg">
<g clip-path="url(#clip0_192_555)">
<rect width="128" height="128" rx="29" fill="#FFB8F9"/>
<g filter="url(#filter0_f_192_555)">
<circle cx="64" cy="64.0001" r="64" transform="rotate(-180 64 64.0001)" fill="#A036C3"/>
</g>
<g filter="url(#filter1_f_192_555)">
<circle cx="64" cy="89.5669" r="64" transform="rotate(-180 64 89.5669)" fill="#1C0B56"/>
</g>
<g filter="url(#filter2_f_192_555)">
<circle cx="64" cy="112.87" r="64" transform="rotate(-180 64 112.87)" fill="black"/>
</g>
<path d="M25.2188 30.4219H21.2344V39H17.4688V16.4531H25.4062C30.1562 16.4531 33.0781 19.125 33.0781 23.4688C33.0781 26.4062 31.4844 28.8438 28.9844 29.75L33.5312 39H29.2812L25.2188 30.4219ZM21.2344 19.5938V27.4531H24.8906C27.6406 27.4531 29.2344 26 29.2344 23.5156C29.2344 21.0312 27.6719 19.5938 24.9688 19.5938H21.2344ZM40.5938 39.2812C37.3438 39.2812 35.1719 37.2188 35.1719 34.125C35.1719 31.0625 37.3906 29.25 41.4844 29L45.7656 28.75V27.3125C45.7656 25.5469 44.625 24.5469 42.625 24.5469C40.9531 24.5469 39.7344 25.2656 39.3594 26.5156H35.7969C36.1094 23.5625 38.875 21.6094 42.7188 21.6094C46.9531 21.6094 49.3594 23.6875 49.3594 27.3438V39H45.9062V36.6094H45.5781C44.75 38.3125 42.9219 39.2812 40.5938 39.2812ZM41.7656 36.3125C44.0781 36.3125 45.7656 34.8281 45.7656 32.7656V31.2031L42.0312 31.4062C39.8906 31.5312 38.7812 32.3906 38.7812 33.9062C38.7812 35.3906 39.9375 36.3125 41.7656 36.3125ZM62.5156 18.0938C60.9531 18.0938 59.8594 17.0781 59.8594 15.6094C59.8594 14.1406 60.9531 13.125 62.5156 13.125C64.0625 13.125 65.1562 14.1406 65.1562 15.6094C65.1562 17.0781 64.0625 18.0938 62.5156 18.0938ZM64.5156 21.8906V38.5625C64.5156 42.8125 62.5938 44.4219 57.6562 44.4219C56.8906 44.4219 54.0938 44.3906 53.3594 44.3438V41.1562C53.8906 41.2031 56.8594 41.2344 57.5312 41.2344C60.0938 41.2344 60.9688 40.5 60.9688 38.4531V24.7969H53.6094V21.8906H64.5156Z" fill="white"/>
<path d="M21.4375 70H17.8281V47.4531H21.4375V58.1094H21.6719L30.0469 47.4531H34.1562L26.1562 57.4062L34.7812 70H30.2969L23.5781 60.1562L21.4375 62.7969V70ZM50.8625 52.8906V70H47.3469V67.0781H47.0969C46.2219 69.1719 44.3312 70.3438 41.8156 70.3438C38.0969 70.3438 36.0812 68.125 36.0812 63.9688V52.8906H39.7219V63.0938C39.7219 65.8438 40.8469 67.1406 43.1906 67.1406C45.6281 67.1406 47.2219 65.4531 47.2219 62.8594V52.8906H50.8625ZM70.5375 57V70H67.4125V58.1562C67.4125 56.5938 66.7406 55.7031 65.5844 55.7031C64.3812 55.7031 63.6312 56.7188 63.6312 58.3281V70H60.5219V58.1562C60.5219 56.5781 59.8656 55.7031 58.6937 55.7031C57.475 55.7031 56.6937 56.7188 56.6937 58.3281V70H53.5687V52.8906H56.7562V55.4531H57.1469C57.5375 53.5938 58.7406 52.5469 60.3812 52.5469C61.975 52.5469 63.0687 53.5625 63.4281 55.3594H63.8187C64.2094 53.6094 65.475 52.5469 67.1469 52.5469C69.3656 52.5469 70.5375 54.0938 70.5375 57ZM78.5563 70.2812C75.3063 70.2812 73.1344 68.2188 73.1344 65.125C73.1344 62.0625 75.3531 60.25 79.4469 60L83.7281 59.75V58.3125C83.7281 56.5469 82.5875 55.5469 80.5875 55.5469C78.9156 55.5469 77.6969 56.2656 77.3219 57.5156H73.7594C74.0719 54.5625 76.8375 52.6094 80.6813 52.6094C84.9156 52.6094 87.3219 54.6875 87.3219 58.3438V70H83.8688V67.6094H83.5406C82.7125 69.3125 80.8844 70.2812 78.5563 70.2812ZM79.7281 67.3125C82.0406 67.3125 83.7281 65.8281 83.7281 63.7656V62.2031L79.9938 62.4062C77.8531 62.5312 76.7438 63.3906 76.7438 64.9062C76.7438 66.3906 77.9 67.3125 79.7281 67.3125ZM98.7469 62.375V67.2812H103.841V70H91.9187V67.2812H95.2469V55.6094H91.5906V52.8906H98.7625V57.2656H99.2937C99.9969 53.9688 101.903 52.4375 105.153 52.4375C106.122 52.4375 107.012 52.5625 107.606 52.7969V56.75C106.841 56.4531 105.716 56.2656 104.778 56.2656C100.825 56.2656 98.7469 58.4219 98.7469 62.375Z" fill="white"/>
<g filter="url(#filter3_d_192_555)">
<path d="M88.7671 97.207C89.6407 97.1317 90.5434 97.2264 91.4298 97.5144C94.9753 98.6664 96.9156 102.474 95.7636 106.02C93.2691 103.25 89.0011 103.026 86.2307 105.52C85.5391 106.143 85.0062 106.876 84.6347 107.669C84.0267 103.593 85.7054 99.6415 88.7671 97.207V97.207Z" fill="url(#paint0_linear_192_555)"/>
<path d="M84.6343 107.669C85.0058 106.876 85.5387 106.143 86.2302 105.52C89.0006 103.026 93.2686 103.25 95.7631 106.02C92.1166 106.795 89.7889 110.379 90.564 114.026C90.7576 114.937 91.1265 115.765 91.6278 116.484C88.2435 115.143 85.5726 112.187 84.7589 108.359C84.71 108.129 84.6685 107.899 84.6343 107.669V107.669Z" fill="url(#paint1_linear_192_555)"/>
<path d="M91.6278 116.484C91.1265 115.765 90.7576 114.937 90.564 114.026C89.7889 110.38 92.1166 106.795 95.7631 106.02C94.6111 109.566 96.5514 113.374 100.097 114.526C100.983 114.814 101.886 114.908 102.76 114.833C101.44 115.882 99.8633 116.65 98.1021 117.024C95.8524 117.502 93.6169 117.272 91.6278 116.484V116.484Z" fill="url(#paint2_linear_192_555)"/>
<path d="M102.76 114.833C101.886 114.908 100.983 114.813 100.097 114.525C96.5516 113.374 94.6113 109.565 95.7633 106.02C98.2577 108.79 102.526 109.014 105.296 106.52C105.988 105.897 106.521 105.164 106.892 104.371C107.5 108.447 105.821 112.398 102.76 114.833V114.833Z" fill="url(#paint3_linear_192_555)"/>
<path d="M106.892 104.371C106.52 105.164 105.988 105.897 105.296 106.52C102.526 109.014 98.2576 108.791 95.7631 106.02C99.4096 105.245 101.737 101.661 100.962 98.0142C100.769 97.1034 100.4 96.2749 99.8984 95.5564C103.283 96.8975 105.954 99.8534 106.767 103.681C106.816 103.911 106.858 104.141 106.892 104.371V104.371Z" fill="url(#paint4_linear_192_555)"/>
<path d="M99.8988 95.5562C100.4 96.2746 100.769 97.1032 100.963 98.014C101.738 101.66 99.4099 105.245 95.7635 106.02C96.9155 102.474 94.9752 98.6664 91.4297 97.5144C90.5434 97.2264 89.6406 97.1317 88.767 97.207C90.0867 96.1576 91.6633 95.3901 93.4245 95.0157C95.6742 94.5375 97.9097 94.768 99.8988 95.5562V95.5562Z" fill="url(#paint5_linear_192_555)"/>
<path d="M79.8538 83.1541L78.5872 82.3296L78.9014 83.8078L81.8091 97.4872L82.1151 98.927L82.9385 97.7068L85.8146 93.4446L85.8237 93.4327L91.7526 92.1724L93.2262 91.8592L91.9637 91.0373L79.8538 83.1541Z" fill="black" stroke="white" stroke-width="1.25"/>
</g>
</g>
<defs>
<filter id="filter0_f_192_555" x="-16.566" y="-16.5659" width="161.132" height="161.132" filterUnits="userSpaceOnUse" color-interpolation-filters="sRGB">
<feFlood flood-opacity="0" result="BackgroundImageFix"/>
<feBlend mode="normal" in="SourceGraphic" in2="BackgroundImageFix" result="shape"/>
<feGaussianBlur stdDeviation="8.283" result="effect1_foregroundBlur_192_555"/>
</filter>
<filter id="filter1_f_192_555" x="-16.566" y="9.00089" width="161.132" height="161.132" filterUnits="userSpaceOnUse" color-interpolation-filters="sRGB">
<feFlood flood-opacity="0" result="BackgroundImageFix"/>
<feBlend mode="normal" in="SourceGraphic" in2="BackgroundImageFix" result="shape"/>
<feGaussianBlur stdDeviation="8.283" result="effect1_foregroundBlur_192_555"/>
</filter>
<filter id="filter2_f_192_555" x="-16.566" y="32.3037" width="161.132" height="161.132" filterUnits="userSpaceOnUse" color-interpolation-filters="sRGB">
<feFlood flood-opacity="0" result="BackgroundImageFix"/>
<feBlend mode="normal" in="SourceGraphic" in2="BackgroundImageFix" result="shape"/>
<feGaussianBlur stdDeviation="8.283" result="effect1_foregroundBlur_192_555"/>
</filter>
<filter id="filter3_d_192_555" x="67.3333" y="73.1665" width="50.7757" height="50.7757" filterUnits="userSpaceOnUse" color-interpolation-filters="sRGB">
<feFlood flood-opacity="0" result="BackgroundImageFix"/>
<feColorMatrix in="SourceAlpha" type="matrix" values="0 0 0 0 0 0 0 0 0 0 0 0 0 0 0 0 0 0 127 0" result="hardAlpha"/>
<feOffset dy="0.833333"/>
<feGaussianBlur stdDeviation="0.833333"/>
<feColorMatrix type="matrix" values="0 0 0 0 0 0 0 0 0 0 0 0 0 0 0 0 0 0 0.44 0"/>
<feBlend mode="normal" in2="BackgroundImageFix" result="effect1_dropShadow_192_555"/>
<feBlend mode="normal" in="SourceGraphic" in2="effect1_dropShadow_192_555" result="shape"/>
</filter>
<linearGradient id="paint0_linear_192_555" x1="82.6857" y1="98.4996" x2="84.7804" y2="108.354" gradientUnits="userSpaceOnUse">
<stop stop-color="#FFD305"/>
<stop offset="1" stop-color="#FDCF01"/>
</linearGradient>
<linearGradient id="paint1_linear_192_555" x1="84.057" y1="105.057" x2="86.7082" y2="117.529" gradientUnits="userSpaceOnUse">
<stop stop-color="#52CF30"/>
<stop offset="1" stop-color="#3BBD1C"/>
</linearGradient>
<linearGradient id="paint2_linear_192_555" x1="89.1606" y1="107.423" x2="91.4996" y2="118.428" gradientUnits="userSpaceOnUse">
<stop stop-color="#14ADF6"/>
<stop offset="1" stop-color="#1191F4"/>
</linearGradient>
<linearGradient id="paint3_linear_192_555" x1="94.8776" y1="106.208" x2="96.9723" y2="116.063" gradientUnits="userSpaceOnUse">
<stop stop-color="#CA70E1"/>
<stop offset="1" stop-color="#B452CB"/>
</linearGradient>
<linearGradient id="paint4_linear_192_555" x1="93.8139" y1="96.8497" x2="96.465" y2="109.322" gradientUnits="userSpaceOnUse">
<stop stop-color="#FF645D"/>
<stop offset="1" stop-color="#FF4332"/>
</linearGradient>
<linearGradient id="paint5_linear_192_555" x1="88.5227" y1="96.0576" x2="90.8617" y2="107.062" gradientUnits="userSpaceOnUse">
<stop stop-color="#FBB114"/>
<stop offset="1" stop-color="#FF9508"/>
</linearGradient>
<clipPath id="clip0_192_555">
<rect width="128" height="128" rx="29" fill="white"/>
</clipPath>
</defs>
</svg>
