<svg width="128" height="128" viewBox="0 0 128 128" fill="none" xmlns="http://www.w3.org/2000/svg">
<g clip-path="url(#clip0_192_555)">
<rect width="128" height="128" rx="29" fill="#FF8FF4"/>
<g filter="url(#filter0_f_192_555)">
<circle cx="64" cy="64.0001" r="64" transform="rotate(-180 64 64.0001)" fill="#A236C3"/>
</g>
<g filter="url(#filter1_f_192_555)">
<circle cx="64" cy="89.5669" r="64" transform="rotate(-180 64 89.5669)" fill="#1D0A52"/>
</g>
<g filter="url(#filter2_f_192_555)">
<circle cx="64" cy="110.87" r="64" transform="rotate(-180 64 110.87)" fill="#0E0114"/>
</g>
<path d="M24.875 30.7031H21.6562V39H17.2344V16.4531H25.4219C30.3281 16.4531 33.3281 19.1719 33.3281 23.6406C33.3281 26.5625 31.7812 29 29.3281 29.9688L33.8438 39H28.8438L24.875 30.7031ZM21.6562 20.0781V27.2969H24.7969C27.3125 27.2969 28.8125 25.9375 28.8125 23.6562C28.8125 21.4219 27.3438 20.0781 24.8438 20.0781H21.6562ZM39.9438 39.2812C36.6938 39.2812 34.5063 37.1875 34.5063 34.0781C34.5063 30.9688 36.7719 29.1406 41.0219 28.8438L45.0531 28.5938V27.2188C45.0531 25.7188 44.0219 24.8438 42.2563 24.8438C40.7719 24.8438 39.6625 25.5 39.3031 26.5781H35.1469C35.4594 23.4531 38.2875 21.4375 42.3813 21.4375C46.8031 21.4375 49.2875 23.5469 49.2875 27.3125V39H45.225V36.7031H44.85C44.0063 38.3281 42.1938 39.2812 39.9438 39.2812ZM41.4125 35.8594C43.5375 35.8594 45.0531 34.5156 45.0531 32.5938V31.3438L41.7406 31.5469C39.7406 31.6719 38.725 32.4375 38.725 33.7656C38.725 35.0469 39.7563 35.8594 41.4125 35.8594ZM61.5906 18.25C59.8406 18.25 58.6688 17.1719 58.6688 15.5469C58.6688 13.9219 59.8406 12.8438 61.5906 12.8438C63.3563 12.8438 64.5281 13.9219 64.5281 15.5469C64.5281 17.1719 63.3563 18.25 61.5906 18.25ZM63.9031 21.7656V38.3125C63.9031 42.9219 61.9813 44.625 56.9188 44.625C56.4031 44.625 52.9656 44.6094 52.4813 44.5781V40.8125C52.8406 40.8438 56.3094 40.8594 56.7469 40.8594C58.9188 40.8594 59.7469 40.125 59.7469 38.3438V25.1875H52.6531V21.7656H63.9031Z" fill="white" style="mix-blend-mode:color-dodge"/>
<path d="M21.6875 69H17.4688V46.4531H21.6875V56.7188H21.9219L29.8125 46.4531H34.5L26.7344 56.4062L35 69H29.8281L23.6719 59.6094L21.6875 62.1406V69ZM51.5438 51.7656V69H47.4031V66.1094H47.1375C46.2938 68.1875 44.4344 69.375 41.95 69.375C38.2 69.375 36.2 67.125 36.2 62.9219V51.7656H40.4813V61.8906C40.4813 64.4219 41.4969 65.625 43.6688 65.625C45.8563 65.625 47.2781 64.1094 47.2781 61.7344V51.7656H51.5438ZM71.5563 55.625V69H67.9313V57.0625C67.9313 55.8281 67.3219 55.0938 66.3375 55.0938C65.3219 55.0938 64.65 55.9062 64.65 57.1719V69H61.0719V57.0625C61.0719 55.8281 60.4938 55.0938 59.4781 55.0938C58.4469 55.0938 57.775 55.9062 57.775 57.1719V69H54.15V51.7656H57.8844V54.4688H58.3375C58.7281 52.4844 59.9 51.4062 61.6031 51.4062C63.1656 51.4062 64.2594 52.4688 64.6188 54.3281H65.0719C65.4313 52.4844 66.6344 51.4062 68.275 51.4062C70.4 51.4062 71.5563 52.8906 71.5563 55.625ZM79.5062 69.2812C76.2562 69.2812 74.0687 67.1875 74.0687 64.0781C74.0687 60.9688 76.3344 59.1406 80.5844 58.8438L84.6156 58.5938V57.2188C84.6156 55.7188 83.5844 54.8438 81.8187 54.8438C80.3344 54.8438 79.225 55.5 78.8656 56.5781H74.7094C75.0219 53.4531 77.85 51.4375 81.9437 51.4375C86.3656 51.4375 88.85 53.5469 88.85 57.3125V69H84.7875V66.7031H84.4125C83.5687 68.3281 81.7562 69.2812 79.5062 69.2812ZM80.975 65.8594C83.1 65.8594 84.6156 64.5156 84.6156 62.5938V61.3438L81.3031 61.5469C79.3031 61.6719 78.2875 62.4375 78.2875 63.7656C78.2875 65.0469 79.3187 65.8594 80.975 65.8594ZM100.488 61.3594V65.8594H105.488V69H93.1125V65.8594H96.3938V54.9219H92.8V51.7656H100.519V56.1875H101.191C101.941 52.7656 103.706 51.3125 106.956 51.3125C107.925 51.3125 108.8 51.4375 109.409 51.6719V56.3125C108.628 56.0156 107.503 55.8125 106.534 55.8125C102.472 55.8125 100.488 57.6562 100.488 61.3594Z" fill="white"/>
<g filter="url(#filter3_d_192_555)">
<path d="M87.7671 96.207C88.6407 96.1317 89.5434 96.2264 90.4298 96.5144C93.9753 97.6664 95.9156 101.474 94.7636 105.02C92.2691 102.25 88.0011 102.026 85.2307 104.52C84.5391 105.143 84.0062 105.876 83.6347 106.669C83.0267 102.593 84.7054 98.6415 87.7671 96.207Z" fill="url(#paint0_linear_192_555)"/>
<path d="M83.6343 106.669C84.0058 105.876 84.5387 105.143 85.2302 104.52C88.0006 102.026 92.2686 102.25 94.7631 105.02C91.1166 105.795 88.7889 109.379 89.564 113.026C89.7576 113.937 90.1265 114.765 90.6278 115.484C87.2435 114.143 84.5726 111.187 83.7589 107.359C83.71 107.129 83.6685 106.899 83.6343 106.669Z" fill="url(#paint1_linear_192_555)"/>
<path d="M90.6278 115.484C90.1265 114.765 89.7576 113.937 89.564 113.026C88.7889 109.38 91.1166 105.795 94.7631 105.02C93.6111 108.566 95.5514 112.374 99.0968 113.526C99.9832 113.814 100.886 113.908 101.76 113.833C100.44 114.882 98.8633 115.65 97.1021 116.024C94.8524 116.502 92.6169 116.272 90.6278 115.484Z" fill="url(#paint2_linear_192_555)"/>
<path d="M101.76 113.833C100.886 113.908 99.9834 113.813 99.097 113.525C95.5516 112.374 93.6113 108.565 94.7633 105.02C97.2577 107.79 101.526 108.014 104.296 105.52C104.988 104.897 105.521 104.164 105.892 103.371C106.5 107.447 104.821 111.398 101.76 113.833Z" fill="url(#paint3_linear_192_555)"/>
<path d="M105.892 103.371C105.52 104.164 104.988 104.897 104.296 105.52C101.526 108.014 97.2576 107.791 94.7631 105.02C98.4096 104.245 100.737 100.661 99.9622 97.0142C99.7686 96.1034 99.3997 95.2749 98.8984 94.5564C102.283 95.8975 104.954 98.8534 105.767 102.681C105.816 102.911 105.858 103.141 105.892 103.371Z" fill="url(#paint4_linear_192_555)"/>
<path d="M98.8988 94.5562C99.4001 95.2746 99.769 96.1032 99.9626 97.014C100.738 100.66 98.4099 104.245 94.7635 105.02C95.9155 101.474 93.9752 97.6664 90.4297 96.5144C89.5434 96.2264 88.6406 96.1317 87.767 96.207C89.0867 95.1576 90.6633 94.3901 92.4245 94.0157C94.6742 93.5375 96.9097 93.768 98.8988 94.5562Z" fill="url(#paint5_linear_192_555)"/>
<path d="M78.8538 82.1541L77.5872 81.3296L77.9014 82.8078L80.8091 96.4872L81.1151 97.927L81.9385 96.7068L84.8146 92.4446L84.8237 92.4327L90.7526 91.1724L92.2262 90.8592L90.9637 90.0373L78.8538 82.1541Z" fill="black" stroke="white" stroke-width="1.25"/>
</g>
</g>
<defs>
<filter id="filter0_f_192_555" x="-20" y="-19.9999" width="168" height="168" filterUnits="userSpaceOnUse" color-interpolation-filters="sRGB">
<feFlood flood-opacity="0" result="BackgroundImageFix"/>
<feBlend mode="normal" in="SourceGraphic" in2="BackgroundImageFix" result="shape"/>
<feGaussianBlur stdDeviation="10" result="effect1_foregroundBlur_192_555"/>
</filter>
<filter id="filter1_f_192_555" x="-20" y="5.56689" width="168" height="168" filterUnits="userSpaceOnUse" color-interpolation-filters="sRGB">
<feFlood flood-opacity="0" result="BackgroundImageFix"/>
<feBlend mode="normal" in="SourceGraphic" in2="BackgroundImageFix" result="shape"/>
<feGaussianBlur stdDeviation="10" result="effect1_foregroundBlur_192_555"/>
</filter>
<filter id="filter2_f_192_555" x="-20" y="26.8698" width="168" height="168" filterUnits="userSpaceOnUse" color-interpolation-filters="sRGB">
<feFlood flood-opacity="0" result="BackgroundImageFix"/>
<feBlend mode="normal" in="SourceGraphic" in2="BackgroundImageFix" result="shape"/>
<feGaussianBlur stdDeviation="10" result="effect1_foregroundBlur_192_555"/>
</filter>
<filter id="filter3_d_192_555" x="66.3333" y="72.1665" width="50.7757" height="50.7757" filterUnits="userSpaceOnUse" color-interpolation-filters="sRGB">
<feFlood flood-opacity="0" result="BackgroundImageFix"/>
<feColorMatrix in="SourceAlpha" type="matrix" values="0 0 0 0 0 0 0 0 0 0 0 0 0 0 0 0 0 0 127 0" result="hardAlpha"/>
<feOffset dy="0.833333"/>
<feGaussianBlur stdDeviation="0.833333"/>
<feColorMatrix type="matrix" values="0 0 0 0 0 0 0 0 0 0 0 0 0 0 0 0 0 0 0.44 0"/>
<feBlend mode="normal" in2="BackgroundImageFix" result="effect1_dropShadow_192_555"/>
<feBlend mode="normal" in="SourceGraphic" in2="effect1_dropShadow_192_555" result="shape"/>
</filter>
<linearGradient id="paint0_linear_192_555" x1="81.6857" y1="97.4996" x2="83.7804" y2="107.354" gradientUnits="userSpaceOnUse">
<stop stop-color="#FFD305"/>
<stop offset="1" stop-color="#FDCF01"/>
</linearGradient>
<linearGradient id="paint1_linear_192_555" x1="83.057" y1="104.057" x2="85.7082" y2="116.529" gradientUnits="userSpaceOnUse">
<stop stop-color="#52CF30"/>
<stop offset="1" stop-color="#3BBD1C"/>
</linearGradient>
<linearGradient id="paint2_linear_192_555" x1="88.1606" y1="106.423" x2="90.4996" y2="117.428" gradientUnits="userSpaceOnUse">
<stop stop-color="#14ADF6"/>
<stop offset="1" stop-color="#1191F4"/>
</linearGradient>
<linearGradient id="paint3_linear_192_555" x1="93.8776" y1="105.208" x2="95.9723" y2="115.063" gradientUnits="userSpaceOnUse">
<stop stop-color="#CA70E1"/>
<stop offset="1" stop-color="#B452CB"/>
</linearGradient>
<linearGradient id="paint4_linear_192_555" x1="92.8139" y1="95.8497" x2="95.465" y2="108.322" gradientUnits="userSpaceOnUse">
<stop stop-color="#FF645D"/>
<stop offset="1" stop-color="#FF4332"/>
</linearGradient>
<linearGradient id="paint5_linear_192_555" x1="87.5227" y1="95.0576" x2="89.8617" y2="106.062" gradientUnits="userSpaceOnUse">
<stop stop-color="#FBB114"/>
<stop offset="1" stop-color="#FF9508"/>
</linearGradient>
<clipPath id="clip0_192_555">
<rect width="128" height="128" rx="29" fill="white"/>
</clipPath>
</defs>
</svg>
