<svg width="128" height="128" viewBox="0 0 128 128" fill="none" xmlns="http://www.w3.org/2000/svg">
<rect width="128" height="128" rx="29" fill="url(#paint0_linear_223_33)"/>
<path d="M16.0173 70H13.2373V59.32H15.7973V60.84C16.5773 59.76 17.5773 59.12 18.9973 59.12C20.4573 59.12 21.5773 59.8 22.1173 61.02C22.9573 59.84 24.0373 59.12 25.6373 59.12C27.7973 59.12 29.2573 60.54 29.2573 63.1V70H26.4973V63.98C26.4973 62.48 25.8573 61.58 24.6373 61.58C23.5373 61.58 22.6373 62.44 22.6373 64.04V70H19.8773V63.98C19.8773 62.48 19.2373 61.58 18.0173 61.58C16.8973 61.58 16.0173 62.44 16.0173 64.04V70ZM38.3158 70V68.68C37.6158 69.68 36.5558 70.2 35.0958 70.2C32.8758 70.2 31.3958 68.9 31.3958 66.9C31.3958 64.82 33.0758 63.7 36.1958 63.7C36.7958 63.7 37.3158 63.74 37.9758 63.82V63.18C37.9758 61.98 37.2958 61.28 36.1358 61.28C34.9358 61.28 34.2158 61.98 34.1158 63.18H31.6158C31.7758 60.72 33.5558 59.12 36.1358 59.12C38.9358 59.12 40.5758 60.66 40.5758 63.28V70H38.3158ZM34.0158 66.82C34.0158 67.72 34.6558 68.28 35.6958 68.28C37.1158 68.28 37.9758 67.5 37.9758 66.26V65.5C37.3158 65.4 36.8558 65.36 36.3758 65.36C34.7958 65.36 34.0158 65.86 34.0158 66.82ZM42.5914 64.66C42.5914 61.5 44.4514 59.12 47.3314 59.12C48.6114 59.12 49.6914 59.68 50.4914 60.7V55.64H53.2514V70H50.7114V68.46C49.8714 69.58 48.7114 70.2 47.3314 70.2C44.4514 70.2 42.5914 67.78 42.5914 64.66ZM45.4514 64.66C45.4514 66.66 46.5914 67.72 47.9514 67.72C49.3314 67.72 50.4714 66.64 50.4714 64.62C50.4714 62.6 49.3114 61.58 47.9514 61.58C46.5914 61.58 45.4514 62.62 45.4514 64.66ZM60.6928 70.18C57.4928 70.18 55.3528 67.96 55.3528 64.62C55.3528 61.44 57.5728 59.12 60.6528 59.12C64.0328 59.12 66.2728 61.86 65.7728 65.34H58.1928C58.3728 67.08 59.2128 68.04 60.6328 68.04C61.8528 68.04 62.6728 67.44 62.9928 66.38H65.7528C65.1528 68.8 63.2928 70.18 60.6928 70.18ZM60.5928 61.16C59.2928 61.16 58.4728 62 58.2328 63.58H62.8328C62.7528 62.1 61.9128 61.16 60.5928 61.16ZM78.9348 65.78C78.9348 68.44 76.9748 70 73.8148 70H68.1948V55.64H73.5948C76.6148 55.64 78.4748 57 78.4748 59.46C78.4748 60.78 77.7348 61.84 76.4548 62.5C78.0548 63.06 78.9348 64.2 78.9348 65.78ZM73.3548 58.04H70.9548V61.38H73.3548C74.8348 61.38 75.5948 60.74 75.5948 59.7C75.5948 58.68 74.8348 58.04 73.3548 58.04ZM73.5748 63.8H70.9548V67.6H73.5748C75.2148 67.6 76.0748 66.88 76.0748 65.66C76.0748 64.52 75.2148 63.8 73.5748 63.8ZM90.6488 59.32L85.4488 73.86H82.4287L83.9487 69.88L79.7487 59.32H82.7487L85.4287 66.64L87.8687 59.32H90.6488ZM94.9686 64.82V70H92.1886V59.32H94.7486V61.38C95.5286 60.02 97.1886 59.2 98.9086 59.2V62.08C96.5486 61.9 94.9686 62.46 94.9686 64.82ZM107.033 70V68.68C106.333 69.68 105.273 70.2 103.813 70.2C101.593 70.2 100.113 68.9 100.113 66.9C100.113 64.82 101.793 63.7 104.913 63.7C105.513 63.7 106.033 63.74 106.693 63.82V63.18C106.693 61.98 106.013 61.28 104.853 61.28C103.653 61.28 102.933 61.98 102.833 63.18H100.333C100.493 60.72 102.273 59.12 104.853 59.12C107.653 59.12 109.293 60.66 109.293 63.28V70H107.033ZM102.733 66.82C102.733 67.72 103.373 68.28 104.413 68.28C105.833 68.28 106.693 67.5 106.693 66.26V65.5C106.033 65.4 105.573 65.36 105.093 65.36C103.513 65.36 102.733 65.86 102.733 66.82ZM115.228 56.84C115.228 57.78 114.468 58.48 113.368 58.48C112.268 58.48 111.508 57.78 111.508 56.84C111.508 55.86 112.268 55.16 113.368 55.16C114.468 55.16 115.228 55.86 115.228 56.84ZM114.768 59.32V69.96C114.768 72.84 113.208 74.06 111.088 74.06C110.588 74.06 110.068 74.02 109.588 73.84V71.26C109.888 71.42 110.288 71.5 110.748 71.5C111.488 71.5 112.008 71.06 112.008 69.88V59.32H114.768Z" fill="white"/>
<path d="M82.388 86.944C82.388 87.556 81.908 88.06 81.332 88.06C80.876 88.06 80.576 87.76 80.576 87.328C80.576 86.728 81.068 86.212 81.656 86.212C82.1 86.212 82.388 86.524 82.388 86.944ZM86.1902 88.12C84.6542 88.12 83.6102 87.052 83.6102 85.492C83.6102 83.308 85.1942 81.52 87.1502 81.52C88.6742 81.52 89.7182 82.588 89.7182 84.136C89.7182 86.332 88.1342 88.12 86.1902 88.12ZM86.3102 87.076C87.5222 87.076 88.5062 85.804 88.5062 84.244C88.5062 83.224 87.9302 82.564 87.0302 82.564C85.8062 82.564 84.8222 83.848 84.8222 85.408C84.8222 86.428 85.4102 87.076 86.3102 87.076ZM92.3074 84.4L91.6594 88H90.4954L91.6234 81.64H92.7034L92.5114 82.708C93.0034 81.964 93.7354 81.52 94.5514 81.52C95.8474 81.52 96.5674 82.54 96.3154 84.004L95.6074 88H94.4434L95.0914 84.292C95.2834 83.212 94.8994 82.564 94.0594 82.564C93.1714 82.564 92.4994 83.32 92.3074 84.4ZM98.5342 88H97.3702L98.8942 79.384H100.058L98.5342 88ZM103.198 80.02C103.198 80.524 102.742 80.956 102.202 80.956C101.77 80.956 101.482 80.68 101.482 80.308C101.482 79.804 101.938 79.372 102.478 79.372C102.91 79.372 103.198 79.648 103.198 80.02ZM101.542 88H100.378L101.506 81.64H102.67L101.542 88ZM105.198 84.4L104.55 88H103.386L104.514 81.64H105.594L105.402 82.708C105.894 81.964 106.626 81.52 107.442 81.52C108.738 81.52 109.458 82.54 109.206 84.004L108.498 88H107.334L107.982 84.292C108.174 83.212 107.79 82.564 106.95 82.564C106.062 82.564 105.39 83.32 105.198 84.4ZM113.02 88.12C111.496 88.12 110.344 87.076 110.344 85.408C110.344 83.188 111.796 81.52 113.704 81.52C115.54 81.52 116.428 83.068 116.056 85.108H111.568C111.556 85.18 111.556 85.264 111.556 85.348C111.556 86.452 112.144 87.124 113.116 87.124C113.884 87.124 114.412 86.692 114.724 85.84H115.912C115.396 87.4 114.376 88.12 113.02 88.12ZM113.68 82.456C112.66 82.456 111.952 83.248 111.676 84.328H115C115.12 83.224 114.628 82.456 113.68 82.456Z" fill="white"/>
<defs>
<linearGradient id="paint0_linear_223_33" x1="64" y1="0" x2="64" y2="128" gradientUnits="userSpaceOnUse">
<stop stop-color="#5551FF"/>
<stop offset="0.75" stop-color="#3629CC"/>
<stop offset="1" stop-color="#3116B8"/>
</linearGradient>
</defs>
</svg>
