<svg width="128" height="128" viewBox="0 0 128 128" fill="none" xmlns="http://www.w3.org/2000/svg">
<rect width="128" height="128" rx="29" fill="url(#paint0_linear_223_33)"/>
<path d="M14.1622 71H11.2432V59.786H13.9312V61.382C14.7502 60.248 15.8002 59.576 17.2912 59.576C18.8242 59.576 20.0002 60.29 20.5672 61.571C21.4492 60.332 22.5832 59.576 24.2632 59.576C26.5312 59.576 28.0642 61.067 28.0642 63.755V71H25.1662V64.679C25.1662 63.104 24.4942 62.159 23.2132 62.159C22.0582 62.159 21.1132 63.062 21.1132 64.742V71H18.2152V64.679C18.2152 63.104 17.5432 62.159 16.2622 62.159C15.0862 62.159 14.1622 63.062 14.1622 64.742V71ZM37.4396 71V69.614C36.7046 70.664 35.5916 71.21 34.0586 71.21C31.7276 71.21 30.1736 69.845 30.1736 67.745C30.1736 65.561 31.9376 64.385 35.2136 64.385C35.8436 64.385 36.3896 64.427 37.0826 64.511V63.839C37.0826 62.579 36.3686 61.844 35.1506 61.844C33.8906 61.844 33.1346 62.579 33.0296 63.839H30.4046C30.5726 61.256 32.4416 59.576 35.1506 59.576C38.0906 59.576 39.8126 61.193 39.8126 63.944V71H37.4396ZM32.9246 67.661C32.9246 68.606 33.5966 69.194 34.6886 69.194C36.1796 69.194 37.0826 68.375 37.0826 67.073V66.275C36.3896 66.17 35.9066 66.128 35.4026 66.128C33.7436 66.128 32.9246 66.653 32.9246 67.661ZM41.793 65.393C41.793 62.075 43.746 59.576 46.77 59.576C48.114 59.576 49.248 60.164 50.088 61.235V55.922H52.986V71H50.319V69.383C49.437 70.559 48.219 71.21 46.77 71.21C43.746 71.21 41.793 68.669 41.793 65.393ZM44.796 65.393C44.796 67.493 45.993 68.606 47.421 68.606C48.87 68.606 50.067 67.472 50.067 65.351C50.067 63.23 48.849 62.159 47.421 62.159C45.993 62.159 44.796 63.251 44.796 65.393ZM60.6635 71.189C57.3035 71.189 55.0565 68.858 55.0565 65.351C55.0565 62.012 57.3875 59.576 60.6215 59.576C64.1705 59.576 66.5225 62.453 65.9975 66.107H58.0385C58.2275 67.934 59.1095 68.942 60.6005 68.942C61.8815 68.942 62.7425 68.312 63.0785 67.199H65.9765C65.3465 69.74 63.3935 71.189 60.6635 71.189ZM60.5585 61.718C59.1935 61.718 58.3325 62.6 58.0805 64.259H62.9105C62.8265 62.705 61.9445 61.718 60.5585 61.718ZM79.6816 66.569C79.6816 69.362 77.6236 71 74.3056 71H68.4046V55.922H74.0746C77.2456 55.922 79.1986 57.35 79.1986 59.933C79.1986 61.319 78.4216 62.432 77.0776 63.125C78.7576 63.713 79.6816 64.91 79.6816 66.569ZM73.8226 58.442H71.3026V61.949H73.8226C75.3766 61.949 76.1746 61.277 76.1746 60.185C76.1746 59.114 75.3766 58.442 73.8226 58.442ZM74.0536 64.49H71.3026V68.48H74.0536C75.7756 68.48 76.6786 67.724 76.6786 66.443C76.6786 65.246 75.7756 64.49 74.0536 64.49ZM91.8452 59.786L86.3852 75.053H83.2142L84.8102 70.874L80.4002 59.786H83.5502L86.3642 67.472L88.9262 59.786H91.8452ZM96.245 65.561V71H93.326V59.786H96.014V61.949C96.833 60.521 98.576 59.66 100.382 59.66V62.684C97.904 62.495 96.245 63.083 96.245 65.561ZM108.776 71V69.614C108.041 70.664 106.928 71.21 105.395 71.21C103.064 71.21 101.51 69.845 101.51 67.745C101.51 65.561 103.274 64.385 106.55 64.385C107.18 64.385 107.726 64.427 108.419 64.511V63.839C108.419 62.579 107.705 61.844 106.487 61.844C105.227 61.844 104.471 62.579 104.366 63.839H101.741C101.909 61.256 103.778 59.576 106.487 59.576C109.427 59.576 111.149 61.193 111.149 63.944V71H108.776ZM104.261 67.661C104.261 68.606 104.933 69.194 106.025 69.194C107.516 69.194 108.419 68.375 108.419 67.073V66.275C107.726 66.17 107.243 66.128 106.739 66.128C105.08 66.128 104.261 66.653 104.261 67.661ZM117.246 57.182C117.246 58.169 116.448 58.904 115.293 58.904C114.138 58.904 113.34 58.169 113.34 57.182C113.34 56.153 114.138 55.418 115.293 55.418C116.448 55.418 117.246 56.153 117.246 57.182ZM116.763 59.786V70.958C116.763 73.982 115.125 75.263 112.899 75.263C112.374 75.263 111.828 75.221 111.324 75.032V72.323C111.639 72.491 112.059 72.575 112.542 72.575C113.319 72.575 113.865 72.113 113.865 70.874V59.786H116.763Z" fill="white"/>
<defs>
<linearGradient id="paint0_linear_223_33" x1="64" y1="0" x2="64" y2="128" gradientUnits="userSpaceOnUse">
<stop stop-color="#5551FF"/>
<stop offset="0.75" stop-color="#3629CC"/>
<stop offset="1" stop-color="#3116B8"/>
</linearGradient>
</defs>
</svg>
