<svg width="128" height="128" viewBox="0 0 128 128" fill="none" xmlns="http://www.w3.org/2000/svg">
<g clip-path="url(#clip0_216_167)">
<rect width="128" height="128" rx="29" fill="url(#paint0_linear_216_167)"/>
<g filter="url(#filter0_f_216_167)">
<circle cx="64" cy="64" r="64" transform="rotate(-180 64 64)" fill="#A236C3"/>
</g>
<g filter="url(#filter1_f_216_167)">
<circle cx="64" cy="89.5669" r="64" transform="rotate(-180 64 89.5669)" fill="#1D0A52"/>
</g>
<g filter="url(#filter2_f_216_167)">
<circle cx="64" cy="110.87" r="64" transform="rotate(-180 64 110.87)" fill="#11011A"/>
</g>
<path d="M24.9496 61.875V70H22.9965V62.5977C22.9965 61.6211 22.5766 61.0645 21.8539 61.0645C21.102 61.0645 20.6332 61.6992 20.6332 62.7051V70H18.6898V62.5977C18.6898 61.6113 18.2797 61.0645 17.5473 61.0645C16.7855 61.0645 16.2973 61.6992 16.2973 62.7051V70H14.3441V59.3066H16.3363V60.9082H16.5805C16.8246 59.7461 17.5766 59.0918 18.602 59.0918C19.598 59.0918 20.2816 59.7266 20.5062 60.8496H20.7504C20.9945 59.7559 21.7855 59.0918 22.8305 59.0918C24.2172 59.0918 24.9496 60.0586 24.9496 61.875ZM29.3113 70.1758C27.2801 70.1758 25.9227 68.8867 25.9227 66.9531C25.9227 65.0391 27.3094 63.9062 29.868 63.75L32.5437 63.5938V62.6953C32.5437 61.5918 31.8309 60.9668 30.5809 60.9668C29.5359 60.9668 28.7742 61.416 28.5398 62.1973H26.3133C26.5086 60.3516 28.2371 59.1309 30.6395 59.1309C33.2859 59.1309 34.7898 60.4297 34.7898 62.7148V70H32.6316V68.5059H32.4266C31.909 69.5703 30.7664 70.1758 29.3113 70.1758ZM30.0437 68.3203C31.4891 68.3203 32.5437 67.3926 32.5437 66.1035V65.127L30.2098 65.2539C28.8719 65.332 28.1785 65.8691 28.1785 66.8164C28.1785 67.7441 28.9012 68.3203 30.0437 68.3203ZM40.5871 70.166C38.1359 70.166 36.6125 68.4473 36.6125 65.5957V63.6914C36.6125 60.8496 38.1359 59.1211 40.5871 59.1211C42.1301 59.1211 43.2336 59.8145 43.634 61.0547H43.8293V55.1758H46.173V70H43.8684V68.2422H43.673C43.2238 69.4922 42.1398 70.166 40.5871 70.166ZM41.4074 68.1836C42.9309 68.1836 43.8781 67.1387 43.8781 65.459V63.7891C43.8781 62.0996 42.9309 61.0547 41.4074 61.0547C39.8742 61.0547 38.927 62.1094 38.927 63.7891V65.459C38.927 67.1387 39.8742 68.1836 41.4074 68.1836ZM55.0758 67.0996H57.234C56.9801 68.9355 55.1637 70.2148 52.7711 70.2148C49.7242 70.2148 47.9664 68.4668 47.9664 65.4199V63.75C47.9664 60.9473 49.8512 59.0918 52.693 59.0918C55.5055 59.0918 57.2535 60.9375 57.2535 63.9062V65.2051H50.2027V65.7227C50.2027 67.3535 51.2086 68.4082 52.7613 68.4082C53.943 68.4082 54.8512 67.8906 55.0758 67.0996ZM52.6539 60.8887C51.1207 60.8887 50.2027 61.9336 50.2027 63.6816H55.0465C55.0465 61.9434 54.148 60.8887 52.6539 60.8887ZM63.9297 70H58.8906V55.9082H63.832C66.498 55.9082 68.0996 57.2168 68.0996 59.4043C68.0996 60.9375 67.0547 62.2168 65.6094 62.4512V62.6074C67.4844 62.7637 68.7832 64.1699 68.7832 66.0156C68.7832 68.4863 66.957 70 63.9297 70ZM61.2148 57.7734V61.8262H63.0508C64.7695 61.8262 65.7266 61.1035 65.7266 59.8242C65.7266 58.5059 64.8281 57.7734 63.2266 57.7734H61.2148ZM61.2148 68.1055H63.2656C65.3164 68.1055 66.332 67.3633 66.332 65.8301C66.332 64.3555 65.2871 63.6035 63.2266 63.6035H61.2148V68.1055ZM71.3676 73.8379C70.9965 73.8379 70.5668 73.8281 70.4594 73.8184V71.9336C70.557 71.9531 70.8988 71.9629 71.0551 71.9629C72.1 71.9629 72.6762 71.5625 73.0082 70.5566L73.1547 70.0781L69.3168 59.3066H71.807L74.4242 67.8418H74.5707L77.1879 59.3066H79.6L75.7816 70.2441C74.8539 72.9395 73.7309 73.8379 71.3676 73.8379ZM85.1336 65.2344V68.3008H88.3172V70H80.866V68.3008H82.9461V61.0059H80.6609V59.3066H85.1434V62.041H85.4754C85.9148 59.9805 87.1062 59.0234 89.1375 59.0234C89.743 59.0234 90.2996 59.1016 90.6707 59.248V61.7188C90.1922 61.5332 89.4891 61.416 88.9031 61.416C86.4324 61.416 85.1336 62.7637 85.1336 65.2344ZM95.091 70.1758C93.0598 70.1758 91.7023 68.8867 91.7023 66.9531C91.7023 65.0391 93.0891 63.9062 95.6477 63.75L98.3234 63.5938V62.6953C98.3234 61.5918 97.6105 60.9668 96.3605 60.9668C95.3156 60.9668 94.5539 61.416 94.3195 62.1973H92.093C92.2883 60.3516 94.0168 59.1309 96.4191 59.1309C99.0656 59.1309 100.57 60.4297 100.57 62.7148V70H98.4113V68.5059H98.2062C97.6887 69.5703 96.5461 70.1758 95.091 70.1758ZM95.8234 68.3203C97.2687 68.3203 98.3234 67.3926 98.3234 66.1035V65.127L95.9894 65.2539C94.6516 65.332 93.9582 65.8691 93.9582 66.8164C93.9582 67.7441 94.6809 68.3203 95.8234 68.3203ZM108.642 56.9336C107.666 56.9336 106.982 56.2988 106.982 55.3809C106.982 54.4629 107.666 53.8281 108.642 53.8281C109.609 53.8281 110.293 54.4629 110.293 55.3809C110.293 56.2988 109.609 56.9336 108.642 56.9336ZM109.892 59.3066V69.7266C109.892 72.3828 108.691 73.3887 105.605 73.3887C105.127 73.3887 103.379 73.3691 102.92 73.3398V71.3477C103.252 71.377 105.107 71.3965 105.527 71.3965C107.129 71.3965 107.675 70.9375 107.675 69.6582V61.123H103.076V59.3066H109.892Z" fill="white"/>
</g>
<defs>
<filter id="filter0_f_216_167" x="-20" y="-20" width="168" height="168" filterUnits="userSpaceOnUse" color-interpolation-filters="sRGB">
<feFlood flood-opacity="0" result="BackgroundImageFix"/>
<feBlend mode="normal" in="SourceGraphic" in2="BackgroundImageFix" result="shape"/>
<feGaussianBlur stdDeviation="10" result="effect1_foregroundBlur_216_167"/>
</filter>
<filter id="filter1_f_216_167" x="-20" y="5.56689" width="168" height="168" filterUnits="userSpaceOnUse" color-interpolation-filters="sRGB">
<feFlood flood-opacity="0" result="BackgroundImageFix"/>
<feBlend mode="normal" in="SourceGraphic" in2="BackgroundImageFix" result="shape"/>
<feGaussianBlur stdDeviation="10" result="effect1_foregroundBlur_216_167"/>
</filter>
<filter id="filter2_f_216_167" x="-20" y="26.8696" width="168" height="168" filterUnits="userSpaceOnUse" color-interpolation-filters="sRGB">
<feFlood flood-opacity="0" result="BackgroundImageFix"/>
<feBlend mode="normal" in="SourceGraphic" in2="BackgroundImageFix" result="shape"/>
<feGaussianBlur stdDeviation="10" result="effect1_foregroundBlur_216_167"/>
</filter>
<linearGradient id="paint0_linear_216_167" x1="64" y1="0" x2="64" y2="128" gradientUnits="userSpaceOnUse">
<stop stop-color="#F999FF"/>
<stop offset="1" stop-color="#832BC1"/>
</linearGradient>
<clipPath id="clip0_216_167">
<rect width="128" height="128" rx="29" fill="white"/>
</clipPath>
</defs>
</svg>
