<svg width="32" height="32" viewBox="0 0 32 32" fill="none" xmlns="http://www.w3.org/2000/svg">
<g clip-path="url(#clip0_46_4002)">
<path d="M16.1961 21.1529C15.3072 21.1529 14.4915 20.9307 13.749 20.4862C13.0065 20.0418 12.4131 19.4458 11.9686 18.698C11.5242 17.9503 11.302 17.132 11.302 16.2431C11.302 15.3542 11.5242 14.5359 11.9686 13.7882C12.4131 13.0405 13.0065 12.4444 13.749 12C14.4915 11.5555 15.3072 11.3333 16.1961 11.3333C17.0954 11.3333 17.9138 11.5555 18.651 12C19.3882 12.4444 19.9817 13.0405 20.4314 13.7882C20.8811 14.5359 21.1059 15.3542 21.1059 16.2431C21.1059 17.132 20.8811 17.9503 20.4314 18.698C19.9817 19.4458 19.3882 20.0418 18.651 20.4862C17.9138 20.9307 17.0954 21.1529 16.1961 21.1529ZM16.2117 6C16.4731 6 16.7032 6.10196 16.902 6.30588C17.1006 6.5098 17.1999 6.74771 17.1999 7.01961V8.94902C17.1999 9.21046 17.1006 9.44052 16.902 9.63922C16.7032 9.8379 16.4731 9.93725 16.2117 9.93725C15.9399 9.93725 15.7046 9.8379 15.5059 9.63922C15.3072 9.44052 15.2078 9.21046 15.2078 8.94902V7.01961C15.2078 6.74771 15.3072 6.5098 15.5059 6.30588C15.7046 6.10196 15.9399 6 16.2117 6ZM23.4432 8.99607C23.6313 9.19476 23.7254 9.43267 23.7254 9.7098C23.7254 9.98692 23.6313 10.2196 23.4432 10.4078L22.047 11.8039C21.8588 11.9921 21.6261 12.0889 21.3489 12.0941C21.0719 12.0993 20.8393 12.0026 20.651 11.8039C20.4627 11.6157 20.366 11.3882 20.3608 11.1216C20.3555 10.8549 20.4523 10.617 20.651 10.4078L22.0314 8.99607C22.2196 8.80783 22.4522 8.71372 22.7294 8.71372C23.0065 8.71372 23.2444 8.80783 23.4432 8.99607ZM26.4079 16.2431C26.4079 16.515 26.3111 16.7477 26.1176 16.9412C25.9241 17.1346 25.6914 17.2313 25.4195 17.2313H23.4903C23.2183 17.2313 22.9829 17.132 22.7843 16.9333C22.5857 16.7346 22.4863 16.5045 22.4863 16.2431C22.4863 15.9817 22.5857 15.749 22.7843 15.5451C22.9829 15.3412 23.2183 15.2392 23.4903 15.2392H25.4195C25.6914 15.2392 25.9241 15.3385 26.1176 15.5372C26.3111 15.7359 26.4079 15.9712 26.4079 16.2431ZM23.4432 23.4746C23.2444 23.6627 23.0065 23.7568 22.7294 23.7568C22.4522 23.7568 22.2196 23.6627 22.0314 23.4746L20.651 22.0784C20.4523 21.8901 20.3529 21.6601 20.3529 21.3882C20.3529 21.1163 20.4523 20.881 20.651 20.6824C20.8393 20.4941 21.0719 20.4 21.3489 20.4C21.6261 20.4 21.8536 20.4941 22.0314 20.6824L23.4432 22.0784C23.6313 22.2561 23.728 22.4836 23.7333 22.7607C23.7385 23.0379 23.6418 23.2758 23.4432 23.4746ZM16.2117 26.4706C15.9399 26.4706 15.7046 26.3712 15.5059 26.1725C15.3072 25.9738 15.2078 25.7385 15.2078 25.4667V23.5372C15.2078 23.2758 15.3072 23.0457 15.5059 22.847C15.7046 22.6483 15.9399 22.549 16.2117 22.549C16.4731 22.549 16.7032 22.6483 16.902 22.847C17.1006 23.0457 17.1999 23.2758 17.1999 23.5372V25.4667C17.1999 25.7385 17.1006 25.9738 16.902 26.1725C16.7032 26.3712 16.4731 26.4706 16.2117 26.4706ZM8.9647 23.4588C8.77646 23.2706 8.68235 23.0405 8.68235 22.7686C8.68235 22.4967 8.77646 22.2666 8.9647 22.0784L10.3608 20.6824C10.5386 20.4941 10.7686 20.4 11.051 20.4C11.3333 20.4 11.5686 20.4941 11.7569 20.6824C11.9555 20.8915 12.0523 21.132 12.0471 21.4039C12.0418 21.6758 11.9451 21.9059 11.7569 22.0941L10.3765 23.4746C10.1778 23.6627 9.94248 23.7568 9.67059 23.7568C9.39869 23.7568 9.16339 23.6575 8.9647 23.4588ZM6 16.2431C6 15.9712 6.09674 15.7359 6.29021 15.5372C6.48366 15.3385 6.72157 15.2392 7.00392 15.2392H8.91765C9.18954 15.2392 9.42483 15.3412 9.62353 15.5451C9.82222 15.749 9.92157 15.9817 9.92157 16.2431C9.92157 16.5045 9.82222 16.7346 9.62353 16.9333C9.42483 17.132 9.18954 17.2313 8.91765 17.2313H7.00392C6.72157 17.2313 6.48366 17.1346 6.29021 16.9412C6.09674 16.7477 6 16.515 6 16.2431ZM8.98039 8.99607C9.17909 8.8183 9.41438 8.72941 9.68627 8.72941C9.95817 8.72941 10.1882 8.8183 10.3765 8.99607L11.7569 10.4078C11.9451 10.5961 12.0392 10.8287 12.0392 11.1059C12.0392 11.383 11.9451 11.6157 11.7569 11.8039C11.5686 11.9921 11.3359 12.0889 11.0588 12.0941C10.7817 12.0993 10.549 12.0026 10.3608 11.8039L8.9647 10.4078C8.77646 10.2196 8.68497 9.98692 8.6902 9.7098C8.69543 9.43267 8.79216 9.19476 8.98039 8.99607Z" fill="#FFCC00"/>
</g>
<defs>
<clipPath id="clip0_46_4002">
<rect width="32" height="32" fill="white"/>
</clipPath>
</defs>
</svg>
