<svg width="36" height="36" viewBox="0 0 36 36" fill="none" xmlns="http://www.w3.org/2000/svg">
<path d="M18.2206 23.797C17.2206 23.797 16.3029 23.547 15.4676 23.047C14.6323 22.5471 13.9647 21.8765 13.4647 21.0352C12.9647 20.1941 12.7147 19.2735 12.7147 18.2735C12.7147 17.2735 12.9647 16.3529 13.4647 15.5117C13.9647 14.6706 14.6323 14 15.4676 13.5C16.3029 13 17.2206 12.75 18.2206 12.75C19.2324 12.75 20.153 13 20.9824 13.5C21.8117 14 22.4794 14.6706 22.9854 15.5117C23.4912 16.3529 23.7441 17.2735 23.7441 18.2735C23.7441 19.2735 23.4912 20.1941 22.9854 21.0352C22.4794 21.8765 21.8117 22.5471 20.9824 23.047C20.153 23.547 19.2324 23.797 18.2206 23.797ZM18.2382 6.75C18.5323 6.75 18.7911 6.86471 19.0147 7.09412C19.2382 7.32353 19.3499 7.59118 19.3499 7.89707V10.0676C19.3499 10.3618 19.2382 10.6206 19.0147 10.8441C18.7911 11.0676 18.5323 11.1794 18.2382 11.1794C17.9323 11.1794 17.6676 11.0676 17.4441 10.8441C17.2206 10.6206 17.1088 10.3618 17.1088 10.0676V7.89707C17.1088 7.59118 17.2206 7.32353 17.4441 7.09412C17.6676 6.86471 17.9323 6.75 18.2382 6.75ZM26.3736 10.1206C26.5853 10.3441 26.6911 10.6118 26.6911 10.9235C26.6911 11.2353 26.5853 11.4971 26.3736 11.7088L24.8029 13.2794C24.5911 13.4912 24.3293 13.6 24.0175 13.6059C23.7059 13.6118 23.4442 13.5029 23.2324 13.2794C23.0206 13.0676 22.9117 12.8118 22.9058 12.5118C22.8999 12.2118 23.0088 11.9441 23.2324 11.7088L24.7854 10.1206C24.997 9.90881 25.2588 9.80293 25.5705 9.80293C25.8823 9.80293 26.15 9.90881 26.3736 10.1206ZM29.7089 18.2735C29.7089 18.5794 29.6 18.8412 29.3823 19.0589C29.1646 19.2764 28.9029 19.3852 28.597 19.3852H26.4265C26.1205 19.3852 25.8558 19.2735 25.6323 19.05C25.4089 18.8264 25.2971 18.5676 25.2971 18.2735C25.2971 17.9794 25.4089 17.7176 25.6323 17.4882C25.8558 17.2588 26.1205 17.1441 26.4265 17.1441H28.597C28.9029 17.1441 29.1646 17.2559 29.3823 17.4794C29.6 17.7029 29.7089 17.9676 29.7089 18.2735ZM26.3736 26.4089C26.15 26.6205 25.8823 26.7264 25.5705 26.7264C25.2588 26.7264 24.997 26.6205 24.7854 26.4089L23.2324 24.8382C23.0088 24.6264 22.897 24.3676 22.897 24.0617C22.897 23.7558 23.0088 23.4911 23.2324 23.2677C23.4442 23.0559 23.7059 22.95 24.0175 22.95C24.3293 22.95 24.5853 23.0559 24.7854 23.2677L26.3736 24.8382C26.5853 25.0382 26.694 25.294 26.6999 25.6058C26.7058 25.9176 26.5971 26.1853 26.3736 26.4089ZM18.2382 29.7794C17.9323 29.7794 17.6676 29.6676 17.4441 29.444C17.2206 29.2205 17.1088 28.9559 17.1088 28.65V26.4794C17.1088 26.1853 17.2206 25.9265 17.4441 25.7029C17.6676 25.4794 17.9323 25.3677 18.2382 25.3677C18.5323 25.3677 18.7911 25.4794 19.0147 25.7029C19.2382 25.9265 19.3499 26.1853 19.3499 26.4794V28.65C19.3499 28.9559 19.2382 29.2205 19.0147 29.444C18.7911 29.6676 18.5323 29.7794 18.2382 29.7794ZM10.0853 26.3912C9.87352 26.1794 9.76764 25.9206 9.76764 25.6147C9.76764 25.3088 9.87352 25.05 10.0853 24.8382L11.6559 23.2677C11.8559 23.0559 12.1147 22.95 12.4323 22.95C12.75 22.95 13.0147 23.0559 13.2265 23.2677C13.45 23.5029 13.5588 23.7735 13.5529 24.0794C13.5471 24.3853 13.4382 24.6441 13.2265 24.8559L11.6735 26.4089C11.45 26.6205 11.1853 26.7264 10.8794 26.7264C10.5735 26.7264 10.3088 26.6146 10.0853 26.3912ZM6.75 18.2735C6.75 17.9676 6.85883 17.7029 7.07648 17.4794C7.29412 17.2559 7.56177 17.1441 7.87941 17.1441H10.0324C10.3382 17.1441 10.6029 17.2588 10.8265 17.4882C11.05 17.7176 11.1618 17.9794 11.1618 18.2735C11.1618 18.5676 11.05 18.8264 10.8265 19.05C10.6029 19.2735 10.3382 19.3852 10.0324 19.3852H7.87941C7.56177 19.3852 7.29412 19.2764 7.07648 19.0589C6.85883 18.8412 6.75 18.5794 6.75 18.2735ZM10.1029 10.1206C10.3265 9.92058 10.5912 9.82059 10.897 9.82059C11.2029 9.82059 11.4618 9.92058 11.6735 10.1206L13.2265 11.7088C13.4382 11.9206 13.5441 12.1823 13.5441 12.4941C13.5441 12.8059 13.4382 13.0676 13.2265 13.2794C13.0147 13.4912 12.7529 13.6 12.4412 13.6059C12.1294 13.6118 11.8676 13.5029 11.6559 13.2794L10.0853 11.7088C9.87352 11.4971 9.77059 11.2353 9.77648 10.9235C9.78236 10.6118 9.89118 10.3441 10.1029 10.1206Z" fill="#FAFDFF"/>
</svg>
