<svg width="36" height="36" viewBox="0 0 36 36" fill="none" xmlns="http://www.w3.org/2000/svg">
<rect width="36" height="36" rx="18" fill="#E09010"/>
<path d="M19.0968 7.07517C19.0968 6.48377 18.5914 5.97839 18 5.97839C17.4086 5.97839 16.914 6.48377 16.914 7.07517V9.25796C16.914 9.84936 17.4086 10.344 18 10.344C18.5914 10.344 19.0968 9.84936 19.0968 9.25796V7.07517ZM23.3979 11.0752C22.9785 11.4945 22.9785 12.1934 23.4086 12.6128C23.8172 13.0322 24.5269 13.0322 24.9463 12.602L26.4947 11.0537C26.914 10.6451 26.914 9.92463 26.4947 9.50528C26.0753 9.09667 25.3764 9.09667 24.957 9.51603L23.3979 11.0752ZM11.0538 12.602C11.4624 13.0322 12.1721 13.0322 12.5914 12.6128C13.0108 12.2042 13.0108 11.4838 12.6022 11.0752L11.0538 9.51603C10.6452 9.10743 9.93551 9.09667 9.51616 9.50528C9.0968 9.92463 9.0968 10.6451 9.50541 11.0429L11.0538 12.602ZM18 12.3332C14.9033 12.3332 12.3334 14.8924 12.3334 17.9999C12.3334 21.1074 14.9033 23.6666 18 23.6666C21.0968 23.6666 23.6559 21.1074 23.6559 17.9999C23.6559 14.8924 21.0968 12.3332 18 12.3332ZM28.914 19.0967C29.5054 19.0967 30 18.5913 30 17.9999C30 17.4085 29.5054 16.9139 28.914 16.9139H26.7312C26.1398 16.9139 25.6452 17.4085 25.6452 17.9999C25.6452 18.5913 26.1398 19.0967 26.7312 19.0967H28.914ZM7.0968 16.9139C6.49465 16.9139 6.00003 17.4085 6.00003 17.9999C6.00003 18.5913 6.49465 19.0967 7.0968 19.0967H9.26885C9.86025 19.0967 10.3656 18.5913 10.3656 17.9999C10.3656 17.4085 9.86025 16.9139 9.26885 16.9139H7.0968ZM24.9355 23.3977C24.5162 22.9784 23.8172 22.9891 23.3979 23.4085C22.9785 23.8171 22.9785 24.516 23.4086 24.9461L24.9678 26.4945C25.3764 26.9139 26.0861 26.9031 26.5054 26.4838C26.914 26.0644 26.914 25.3655 26.4947 24.9461L24.9355 23.3977ZM9.50541 24.9354C9.08605 25.3547 9.0753 26.0644 9.4839 26.473C9.90326 26.8924 10.6237 26.9031 11.0323 26.4945L12.5914 24.9461C13.0108 24.5268 13.0108 23.8171 12.6022 23.4085C12.1828 22.9891 11.4731 22.9891 11.0538 23.3977L9.50541 24.9354ZM19.0968 26.7418C19.0968 26.1504 18.5914 25.6558 18 25.6558C17.4086 25.6558 16.914 26.1504 16.914 26.7418V28.9246C16.914 29.516 17.4086 30.0214 18 30.0214C18.5914 30.0214 19.0968 29.516 19.0968 28.9246V26.7418Z" fill="#FFFBC7"/>
</svg>
