<svg width="37" height="36" viewBox="0 0 37 36" fill="none" xmlns="http://www.w3.org/2000/svg">
<path d="M18.7206 23.797C17.7206 23.797 16.8029 23.547 15.9676 23.047C15.1323 22.5471 14.4647 21.8765 13.9647 21.0352C13.4647 20.1941 13.2147 19.2735 13.2147 18.2735C13.2147 17.2735 13.4647 16.3529 13.9647 15.5117C14.4647 14.6706 15.1323 14 15.9676 13.5C16.8029 13 17.7206 12.75 18.7206 12.75C19.7324 12.75 20.653 13 21.4824 13.5C22.3117 14 22.9794 14.6706 23.4854 15.5117C23.9912 16.3529 24.2441 17.2735 24.2441 18.2735C24.2441 19.2735 23.9912 20.1941 23.4854 21.0352C22.9794 21.8765 22.3117 22.5471 21.4824 23.047C20.653 23.547 19.7324 23.797 18.7206 23.797ZM18.7382 6.75C19.0323 6.75 19.2911 6.86471 19.5147 7.09412C19.7382 7.32353 19.8499 7.59118 19.8499 7.89707V10.0676C19.8499 10.3618 19.7382 10.6206 19.5147 10.8441C19.2911 11.0676 19.0323 11.1794 18.7382 11.1794C18.4323 11.1794 18.1676 11.0676 17.9441 10.8441C17.7206 10.6206 17.6088 10.3618 17.6088 10.0676V7.89707C17.6088 7.59118 17.7206 7.32353 17.9441 7.09412C18.1676 6.86471 18.4323 6.75 18.7382 6.75ZM26.8736 10.1206C27.0853 10.3441 27.1911 10.6118 27.1911 10.9235C27.1911 11.2353 27.0853 11.4971 26.8736 11.7088L25.3029 13.2794C25.0911 13.4912 24.8293 13.6 24.5175 13.6059C24.2059 13.6118 23.9442 13.5029 23.7324 13.2794C23.5206 13.0676 23.4117 12.8118 23.4058 12.5118C23.3999 12.2118 23.5088 11.9441 23.7324 11.7088L25.2854 10.1206C25.497 9.90881 25.7588 9.80293 26.0705 9.80293C26.3823 9.80293 26.65 9.90881 26.8736 10.1206ZM30.2089 18.2735C30.2089 18.5794 30.1 18.8412 29.8823 19.0589C29.6646 19.2764 29.4029 19.3852 29.097 19.3852H26.9265C26.6205 19.3852 26.3558 19.2735 26.1323 19.05C25.9089 18.8264 25.7971 18.5676 25.7971 18.2735C25.7971 17.9794 25.9089 17.7176 26.1323 17.4882C26.3558 17.2588 26.6205 17.1441 26.9265 17.1441H29.097C29.4029 17.1441 29.6646 17.2559 29.8823 17.4794C30.1 17.7029 30.2089 17.9676 30.2089 18.2735ZM26.8736 26.4089C26.65 26.6205 26.3823 26.7264 26.0705 26.7264C25.7588 26.7264 25.497 26.6205 25.2854 26.4089L23.7324 24.8382C23.5088 24.6264 23.397 24.3676 23.397 24.0617C23.397 23.7558 23.5088 23.4911 23.7324 23.2677C23.9442 23.0559 24.2059 22.95 24.5175 22.95C24.8293 22.95 25.0853 23.0559 25.2854 23.2677L26.8736 24.8382C27.0853 25.0382 27.194 25.294 27.1999 25.6058C27.2058 25.9176 27.0971 26.1853 26.8736 26.4089ZM18.7382 29.7794C18.4323 29.7794 18.1676 29.6676 17.9441 29.444C17.7206 29.2205 17.6088 28.9559 17.6088 28.65V26.4794C17.6088 26.1853 17.7206 25.9265 17.9441 25.7029C18.1676 25.4794 18.4323 25.3677 18.7382 25.3677C19.0323 25.3677 19.2911 25.4794 19.5147 25.7029C19.7382 25.9265 19.8499 26.1853 19.8499 26.4794V28.65C19.8499 28.9559 19.7382 29.2205 19.5147 29.444C19.2911 29.6676 19.0323 29.7794 18.7382 29.7794ZM10.5853 26.3912C10.3735 26.1794 10.2676 25.9206 10.2676 25.6147C10.2676 25.3088 10.3735 25.05 10.5853 24.8382L12.1559 23.2677C12.3559 23.0559 12.6147 22.95 12.9323 22.95C13.25 22.95 13.5147 23.0559 13.7265 23.2677C13.95 23.503 14.0588 23.7735 14.0529 24.0794C14.0471 24.3853 13.9382 24.6441 13.7265 24.8559L12.1735 26.4089C11.95 26.6205 11.6853 26.7264 11.3794 26.7264C11.0735 26.7264 10.8088 26.6146 10.5853 26.3912ZM7.25 18.2735C7.25 17.9676 7.35883 17.7029 7.57648 17.4794C7.79412 17.2559 8.06177 17.1441 8.37941 17.1441H10.5324C10.8382 17.1441 11.1029 17.2588 11.3265 17.4882C11.55 17.7176 11.6618 17.9794 11.6618 18.2735C11.6618 18.5676 11.55 18.8264 11.3265 19.05C11.1029 19.2735 10.8382 19.3852 10.5324 19.3852H8.37941C8.06177 19.3852 7.79412 19.2764 7.57648 19.0589C7.35883 18.8412 7.25 18.5794 7.25 18.2735ZM10.6029 10.1206C10.8265 9.92058 11.0912 9.82059 11.397 9.82059C11.7029 9.82059 11.9618 9.92058 12.1735 10.1206L13.7265 11.7088C13.9382 11.9206 14.0441 12.1823 14.0441 12.4941C14.0441 12.8059 13.9382 13.0676 13.7265 13.2794C13.5147 13.4912 13.2529 13.6 12.9412 13.6059C12.6294 13.6118 12.3676 13.5029 12.1559 13.2794L10.5853 11.7088C10.3735 11.4971 10.2706 11.2353 10.2765 10.9235C10.2824 10.6118 10.3912 10.3441 10.6029 10.1206Z" fill="white"/>
</svg>
