<svg width="32" height="32" viewBox="0 0 32 32" fill="none" xmlns="http://www.w3.org/2000/svg">
<path d="M17.0246 5.35938C17.0246 4.80692 16.5525 4.33482 16 4.33482C15.4476 4.33482 14.9855 4.80692 14.9855 5.35938V7.39844C14.9855 7.9509 15.4476 8.41295 16 8.41295C16.5525 8.41295 17.0246 7.9509 17.0246 7.39844V5.35938ZM21.0424 9.09598C20.6507 9.48773 20.6507 10.1406 21.0525 10.5324C21.4342 10.9241 22.0971 10.9241 22.4889 10.5223L23.9353 9.0759C24.327 8.6942 24.327 8.02121 23.9353 7.62947C23.5435 7.24777 22.8906 7.24777 22.4989 7.63951L21.0424 9.09598ZM9.51117 10.5223C9.89287 10.9241 10.5558 10.9241 10.9476 10.5324C11.3393 10.1507 11.3393 9.47768 10.9576 9.09598L9.51117 7.63951C9.12948 7.25781 8.46653 7.24777 8.07479 7.62947C7.68305 8.02121 7.68305 8.6942 8.06475 9.06585L9.51117 10.5223ZM16 10.2712C13.1072 10.2712 10.7065 12.6618 10.7065 15.5647C10.7065 18.4676 13.1072 20.8583 16 20.8583C18.8929 20.8583 21.2835 18.4676 21.2835 15.5647C21.2835 12.6618 18.8929 10.2712 16 10.2712ZM26.1953 16.5893C26.7478 16.5893 27.2098 16.1172 27.2098 15.5647C27.2098 15.0123 26.7478 14.5502 26.1953 14.5502H24.1563C23.6038 14.5502 23.1418 15.0123 23.1418 15.5647C23.1418 16.1172 23.6038 16.5893 24.1563 16.5893H26.1953ZM5.81475 14.5502C5.25225 14.5502 4.79019 15.0123 4.79019 15.5647C4.79019 16.1172 5.25225 16.5893 5.81475 16.5893H7.84376C8.39622 16.5893 8.86832 16.1172 8.86832 15.5647C8.86832 15.0123 8.39622 14.5502 7.84376 14.5502H5.81475ZM22.4788 20.6071C22.0871 20.2154 21.4342 20.2254 21.0424 20.6172C20.6507 20.9989 20.6507 21.6518 21.0525 22.0536L22.5089 23.5C22.8906 23.8917 23.5536 23.8817 23.9453 23.49C24.327 23.0982 24.327 22.4453 23.9353 22.0536L22.4788 20.6071ZM8.06475 22.0435C7.673 22.4353 7.66296 23.0982 8.04466 23.4799C8.4364 23.8717 9.10939 23.8817 9.49108 23.5L10.9476 22.0536C11.3393 21.6618 11.3393 20.9989 10.9576 20.6172C10.5659 20.2254 9.90291 20.2254 9.51117 20.6071L8.06475 22.0435ZM17.0246 23.731C17.0246 23.1786 16.5525 22.7165 16 22.7165C15.4476 22.7165 14.9855 23.1786 14.9855 23.731V25.7701C14.9855 26.3225 15.4476 26.7946 16 26.7946C16.5525 26.7946 17.0246 26.3225 17.0246 25.7701V23.731Z" fill="white"/>
</svg>
