<svg width="128" height="128" viewBox="0 0 128 128" fill="none" xmlns="http://www.w3.org/2000/svg">
<rect x="1.2" y="1.2" width="125.6" height="125.6" rx="27.8" fill="url(#paint0_linear_179_252)" stroke="url(#paint1_linear_179_252)" stroke-width="2.4"/>
<g clip-path="url(#clip0_179_252)" filter="url(#filter0_b_179_252)">
<path d="M98.5578 37.2298L96.8112 41.114L95.1072 40.3478C93.2292 39.5033 91.032 40.2995 90.1834 42.1867C89.3347 44.0738 90.1675 46.2876 92.0547 47.1362C93.9236 47.9765 96.1414 47.1346 96.99 45.2474L97.748 43.5618L101.605 45.2961L100.847 46.9817C99.9982 48.8689 100.84 51.0867 102.709 51.9271C104.596 52.7757 106.805 51.9296 107.653 50.0425C108.502 48.1553 107.64 45.9832 105.762 45.1387L104.058 44.3725L105.804 40.4882L107.508 41.2545C109.39 42.0898 111.588 41.2936 112.436 39.4065C113.281 37.5284 112.452 35.3056 110.565 34.457C108.696 33.6166 106.474 34.4677 105.63 36.3457L104.867 38.0405L101.011 36.3062L101.773 34.6114C102.617 32.7334 101.779 30.5064 99.9105 29.666C98.0233 28.8174 95.8105 29.6727 94.966 31.5507C94.1174 33.4379 94.98 35.6099 96.8539 36.4635L98.5578 37.2298ZM97.6311 34.8086C96.6783 34.3802 96.2549 33.2646 96.6792 32.321C97.0993 31.3866 98.2149 30.9631 99.1402 31.3792C100.065 31.7952 100.489 32.9108 100.056 33.8727L99.2984 35.5583L97.6311 34.8086ZM108.24 39.5789L106.563 38.8251L107.321 37.1394C107.754 36.1775 108.869 35.754 109.794 36.1701C110.729 36.5903 111.143 37.7017 110.723 38.6361C110.299 39.5797 109.183 40.0032 108.24 39.5789ZM98.511 41.8894L100.27 37.9777L104.118 39.7078L102.359 43.6196L98.511 41.8894ZM94.3891 42.0183L96.0564 42.7681L95.2984 44.4537C94.87 45.4065 93.7544 45.83 92.8292 45.4139C91.9039 44.9978 91.4763 43.8914 91.9006 42.9478C92.3208 42.0134 93.4363 41.5899 94.3891 42.0183ZM104.998 46.7887C105.941 47.213 106.365 48.3285 105.944 49.263C105.52 50.2065 104.418 50.625 103.483 50.2048C102.558 49.7887 102.135 48.6732 102.563 47.7204L103.321 46.0348L104.998 46.7887Z" fill="white"/>
</g>
<path d="M74.4903 47.9093C74.8577 48.0658 75.2544 47.9204 75.4332 47.5496C76.1885 46.0297 76.4701 44.1105 76.1779 42.2271C75.8845 40.3362 75.0408 38.5841 73.8542 37.3731C73.5715 37.0739 73.1493 37.0555 72.8478 37.3234C72.5314 37.5936 72.5475 38.0409 72.8681 38.3876C73.8437 39.4178 74.5334 40.866 74.7783 42.4443C75.022 44.015 74.7875 45.599 74.186 46.8816C73.993 47.308 74.1058 47.7403 74.4903 47.9093ZM65.663 47.4722C67.4571 47.1938 68.6701 45.3818 68.3687 43.4388C68.0707 41.5181 66.3822 40.2172 64.5807 40.4968C62.7866 40.7751 61.5603 42.5511 61.856 44.4569C62.1649 46.3987 63.8614 47.7517 65.663 47.4722ZM71.2116 46.3825C71.5555 46.535 71.9534 46.3971 72.1345 46.0411C72.6053 45.1447 72.787 43.9578 72.6045 42.7815C72.4209 41.5979 71.8891 40.5292 71.1677 39.8102C70.8872 39.5259 70.4662 39.515 70.1871 39.7794C69.8581 40.0667 69.8593 40.5164 70.2068 40.8893C70.7138 41.4053 71.0682 42.1661 71.1975 42.9998C71.3258 43.8262 71.21 44.6522 70.8929 45.3113C70.6822 45.7709 70.8087 46.1935 71.2116 46.3825ZM65.4643 46.1917C64.4295 46.3523 63.4061 45.5048 63.2109 44.2467C63.014 43.0269 63.7383 41.9464 64.7805 41.7847C65.8227 41.6229 66.8306 42.4195 67.0212 43.6478C67.2153 44.8985 66.5065 46.03 65.4643 46.1917ZM62.1057 55.2056L71.3889 53.7652C72.6693 53.5665 73.2248 53.0687 73.0897 52.1977C72.7732 50.1579 69.8022 47.8134 65.8045 48.4337C61.8143 49.0528 59.686 52.1885 60.0024 54.2283C60.1376 55.0993 60.8178 55.4054 62.1057 55.2056ZM61.6602 53.9558C61.4816 53.9835 61.4065 53.9418 61.3845 53.8004C61.2078 52.6614 62.7214 50.2309 66.0043 49.7215C69.2948 49.211 71.4736 51.0685 71.6504 52.2075C71.6723 52.349 71.6134 52.4115 71.4347 52.4392L61.6602 53.9558Z" fill="#30D158"/>
<path d="M59.1993 89.0944L49.4122 59.6394L75.4751 76.4298C74.3011 78.2548 73.1276 80.1034 71.956 81.9489L71.9553 81.95L71.5791 82.5427L72.0086 83.0979L76.167 88.4729L70.7987 92.6012L66.6373 87.2549L66.1087 86.5758L65.3583 86.9973C63.87 87.8335 62.133 88.3961 60.7403 88.7505C60.135 88.9045 59.6039 89.0169 59.1993 89.0944Z" fill="black" stroke="white" stroke-width="2"/>
<path d="M60.0113 10.76C53.6041 10.76 48.3156 16.0485 48.3156 22.4445C48.3156 28.8404 53.6154 34.1289 60.0226 34.1289C66.4185 34.1289 71.6957 28.8404 71.6957 22.4445C71.6957 16.0485 66.4072 10.76 60.0113 10.76ZM60.0113 13.0879C65.1981 13.0879 69.3453 17.2577 69.3453 22.4445C69.3453 27.6313 65.1981 31.7898 60.0226 31.7898C54.8358 31.7898 50.666 27.6313 50.6547 22.4445C50.6434 17.2577 54.8245 13.0879 60.0113 13.0879ZM60.0226 20.5686C59.4011 20.5686 59.0395 20.9189 59.0282 21.5744L58.8587 27.0098C58.8361 27.6765 59.3333 28.1624 60.0339 28.1624C60.7345 28.1624 61.2204 27.6878 61.1978 27.0211L61.0396 21.5744C61.017 20.9302 60.6554 20.5686 60.0226 20.5686ZM60.0226 16.817C59.2881 16.817 58.6892 17.3481 58.6892 18.0713C58.6892 18.7832 59.2768 19.3143 60.0226 19.3143C60.7571 19.3143 61.356 18.7832 61.356 18.0713C61.356 17.3594 60.7458 16.817 60.0226 16.817Z" fill="#0A84FF"/>
<g clip-path="url(#clip1_179_252)">
<path d="M18.6826 52.6875C19.3022 55.3743 21.4524 56.6527 23.996 56.0662C25.4495 55.731 26.6151 54.8012 27.3446 53.4385L28.779 50.7072C28.9781 50.3134 29.2314 50.1043 29.5728 50.0255L40.0004 47.621C40.3418 47.5423 40.6611 47.6194 41.0125 47.8862L43.4981 49.7136C44.7507 50.6192 46.2057 50.9447 47.6592 50.6095C50.2028 50.023 51.5761 47.932 50.9566 45.2453C50.69 44.0891 50.1346 42.8371 49.3699 41.4827C48.1616 39.3608 46.275 36.5603 44.6059 34.4519C43.1858 32.6688 42.4423 31.8081 39.8929 31.8162C37.656 31.8217 34.6754 32.1727 31.1408 32.9878C27.6062 33.8029 24.7618 34.7951 22.7484 35.7696C20.4639 36.8763 20.1613 37.9781 19.6655 40.2031C19.0882 42.8295 18.6184 46.1733 18.4614 48.6101C18.3671 50.1626 18.416 51.5314 18.6826 52.6875ZM20.7476 52.1882C20.5927 51.5165 20.5615 50.6771 20.6337 49.4312C20.785 46.7175 21.3056 43.1416 21.8481 40.4652C22.11 39.1871 22.2685 38.4664 23.4968 37.8584C25.4137 36.9177 28.1699 35.9458 31.6385 35.146C35.096 34.3487 38.0105 34.0129 40.1458 34.0192C41.5162 34.0279 41.9523 34.6116 42.7585 35.6433C44.4402 37.8068 46.4302 40.8038 47.7875 43.1696C48.398 44.2581 48.7265 45.0289 48.8814 45.7006C49.2089 47.1211 48.4185 48.2195 47.1192 48.5191C46.3264 48.7019 45.4481 48.4638 44.6529 47.8818L41.8607 45.8816C41.1764 45.3783 40.6674 45.1826 39.7204 45.401L28.8633 47.9046C27.9053 48.1255 27.5335 48.5244 27.1386 49.2764L25.5153 52.2948C25.0553 53.1663 24.3589 53.7675 23.5771 53.9478C22.2668 54.25 21.0752 53.6086 20.7476 52.1882ZM23.9956 43.0895C24.1378 43.7061 24.6121 44.0027 25.2287 43.8605L27.0786 43.4339L27.4925 45.2287C27.6347 45.8453 28.1005 46.1554 28.7061 46.0158C29.3007 45.8787 29.5837 45.3959 29.4415 44.7793L29.0276 42.9844L30.7674 42.5833C31.4391 42.4284 31.7576 41.949 31.6154 41.3324C31.4783 40.7378 30.982 40.4463 30.3103 40.6012L28.5706 41.0024L28.1592 39.2186C28.017 38.602 27.5512 38.2919 26.9566 38.429C26.351 38.5687 26.068 39.0514 26.2102 39.668L26.6216 41.4519L24.7717 41.8784C24.155 42.0206 23.8585 42.4949 23.9956 43.0895ZM39.84 39.3315C40.7649 39.1182 41.3072 38.251 41.0939 37.326C40.8806 36.4011 40.0108 35.8478 39.0859 36.0611C38.1829 36.2693 37.6212 37.1527 37.8345 38.0776C38.0478 39.0025 38.9371 39.5397 39.84 39.3315ZM37.3314 43.389C38.2563 43.1757 38.7986 42.3085 38.5878 41.3945C38.3745 40.4696 37.5048 39.9164 36.5798 40.1296C35.6659 40.3404 35.1152 41.2212 35.3285 42.1461C35.5392 43.0601 36.4175 43.5997 37.3314 43.389Z" fill="#5E5CE6"/>
</g>
<g clip-path="url(#clip2_179_252)">
<path d="M39.9341 59.1021L40.1679 58.3155C40.2864 57.9171 40.1187 57.5375 39.7338 57.4121L39.467 57.3196C39.1225 57.2075 38.7569 57.4357 38.6348 57.8105L38.3706 58.5872L39.9341 59.1021ZM35.6175 70.2904L36.7003 69.0128L39.6898 59.8349L38.1331 59.3335L35.1471 68.5181L35.219 70.155C35.2304 70.3436 35.4938 70.4294 35.6175 70.2904ZM35.3575 76.0938L43.1803 72.1151C44.4696 71.4593 44.8458 70.3213 44.115 68.8844L40.5084 61.7935L39.8451 63.8128L42.7105 69.4465C43.0384 70.0912 42.8599 70.5877 42.41 70.8165L34.7617 74.7065C34.144 75.0207 33.6443 74.8691 33.3164 74.2245L29.5221 66.7643C29.1942 66.1197 29.366 65.6266 29.9838 65.3124L35.6847 62.4128L36.3379 60.3902L29.2134 64.0138C27.763 64.7515 27.3868 65.8895 28.1176 67.3265L32.0349 75.0284C32.7658 76.4654 33.9071 76.8315 35.3575 76.0938Z" fill="#FF9F0A"/>
</g>
<path d="M77.7296 16.1792C76.6473 19.7727 78.5989 24.234 82.3823 28.6781C82.5925 28.9249 82.8616 29.1896 83.0804 29.2555C83.2992 29.3214 83.6697 29.2494 83.9812 29.1597C89.5981 27.547 93.6805 24.903 94.7629 21.3095C95.6982 18.2042 94.2011 15.4034 91.4492 14.5745C89.8418 14.0904 88.3674 14.4449 87.2754 15.3276C86.8668 14.0021 85.8276 12.8813 84.2202 12.3972C81.4598 11.5658 78.665 13.0738 77.7296 16.1792ZM79.4658 16.693C80.1046 14.5722 81.935 13.5539 83.8117 14.1192C85.3265 14.5754 85.9002 15.7487 86.1896 16.7079C86.3213 17.1239 86.4482 17.2815 86.667 17.3474C86.8942 17.4158 87.0728 17.3411 87.4182 17.078C88.2262 16.4677 89.3239 15.7794 90.8303 16.2331C92.7154 16.8009 93.679 18.6608 93.0402 20.7815C92.148 23.7438 88.0793 26.0982 83.8182 27.3849C83.7272 27.4126 83.6666 27.431 83.6329 27.4209C83.5993 27.4107 83.5589 27.3619 83.5068 27.2911C80.6651 23.8651 78.5736 19.6553 79.4658 16.693ZM86.8837 19.3402C87.0054 18.9363 86.7516 18.5294 86.3561 18.4103C85.9521 18.2886 85.5158 18.4876 85.3942 18.8916L84.5754 21.6098L84.2499 22.9345L83.8131 22.0687L83.3888 21.2524C83.3057 21.0714 83.1375 20.9289 82.9607 20.8757C82.5736 20.7591 82.2064 20.9422 82.0923 21.3209C82.029 21.5313 82.0649 21.7165 82.1843 21.8993L83.8371 24.7011C83.9774 24.9361 84.1229 25.0626 84.3333 25.1259C84.5353 25.1868 84.7264 25.1617 84.9732 25.0433L87.9069 23.623C88.1074 23.5365 88.2313 23.3994 88.2946 23.189C88.4087 22.8103 88.2037 22.4548 87.825 22.3408C87.6398 22.285 87.4209 22.3108 87.26 22.4184L86.4556 22.8646L85.6048 23.3426L86.065 22.0585L86.8837 19.3402Z" fill="#FF453A"/>
<path d="M89.5234 58.4824C89.7168 58.4824 89.875 58.3418 89.9277 58.1309C90.2793 56.1621 90.1914 56.127 92.3535 55.7227C92.5645 55.6699 92.7051 55.5117 92.7051 55.3184C92.7051 55.1074 92.5645 54.9492 92.3535 54.9141C90.1914 54.4922 90.2617 54.4219 89.9277 52.5059C89.875 52.2949 89.7344 52.1367 89.5234 52.1367C89.3125 52.1367 89.1719 52.2949 89.1191 52.5059C88.7148 54.4219 88.8379 54.4922 86.6934 54.9141C86.4824 54.9492 86.3418 55.1074 86.3418 55.3184C86.3418 55.5293 86.4824 55.6699 86.7109 55.7227C88.8379 56.0918 88.7148 56.1621 89.1191 58.1133C89.1719 58.3418 89.3125 58.4824 89.5234 58.4824ZM83.8281 66.6562C84.1094 66.6562 84.3555 66.4277 84.4082 66.1465C84.9531 63.1406 84.7773 63.0527 88.0293 62.543C88.3281 62.4727 88.5391 62.2441 88.5391 61.9453C88.5391 61.6465 88.3281 61.4004 88.0293 61.3477C84.7773 60.8379 84.9531 60.7148 84.4082 57.7793C84.3555 57.4629 84.127 57.2344 83.8281 57.2344C83.5117 57.2344 83.3008 57.4453 83.2305 57.7793C82.668 60.6973 82.8613 60.8027 79.6094 61.3477C79.3105 61.4004 79.0996 61.6465 79.0996 61.9453C79.0996 62.2617 79.3105 62.4727 79.6621 62.543C82.8438 63.0352 82.668 63.1406 83.2305 66.0938C83.3008 66.4277 83.4941 66.6562 83.8281 66.6562ZM91.9492 79.5938C92.3535 79.5938 92.6699 79.2949 92.7402 78.8906C93.8301 72.6152 94.4277 71.7891 100.633 70.9629C101.072 70.9102 101.371 70.5762 101.371 70.1543C101.371 69.75 101.072 69.4336 100.633 69.3633C94.4629 68.5371 93.6719 67.7637 92.7402 61.4531C92.6699 61.0312 92.3535 60.7324 91.9492 60.7324C91.5449 60.7324 91.2285 61.0137 91.1406 61.4355C90.0684 67.7285 89.4531 68.5371 83.248 69.3633C82.8086 69.4336 82.5098 69.75 82.5098 70.1543C82.5098 70.5762 82.8086 70.9102 83.248 70.9629C89.418 71.6836 90.2266 72.5625 91.1406 78.873C91.2109 79.2949 91.5098 79.5938 91.9492 79.5938ZM95.4121 62.666C95.7285 64.459 95.9043 65.1973 96.8008 65.6719C99.0859 64.793 101.582 64.3359 104.043 64.3359C111.514 64.3359 117.648 68.8535 117.648 75.7266C117.648 78.8379 115.979 81.7559 113.482 83.918C111.936 81.9492 109.475 80.7363 106.609 80.7363C102.25 80.7363 99.0332 83.0215 99.0332 86.3789C99.0332 86.6074 99.0508 86.8359 99.0859 87.0469C92.2656 86.8008 86.9746 83.4609 86.9746 77.2734C86.9746 76.3945 87.1328 75.5684 87.3965 74.8125C86.9043 73.9863 85.8848 73.7754 84.3555 73.5293C83.9512 74.6895 83.7402 75.9375 83.7402 77.2559C83.7402 85.4648 90.7539 90.2812 99.7539 90.2812C100.387 90.2812 101.037 90.2461 101.67 90.2109C102.443 90.5273 103.357 90.7031 104.377 90.7031C107.014 90.7031 109.633 90 112.006 88.7871C112.006 88.9102 112.023 89.0508 112.023 89.1738C112.023 91.1777 110.846 93.1641 108.912 94.4121C108.297 94.834 107.893 95.3086 107.893 96.0293C107.893 96.8555 108.543 97.5234 109.545 97.5234C109.967 97.5234 110.283 97.4004 110.67 97.1367C113.482 95.3086 115.24 92.25 115.24 89.1387C115.24 88.3477 115.152 87.5918 114.959 86.8887C118.475 84.1113 120.883 80.1035 120.883 75.7266C120.883 67.0605 113.395 61.084 104.025 61.084C101.072 61.084 98.1016 61.6465 95.4121 62.666ZM102.285 86.3262C102.285 84.9375 104.271 83.9883 106.82 83.9883C108.49 83.9883 109.896 84.6562 110.828 85.7637C108.842 86.8535 106.592 87.4863 104.377 87.4863C103.182 87.4863 102.285 87.0117 102.285 86.3262Z" fill="#FFD60A"/>
<path d="M86 114.733C90.9658 114.733 95.0791 110.629 95.0791 105.654C95.0791 100.688 90.9658 96.5752 85.9912 96.5752C81.0254 96.5752 76.9209 100.688 76.9209 105.654C76.9209 110.629 81.0342 114.733 86 114.733ZM78.7139 105.654C78.7139 101.875 81.5439 98.79 85.209 98.4033V105.101L80.041 109.855C79.2061 108.678 78.7139 107.228 78.7139 105.654ZM86.7998 105.127V98.4033C90.4648 98.8076 93.2861 101.884 93.2949 105.654C93.2949 107.228 92.8027 108.687 91.959 109.873L86.7998 105.127ZM85.209 107.333V112.905C83.627 112.738 82.2119 112.07 81.0957 111.06L85.209 107.333ZM86.7998 107.359L90.8955 111.068C89.7881 112.07 88.373 112.729 86.7998 112.905V107.359Z" fill="#BF5AF2"/>
<path d="M32.6539 26.5583H39.3461C40.6959 26.5583 41.3927 25.8489 41.3927 24.4929V18.7926C41.3927 17.9136 41.2797 17.5119 40.7335 16.9531L37.4502 13.6196C36.9166 13.0797 36.4771 12.9541 35.6861 12.9541H32.6539C31.3104 12.9541 30.6073 13.6635 30.6073 15.0258V24.4929C30.6073 25.8489 31.3104 26.5583 32.6539 26.5583ZM32.7606 25.3027C32.1579 25.3027 31.8566 24.9888 31.8566 24.4113V15.1011C31.8566 14.5299 32.1579 14.2097 32.7669 14.2097H35.4287V17.6249C35.4287 18.5352 35.8744 18.9746 36.7785 18.9746H40.1434V24.4113C40.1434 24.9888 39.8421 25.3027 39.2331 25.3027H32.7606ZM36.8977 17.876C36.6341 17.876 36.5211 17.763 36.5211 17.5056V14.3729L39.9739 17.876H36.8977ZM38.2098 20.6194H33.6772C33.4386 20.6194 33.2691 20.7889 33.2691 21.0086C33.2691 21.2347 33.4386 21.4104 33.6772 21.4104H38.2098C38.4358 21.4104 38.6053 21.2347 38.6053 21.0086C38.6053 20.7889 38.4358 20.6194 38.2098 20.6194ZM38.2098 22.7162H33.6772C33.4386 22.7162 33.2691 22.892 33.2691 23.118C33.2691 23.3378 33.4386 23.5073 33.6772 23.5073H38.2098C38.4358 23.5073 38.6053 23.3378 38.6053 23.118C38.6053 22.892 38.4358 22.7162 38.2098 22.7162Z" fill="#FF375F"/>
<path d="M59.356 120.704L67.1708 116.174C68.0145 115.682 68.3862 115.26 68.3862 114.627C68.3862 113.984 68.0145 113.573 67.1708 113.07L65.8047 112.277L67.1708 111.483C68.0145 110.991 68.3862 110.569 68.3862 109.936C68.3862 109.304 68.0145 108.882 67.1708 108.39L65.5536 107.445L67.1708 106.511C68.0145 106.019 68.3862 105.597 68.3862 104.964C68.3862 104.321 68.0145 103.91 67.1708 103.407L59.356 98.8772C58.8337 98.5759 58.4219 98.4252 58 98.4252C57.5681 98.4252 57.1562 98.5759 56.6339 98.8772L48.8192 103.407C47.9754 103.91 47.6038 104.321 47.6038 104.964C47.6038 105.597 47.9754 106.019 48.8192 106.511L50.4364 107.455L48.8192 108.39C47.9754 108.882 47.6038 109.304 47.6038 109.936C47.6038 110.569 47.9754 110.991 48.8192 111.483L50.1953 112.277L48.8192 113.07C47.9754 113.573 47.6038 113.984 47.6038 114.627C47.6038 115.26 47.9754 115.682 48.8192 116.174L56.6339 120.704C57.1562 121.006 57.5681 121.156 58 121.156C58.4219 121.156 58.8337 121.006 59.356 120.704ZM58 109.404C57.8594 109.404 57.7388 109.354 57.5882 109.273L50.1953 105.055C50.1451 105.035 50.125 105.004 50.125 104.964C50.125 104.914 50.1451 104.894 50.1953 104.864L57.5882 100.655C57.7388 100.565 57.8594 100.525 58 100.525C58.1306 100.525 58.2511 100.565 58.4018 100.655L65.8047 104.864C65.8449 104.894 65.875 104.914 65.875 104.964C65.875 105.004 65.8449 105.035 65.8047 105.055L58.4018 109.273C58.2511 109.354 58.1306 109.404 58 109.404ZM58 111.493C58.4219 111.493 58.8337 111.353 59.356 111.041L63.5949 108.59L65.8047 109.836C65.8449 109.866 65.875 109.886 65.875 109.936C65.875 109.987 65.8449 110.007 65.8047 110.037L58.4018 114.246C58.2511 114.336 58.1306 114.376 58 114.376C57.8594 114.376 57.7388 114.336 57.5882 114.246L50.1953 110.037C50.1451 110.007 50.125 109.987 50.125 109.936C50.125 109.886 50.1451 109.866 50.1953 109.836L52.3951 108.58L56.6339 111.041C57.1562 111.353 57.5681 111.493 58 111.493Z" fill="#64D2FF"/>
<path d="M23.0167 94L29 88.0167V92.3333H39V88.0333L44.9667 94L39 99.9833V95.6667H29V99.9833L23.0167 94ZM20.6667 94L30.6667 104V97.3333H37.3333V104L47.3333 94L37.3333 84V90.6667H30.6667V84L20.6667 94Z" fill="white"/>
<path d="M34.8333 95.6667H39.0333V99.9833L44.9667 94L39.0333 88.0333V92.3667H34.8333H29V88.0333L23.0167 94L29 99.9833V95.6667H34.8333Z" fill="black"/>
<g clip-path="url(#clip3_179_252)">
<path d="M11.0047 66.3466L12.023 66.8898L11.484 67.9003C11.1455 68.5348 12.062 69.0237 12.4004 68.3892L12.9395 67.3788L13.956 67.916C14.5905 68.2545 15.0795 67.338 14.439 67.0013L13.4285 66.4623L13.9717 65.4439C14.3144 64.8016 13.3919 64.3145 13.0534 64.949L12.512 65.9733L11.4918 65.4241C10.8573 65.0856 10.3684 66.0021 11.0047 66.3466ZM19.2236 69.3123C19.9263 69.0986 20.3275 68.3466 20.1119 67.6378C19.8981 66.9351 19.1461 66.5339 18.4434 66.7477C17.7346 66.9633 17.3335 67.7153 17.5472 68.418C17.7629 69.1268 18.5148 69.5279 19.2236 69.3123ZM8.76692 72.4935C9.46964 72.2797 9.87081 71.5277 9.6552 70.819C9.44142 70.1163 8.68943 69.7151 7.98671 69.9289C7.27799 70.1445 6.87681 70.8965 7.09059 71.5992C7.3062 72.3079 8.0582 72.7091 8.76692 72.4935ZM14.7907 73.5285C15.4994 73.3129 15.9006 72.5609 15.6868 71.8582C15.4694 71.1434 14.7252 70.7464 14.0105 70.9639C13.3078 71.1777 12.9066 71.9297 13.1222 72.6384C13.336 73.3411 14.088 73.7423 14.7907 73.5285ZM8.75631 76.1255L9.77464 76.6687L9.22955 77.6811C8.89289 78.3216 9.80938 78.8105 10.1479 78.176L10.6911 77.1577L11.7035 77.7028C12.338 78.0413 12.8269 77.1248 12.1906 76.7803L11.1801 76.2412L11.7233 75.2228C12.0618 74.5883 11.1453 74.0994 10.8068 74.7339L10.2636 75.7522L9.23924 75.2108C8.60474 74.8723 8.11581 75.7888 8.75631 76.1255ZM18.312 73.2184L19.3304 73.7617L18.7931 74.7782C18.4486 75.4145 19.3651 75.9034 19.7036 75.2689L20.2487 74.2566L21.2592 74.7957C21.8937 75.1342 22.3826 74.2177 21.7481 73.8792L20.7358 73.3341L21.2791 72.3158C21.6176 71.6813 20.7011 71.1924 20.3626 71.8269L19.8193 72.8452L18.801 72.3019C18.1665 71.9634 17.6715 72.8818 18.312 73.2184ZM16.5832 79.4205C17.2919 79.2049 17.6931 78.4529 17.4775 77.7442C17.2619 77.0354 16.5099 76.6343 15.8012 76.8499C15.0984 77.0637 14.6973 77.8157 14.9129 78.5244C15.1285 79.2331 15.8805 79.6343 16.5832 79.4205Z" fill="#63E6E2"/>
</g>
<defs>
<filter id="filter0_b_179_252" x="-176" y="-236" width="554.309" height="554.309" filterUnits="userSpaceOnUse" color-interpolation-filters="sRGB">
<feFlood flood-opacity="0" result="BackgroundImageFix"/>
<feGaussianBlur in="BackgroundImageFix" stdDeviation="128"/>
<feComposite in2="SourceAlpha" operator="in" result="effect1_backgroundBlur_179_252"/>
<feBlend mode="normal" in="SourceGraphic" in2="effect1_backgroundBlur_179_252" result="shape"/>
</filter>
<linearGradient id="paint0_linear_179_252" x1="58.5" y1="-7.7649e-07" x2="71" y2="64" gradientUnits="userSpaceOnUse">
<stop stop-color="#202021"/>
<stop offset="1" stop-color="#0C0C0D"/>
</linearGradient>
<linearGradient id="paint1_linear_179_252" x1="8.96703" y1="-2.83801e-05" x2="69.951" y2="140.395" gradientUnits="userSpaceOnUse">
<stop stop-color="#EBEBF5" stop-opacity="0.4"/>
<stop offset="0.405687" stop-color="#EBEBF5" stop-opacity="0.01"/>
<stop offset="0.574372" stop-color="#EBEBF5" stop-opacity="0.01"/>
<stop offset="1" stop-color="#EBEBF5" stop-opacity="0.12"/>
</linearGradient>
<clipPath id="clip0_179_252">
<rect width="32" height="32" fill="white" transform="translate(93.1237 20) rotate(24.212)"/>
</clipPath>
<clipPath id="clip1_179_252">
<rect width="36" height="36" fill="white" transform="translate(12 30.0892) rotate(-12.9852)"/>
</clipPath>
<clipPath id="clip2_179_252">
<rect width="24" height="24" fill="white" transform="translate(20 62.8803) rotate(-26.9585)"/>
</clipPath>
<clipPath id="clip3_179_252">
<rect width="20" height="20" fill="white" transform="translate(2 65.821) rotate(-16.9208)"/>
</clipPath>
</defs>
</svg>
