<svg width="132" height="132" viewBox="0 0 132 132" fill="none" xmlns="http://www.w3.org/2000/svg">
<rect x="1" y="1" width="130" height="130" rx="30" stroke="#34C759" stroke-width="2"/>
<g clip-path="url(#clip0_179_1372)" filter="url(#filter0_b_179_1372)">
<path d="M100.558 39.2297L98.811 43.114L97.1071 42.3478C95.2291 41.5033 93.0318 42.2994 92.1832 44.1866C91.3346 46.0738 92.1674 48.2875 94.0546 49.1361C95.9234 49.9765 98.1413 49.1345 98.9899 47.2474L99.7478 45.5617L103.605 47.296L102.847 48.9816C101.998 50.8688 102.84 53.0867 104.709 53.927C106.596 54.7756 108.805 53.9296 109.653 52.0424C110.502 50.1552 109.639 47.9832 107.761 47.1387L106.057 46.3725L107.804 42.4882L109.508 43.2544C111.39 44.0897 113.587 43.2936 114.436 41.4064C115.281 39.5284 114.452 37.3055 112.565 36.4569C110.696 35.6165 108.474 36.4676 107.629 38.3457L106.867 40.0405L103.01 38.3062L103.773 36.6114C104.617 34.7334 103.779 32.5063 101.91 31.666C100.023 30.8174 97.8104 31.6726 96.9659 33.5506C96.1173 35.4378 96.9798 37.6098 98.8537 38.4635L100.558 39.2297ZM99.6309 36.8085C98.6782 36.3801 98.2547 35.2645 98.679 34.321C99.0992 33.3865 100.215 32.963 101.14 33.3791C102.065 33.7952 102.489 34.9107 102.056 35.8726L101.298 37.5583L99.6309 36.8085ZM110.239 41.5789L108.563 40.825L109.321 39.1394C109.753 38.1775 110.869 37.754 111.794 38.17C112.729 38.5902 113.143 39.7016 112.723 40.6361C112.299 41.5797 111.183 42.0032 110.239 41.5789ZM100.511 43.8894L102.27 39.9776L106.118 41.7078L104.359 45.6195L100.511 43.8894ZM96.3889 44.0183L98.0562 44.768L97.2983 46.4537C96.8698 47.4064 95.7543 47.8299 94.829 47.4138C93.9038 46.9978 93.4761 45.8914 93.9004 44.9478C94.3206 44.0134 95.4362 43.5899 96.3889 44.0183ZM106.997 48.7886C107.941 49.2129 108.365 50.3285 107.944 51.2629C107.52 52.2065 106.418 52.6249 105.483 52.2048C104.558 51.7887 104.135 50.6731 104.563 49.7204L105.321 48.0347L106.997 48.7886Z" fill="#34C759"/>
</g>
<path d="M76.4904 49.9093C76.8577 50.0658 77.2544 49.9203 77.4332 49.5495C78.1885 48.0296 78.4701 46.1105 78.1779 44.2271C77.8845 42.3362 77.0409 40.5841 75.8543 39.373C75.5715 39.0738 75.1494 39.0555 74.8479 39.3234C74.5315 39.5935 74.5475 40.0408 74.8681 40.3875C75.8437 41.4178 76.5335 42.866 76.7783 44.4442C77.0221 46.015 76.7875 47.599 76.1861 48.8816C75.993 49.308 76.1058 49.7403 76.4904 49.9093ZM67.663 49.4721C69.4571 49.1938 70.6702 47.3817 70.3687 45.4387C70.0707 43.5181 68.3822 42.2172 66.5807 42.4967C64.7866 42.7751 63.5603 44.5511 63.856 46.4569C64.1649 48.3987 65.8614 49.7517 67.663 49.4721ZM73.2116 48.3825C73.5555 48.535 73.9534 48.397 74.1345 48.0411C74.6053 47.1447 74.7871 45.9577 74.6046 44.7815C74.4209 43.5978 73.8892 42.5292 73.1677 41.8101C72.8873 41.5258 72.4663 41.5149 72.1871 41.7793C71.8581 42.0667 71.8593 42.5163 72.2069 42.8893C72.7138 43.4053 73.0682 44.166 73.1976 44.9998C73.3258 45.8261 73.21 46.6522 72.893 47.3113C72.6822 47.7709 72.8088 48.1934 73.2116 48.3825ZM67.4643 48.1917C66.4295 48.3523 65.4061 47.5047 65.2109 46.2466C65.014 45.0269 65.7383 43.9463 66.7805 43.7846C67.8227 43.6229 68.8307 44.4195 69.0213 45.6478C69.2153 46.8985 68.5065 48.03 67.4643 48.1917ZM64.1058 57.2055L73.3889 55.7652C74.6694 55.5665 75.2249 55.0686 75.0897 54.1976C74.7732 52.1579 71.8022 49.8134 67.8046 50.4336C63.8143 51.0527 61.686 54.1885 62.0025 56.2282C62.1376 57.0992 62.8179 57.4054 64.1058 57.2055ZM63.6603 55.9558C63.4816 55.9835 63.4065 55.9418 63.3846 55.8003C63.2078 54.6613 64.7214 52.2309 68.0044 51.7215C71.2948 51.211 73.4737 53.0685 73.6504 54.2075C73.6723 54.3489 73.6134 54.4114 73.4348 54.4392L63.6603 55.9558Z" fill="#34C759"/>
<path d="M60.9611 91.4977L50.7609 60.7996L77.9633 78.324C76.7263 80.2442 75.4895 82.1924 74.2541 84.1385L74.2535 84.1394L74.0102 84.5226L74.288 84.8817L78.6632 90.5369L72.7356 95.0954L68.3585 89.4719L68.0166 89.0327L67.5314 89.3053C66.0046 90.1631 64.2342 90.7349 62.8274 91.0929C62.1276 91.2709 61.5255 91.3941 61.0995 91.4726C61.051 91.4816 61.0049 91.4899 60.9611 91.4977Z" stroke="#34C759" stroke-width="1.29348"/>
<path d="M62.0114 12.76C55.6041 12.76 50.3156 18.0485 50.3156 24.4445C50.3156 30.8404 55.6154 36.1289 62.0227 36.1289C68.4186 36.1289 73.6958 30.8404 73.6958 24.4445C73.6958 18.0485 68.4073 12.76 62.0114 12.76ZM62.0114 15.0879C67.1982 15.0879 71.3454 19.2577 71.3454 24.4445C71.3454 29.6313 67.1982 33.7898 62.0227 33.7898C56.8359 33.7898 52.6661 29.6313 52.6548 24.4445C52.6435 19.2577 56.8246 15.0879 62.0114 15.0879ZM62.0227 22.5686C61.4012 22.5686 61.0396 22.9189 61.0283 23.5744L60.8587 29.0098C60.8361 29.6765 61.3334 30.1624 62.034 30.1624C62.7346 30.1624 63.2205 29.6878 63.1979 29.0211L63.0397 23.5744C63.0171 22.9302 62.6555 22.5686 62.0227 22.5686ZM62.0227 18.817C61.2882 18.817 60.6892 19.3481 60.6892 20.0713C60.6892 20.7832 61.2769 21.3143 62.0227 21.3143C62.7572 21.3143 63.3561 20.7832 63.3561 20.0713C63.3561 19.3594 62.7459 18.817 62.0227 18.817Z" fill="#34C759"/>
<g clip-path="url(#clip1_179_1372)">
<path d="M20.6826 54.6875C21.3022 57.3743 23.4525 58.6527 25.9961 58.0662C27.4495 57.731 28.6151 56.8012 29.3446 55.4385L30.779 52.7072C30.9781 52.3134 31.2314 52.1043 31.5728 52.0255L42.0004 49.621C42.3418 49.5423 42.6611 49.6194 43.0125 49.8862L45.4981 51.7136C46.7507 52.6192 48.2058 52.9447 49.6592 52.6095C52.2028 52.023 53.5761 49.932 52.9566 47.2453C52.69 46.0891 52.1346 44.8371 51.37 43.4827C50.1617 41.3608 48.275 38.5603 46.606 36.4519C45.1859 34.6688 44.4423 33.8081 41.8929 33.8162C39.656 33.8217 36.6754 34.1727 33.1408 34.9878C29.6062 35.8029 26.7618 36.7951 24.7484 37.7696C22.4639 38.8763 22.1613 39.9781 21.6655 42.2031C21.0882 44.8295 20.6185 48.1733 20.4614 50.6101C20.3671 52.1626 20.416 53.5314 20.6826 54.6875ZM22.7476 54.1882C22.5928 53.5165 22.5616 52.6771 22.6338 51.4312C22.785 48.7175 23.3056 45.1416 23.8481 42.4652C24.11 41.1871 24.2685 40.4664 25.4968 39.8584C27.4137 38.9177 30.1699 37.9458 33.6385 37.146C37.096 36.3487 40.0105 36.0129 42.1458 36.0192C43.5162 36.0279 43.9523 36.6116 44.7585 37.6433C46.4402 39.8068 48.4302 42.8038 49.7875 45.1696C50.398 46.2581 50.7265 47.0289 50.8814 47.7006C51.2089 49.1211 50.4185 50.2195 49.1192 50.5191C48.3264 50.7019 47.4481 50.4638 46.6529 49.8818L43.8607 47.8816C43.1764 47.3783 42.6674 47.1826 41.7204 47.401L30.8633 49.9046C29.9054 50.1255 29.5335 50.5244 29.1386 51.2764L27.5153 54.2948C27.0553 55.1663 26.3589 55.7675 25.5771 55.9478C24.2668 56.25 23.0752 55.6086 22.7476 54.1882ZM25.9956 45.0895C26.1378 45.7061 26.6121 46.0027 27.2287 45.8605L29.0786 45.4339L29.4925 47.2287C29.6347 47.8453 30.1005 48.1554 30.7061 48.0158C31.3007 47.8787 31.5837 47.3959 31.4415 46.7793L31.0276 44.9844L32.7674 44.5833C33.4391 44.4284 33.7576 43.949 33.6154 43.3324C33.4783 42.7378 32.982 42.4463 32.3103 42.6012L30.5706 43.0024L30.1592 41.2186C30.017 40.602 29.5512 40.2919 28.9566 40.429C28.351 40.5687 28.068 41.0514 28.2102 41.668L28.6216 43.4519L26.7717 43.8784C26.155 44.0206 25.8585 44.4949 25.9956 45.0895ZM41.84 41.3315C42.7649 41.1182 43.3072 40.251 43.0939 39.326C42.8806 38.4011 42.0108 37.8478 41.0859 38.0611C40.183 38.2693 39.6213 39.1527 39.8345 40.0776C40.0478 41.0025 40.9371 41.5397 41.84 41.3315ZM39.3314 45.389C40.2564 45.1757 40.7986 44.3085 40.5878 43.3945C40.3745 42.4696 39.5048 41.9164 38.5798 42.1296C37.6659 42.3404 37.1152 43.2212 37.3285 44.1461C37.5392 45.0601 38.4175 45.5997 39.3314 45.389Z" fill="#34C759"/>
</g>
<g clip-path="url(#clip2_179_1372)">
<path d="M41.9341 61.1022L42.1679 60.3156C42.2865 59.9173 42.1188 59.5377 41.7338 59.4123L41.467 59.3198C41.1226 59.2076 40.7569 59.4359 40.6349 59.8107L40.3707 60.5874L41.9341 61.1022ZM37.6176 72.2905L38.7004 71.0129L41.6898 61.835L40.1332 61.3336L37.1472 70.5182L37.2191 72.1551C37.2305 72.3437 37.4939 72.4295 37.6176 72.2905ZM37.3576 78.094L45.1804 74.1152C46.4696 73.4595 46.8459 72.3215 46.115 70.8845L42.5085 63.7936L41.8452 65.8129L44.7106 71.4467C45.0385 72.0913 44.8599 72.5878 44.41 72.8166L36.7618 76.7066C36.144 77.0208 35.6444 76.8693 35.3165 76.2247L31.5221 68.7645C31.1943 68.1198 31.3661 67.6268 31.9839 67.3125L37.6848 64.413L38.338 62.3904L31.2135 66.014C29.7631 66.7517 29.3868 67.8897 30.1177 69.3266L34.035 77.0286C34.7659 78.4656 35.9072 78.8317 37.3576 78.094Z" fill="#34C759"/>
</g>
<path d="M79.7298 18.1792C78.6474 21.7727 80.599 26.234 84.3824 30.678C84.5926 30.9249 84.8617 31.1896 85.0805 31.2555C85.2993 31.3214 85.6698 31.2494 85.9813 31.1596C91.5982 29.5469 95.6806 26.903 96.763 23.3095C97.6983 20.2041 96.2012 17.4034 93.4493 16.5745C91.8419 16.0904 90.3675 16.4449 89.2755 17.3276C88.8669 16.0021 87.8277 14.8813 86.2203 14.3972C83.4599 13.5658 80.6651 15.0738 79.7298 18.1792ZM81.4659 18.6929C82.1047 16.5722 83.9351 15.5539 85.8118 16.1191C87.3266 16.5754 87.9003 17.7487 88.1897 18.7079C88.3214 19.1239 88.4483 19.2815 88.6671 19.3474C88.8944 19.4158 89.0729 19.3411 89.4183 19.078C90.2263 18.4677 91.324 17.7794 92.8304 18.2331C94.7155 18.8009 95.6791 20.6607 95.0403 22.7815C94.1481 25.7438 90.0794 28.0982 85.8183 29.3849C85.7273 29.4125 85.6667 29.431 85.633 29.4209C85.5994 29.4107 85.559 29.3619 85.5069 29.2911C82.6652 25.865 80.5737 21.6552 81.4659 18.6929ZM88.8838 21.3402C89.0055 20.9363 88.7517 20.5294 88.3562 20.4103C87.9522 20.2886 87.5159 20.4876 87.3943 20.8916L86.5755 23.6098L86.25 24.9345L85.8132 24.0686L85.3889 23.2524C85.3058 23.0713 85.1376 22.9289 84.9609 22.8757C84.5737 22.7591 84.2065 22.9422 84.0924 23.3209C84.0291 23.5313 84.0651 23.7165 84.1844 23.8993L85.8372 26.7011C85.9776 26.9361 86.1231 27.0626 86.3334 27.1259C86.5354 27.1868 86.7265 27.1617 86.9733 27.0433L89.907 25.623C90.1075 25.5365 90.2314 25.3994 90.2947 25.189C90.4088 24.8103 90.2038 24.4548 89.8251 24.3407C89.6399 24.285 89.421 24.3108 89.2601 24.4184L88.4557 24.8645L87.6049 25.3426L88.0651 24.0585L88.8838 21.3402Z" fill="#34C759"/>
<path d="M91.5234 60.4824C91.7168 60.4824 91.875 60.3418 91.9277 60.1309C92.2793 58.1621 92.1914 58.127 94.3535 57.7227C94.5645 57.6699 94.7051 57.5117 94.7051 57.3184C94.7051 57.1074 94.5645 56.9492 94.3535 56.9141C92.1914 56.4922 92.2617 56.4219 91.9277 54.5059C91.875 54.2949 91.7344 54.1367 91.5234 54.1367C91.3125 54.1367 91.1719 54.2949 91.1191 54.5059C90.7148 56.4219 90.8379 56.4922 88.6934 56.9141C88.4824 56.9492 88.3418 57.1074 88.3418 57.3184C88.3418 57.5293 88.4824 57.6699 88.7109 57.7227C90.8379 58.0918 90.7148 58.1621 91.1191 60.1133C91.1719 60.3418 91.3125 60.4824 91.5234 60.4824ZM85.8281 68.6562C86.1094 68.6562 86.3555 68.4277 86.4082 68.1465C86.9531 65.1406 86.7773 65.0527 90.0293 64.543C90.3281 64.4727 90.5391 64.2441 90.5391 63.9453C90.5391 63.6465 90.3281 63.4004 90.0293 63.3477C86.7773 62.8379 86.9531 62.7148 86.4082 59.7793C86.3555 59.4629 86.127 59.2344 85.8281 59.2344C85.5117 59.2344 85.3008 59.4453 85.2305 59.7793C84.668 62.6973 84.8613 62.8027 81.6094 63.3477C81.3105 63.4004 81.0996 63.6465 81.0996 63.9453C81.0996 64.2617 81.3105 64.4727 81.6621 64.543C84.8438 65.0352 84.668 65.1406 85.2305 68.0938C85.3008 68.4277 85.4941 68.6562 85.8281 68.6562ZM93.9492 81.5938C94.3535 81.5938 94.6699 81.2949 94.7402 80.8906C95.8301 74.6152 96.4277 73.7891 102.633 72.9629C103.072 72.9102 103.371 72.5762 103.371 72.1543C103.371 71.75 103.072 71.4336 102.633 71.3633C96.4629 70.5371 95.6719 69.7637 94.7402 63.4531C94.6699 63.0312 94.3535 62.7324 93.9492 62.7324C93.5449 62.7324 93.2285 63.0137 93.1406 63.4355C92.0684 69.7285 91.4531 70.5371 85.248 71.3633C84.8086 71.4336 84.5098 71.75 84.5098 72.1543C84.5098 72.5762 84.8086 72.9102 85.248 72.9629C91.418 73.6836 92.2266 74.5625 93.1406 80.873C93.2109 81.2949 93.5098 81.5938 93.9492 81.5938ZM97.4121 64.666C97.7285 66.459 97.9043 67.1973 98.8008 67.6719C101.086 66.793 103.582 66.3359 106.043 66.3359C113.514 66.3359 119.648 70.8535 119.648 77.7266C119.648 80.8379 117.979 83.7559 115.482 85.918C113.936 83.9492 111.475 82.7363 108.609 82.7363C104.25 82.7363 101.033 85.0215 101.033 88.3789C101.033 88.6074 101.051 88.8359 101.086 89.0469C94.2656 88.8008 88.9746 85.4609 88.9746 79.2734C88.9746 78.3945 89.1328 77.5684 89.3965 76.8125C88.9043 75.9863 87.8848 75.7754 86.3555 75.5293C85.9512 76.6895 85.7402 77.9375 85.7402 79.2559C85.7402 87.4648 92.7539 92.2812 101.754 92.2812C102.387 92.2812 103.037 92.2461 103.67 92.2109C104.443 92.5273 105.357 92.7031 106.377 92.7031C109.014 92.7031 111.633 92 114.006 90.7871C114.006 90.9102 114.023 91.0508 114.023 91.1738C114.023 93.1777 112.846 95.1641 110.912 96.4121C110.297 96.834 109.893 97.3086 109.893 98.0293C109.893 98.8555 110.543 99.5234 111.545 99.5234C111.967 99.5234 112.283 99.4004 112.67 99.1367C115.482 97.3086 117.24 94.25 117.24 91.1387C117.24 90.3477 117.152 89.5918 116.959 88.8887C120.475 86.1113 122.883 82.1035 122.883 77.7266C122.883 69.0605 115.395 63.084 106.025 63.084C103.072 63.084 100.102 63.6465 97.4121 64.666ZM104.285 88.3262C104.285 86.9375 106.271 85.9883 108.82 85.9883C110.49 85.9883 111.896 86.6562 112.828 87.7637C110.842 88.8535 108.592 89.4863 106.377 89.4863C105.182 89.4863 104.285 89.0117 104.285 88.3262Z" fill="#34C759"/>
<path d="M88 116.733C92.9658 116.733 97.0791 112.629 97.0791 107.654C97.0791 102.688 92.9658 98.5752 87.9912 98.5752C83.0254 98.5752 78.9209 102.688 78.9209 107.654C78.9209 112.629 83.0342 116.733 88 116.733ZM80.7139 107.654C80.7139 103.875 83.5439 100.79 87.209 100.403V107.101L82.041 111.855C81.2061 110.678 80.7139 109.228 80.7139 107.654ZM88.7998 107.127V100.403C92.4648 100.808 95.2861 103.884 95.2949 107.654C95.2949 109.228 94.8027 110.687 93.959 111.873L88.7998 107.127ZM87.209 109.333V114.905C85.627 114.738 84.2119 114.07 83.0957 113.06L87.209 109.333ZM88.7998 109.359L92.8955 113.068C91.7881 114.07 90.373 114.729 88.7998 114.905V109.359Z" fill="#34C759"/>
<path d="M34.6538 28.5583H41.346C42.6958 28.5583 43.3926 27.8489 43.3926 26.4929V20.7926C43.3926 19.9136 43.2796 19.5119 42.7334 18.9531L39.4501 15.6196C38.9165 15.0797 38.477 14.9541 37.686 14.9541H34.6538C33.3103 14.9541 32.6072 15.6635 32.6072 17.0258V26.4929C32.6072 27.8489 33.3103 28.5583 34.6538 28.5583ZM34.7605 27.3027C34.1578 27.3027 33.8565 26.9888 33.8565 26.4113V17.1011C33.8565 16.5299 34.1578 16.2097 34.7668 16.2097H37.4286V19.6249C37.4286 20.5352 37.8743 20.9746 38.7784 20.9746H42.1433V26.4113C42.1433 26.9888 41.842 27.3027 41.233 27.3027H34.7605ZM38.8976 19.876C38.634 19.876 38.521 19.763 38.521 19.5056V16.3729L41.9738 19.876H38.8976ZM40.2097 22.6194H35.6771C35.4385 22.6194 35.269 22.7889 35.269 23.0086C35.269 23.2347 35.4385 23.4104 35.6771 23.4104H40.2097C40.4357 23.4104 40.6052 23.2347 40.6052 23.0086C40.6052 22.7889 40.4357 22.6194 40.2097 22.6194ZM40.2097 24.7162H35.6771C35.4385 24.7162 35.269 24.892 35.269 25.118C35.269 25.3378 35.4385 25.5073 35.6771 25.5073H40.2097C40.4357 25.5073 40.6052 25.3378 40.6052 25.118C40.6052 24.892 40.4357 24.7162 40.2097 24.7162Z" fill="#34C759"/>
<path d="M61.356 122.704L69.1707 118.174C70.0145 117.682 70.3861 117.26 70.3861 116.627C70.3861 115.984 70.0145 115.573 69.1707 115.07L67.8047 114.277L69.1707 113.483C70.0145 112.991 70.3861 112.569 70.3861 111.936C70.3861 111.304 70.0145 110.882 69.1707 110.39L67.5535 109.445L69.1707 108.511C70.0145 108.019 70.3861 107.597 70.3861 106.964C70.3861 106.321 70.0145 105.91 69.1707 105.407L61.356 100.877C60.8337 100.576 60.4218 100.425 60 100.425C59.568 100.425 59.1562 100.576 58.6339 100.877L50.8192 105.407C49.9754 105.91 49.6038 106.321 49.6038 106.964C49.6038 107.597 49.9754 108.019 50.8192 108.511L52.4363 109.455L50.8192 110.39C49.9754 110.882 49.6038 111.304 49.6038 111.936C49.6038 112.569 49.9754 112.991 50.8192 113.483L52.1953 114.277L50.8192 115.07C49.9754 115.573 49.6038 115.984 49.6038 116.627C49.6038 117.26 49.9754 117.682 50.8192 118.174L58.6339 122.704C59.1562 123.006 59.568 123.156 60 123.156C60.4218 123.156 60.8337 123.006 61.356 122.704ZM60 111.404C59.8593 111.404 59.7388 111.354 59.5881 111.274L52.1953 107.055C52.1451 107.035 52.125 107.005 52.125 106.964C52.125 106.914 52.1451 106.894 52.1953 106.864L59.5881 102.655C59.7388 102.565 59.8593 102.525 60 102.525C60.1305 102.525 60.2511 102.565 60.4018 102.655L67.8047 106.864C67.8448 106.894 67.875 106.914 67.875 106.964C67.875 107.005 67.8448 107.035 67.8047 107.055L60.4018 111.274C60.2511 111.354 60.1305 111.404 60 111.404ZM60 113.493C60.4218 113.493 60.8337 113.353 61.356 113.041L65.5948 110.59L67.8047 111.836C67.8448 111.866 67.875 111.886 67.875 111.936C67.875 111.987 67.8448 112.007 67.8047 112.037L60.4018 116.246C60.2511 116.336 60.1305 116.376 60 116.376C59.8593 116.376 59.7388 116.336 59.5881 116.246L52.1953 112.037C52.1451 112.007 52.125 111.987 52.125 111.936C52.125 111.886 52.1451 111.866 52.1953 111.836L54.3951 110.58L58.6339 113.041C59.1562 113.353 59.568 113.493 60 113.493Z" fill="#34C759"/>
<path d="M25.0167 96L31.0001 90.0167V94.3333H41.0001V90.0333L46.9667 96L41.0001 101.983V97.6667H31.0001V101.983L25.0167 96ZM22.6667 96L32.6667 106V99.3333H39.3334V106L49.3334 96L39.3334 86V92.6667H32.6667V86L22.6667 96Z" fill="#34C759"/>
<g clip-path="url(#clip3_179_1372)">
<path d="M13.0048 68.3466L14.0231 68.8898L13.484 69.9003C13.1455 70.5348 14.062 71.0238 14.4005 70.3893L14.9396 69.3788L15.9561 69.916C16.5906 70.2545 17.0795 69.338 16.439 69.0014L15.4285 68.4623L15.9718 67.4439C16.3145 66.8016 15.392 66.3145 15.0535 66.949L14.512 67.9733L13.4919 67.4241C12.8574 67.0856 12.3684 68.0021 13.0048 68.3466ZM21.2236 71.3124C21.9264 71.0986 22.3275 70.3466 22.1119 69.6379C21.8981 68.9351 21.1461 68.534 20.4434 68.7477C19.7347 68.9634 19.3335 69.7153 19.5473 70.4181C19.7629 71.1268 20.5149 71.528 21.2236 71.3124ZM10.767 74.4935C11.4697 74.2797 11.8709 73.5277 11.6553 72.819C11.4415 72.1163 10.6895 71.7151 9.98678 71.9289C9.27806 72.1445 8.87688 72.8965 9.09066 73.5992C9.30627 74.3079 10.0583 74.7091 10.767 74.4935ZM16.7908 75.5285C17.4995 75.3129 17.9007 74.5609 17.6869 73.8582C17.4695 73.1435 16.7253 72.7465 16.0106 72.9639C15.3079 73.1777 14.9067 73.9297 15.1223 74.6384C15.3361 75.3411 16.0881 75.7423 16.7908 75.5285ZM10.7564 78.1255L11.7747 78.6687L11.2296 79.6811C10.893 80.3216 11.8095 80.8105 12.1479 80.176L12.6912 79.1577L13.7035 79.7028C14.338 80.0413 14.827 79.1248 14.1906 78.7803L13.1801 78.2412L13.7234 77.2229C14.0619 76.5884 13.1454 76.0994 12.8069 76.7339L12.2636 77.7523L11.2393 77.2108C10.6048 76.8723 10.1159 77.7888 10.7564 78.1255ZM20.3121 75.2184L21.3304 75.7617L20.7932 76.7782C20.4487 77.4145 21.3652 77.9035 21.7037 77.269L22.2488 76.2566L23.2593 76.7957C23.8938 77.1342 24.3827 76.2177 23.7482 75.8792L22.7359 75.3341L23.2791 74.3158C23.6176 73.6813 22.7011 73.1924 22.3626 73.8269L21.8194 74.8452L20.801 74.3019C20.1666 73.9634 19.6716 74.8818 20.3121 75.2184ZM18.5833 81.4205C19.292 81.2049 19.6932 80.4529 19.4776 79.7442C19.2619 79.0355 18.5099 78.6343 17.8012 78.8499C17.0985 79.0637 16.6973 79.8157 16.9129 80.5244C17.1285 81.2331 17.8805 81.6343 18.5833 81.4205Z" fill="#34C759"/>
</g>
<defs>
<filter id="filter0_b_179_1372" x="-174" y="-234" width="554.309" height="554.309" filterUnits="userSpaceOnUse" color-interpolation-filters="sRGB">
<feFlood flood-opacity="0" result="BackgroundImageFix"/>
<feGaussianBlur in="BackgroundImageFix" stdDeviation="128"/>
<feComposite in2="SourceAlpha" operator="in" result="effect1_backgroundBlur_179_1372"/>
<feBlend mode="normal" in="SourceGraphic" in2="effect1_backgroundBlur_179_1372" result="shape"/>
</filter>
<clipPath id="clip0_179_1372">
<rect width="32" height="32" fill="white" transform="translate(95.1235 22) rotate(24.212)"/>
</clipPath>
<clipPath id="clip1_179_1372">
<rect width="36" height="36" fill="white" transform="translate(14 32.0891) rotate(-12.9852)"/>
</clipPath>
<clipPath id="clip2_179_1372">
<rect width="24" height="24" fill="white" transform="translate(22 64.8804) rotate(-26.9585)"/>
</clipPath>
<clipPath id="clip3_179_1372">
<rect width="20" height="20" fill="white" transform="translate(4 67.821) rotate(-16.9208)"/>
</clipPath>
</defs>
</svg>
