<svg width="132" height="132" viewBox="0 0 132 132" fill="none" xmlns="http://www.w3.org/2000/svg">
<rect x="1" y="1" width="130" height="130" rx="30" fill="url(#paint0_linear_160_37)" fill-opacity="0.08" stroke="#34C759" stroke-width="2"/>
<g clip-path="url(#clip0_160_37)" filter="url(#filter0_b_160_37)">
<path d="M100.558 39.2298L98.8112 43.114L97.1073 42.3478C95.2292 41.5033 93.032 42.2995 92.1834 44.1867C91.3348 46.0738 92.1676 48.2876 94.0547 49.1362C95.9236 49.9765 98.1414 49.1346 98.9901 47.2474L99.748 45.5618L103.605 47.2961L102.847 48.9817C101.998 50.8689 102.84 53.0867 104.709 53.9271C106.596 54.7757 108.805 53.9296 109.654 52.0425C110.502 50.1553 109.64 47.9832 107.762 47.1387L106.058 46.3725L107.804 42.4882L109.508 43.2545C111.39 44.0898 113.588 43.2936 114.436 41.4065C115.281 39.5284 114.452 37.3056 112.565 36.457C110.696 35.6166 108.474 36.4677 107.63 38.3457L106.867 40.0405L103.011 38.3062L103.773 36.6114C104.617 34.7334 103.779 32.5064 101.911 31.666C100.023 30.8174 97.8106 31.6727 96.9661 33.5507C96.1175 35.4379 96.98 37.6099 98.8539 38.4635L100.558 39.2298ZM99.6311 36.8086C98.6784 36.3802 98.2549 35.2646 98.6792 34.321C99.0994 33.3866 100.215 32.9631 101.14 33.3792C102.065 33.7952 102.489 34.9108 102.056 35.8727L101.298 37.5583L99.6311 36.8086ZM110.24 41.5789L108.563 40.8251L109.321 39.1394C109.754 38.1775 110.869 37.754 111.795 38.1701C112.729 38.5903 113.143 39.7017 112.723 40.6361C112.299 41.5797 111.183 42.0032 110.24 41.5789ZM100.511 43.8894L102.27 39.9777L106.118 41.7078L104.359 45.6196L100.511 43.8894ZM96.3891 44.0183L98.0564 44.7681L97.2985 46.4537C96.87 47.4065 95.7545 47.83 94.8292 47.4139C93.9039 46.9978 93.4763 45.8914 93.9006 44.9478C94.3208 44.0134 95.4364 43.5899 96.3891 44.0183ZM106.998 48.7887C107.941 49.213 108.365 50.3285 107.945 51.263C107.52 52.2065 106.418 52.625 105.484 52.2048C104.558 51.7887 104.135 50.6732 104.563 49.7204L105.321 48.0348L106.998 48.7887Z" fill="#34C759"/>
</g>
<path d="M76.4903 49.9093C76.8576 50.0658 77.2544 49.9204 77.4332 49.5496C78.1884 48.0297 78.4701 46.1105 78.1778 44.2271C77.8844 42.3362 77.0408 40.5841 75.8542 39.3731C75.5715 39.0739 75.1493 39.0555 74.8478 39.3234C74.5314 39.5936 74.5475 40.0409 74.8681 40.3876C75.8437 41.4178 76.5334 42.866 76.7783 44.4443C77.022 46.015 76.7875 47.599 76.186 48.8816C75.993 49.308 76.1058 49.7403 76.4903 49.9093ZM67.6629 49.4722C69.457 49.1938 70.6701 47.3818 70.3686 45.4388C70.0706 43.5181 68.3822 42.2172 66.5806 42.4968C64.7865 42.7751 63.5602 44.5511 63.8559 46.4569C64.1649 48.3987 65.8614 49.7517 67.6629 49.4722ZM73.2116 48.3825C73.5554 48.535 73.9533 48.3971 74.1344 48.0411C74.6052 47.1447 74.787 45.9578 74.6045 44.7815C74.4209 43.5979 73.8891 42.5292 73.1677 41.8102C72.8872 41.5259 72.4662 41.515 72.187 41.7794C71.8581 42.0667 71.8592 42.5164 72.2068 42.8893C72.7138 43.4053 73.0681 44.1661 73.1975 44.9998C73.3257 45.8262 73.2099 46.6522 72.8929 47.3113C72.6821 47.7709 72.8087 48.1935 73.2116 48.3825ZM67.4643 48.1917C66.4295 48.3523 65.406 47.5048 65.2108 46.2467C65.0139 45.0269 65.7382 43.9464 66.7805 43.7847C67.8227 43.6229 68.8306 44.4195 69.0212 45.6478C69.2153 46.8985 68.5065 48.03 67.4643 48.1917ZM64.1057 57.2056L73.3889 55.7652C74.6693 55.5665 75.2248 55.0687 75.0897 54.1977C74.7732 52.1579 71.8021 49.8134 67.8045 50.4337C63.8143 51.0528 61.6859 54.1885 62.0024 56.2283C62.1375 57.0993 62.8178 57.4054 64.1057 57.2056ZM63.6602 55.9558C63.4815 55.9835 63.4064 55.9418 63.3845 55.8004C63.2078 54.6614 64.7213 52.2309 68.0043 51.7215C71.2947 51.211 73.4736 53.0685 73.6503 54.2075C73.6723 54.349 73.6134 54.4115 73.4347 54.4392L63.6602 55.9558Z" fill="#34C759"/>
<path d="M60.9611 91.4977L50.7609 60.7996L77.9633 78.324C76.7261 80.2444 75.4892 82.1928 74.2537 84.1391L74.2535 84.1394L74.0102 84.5226L74.288 84.8817L78.6632 90.5369L72.7356 95.0954L68.3585 89.4719L68.0166 89.0327L67.5314 89.3053C66.0046 90.1631 64.2342 90.7349 62.8274 91.0929C62.1276 91.2709 61.5255 91.3941 61.0995 91.4726C61.051 91.4816 61.0049 91.4899 60.9611 91.4977Z" stroke="#34C759" stroke-width="1.29348"/>
<path d="M62.0113 12.76C55.6041 12.76 50.3156 18.0485 50.3156 24.4445C50.3156 30.8404 55.6154 36.1289 62.0226 36.1289C68.4185 36.1289 73.6957 30.8404 73.6957 24.4445C73.6957 18.0485 68.4072 12.76 62.0113 12.76ZM62.0113 15.0879C67.1981 15.0879 71.3453 19.2577 71.3453 24.4445C71.3453 29.6313 67.1981 33.7898 62.0226 33.7898C56.8358 33.7898 52.666 29.6313 52.6547 24.4445C52.6434 19.2577 56.8245 15.0879 62.0113 15.0879ZM62.0226 22.5686C61.4011 22.5686 61.0395 22.9189 61.0282 23.5744L60.8587 29.0098C60.8361 29.6765 61.3333 30.1624 62.0339 30.1624C62.7345 30.1624 63.2204 29.6878 63.1978 29.0211L63.0396 23.5744C63.017 22.9302 62.6554 22.5686 62.0226 22.5686ZM62.0226 18.817C61.2881 18.817 60.6892 19.3481 60.6892 20.0713C60.6892 20.7832 61.2768 21.3143 62.0226 21.3143C62.7571 21.3143 63.356 20.7832 63.356 20.0713C63.356 19.3594 62.7458 18.817 62.0226 18.817Z" fill="#34C759"/>
<g clip-path="url(#clip1_160_37)">
<path d="M20.6826 54.6875C21.3022 57.3743 23.4525 58.6527 25.9961 58.0662C27.4495 57.731 28.6151 56.8012 29.3446 55.4385L30.779 52.7072C30.9781 52.3134 31.2314 52.1043 31.5728 52.0255L42.0004 49.621C42.3418 49.5423 42.6611 49.6194 43.0125 49.8862L45.4981 51.7136C46.7507 52.6192 48.2058 52.9447 49.6592 52.6095C52.2028 52.023 53.5761 49.932 52.9566 47.2453C52.69 46.0891 52.1346 44.8371 51.37 43.4827C50.1617 41.3608 48.275 38.5603 46.606 36.4519C45.1859 34.6688 44.4423 33.8081 41.8929 33.8162C39.656 33.8217 36.6754 34.1727 33.1408 34.9878C29.6062 35.8029 26.7618 36.7951 24.7484 37.7696C22.4639 38.8763 22.1613 39.9781 21.6655 42.2031C21.0882 44.8295 20.6185 48.1733 20.4614 50.6101C20.3671 52.1626 20.416 53.5314 20.6826 54.6875ZM22.7476 54.1882C22.5928 53.5165 22.5616 52.6771 22.6338 51.4312C22.785 48.7175 23.3056 45.1416 23.8481 42.4652C24.11 41.1871 24.2685 40.4664 25.4968 39.8584C27.4137 38.9177 30.1699 37.9458 33.6385 37.146C37.096 36.3487 40.0105 36.0129 42.1458 36.0192C43.5162 36.0279 43.9523 36.6116 44.7585 37.6433C46.4402 39.8068 48.4302 42.8038 49.7875 45.1696C50.398 46.2581 50.7265 47.0289 50.8814 47.7006C51.2089 49.1211 50.4185 50.2195 49.1192 50.5191C48.3264 50.7019 47.4481 50.4638 46.6529 49.8818L43.8607 47.8816C43.1764 47.3783 42.6674 47.1826 41.7204 47.401L30.8633 49.9046C29.9054 50.1255 29.5335 50.5244 29.1386 51.2764L27.5153 54.2948C27.0553 55.1663 26.3589 55.7675 25.5771 55.9478C24.2668 56.25 23.0752 55.6086 22.7476 54.1882ZM25.9956 45.0895C26.1378 45.7061 26.6121 46.0027 27.2287 45.8605L29.0786 45.4339L29.4925 47.2287C29.6347 47.8453 30.1005 48.1554 30.7061 48.0158C31.3007 47.8787 31.5837 47.3959 31.4415 46.7793L31.0276 44.9844L32.7674 44.5833C33.4391 44.4284 33.7576 43.949 33.6154 43.3324C33.4783 42.7378 32.982 42.4463 32.3103 42.6012L30.5706 43.0024L30.1592 41.2186C30.017 40.602 29.5512 40.2919 28.9566 40.429C28.351 40.5687 28.068 41.0514 28.2102 41.668L28.6216 43.4519L26.7717 43.8784C26.155 44.0206 25.8585 44.4949 25.9956 45.0895ZM41.84 41.3315C42.765 41.1182 43.3072 40.251 43.0939 39.326C42.8806 38.4011 42.0108 37.8478 41.0859 38.0611C40.183 38.2693 39.6213 39.1527 39.8345 40.0776C40.0478 41.0025 40.9371 41.5397 41.84 41.3315ZM39.3314 45.389C40.2564 45.1757 40.7986 44.3085 40.5878 43.3945C40.3745 42.4696 39.5048 41.9164 38.5798 42.1296C37.6659 42.3404 37.1152 43.2212 37.3285 44.1461C37.5392 45.0601 38.4175 45.5997 39.3314 45.389Z" fill="#34C759"/>
</g>
<g clip-path="url(#clip2_160_37)">
<path d="M41.9341 61.1021L42.1679 60.3155C42.2864 59.9171 42.1187 59.5375 41.7338 59.4121L41.467 59.3196C41.1226 59.2075 40.7569 59.4357 40.6348 59.8105L40.3706 60.5872L41.9341 61.1021ZM37.6175 72.2904L38.7003 71.0128L41.6898 61.8349L40.1331 61.3334L37.1471 70.5181L37.219 72.155C37.2304 72.3436 37.4938 72.4294 37.6175 72.2904ZM37.3575 78.0938L45.1803 74.1151C46.4696 73.4593 46.8458 72.3213 46.115 70.8844L42.5084 63.7935L41.8451 65.8128L44.7105 71.4465C45.0384 72.0912 44.8599 72.5877 44.41 72.8165L36.7617 76.7065C36.144 77.0207 35.6443 76.8691 35.3164 76.2245L31.5221 68.7643C31.1942 68.1197 31.366 67.6266 31.9838 67.3124L37.6847 64.4128L38.3379 62.3902L31.2134 66.0138C29.763 66.7515 29.3868 67.8895 30.1176 69.3265L34.0349 77.0284C34.7658 78.4654 35.9071 78.8315 37.3575 78.0938Z" fill="#34C759"/>
</g>
<path d="M79.7297 18.1792C78.6474 21.7727 80.5989 26.234 84.3823 30.6781C84.5925 30.9249 84.8616 31.1896 85.0804 31.2555C85.2992 31.3214 85.6697 31.2494 85.9813 31.1597C91.5981 29.547 95.6806 26.903 96.7629 23.3095C97.6982 20.2042 96.2011 17.4034 93.4492 16.5745C91.8418 16.0904 90.3674 16.4449 89.2754 17.3276C88.8669 16.0021 87.8276 14.8813 86.2202 14.3972C83.4599 13.5658 80.665 15.0738 79.7297 18.1792ZM81.4658 18.693C82.1046 16.5722 83.935 15.5539 85.8117 16.1192C87.3265 16.5754 87.9002 17.7487 88.1896 18.7079C88.3213 19.1239 88.4483 19.2815 88.6671 19.3474C88.8943 19.4158 89.0728 19.3411 89.4183 19.078C90.2263 18.4677 91.3239 17.7794 92.8303 18.2331C94.7154 18.8009 95.679 20.6608 95.0402 22.7815C94.148 25.7438 90.0794 28.0982 85.8182 29.3849C85.7273 29.4126 85.6666 29.431 85.633 29.4209C85.5993 29.4107 85.559 29.3619 85.5069 29.2911C82.6652 25.8651 80.5736 21.6553 81.4658 18.693ZM88.8838 21.3402C89.0054 20.9363 88.7516 20.5294 88.3561 20.4103C87.9522 20.2886 87.5159 20.4876 87.3942 20.8916L86.5755 23.6098L86.2499 24.9345L85.8131 24.0687L85.3889 23.2524C85.3057 23.0714 85.1375 22.9289 84.9608 22.8757C84.5737 22.7591 84.2064 22.9422 84.0924 23.3209C84.029 23.5313 84.065 23.7165 84.1843 23.8993L85.8372 26.7011C85.9775 26.9361 86.123 27.0626 86.3334 27.1259C86.5354 27.1868 86.7265 27.1617 86.9733 27.0433L89.907 25.623C90.1074 25.5365 90.2313 25.3994 90.2947 25.189C90.4087 24.8103 90.2037 24.4548 89.825 24.3408C89.6399 24.285 89.421 24.3108 89.2601 24.4184L88.4556 24.8646L87.6048 25.3426L88.065 24.0585L88.8838 21.3402Z" fill="#34C759"/>
<path d="M91.5234 60.4824C91.7168 60.4824 91.875 60.3418 91.9277 60.1309C92.2793 58.1621 92.1914 58.127 94.3535 57.7227C94.5645 57.6699 94.7051 57.5117 94.7051 57.3184C94.7051 57.1074 94.5645 56.9492 94.3535 56.9141C92.1914 56.4922 92.2617 56.4219 91.9277 54.5059C91.875 54.2949 91.7344 54.1367 91.5234 54.1367C91.3125 54.1367 91.1719 54.2949 91.1191 54.5059C90.7148 56.4219 90.8379 56.4922 88.6934 56.9141C88.4824 56.9492 88.3418 57.1074 88.3418 57.3184C88.3418 57.5293 88.4824 57.6699 88.7109 57.7227C90.8379 58.0918 90.7148 58.1621 91.1191 60.1133C91.1719 60.3418 91.3125 60.4824 91.5234 60.4824ZM85.8281 68.6562C86.1094 68.6562 86.3555 68.4277 86.4082 68.1465C86.9531 65.1406 86.7773 65.0527 90.0293 64.543C90.3281 64.4727 90.5391 64.2441 90.5391 63.9453C90.5391 63.6465 90.3281 63.4004 90.0293 63.3477C86.7773 62.8379 86.9531 62.7148 86.4082 59.7793C86.3555 59.4629 86.127 59.2344 85.8281 59.2344C85.5117 59.2344 85.3008 59.4453 85.2305 59.7793C84.668 62.6973 84.8613 62.8027 81.6094 63.3477C81.3105 63.4004 81.0996 63.6465 81.0996 63.9453C81.0996 64.2617 81.3105 64.4727 81.6621 64.543C84.8438 65.0352 84.668 65.1406 85.2305 68.0938C85.3008 68.4277 85.4941 68.6562 85.8281 68.6562ZM93.9492 81.5938C94.3535 81.5938 94.6699 81.2949 94.7402 80.8906C95.8301 74.6152 96.4277 73.7891 102.633 72.9629C103.072 72.9102 103.371 72.5762 103.371 72.1543C103.371 71.75 103.072 71.4336 102.633 71.3633C96.4629 70.5371 95.6719 69.7637 94.7402 63.4531C94.6699 63.0312 94.3535 62.7324 93.9492 62.7324C93.5449 62.7324 93.2285 63.0137 93.1406 63.4355C92.0684 69.7285 91.4531 70.5371 85.248 71.3633C84.8086 71.4336 84.5098 71.75 84.5098 72.1543C84.5098 72.5762 84.8086 72.9102 85.248 72.9629C91.418 73.6836 92.2266 74.5625 93.1406 80.873C93.2109 81.2949 93.5098 81.5938 93.9492 81.5938ZM97.4121 64.666C97.7285 66.459 97.9043 67.1973 98.8008 67.6719C101.086 66.793 103.582 66.3359 106.043 66.3359C113.514 66.3359 119.648 70.8535 119.648 77.7266C119.648 80.8379 117.979 83.7559 115.482 85.918C113.936 83.9492 111.475 82.7363 108.609 82.7363C104.25 82.7363 101.033 85.0215 101.033 88.3789C101.033 88.6074 101.051 88.8359 101.086 89.0469C94.2656 88.8008 88.9746 85.4609 88.9746 79.2734C88.9746 78.3945 89.1328 77.5684 89.3965 76.8125C88.9043 75.9863 87.8848 75.7754 86.3555 75.5293C85.9512 76.6895 85.7402 77.9375 85.7402 79.2559C85.7402 87.4648 92.7539 92.2812 101.754 92.2812C102.387 92.2812 103.037 92.2461 103.67 92.2109C104.443 92.5273 105.357 92.7031 106.377 92.7031C109.014 92.7031 111.633 92 114.006 90.7871C114.006 90.9102 114.023 91.0508 114.023 91.1738C114.023 93.1777 112.846 95.1641 110.912 96.4121C110.297 96.834 109.893 97.3086 109.893 98.0293C109.893 98.8555 110.543 99.5234 111.545 99.5234C111.967 99.5234 112.283 99.4004 112.67 99.1367C115.482 97.3086 117.24 94.25 117.24 91.1387C117.24 90.3477 117.152 89.5918 116.959 88.8887C120.475 86.1113 122.883 82.1035 122.883 77.7266C122.883 69.0605 115.395 63.084 106.025 63.084C103.072 63.084 100.102 63.6465 97.4121 64.666ZM104.285 88.3262C104.285 86.9375 106.271 85.9883 108.82 85.9883C110.49 85.9883 111.896 86.6562 112.828 87.7637C110.842 88.8535 108.592 89.4863 106.377 89.4863C105.182 89.4863 104.285 89.0117 104.285 88.3262Z" fill="#34C759"/>
<path d="M88 116.733C92.9658 116.733 97.0791 112.629 97.0791 107.654C97.0791 102.688 92.9658 98.5752 87.9912 98.5752C83.0254 98.5752 78.9209 102.688 78.9209 107.654C78.9209 112.629 83.0342 116.733 88 116.733ZM80.7139 107.654C80.7139 103.875 83.5439 100.79 87.209 100.403V107.101L82.041 111.855C81.2061 110.678 80.7139 109.228 80.7139 107.654ZM88.7998 107.127V100.403C92.4648 100.808 95.2861 103.884 95.2949 107.654C95.2949 109.228 94.8027 110.687 93.959 111.873L88.7998 107.127ZM87.209 109.333V114.905C85.627 114.738 84.2119 114.07 83.0957 113.06L87.209 109.333ZM88.7998 109.359L92.8955 113.068C91.7881 114.07 90.373 114.729 88.7998 114.905V109.359Z" fill="#34C759"/>
<path d="M34.6539 28.5583H41.3461C42.6959 28.5583 43.3927 27.8489 43.3927 26.4929V20.7926C43.3927 19.9136 43.2797 19.5119 42.7336 18.9531L39.4502 15.6196C38.9166 15.0797 38.4771 14.9541 37.6861 14.9541H34.6539C33.3104 14.9541 32.6073 15.6635 32.6073 17.0258V26.4929C32.6073 27.8489 33.3104 28.5583 34.6539 28.5583ZM34.7606 27.3027C34.1579 27.3027 33.8566 26.9888 33.8566 26.4113V17.1011C33.8566 16.5299 34.1579 16.2097 34.7669 16.2097H37.4287V19.6249C37.4287 20.5352 37.8745 20.9746 38.7785 20.9746H42.1434V26.4113C42.1434 26.9888 41.8421 27.3027 41.2331 27.3027H34.7606ZM38.8978 19.876C38.6341 19.876 38.5211 19.763 38.5211 19.5056V16.3729L41.9739 19.876H38.8978ZM40.2098 22.6194H35.6772C35.4386 22.6194 35.2691 22.7889 35.2691 23.0086C35.2691 23.2347 35.4386 23.4104 35.6772 23.4104H40.2098C40.4358 23.4104 40.6053 23.2347 40.6053 23.0086C40.6053 22.7889 40.4358 22.6194 40.2098 22.6194ZM40.2098 24.7162H35.6772C35.4386 24.7162 35.2691 24.892 35.2691 25.118C35.2691 25.3378 35.4386 25.5073 35.6772 25.5073H40.2098C40.4358 25.5073 40.6053 25.3378 40.6053 25.118C40.6053 24.892 40.4358 24.7162 40.2098 24.7162Z" fill="#34C759"/>
<path d="M61.3561 122.704L69.1708 118.174C70.0145 117.682 70.3862 117.26 70.3862 116.627C70.3862 115.984 70.0145 115.573 69.1708 115.07L67.8047 114.277L69.1708 113.483C70.0145 112.991 70.3862 112.569 70.3862 111.936C70.3862 111.304 70.0145 110.882 69.1708 110.39L67.5536 109.445L69.1708 108.511C70.0145 108.019 70.3862 107.597 70.3862 106.964C70.3862 106.321 70.0145 105.91 69.1708 105.407L61.3561 100.877C60.8337 100.576 60.4219 100.425 60 100.425C59.5681 100.425 59.1563 100.576 58.634 100.877L50.8192 105.407C49.9755 105.91 49.6038 106.321 49.6038 106.964C49.6038 107.597 49.9755 108.019 50.8192 108.511L52.4364 109.455L50.8192 110.39C49.9755 110.882 49.6038 111.304 49.6038 111.936C49.6038 112.569 49.9755 112.991 50.8192 113.483L52.1953 114.277L50.8192 115.07C49.9755 115.573 49.6038 115.984 49.6038 116.627C49.6038 117.26 49.9755 117.682 50.8192 118.174L58.634 122.704C59.1563 123.006 59.5681 123.156 60 123.156C60.4219 123.156 60.8337 123.006 61.3561 122.704ZM60 111.404C59.8594 111.404 59.7389 111.354 59.5882 111.273L52.1953 107.055C52.1451 107.035 52.125 107.004 52.125 106.964C52.125 106.914 52.1451 106.894 52.1953 106.864L59.5882 102.655C59.7389 102.565 59.8594 102.525 60 102.525C60.1306 102.525 60.2511 102.565 60.4018 102.655L67.8047 106.864C67.8449 106.894 67.875 106.914 67.875 106.964C67.875 107.004 67.8449 107.035 67.8047 107.055L60.4018 111.273C60.2511 111.354 60.1306 111.404 60 111.404ZM60 113.493C60.4219 113.493 60.8337 113.353 61.3561 113.041L65.5949 110.59L67.8047 111.836C67.8449 111.866 67.875 111.886 67.875 111.936C67.875 111.987 67.8449 112.007 67.8047 112.037L60.4018 116.246C60.2511 116.336 60.1306 116.376 60 116.376C59.8594 116.376 59.7389 116.336 59.5882 116.246L52.1953 112.037C52.1451 112.007 52.125 111.987 52.125 111.936C52.125 111.886 52.1451 111.866 52.1953 111.836L54.3951 110.58L58.634 113.041C59.1563 113.353 59.5681 113.493 60 113.493Z" fill="#34C759"/>
<path d="M25.0167 96L31 90.0167V94.3333H41V90.0333L46.9667 96L41 101.983V97.6667H31V101.983L25.0167 96ZM22.6667 96L32.6667 106V99.3333H39.3334V106L49.3334 96L39.3334 86V92.6667H32.6667V86L22.6667 96Z" fill="#34C759"/>
<g clip-path="url(#clip3_160_37)">
<path d="M13.0047 68.3466L14.023 68.8898L13.484 69.9003C13.1455 70.5348 14.062 71.0237 14.4005 70.3892L14.9395 69.3788L15.956 69.916C16.5905 70.2545 17.0795 69.338 16.439 69.0013L15.4285 68.4623L15.9717 67.4439C16.3144 66.8016 15.3919 66.3145 15.0534 66.949L14.512 67.9733L13.4918 67.4241C12.8573 67.0856 12.3684 68.0021 13.0047 68.3466ZM21.2236 71.3123C21.9263 71.0986 22.3275 70.3466 22.1119 69.6378C21.8981 68.9351 21.1461 68.5339 20.4434 68.7477C19.7346 68.9633 19.3335 69.7153 19.5473 70.418C19.7629 71.1268 20.5149 71.5279 21.2236 71.3123ZM10.7669 74.4935C11.4696 74.2797 11.8708 73.5277 11.6552 72.819C11.4414 72.1163 10.6894 71.7151 9.98672 71.9289C9.278 72.1445 8.87682 72.8965 9.0906 73.5992C9.30621 74.3079 10.0582 74.7091 10.7669 74.4935ZM16.7907 75.5285C17.4995 75.3129 17.9006 74.5609 17.6868 73.8582C17.4694 73.1434 16.7252 72.7464 16.0105 72.9639C15.3078 73.1777 14.9066 73.9297 15.1222 74.6384C15.336 75.3411 16.088 75.7423 16.7907 75.5285ZM10.7563 78.1255L11.7746 78.6687L11.2296 79.6811C10.8929 80.3216 11.8094 80.8105 12.1479 80.176L12.6911 79.1577L13.7035 79.7028C14.338 80.0413 14.8269 79.1248 14.1906 78.7803L13.1801 78.2412L13.7233 77.2228C14.0618 76.5883 13.1453 76.0994 12.8068 76.7339L12.2636 77.7522L11.2392 77.2108C10.6048 76.8723 10.1158 77.7888 10.7563 78.1255ZM20.3121 75.2184L21.3304 75.7617L20.7931 76.7782C20.4486 77.4145 21.3651 77.9034 21.7036 77.2689L22.2487 76.2566L23.2592 76.7957C23.8937 77.1342 24.3826 76.2177 23.7481 75.8792L22.7358 75.3341L23.2791 74.3158C23.6176 73.6813 22.7011 73.1924 22.3626 73.8269L21.8193 74.8452L20.801 74.3019C20.1665 73.9634 19.6715 74.8818 20.3121 75.2184ZM18.5832 81.4205C19.2919 81.2049 19.6931 80.4529 19.4775 79.7442C19.2619 79.0354 18.5099 78.6343 17.8012 78.8499C17.0984 79.0637 16.6973 79.8157 16.9129 80.5244C17.1285 81.2331 17.8805 81.6343 18.5832 81.4205Z" fill="#34C759"/>
</g>
<defs>
<filter id="filter0_b_160_37" x="-174" y="-234" width="554.309" height="554.309" filterUnits="userSpaceOnUse" color-interpolation-filters="sRGB">
<feFlood flood-opacity="0" result="BackgroundImageFix"/>
<feGaussianBlur in="BackgroundImageFix" stdDeviation="128"/>
<feComposite in2="SourceAlpha" operator="in" result="effect1_backgroundBlur_160_37"/>
<feBlend mode="normal" in="SourceGraphic" in2="effect1_backgroundBlur_160_37" result="shape"/>
</filter>
<linearGradient id="paint0_linear_160_37" x1="130" y1="66" x2="2" y2="66" gradientUnits="userSpaceOnUse">
<stop stop-color="#55A134"/>
<stop offset="0.5" stop-color="#279D46"/>
<stop offset="1" stop-color="#299966"/>
</linearGradient>
<clipPath id="clip0_160_37">
<rect width="32" height="32" fill="white" transform="translate(95.1237 22) rotate(24.212)"/>
</clipPath>
<clipPath id="clip1_160_37">
<rect width="36" height="36" fill="white" transform="translate(14 32.0892) rotate(-12.9852)"/>
</clipPath>
<clipPath id="clip2_160_37">
<rect width="24" height="24" fill="white" transform="translate(22 64.8803) rotate(-26.9585)"/>
</clipPath>
<clipPath id="clip3_160_37">
<rect width="20" height="20" fill="white" transform="translate(4 67.821) rotate(-16.9208)"/>
</clipPath>
</defs>
</svg>
