<svg width="36" height="36" viewBox="0 0 36 36" fill="none" xmlns="http://www.w3.org/2000/svg">
<rect width="36" height="36" rx="18" fill="#F2F2F7"/>
<path d="M6.3675 24.75V13.5H8.415L8.64 15.525C8.94 14.79 9.3825 14.235 9.9675 13.86C10.5675 13.47 11.3025 13.275 12.1725 13.275C12.3975 13.275 12.6225 13.2975 12.8475 13.3425C13.0725 13.3725 13.26 13.425 13.41 13.5L13.0725 15.615C12.9075 15.555 12.72 15.51 12.51 15.48C12.315 15.435 12.045 15.4125 11.7 15.4125C11.235 15.4125 10.7775 15.54 10.3275 15.795C9.8775 16.035 9.5025 16.4025 9.2025 16.8975C8.9175 17.3925 8.775 18.0225 8.775 18.7875V24.75H6.3675ZM25.8539 13.5L20.8364 18.63L20.3189 18.99L16.7864 22.6575L16.7639 19.9125L22.9964 13.5H25.8539ZM17.6414 8.4375V24.75H15.2339V8.4375H17.6414ZM21.1289 17.28L26.1239 24.75H23.3339L19.3289 18.6525L21.1289 17.28ZM29.2045 21.7125C29.7145 21.7125 30.1195 21.8625 30.4195 22.1625C30.7345 22.4475 30.892 22.8375 30.892 23.3325C30.892 23.8275 30.7345 24.225 30.4195 24.525C30.1195 24.825 29.7145 24.975 29.2045 24.975C28.6795 24.975 28.2595 24.825 27.9445 24.525C27.6445 24.225 27.4945 23.8275 27.4945 23.3325C27.4945 22.8375 27.6445 22.4475 27.9445 22.1625C28.2595 21.8625 28.6795 21.7125 29.2045 21.7125Z" fill="black"/>
</svg>
