<svg width="36" height="36" viewBox="0 0 36 36" fill="none" xmlns="http://www.w3.org/2000/svg">
<path d="M17.7462 5.94847L6.5705 14.2088C6.26083 14.4377 6.38815 14.9272 6.77009 14.9762L8.89232 15.2486C9.11016 15.2765 9.27133 15.4651 9.26506 15.6846L8.93263 27.3212C8.92576 27.5619 9.11899 27.7607 9.35976 27.7607H14.8447C15.1553 27.7607 15.3675 27.4407 15.2521 27.1523C14.5533 25.4045 12.8086 20.4068 15.0921 19.0367C16.7615 18.0351 19.2388 18.0351 20.9081 19.0367C23.1917 20.4068 21.447 25.4045 20.7481 27.1523C20.6328 27.4407 20.845 27.7607 21.1556 27.7607H26.6406C26.8814 27.7607 27.0746 27.5619 27.0678 27.3212L26.7352 15.6846C26.729 15.4651 26.8901 15.2765 27.108 15.2486L29.2303 14.9762C29.6122 14.9272 29.7396 14.4377 29.4299 14.2088L18.2542 5.94847C18.1032 5.8369 17.8972 5.8369 17.7462 5.94847Z" fill="black" stroke="black" stroke-width="1.60237"/>
</svg>
