<svg width="36" height="36" viewBox="0 0 36 36" fill="none" xmlns="http://www.w3.org/2000/svg">
<path d="M17.7209 4.87896L5.43976 13.9563C5.09946 14.2079 5.23937 14.7458 5.65909 14.7997L7.99124 15.099C8.23062 15.1297 8.40773 15.3369 8.40084 15.5781L8.03554 28.3658C8.02798 28.6303 8.24032 28.8488 8.50491 28.8488H14.5324C14.8737 28.8488 15.1069 28.497 14.9801 28.1801C14.2121 26.2595 12.2949 20.7675 14.8043 19.2618C16.6388 18.1611 19.3611 18.1611 21.1956 19.2618C23.705 20.7675 21.7878 26.2595 21.0197 28.1801C20.893 28.497 21.1262 28.8488 21.4675 28.8488H27.4951C27.7597 28.8488 27.972 28.6303 27.9645 28.3658L27.599 15.5781C27.5921 15.3369 27.7693 15.1297 28.0086 15.099L30.3409 14.7997C30.7606 14.7458 30.9005 14.2078 30.5602 13.9563L18.2791 4.87896C18.1132 4.75636 17.8868 4.75636 17.7209 4.87896Z" fill="white" stroke="white" stroke-width="1.76087"/>
</svg>
